<?xml version="1.0" encoding="utf-8"?>
<!-- Generator: Adobe Illustrator 24.0.2, SVG Export Plug-In . SVG Version: 6.00 Build 0)  -->
<svg version="1.1" id="Layer_1" xmlns="http://www.w3.org/2000/svg" xmlns:xlink="http://www.w3.org/1999/xlink" x="0px" y="0px"
	 viewBox="0 0 536.9 631.3" style="enable-background:new 0 0 536.9 631.3;" xml:space="preserve">
<style type="text/css">
	.st0{clip-path:url(#SVGID_2_);}
	.st1{fill:#8E5039;}
	.st2{clip-path:url(#SVGID_4_);}
	.st3{clip-path:url(#SVGID_6_);}
</style>
<title>wheat-rust</title>
<g>
	<defs>
		
			<rect id="SVGID_1_" x="0" y="335.5" transform="matrix(0.9226 -0.3859 0.3859 0.9226 -149.2006 143.3552)" width="565.1" height="215.8"/>
	</defs>
	<clipPath id="SVGID_2_">
		<use xlink:href="#SVGID_1_"  style="overflow:visible;"/>
	</clipPath>
	<g class="st0">
		<path class="st1" d="M308.3,454.5c1.8,0.9,3.7,1.6,5.6,2.2c5.3,1.2,10.7,1.9,16.1,2.2c3.6,0.1,7.2,0.8,10.8,1.1
			c2.8,0.3,5.8,0,8.6,0.4l15,1.6c0.8,0,1.6,0.1,2.3,0.5c-0.1,0.3-0.4,0.4-0.7,0.3c-1.6-0.3-3.2-0.5-4.9-0.4
			c-6-0.4-11.9-1.4-17.9-1.3c-3.8,0-7.6-0.7-11.2-0.9c-1.8-0.1-3.7,0.2-5.4-0.2c-3-0.6-6.1-0.9-9.2-0.8c-2.5-0.1-4.9,0.6-7.4,1
			c-3.7,0.6-7.1,1.5-10.9,1.6c-1.8,0.1-3.7-0.5-5.7-0.5c3.6,2.5,7.5,4.4,11.7,5.6c6.1,1.6,12.1,3.6,18.5,3.8
			c2.3,0.2,4.6,0.6,6.8,1.1c3.6,0.7,7.4,1.1,11.1,1.7c1.2,0.1,2.3,0.5,3.4,1c-2.7-0.2-5.4-0.7-8-1c-5.3-0.6-10.6-1.8-16-2.3
			c-5.7-0.6-11.4-1.7-16.9-3.3c-3.6-0.8-7.4-1-11.1-0.5c-2.3,0.2-4.5,0.2-6.9,0.4s-4.9,0-7.6,0c2.4,2.2,4.7,4.1,6.8,6.1
			c1.6,1.6,3,3.5,4.9,4.9c5.1,3.6,10.5,6.7,16.8,8c0.7,0.1,1.4,0.4,1.9,0.8c-2.9-0.8-5.9-0.7-8.6-2.1c-3.9-2-7.6-4.2-11.2-6.7
			c-2.7-2-5.8-3.4-9.1-3.9c-4.8-0.7-9.6-0.9-14.4-1.3c-2.8-0.3-5.5-0.7-7.8-2.7c-0.8-0.7-1.9-1-2.9-0.8c-3.4,0.8-6.9,1.7-10.3,2.9
			c-2,0.7-4,1.3-6,1.9c-4.1,1-8.2,2.1-12.3,3.3c-6.3,1.9-12.8,3.8-19.1,5.8c-3.6,1.1-7.3,2-10.8,3.2c-3,1-5.9,2-8.9,2.9
			c-2.4,0.8-4.8,1.4-7.4,2c-2.9,0.8-5.7,1.9-8.6,2.7c-5.1,1.4-10.1,2.8-15.2,4.1c-5.1,1.3-10.2,2.9-15.4,4.1
			c-5.5,1.3-11.1,2.7-16.6,4.2c-3.4,0.9-7.1,1.8-10.5,2.5c-5.3,1.1-10.5,2.5-15.9,3.4c-4.1,0.7-8.2,1.6-12.2,2.7
			c-5.1,1.3-10.3,2.6-15.6,3.5c-4.5,0.8-8.8,2.1-13.2,2.9c-4.1,0.7-8.4,1.8-12.5,2.6c-5.9,1.1-11.7,2.7-17.4,4.2
			c-2.6,0.7-5.3,0.9-7.9,1.8c-1.5,0.4-3.3,0.3-4.1,2.1c-0.2,0.3-0.5,0.4-0.9,0.5c-3.7,0.8-7.3,1.8-11.1,2.3
			c-3.4,0.5-6.7,1.6-9.9,2.1c-5.6,1-11.2,1.8-16.8,2.7c-3.9,0.6-7.6,2.1-11.6,2.6c-1.7,0.3-3.5,0.6-5.2,0.9
			c-5.8,1.3-11.4,2.6-17.4,3.5s-11.8,1.9-17.8,2.8c-5.2,0.9-10.4,1.8-15.6,2.6c-3.1,0.5-6.4,0.6-9.5,1.2c-5.7,1.1-11.4,0.6-17.1,0.9
			l-0.2-0.1c-0.2,0-0.4-0.3-0.4-0.5c0,0,0,0,0,0c0-0.3,0.2-0.5,0.5-0.5c1.1,0,2.3-0.1,3.4-0.1c8.4,0.4,16.7-1.2,24.9-2.5
			c8.1-1.3,16.1-2.4,24.1-3.9c2.6-0.5,5.4-0.5,8.1-1.1c5.5-1.1,11-2.3,16.5-3.4c3.8-0.7,7.7-1.5,11.5-2.6c2-0.5,4-0.9,6-1.2
			c5-0.7,9.9-1.6,14.7-2.4c7-0.9,13.9-2.4,20.7-4.3c1.6-0.3,2.9-1.5,3.1-3.1c0.2-1.1,0.3-2.2,0.3-3.2c0-1.4-0.7-1.6-1.8-1
			c-3,1.8-6.2,3.2-9.6,4c-8.1,1.6-15.9,3.3-24.1,4.7c-8.8,1.5-17.6,3.6-26.2,5.7c-9,2.1-18.1,3.5-27.1,4.8
			c-8.1,1.2-16.3,1.9-24.1,3.6c-6.9,1.3-13.9,2.2-21,2.6c-0.2,0.1-0.5,0-0.7-0.2c0,0,0,0,0,0c0-0.3,0.2-0.4,0.5-0.4
			c2.8-0.4,5.5-0.8,8.4-1c3.9-0.3,7.7-0.9,11.5-1.8c4.3-0.9,8.6-1.7,13-2.3c4.7-0.7,9.7-1,14.5-1.7c5.3-0.8,10.7-1.7,16-2.8
			c6.9-1.3,13.7-3.2,20.7-4.6c4.4-1,8.7-1.9,13.3-2.7c4.6-0.8,9.1-1.9,13.7-2.8c5.6-1.1,11.4-1.8,16.8-3.9c4.6-1.9,7.8-5.3,11-8.7
			c2-2.1,3.8-4.6,6.2-6.4c4.9-3.8,9.8-7.4,14.5-11.1c2.1-1.7,4.5-2.9,6.8-4.4c3.6-2.4,7-5.1,10.7-7.4c3.4-1.9,6.7-4,9.9-6.3
			c6.2-4.8,12-10.1,17.2-15.9c2.6-2.9,5.2-5.7,7.5-8.8c2.8-3.9,5.4-8,8.5-11.7c2.9-3.4,6-6.5,8.8-9.9c4.5-5.2,9.6-10,15.1-14.2
			c5.4-4.2,11.2-7.9,16.6-12c4.4-3.3,8.6-6.9,12.8-10.5c0.3-0.2,0.5-0.9,1.1-0.5s0.3,1-0.1,1.4c-0.2,0.3-0.5,0.5-0.7,0.7
			c-4.2,3.3-8.2,6.9-11.9,10.8c-2.2,2.5-4.6,4.9-6.9,7.1c-4.6,3.8-8.8,8.1-12.5,12.7c-2.9,3.8-5.6,7.6-8.1,11.5
			c-1.3,1.9-2.5,3.9-3.6,6c-1.8,3.2-3.2,6.8-5.5,9.9c-1,1.3-2,2.6-3,3.8c-3.5,4.7-6.9,9.4-10.4,14.2c-0.5,0.7-1.2,1.2-1.7,1.9
			c-3.3,4.6-7,8.8-12.1,11.4c-2.6,1.4-4.8,3-7.3,4.3c-3.5,1.8-7,3.7-10.3,5.9c-3.4,2.2-7,4-10.4,6.3c-3.4,2.3-7.1,3.8-10.6,5.8
			c-4.7,2.8-9.5,5.2-14.3,7.7c-1.8,1-3.7,1.8-5.5,2.8c-0.4,0.2-0.9,0.4-1,1.2c0.8-0.5,1.6-0.8,2.5-1c6.3-1.4,12.7-2.5,18.8-4
			c4.1-1,8.3-1.8,12.6-2.3c4.4-0.4,8.7-1.8,13-2.4c4.6-0.8,9-2,13.5-2.9c5.2-1.2,10.4-2.1,15.7-3.5c4.3-1.1,8.8-1.7,13.1-3
			c2.1-0.6,4.2-1.1,6.4-1.5c3.1-0.4,6.2-1.2,9.1-2.3c1.2-0.5,2.5-0.9,3.7-1.2c3.2-0.6,6.3-1.3,9.4-2.1c4.1-1.1,8.2-2.4,12.4-3.6
			c2.5-0.7,4.9-1,7.5-1.6c4.8-1,9.4-2.6,14.1-3.7c6.3-1.6,12.6-3.6,18.9-5.3c5.6-1.6,11.3-3,16.9-4.9c5.2-1.7,10.5-3.2,15.7-4.9
			c4.8-1.6,9.7-3.2,14.5-4.6c3.1-0.8,6.1-1.9,9-3c1.9-0.9,3.8-1.9,5.5-3.1c2.3-1.5,4.4-3.3,4.7-6.4c0-0.4,0.2-0.9,0.5-1.2
			c0.5-0.6,0.9-1.3,1.3-1.9c1.2-1.9,2.4-3.7,3.9-5.4c1.5-1.8,2.9-3.7,4.2-5.7c1.6-2.8,2.3-6,3.7-8.8c0.5-1,0.8-2.2,1.4-3.1
			c1-1.9,1.1-4.1,2.2-5.9c1.3-2.4,2.3-4.9,3.1-7.5c1.3-3.5,2.6-6.9,4-10.3c0.1-0.3,0.2-0.7,0.6-0.6c0.3,0.2,0.4,0.5,0.2,0.8
			c0,0,0,0,0,0c-0.8,1.5-1.4,3-1.9,4.6c-1.6,4.3-3,8.7-4.5,13.1c-0.5,1.6-1.4,3.1-1.8,4.8c-1.3,4.2,0.3,8.5,0.6,12.7
			c0.1,0.5,0.2,1,0.3,1.4c2.3-2.4,5-4.6,7.9-6.3c1.6-0.9,2.9-2.2,3.8-3.9c1.1-2.2,2.3-4.2,3.6-6.3c1.9-3.3,3.6-6.7,5.1-10.1
			c1.6-3.4,3.1-6.9,4.6-10.3c1.2-2.7,2.6-5.2,4.2-7.7c-1.6,4-3.7,7.9-5.3,12.1c-1.6,4.2-3.7,8.2-4.5,12.6c-0.8,4.3-1.5,8.7-2.2,13.4
			c0.4-0.2,0.7-0.5,0.9-0.8c1.2-1.4,2.7-2.6,4.4-3.6c1.3-0.6,2.6-1.4,3.7-2.3c2.7-1.9,5.6-3.3,7.8-6c2.3-2.9,4.3-6,5.1-9.7
			c0.5-2.8,1-5.5,1.6-8.3c0.5-2.6,1.4-5.1,2.5-7.4c0.2-0.4,0.3-0.9,1.1-0.7c-0.5,1.6-1,3.3-1.6,4.8c-1.4,3.5-1.5,7.2-2.4,10.6
			c-0.6,2.2-0.4,4.5-1.2,6.8c-0.7,2.3-1.3,4.6-1.7,6.9c0.4,0.1,0.6-0.2,0.7-0.3c1.2-1.1,2.4-2.1,3.8-2.9c1.3-0.7,2.6-1.2,4-1.7
			c2.8-1.5,5.2-3.6,7.1-6.2c3.1-4.1,6.2-8.5,7.5-13.6c0.2-1.1,0.5-2.1,0.9-3.1c2.1-4.1,3.2-8.6,5-12.7c1.6-3.5,3.4-6.8,5-10.3
			c0.2-0.5,0.6-1.5,1-1.2c0.7,0.4-0.3,1-0.4,1.5c-0.1,0.2-0.2,0.3-0.2,0.4c-2,5.4-5,10.2-6.6,15.8c-1.3,4.2-3.6,8-4.3,12.5
			c-0.7,4.2-1.6,8.2-2.5,12.5c1.3-1,2.2-2.1,3.5-2.7c0.8-0.4,1.8-0.4,2.6-0.9c2.4-1.2,4.5-2.7,6.8-3.9c2.3-1.2,4.2-3,5.5-5.1
			c2.2-3.4,4.2-6.8,6-10.4c1.9-3.7,4.2-7.3,6.2-10.9c2.3-4,4.5-8.2,6.8-12.2c0.4-0.7,0.8-1.4,1.2-2.2c-0.8,3.4-2.6,6.3-4.2,9.3
			c-1.3,2.4-2.7,4.8-3.7,7.3c-1,2.2-2.1,4.3-3.4,6.3c-1.1,1.7-2.3,3.4-2.2,5.6c0,0.3-0.1,0.6-0.3,0.9c-2.3,2.7-2.3,6.1-3.5,9.2
			c-0.1,0.3-0.2,0.7,0.2,0.8c0.4,0.1,0.5-0.3,0.7-0.4c2.2-2,4.7-3.8,7.3-5.2c3.3-1.7,6.1-4.1,8.4-7c1-1.4,1.8-2.8,2.9-4.1
			c1.4-1.7,2.5-3.6,3.4-5.6c1.6-3.9,3.6-7.6,6-11c3.3-4.6,6.1-9.7,8.3-14.9c0.1-0.3,0.1-0.7,0.7-0.7c-0.1,0.7-0.3,1.4-0.6,2.1
			c-1.7,4-3.7,7.8-5.9,11.4c-2.8,4.6-6,9-7.4,14.3c-0.6,1.7-1.3,3.4-2.1,5c-0.9,2.3-1.6,4.7-2.1,7.1c1.1-0.9,2.3-1.7,3.6-2.3
			c3.2-1,6.3-2.5,9.1-4.4c2.6-1.8,4.1-4.2,5.9-6.6c1.5-2.1,2.3-4.3,3.8-6.6c1.5-2.3,2.5-4.7,3.7-7.1c1-1.9,1.4-4.1,2.4-6
			c3.2-6.5,6.7-12.9,10.4-19.1c0.2-0.4,0.5-0.9,1.1-0.9c0,0.5-0.1,1-0.4,1.5c-2.3,4.6-5.4,9-7.4,13.8c-1.1,2.7-2.6,5.3-4,7.9
			c-1.8,3.7-3.5,7.4-5,11.3c-0.6,1.5-1.6,2.7-1.9,4.6c-0.3,1.9-0.6,3.7-0.9,5.5l-0.4,2.7c2.9-2.5,6-4.7,9.4-6.4
			c2.6-1.2,5.1-2.7,7.2-4.7c3.5-3.2,6.3-7.1,8.2-11.5c1.9-4.8,4-9.5,6-14.2c1.2-2.4,2.6-4.7,4.1-6.9c2-3.5,4.2-6.8,6.2-10.3
			c0-0.1,0.1-0.1,0.1-0.1c0.1-0.2,0.3-0.1,0.5,0c-0.5,1.4-1.2,2.7-2.1,3.8c-1.6,2.7-2.8,5.6-4.4,8.3c-1,1.8-2.5,3.3-3.3,5.1
			c-2.9,6.6-5.4,13.4-8.6,19.9c-1,2.1-1.1,4.5-1.8,6.8c2.1-1.7,4.6-2.8,7.3-3.2c4.5-0.8,8.7-2.9,12-6c2.3-2,4-4.6,5.9-7
			c1.1-1.3,2-2.8,2.7-4.3c1.4-3.2,3.3-6.2,5.7-8.9c4-4.7,7.7-9.8,11.1-15c0.4-0.6,0.7-1.5,1.6-1.6c-0.1,1.6-1.4,2.5-2.1,3.7
			c-2.9,4.5-5.9,9-9.1,13.3c-1.9,2.5-4.1,5.1-5.3,7.9c-1.2,2.8-2.2,5.6-3.6,8.3c-1,1.6-1.6,3.3-2,5.1c0.4-0.3,0.8-0.5,1.3-0.6
			c2.4-1.4,5-2.5,7.6-3.3c3-0.8,5.7-2.4,8-4.4c4.2-3.5,7.9-7.6,11.2-12c4.3-5.6,8-11.7,12.1-17.6l0.9-1.2c0,0.3-0.1,0.6-0.2,0.9
			c-4.9,8.6-10.5,16.7-16.8,24.3c-2.6,2.9-4.9,6-7.2,9.1c-0.5,0.5-0.7,1.1-0.6,1.8c0.2-0.1,0.6-0.2,0.8-0.3c2.1-1.1,4.4-1.8,6.7-2.1
			c1.8-0.2,3.7-0.4,5.5-0.8c4.3-1,8-3.3,12.1-5c1-0.4,2-0.8,2.9-1.4c3.6-2.1,7.2-4.3,10.8-6.6c1.4-0.9,2.7-1.6,4-2.5
			c1.9-1.4,4-2.7,6.1-3.8c4.1-2,8.4-3.5,12.3-6c0.6-0.5,1.4-0.7,2.1-0.5c-1.3,0.8-2.3,1.4-3.4,2.1c-6,3.3-12.3,6-18.2,9.7
			c-6.7,4.3-13.2,8.7-19.7,13.2c-2.8,1.9-5.4,4.2-8.1,6.5c-1.3,1.2-2.7,2.2-4.2,3.2c-0.9,0.4-1.8,1-2.6,1.8
			c3.9,1.1,7.7,0.4,11.4-0.8c3.7-1.2,7.8-2.3,11.6-3.8c3.4-1.3,7-2.2,10.5-3.4c5.5-1.8,10.9-4.1,16-6.9c0.4-0.2,0.8-0.6,1.3,0.1
			c-2,1.3-4.1,2.4-6.2,3.5c-5.5,2.6-11.4,4.1-17.1,6.3c-3.4,1.3-6.6,2.5-10,3.9c-2.7,1-5.1,2.6-7.7,3.7c-3.8,1.6-7.5,3.7-10.8,6.2
			c-3,2.2-6,4.2-9.9,4.6c-1.6,0.1-3.1,0.4-4.5,1c1.6,0.9,3.3,1.2,5.1,1c3-0.1,6,0.3,8.9-0.7c2.2-0.9,4.4-1.7,6.7-2.3
			c7.4-1.4,14.9-2.9,22.3-4.5c3.1-0.7,6.2-1.5,9.2-2.3c2.7-0.7,5.3-1.6,7.9-2.1c0.4-0.1,0.9-0.3,1.1,0.3c-0.4,0.3-0.8,0.5-1.3,0.6
			c-1.6,0.4-3.2,0.7-4.8,1.2c-8.3,2.5-16.7,4.1-25.1,6.2c-3.5,0.9-7.2,1.7-10.7,2.9c-3,0.9-5.9,2.3-8.9,2.9
			c-5.6,1.3-11.3,1.7-17.1,1.3c-3.9-0.4-7.6,0.6-11.6,1.9c2.5,1.4,5.2,2.3,8,2.5c6.5,0.4,12.9,1.4,19.5,1.6
			c3.7,0.2,7.4,0.6,11.2,0.7c4.6,0.1,9.3,0,14-0.3c3.5-0.2,7-0.2,10.4-0.2c1.7-0.2,3.4-0.1,5.1,0.4c-1.1,0.1-2.1,0.3-3.2,0.3
			c-4.7,0.2-9.4,0-14.2,0.4c-6.9,0.4-13.8,0.4-20.7,0c-3.6-0.1-7.2-0.4-10.8-0.6c-6.6-0.3-13.3-0.1-19.9,0.4c-0.2,0-0.5,0.1-0.7,0.1
			c-1.9,0.9-3.9,1.8-5.9,2.4c-3.7,1.5-7.3,3.2-11.2,3.8c-0.3,0-0.9-0.1-0.9,0.4c0,0.4,0.6,0.4,0.9,0.5c3.6,0.5,7,1.5,10.7,1.6
			c1.8,0,3.4,0.6,5.1,0.7c4.1,0.2,8.2,0.6,12.4,0.7c3.1,0,6.3,0.1,9.4-0.1c4.9-0.2,9.8-0.2,14.7,0.1c5.6,0.2,11.3,0.4,17,0.3
			c0.2,0,0.7-0.1,0.6,0.4c-1.9,0.3-3.9,0.4-5.8,0.3c-2.5-0.1-5,0-7.5,0c-3.6-0.1-7.2-0.4-10.8-0.3c-6.6,0.3-13.3,0.3-19.8,0.4
			c-5.3,0-10.6-0.5-16-0.6c-1.5-0.1-3.1-0.1-4.6,0.1c-5.4,1.1-10.7,2.4-16.1,3.5c-2.5,0.7-5.1,1-7.7,0.8c-0.9-0.1-1.9,0-2.8,0
			c-0.3,0-0.8,0-0.8,0.4c0,0.4,0.3,0.6,0.5,0.7c0.8,0.5,1.6,0.9,2.5,1.2c3.6,0.9,7.2,1.5,10.9,1.9c3.8,0.5,7.6,0.3,11.3,1
			c1.2,0.3,2.4,0.5,3.7,0.5c2.8,0,5.6-0.1,8.5,0c6.2,0,12.5-0.1,18.7,0.3c7.5,0.5,15.1-0.3,22.7,0c1.1,0,2.2-0.3,3.4,0.1
			c-0.5,0.3-1.1,0.4-1.7,0.4l-7.3,0.2c-5.1,0.1-10.3,0.4-15.3,0.3c-4-0.1-8.1-0.4-12.1-0.1c-8,0.3-16.1,0.2-24.1-0.3
			c-5.5-0.4-11-0.1-16.5,0c-2.3,0.1-4.7-0.3-7.1,0c-5.1,0.8-9.9,3.1-15,3.7c-0.2,0-0.3,0-0.4,0.3c0.1,0.1,0.1,0.3,0.2,0.3
			c0.8-0.3,1.5,0.3,2.3,0.4c4.4,0.9,8.8,1.5,13.2,2.1c2.6,0.4,5.2,0.7,7.9,0.8c2.6,0.1,5.2,0.3,7.8,0.5c3.6,0.2,7.1,1.2,10.8,1.1
			c1.5,0,2.8,0,4.2,0.1c7.4,0.2,14.6,1.4,22.1,0.9c0.4,0,0.9-0.1,0.9,0.4c0,0.5-0.6,0.3-0.9,0.4c-3,0-6,0.1-9-0.1
			c-3.5-0.1-7-0.6-10.5-0.6c-4.6,0-9.3-0.3-13.9-0.8c-2.5-0.4-5-0.6-7.5-0.6c-2.1,0.1-4.2,0-6.3-0.3c-3.1-0.4-6.1-0.8-9.2-1.1
			c-4-0.3-7.9-0.3-11.8-0.3c-1.9-0.1-3.8,0.2-5.7,0.7c-5.2,1.4-10.5,2.6-16.1,2.2c-0.5,0-0.9-0.1-1.4-0.3l0,0
			c-0.4-0.1-0.5-0.5-0.4-0.8c0.1-0.4,0.5-0.3,0.8-0.2c2.1,0.2,4.1,0.1,6.2-0.2c3-0.3,5.9-0.9,8.8-1.5c2.2-0.7,4.5-1.1,6.8-1.3
			c-0.8-0.4-1.6-0.8-2.5-1.1c-1.3-0.4-2.7-1.1-3.9,0.3c-0.3,0.3-0.7,0.2-1.1,0.2c-0.9,0-1.9,0.1-2.8,0.3c-3.6,0.6-7.1,1.2-10.6,1.6
			c-1,0.1-2.1,0.7-3.1,0.1c0-0.5,0.4-0.5,0.7-0.5c4.7-0.8,9.4-1.8,14.1-2.3c1,0.1,2-0.3,2.7-1c-2.8-0.8-5.6-1.4-8.5-1.8
			c-0.4-0.1-0.9,0.1-0.8-0.5c0.1-0.6,0.6-0.3,0.9-0.4c0.8,0.1,1.5,0.3,2.2,0.5c1.4,0.3,2.9,0.5,4.3,0.8l0.1-0.3
			c-1.5-0.9-2.8-2.1-4.5-2.7c-2.7-0.8-5.6-1.2-8.4-1.1c-0.5,0-1,0.3-1.2,0.7c-2,3-5,4.6-7.8,6.7c-1,0.6-2,1.2-3.1,1.8
			c1.4,0.5,2.8,0.9,4.2,1.3c2.3,0.5,4.6,1.2,6.8,2.1c2,0.8,4.1,1.3,6.2,1.7c2.1,0.3,4.3,0.3,6.4,0.5c3,0.2,5.9,0.2,8.9,0.1
			c2.7-0.2,5.2,0.6,7.9,0.6c0.3,0,0.5,0.1,0.6,0.5c0.1,0.4-0.2,0.4-0.5,0.5c-0.5,0.1-1.1,0-1.6,0.1c-3.9-0.1-7.8-0.6-11.8-0.5
			c-4.3,0.1-8.6-0.3-12.9-0.4c-1.9-0.1-3.9,0-5.8,0.4c-3,0.8-5.9,1.8-8.7,3c-2,0.7-3.9,1.8-6.1,1.8c-0.2,0-0.4,0.1-0.4,0.5
			c3,0.6,5.9,0.9,9,1c4.6,0,9.1,0.3,13.6,0.9c4.8,0.7,9.5,1.3,14.4,1.7c3.3,0.3,6.8,0.3,10,0.9s6.6,1.1,9.8,1.5
			c2.4,0.2,4.9,0.4,7.3,0.6c3.2,0.1,6.5,0.2,9.6,0.5c1.4-0.1,2.8,0.2,4.1,0.7c-0.4,0.3-0.9,0.4-1.4,0.2c-2.2-0.2-4.5-0.3-6.8-0.4
			c-6.5-0.3-13.1-0.5-19.6-1.7c-1.2-0.2-2.4-0.3-3.6-0.5c-4.7-0.3-9.4-0.8-14.1-1.1c-6.4-0.3-12.7-1.5-19-2c-5-0.3-10,0.3-14.8,1.7
			c-3.3,1-6.7,1.7-10.1,2.1c-3.3,0.2-6.6,0-10.2,0.2C307.7,454,308,454.2,308.3,454.5z M257.6,468.1c-0.2-0.5-0.2-0.9,0.2-1.1
			c0.4-0.2,0.5,0.4,0.8,0.4c1.9,1,3.6,2.4,5.9,2.6c3.6,0.5,7.2,1.2,10.9,1.7l3.3,0.6c0.2-0.4-0.1-0.4-0.3-0.6
			c-1.6-0.7-3.2-1.5-4.7-2.4c-0.5-0.4-1.1-0.6-1.8-0.8c-0.4-0.1-1-0.5-0.8-0.9c0.2-0.5,0.8-0.1,1.1,0.1l4.8,2.6
			c0.7,0.4,1.5,0.7,2.2,0.9c-0.4-1.1-1.3-1.3-1.9-1.9c-1.5-1.5-3.1-2.9-4.8-4c-1.1-0.7-2.3-1.3-3.5-1.7c-3.7-1.2-7.5-1.5-11.1,0.1
			c-0.8,0.4-1.4,1.2-1.4,2.1C256.5,466.7,256.6,467.7,257.6,468.1c0.6,1.4,1.6,2.5,3,3.2c1.4,0.8,2.9,1.2,4.5,1.2
			c2.8,0.1,5.6,0.4,8.4,0.7c2.4,0.5,4.8,0.7,7.3,0.5c-1.8-0.4-3.5-0.8-5.3-1c-3-0.5-5.9-0.9-8.7-1.5c-0.6-0.2-1.2-0.2-1.8-0.2
			C262,470.9,259.8,469.6,257.6,468.1L257.6,468.1z M447.7,377.5c1.2-0.8,2.5-1.4,3.2-2.9c0.4-0.6,1-1,1.8-1.1
			c0.8-0.2,1.4-0.9,1.5-1.7c-0.2-0.1-0.3,0-0.4,0c-2.6,2.1-5.9,2.5-8.9,3.8c-2.4,0.8-4.6,1.9-6.7,3.2c-0.7,0.5-1.2,1.1-1.5,1.9
			c-1,2.7-2.4,5.2-4,7.5c-2.1,3-4.8,5.5-8,7.3c-1.6,1-3.1,2.4-5.1,3.1c1.2,0.5,2.4,0.6,3.6,1.2c0.9,0.3,1.7,0.6,2.5,1.1
			c0.4,0.4,1,0.3,1.4,0.1c2.1-0.6,4.2-1,6.4-1.5c3.7-0.9,7.3-0.3,11-0.2c2,0,4,0.4,6.3-1c-7.9,0.3-15.3-1.7-22.9-0.4
			c1.6-0.9,3.4-1.3,5.2-1.2c1.8,0.1,3.7,0,5.6,0.2c1.9,0.2,3.7,0.2,5.6,0c-1.2-0.8-2.6-1.4-3.9-1.9c-2.2-0.8-4.4-1.4-6.7-1.8
			c-0.8,0-1.6,0-2.3,0c-0.4,0-1.3,0.1-1.3-0.6c0-0.6,0.6-0.8,1.3-0.8c1.6-0.1,3.1,0,4.7,0.3c0.7,0.1,1.3,0.3,1.1-0.7
			c-0.1-0.5,0.4-0.8,0.9-1c2.1-0.9,4.2-1.9,6.1-3.1c3.1-2.1,6.1-4.4,7.3-8.2c0.2-0.6,0.2-1.3-0.1-1.9c-1.2,0.6-1.6,1.8-2.3,2.7
			c-3.1,4-7.2,6.5-11.7,8.6c-0.6,0.3-1.6,0.7-1.9,0c-0.2-0.7,1-0.6,1.5-0.8c3.7-1.6,7.1-4,9.8-7c-0.4,0.1-0.8,0.2-1.6,0.4
			c1-1.4,2.3-2,3.5-3c-1.2,0.1-1.8,1-2.7,0.9l0,0C446.2,378.3,447.1,378,447.7,377.5L447.7,377.5z M17.1,523.6c1.4-1,2.8-2.1,4-3.3
			c6.1-5.4,12.6-10.3,19.5-14.7c3.6-2.3,7.2-4.6,10.7-7.2c3.5-2.7,7.3-5,10.9-7.3c3-2,5.9-4.2,8.6-6.7c4.3-3.8,9-7.1,13.6-10.5
			c1.2-0.9,2.3-2,3.4-2.9l0.3,0.3c-0.7,0.6-1.3,1.3-2,1.9c-4.2,3.3-8.4,6.5-12.6,9.9c-3.8,3.3-7.8,6.4-11.9,9.3
			c-3.5,2.2-7,4.5-10.3,6.9c-5.1,3.7-10.4,6.9-15.6,10.4c-0.8,0.6-1.6,1.2-2.4,1.9c9.9-5,18.6-11.6,28.1-17.2
			c-0.4,0.7-0.9,1.2-1.6,1.5c-5,3.3-9.8,6.6-14.7,9.8c-5.4,3.5-11,6.6-16.7,9.8c-1.8,1.1-3.5,2.5-4.9,4c0.8,0.1,1.6-0.1,2.2-0.5
			c5.1-2.6,10.1-5.2,15.1-8c3.4-1.9,7.1-3.5,10.3-5.6c6.2-3.9,12.5-7.7,18.9-11.2c3.7-2,7.3-4.2,10.8-6.4c3.1-2,5.7-4.5,7.8-7.5
			c1.2-1.7,2.5-3.2,4-4.7c1.8-1.9,2.8-4.3,4.5-6.3c3.3-4,6.4-8.1,9.3-12.4c1.8-2.5,2.9-5.3,4.4-8c1.5-2.7,3.1-5.3,4.8-7.8
			c1.8-2.7,3.6-5.5,5.7-8.2c3.5-4.7,7.5-9.1,11.9-13c3.4-2.9,6.6-6.1,9.6-9.4c-0.8,0.1-0.8,0.1-2.8,1.8c-2.3,1.8-4.6,3.5-7.1,5
			c-2.6,1.8-5,3.7-7.4,5.6c-1.4,1-2.8,2.2-4.3,3.3c-2.3,1.8-4.3,3.8-6.2,6c-5.4,6-11.1,11.7-15.9,18.1c-3.4,4.7-6.7,9.6-10.6,13.9
			c-4.2,4.9-8.7,9.4-13.5,13.6c-3.3,2.7-6.5,5.7-10.2,7.8c-6.3,3.6-12,8-18,11.9c-6.9,4.3-13,9.5-19.5,14.3c-3.4,2.4-5.8,5.7-8.3,9
			c-0.7,0.8-1.2,1.7-1.7,2.6L17.1,523.6z M256.2,461.4c-1.1,1.2-2.4,2.1-3.9,2.8c-1.8,1-3.5,2.5-5.5,3.4c-3.8,1.4-7.8,2.7-11.7,3.8
			c-5,1.4-10,2.9-15,4.6c-4.3,1.4-8.7,2.7-13,4.1c-2.7,1-5.5,1.8-8.3,2.3c-0.9,0.2-1.8,0.5-2.6,0.9c-2.7,1.1-5.6,1.9-8.5,2.3
			c-2.9,0.6-5.6,1.4-8.4,2.2c-5.6,1.6-11.3,3.1-16.9,4.6c-5.6,1.5-10.9,2.7-16.4,4.1c-2.9,0.8-5.8,1.8-8.7,2.6
			c-2.9,0.8-5.8,1.4-8.8,2.2c-2.7,0.6-5.2,1.6-7.9,2.1c-4.2,0.7-8.4,1.8-12.5,2.9c-4.8,1.3-9.6,2.3-14.5,3.5s-9.9,2.2-15,3.1
			c-3,0.5-6.1,1.2-9.1,1.8c-13.1,2.7-26.1,5.4-39.1,8.1c-3.1,0.6-6,1.2-9.1,2c-1.9,0.4-3.7,1.1-4.1,3.3c-0.2,0.5-0.3,1.1,0,1.5
			s0.8,0,1.2-0.1c4.8-1.1,9.4-2.3,14.2-3.4c3.7-0.8,7.4-1.8,11.2-2.7c2.9-0.8,5.9-0.8,8.8-1.5c4.6-1.1,9.1-2,13.8-3
			c6.9-1.4,13.6-3.2,20.5-4.8c4.5-1,9.2-1.7,13.8-2.7c3.4-0.7,6.9-1.4,10.3-2.3c4.6-1.1,9.3-1.9,13.9-3.2c8.3-2.5,16.8-3.9,25.1-6.3
			c7.3-2,14.6-3.7,21.8-6.1c5.7-1.9,11.5-3.1,17.2-5c7.3-2.5,14.8-4.7,22.2-6.9c3.3-0.9,6.4-2,9.7-2.9c3.1-0.9,6.1-1.7,9.1-2.6
			c4.4-1.3,8.9-2.1,13.2-3.7c3.8-1.3,7.8-2.4,11.7-3.5c0.6-0.2,0.7-0.4,0.6-1.1c-0.5-1.6-0.1-3.4,1-4.7
			C256.7,462.7,256.5,462.1,256.2,461.4L256.2,461.4z M293.5,463.1c-2.6-2.7-5.7-4.8-9.1-6.1c-1.3-0.5-2.6-1-4-1.2
			c-2.3-0.5-4.6-0.4-6.9,0.2c-0.3,0.1-0.9,0.3-1.1-0.3s0.2-0.7,0.6-0.8c0.5-0.3,1.1-0.4,1.7-0.6c2.8,0,4.5-2.1,6.4-3.6
			c3.4-2.6,6-6.2,7.3-10.3c0.7,0,0.3,0.6,0.8,0.8c1.3-4.9,2.3-9.9,3-14.9c-1.3,1.6-2.5,3.4-3.5,5.2c-0.8,1.3-1.6,2.7-2.3,4
			c-1,1.7-2.6,2.6-4.1,3.6c-2.1,1.2-4,2.7-5.7,4.3c-1.5,1.4-2.3,3.3-2.4,5.4c-0.1,1.8-0.7,3.6-1.7,5.1c-0.9,1.3-1.8,2.7-2.7,4
			c-1.1,1.3-2.4,2.3-3.9,3.1c2.2,0.8,4.1,1.4,6,2.1c0.2,0,0.3,0,0.4-0.1c0.4-1.5,1.4-0.6,2.1-0.4c2.2,1,4.5,0.8,6.7,1.2
			c3.3,0.6,6.4-0.3,9.7-0.6c-1.6-1-3.2-1.7-5-2.2c-2.2-1-4.5-1.6-6.9-1.8c-0.3,0-0.7,0-0.7-0.4s0.4-0.4,0.7-0.4
			c1.4,0.1,2.8,0.4,4.1,0.9c3.3,1,6.5,2.2,9.6,3.7C292.7,463,292.9,463,293.5,463.1L293.5,463.1z M332.4,431.6
			c2.8-0.8,5.1-2.5,7.2-4.3c2.2-1.8,4.1-3.8,5.8-6c1.7-2.2,3.1-4.8,4.8-7c1.2-1.7,1.9-3.6,2.1-5.6c0.3-1.1,0.6-2.1,0.9-3.1
			c-0.9,0.6-1.6,1.4-2.2,2.3c-1.7,2.8-4.3,4.1-7,5.8c-2.6,1.7-5.4,2.8-8.1,4.2c-2.3,1.2-4.1,3.2-5.1,5.7c-0.8,2.2-1.3,4.3-2,6.5
			c-0.6,1.6-1.4,3.2-2.3,4.6c2.2-0.3,4.4-0.2,6.6,0.3c0.6,0.1,1.1-0.1,1.5-0.5c1.2-1,2.8-1.2,4.1-2.1c2.3-1.8,4.8-3.1,6.6-5.4
			c1-1,1.8-2.3,2.4-3.6c1.1-2.5,1.9-5.1,2.6-7.7c-1,1-1.8,2.2-2.5,3.5c-2.5,3.7-5.6,7-9.1,9.7C337,430.7,334.8,431.6,332.4,431.6
			L332.4,431.6z M373.3,395.2c-0.9,0.8-1.7,1.8-2.3,2.9c-2.6,3.4-6,6.2-9.8,8.1c-2.6,1.4-4.9,3.2-6.9,5.4c-1,1.2-1.8,2.5-2.3,4
			c-0.8,2.9-1.8,5.7-2.9,8.5c-0.2,0.7-0.2,0.9,0.6,0.9c1,0,2,0.1,3,0.3c1.1,0.3,2.2,0.2,3.2-0.3c2-0.9,4.2-1.4,5.9-2.8
			c3.8-3.2,7-6.9,7.7-11.9c0.4-1.7,0.5-3.5,0.5-5.2c-0.5,1.2-1.3,2.3-1.7,3.6c-1.1,3.2-2.8,6.2-4.8,8.9c-1.9,2.3-4.1,4.3-7.4,4.8
			c0.5-0.4,0.8-0.7,1.3-0.8c0.4-0.2,0.9-0.4,1.2-0.7c3.8-2.9,6.7-6.8,8.3-11.3c0.5-1.2,1.1-2.3,1.7-3.5c0.2-0.3,0.4-0.5,0.1-0.8
			c-0.3-0.3-0.6,0-0.9,0.2c-2.9,1.8-5.8,3.6-8.7,5.3c-0.3,0.1-0.6,0.6-1.2,0.2c1.7-1.1,3.3-2.2,4.9-3.3c2.4-1.4,4.7-3,6.9-4.7
			C371.9,400.9,372.7,398.2,373.3,395.2L373.3,395.2z M329.5,423.3c-1.6,2.9-3.4,5.8-5.3,8.5c-1.1,1.3-2.4,2.5-3.8,3.5
			c-1.4,1.2-3,2.1-4.3,3.4c-0.9,0.7-2,0.9-3.1,0.6c-0.1-0.3,0-0.4,0.2-0.4c2.9-1.3,5.4-3.4,7.9-5.3c2.5-1.9,3.6-4.3,5.4-6.7
			s2.8-5.3,4.5-7.7c1-1.3,1.1-3.1,1.3-4.7c0.1-0.8,0.7-1.6,0.3-2.4c-1.3,1.7-2.5,3.4-3.8,5c-2.8,3.4-5.7,6.7-9.9,8.5
			c-3.1,1.2-5.8,3.3-7.9,5.9c-1,1.5-1.9,3-2.5,4.7c6-3.8,10.3-9.4,16-13.6c0.4,0.5,0.1,0.8,0,0.8c-3,1.8-4.9,4.6-7.4,6.8
			c-1.7,1.7-3.6,3.3-5.6,4.7c-1.1,0.9-2.2,1.9-3.2,3c-0.7,0.7-0.6-0.1-0.8-0.5c-1.2,1.2-2.2,2.3-3.2,3.5c-0.2,0.3-0.6,0.6-0.3,0.9
			c0.2,0.3,0.6,0.4,1,0.3c2.8-0.7,5.8-0.7,8.6,0c0.5,0.2,1.1,0.1,1.6-0.2c1.9-1.4,4.2-2,6-3.4c3-2.5,5.8-5.3,6.7-9.4
			c0.5-1.9,1.1-3.7,1.9-5.5L329.5,423.3L329.5,423.3z M391.9,389.6c-0.5,0.2-0.6,0.6-0.8,0.8c-2.2,3.6-5.6,6.4-9.5,8
			c-2.5,1-5.1,1.6-7.2,3.4c-1.4,1-2.4,2.4-2.8,4c-0.6,3-0.9,5.9-2.1,8.7c-0.5,1-1.3,1.7-1.5,2.8c3.3,0.8,6.5,0.1,9.6-0.6
			c2.2-0.4,3.8-2.2,5.6-3.4c4-2.8,5.6-7.3,7-11.6c1.3-3.5,1.8-7.3,1.6-11C391.8,390.2,392.1,389.9,391.9,389.6L391.9,389.6z
			 M398.9,427.3c-2.5-0.2-4.9-0.7-7.3-1.3c-2.1-0.2-4-1.3-5.4-2.8c-1.1-1.2-2.5-2.2-4-2.8c-1.8-0.7-3.7-1.4-5.6-1.9
			c-1.8-0.5-3.6,0-5.5-0.1c-0.4,0-0.9,0.1-1.3,0.1c-1.8,0-3.4,0.2-4.6,2c-1.7,2.2-4,4-6.5,5.2c-0.4,0.2-1.2,0.5-0.3,1.1
			c1.8,1.3,3.8,2.5,5.8,3.5c3.2,1.4,6.7,1.1,10.1,0.3l9.5-2.7c1.7-0.5,3.5-0.6,5.2-0.4C392.3,427.6,395.6,427.6,398.9,427.3z
			 M413.8,382.2c-2.3,2.4-4.9,4.5-7.7,6.4c-0.9,0.5-1.8,1-2.7,1.3c-1.8,0.9-3.6,1.9-5.3,3.1c-1.7,1-3.2,2.3-4.5,3.7
			c-0.8,0.8-1.2,1.8-1.3,3c-0.6,2.5-1.4,5-2.4,7.3c-0.2,0.7-0.3,1.1,0.5,1.1c0.5,0.1,1.1,0.1,1.6,0c1-0.2,2-0.2,3,0.2
			c1.2,0.4,2.6,0.3,3.7-0.3c2-0.9,3.9-2.1,5.6-3.6c3-3,5.2-6.7,6.5-10.7l1.8-5.8l-0.3-0.2c-0.6,0.8-1.1,1.6-1.5,2.5
			c-1.8,3.2-3.8,6.4-5.9,9.4c-2.2,2.7-5,4.9-8.2,6.3c-0.8,0.5-1.6,0.9-2.4,1.3c-0.3,0.1-0.8,0.3-1-0.2c-0.2-0.5,0.4-0.5,0.6-0.7
			c1.3-1.1,3.1-1.3,4.5-2.2c2.6-1.5,4.9-3.5,6.6-6c2.1-3,3.7-6.3,5.8-9.3c0.8-1,1.5-2.1,2.2-3.1
			C413.5,384.6,413.7,383.4,413.8,382.2L413.8,382.2z M426.9,388.5c0.5-1,1-2.1,1.3-3.3c-1.5,0.9-3,1.6-4.5,2.5
			c-2.6,1.7-5.3,3.2-7.4,5.5c-0.4,0.4-0.7,0.8-1.1,1.3l0,0.1c-0.2,0.2-0.6,0.3-0.9,0.1c-0.2-0.3-0.2-0.6-0.1-0.9
			c0-0.2,0.1-0.4,0.3-0.5c1.3-1.3,2.8-2.4,4.3-3.5c2.2-1.7,4.6-3.1,7.2-4.2c1.6-0.8,3.1-2,4.2-3.4c0.9-1.1,1.9-2.1,3.1-3.2
			c-0.6-0.1-1.1,0.2-1.5,0.6c-2.8,2.4-6.3,3.4-10,4.2c-4.4,1-7.8,3-8.9,7.8c-0.7,2.7-1.7,5.4-2.9,7.9c1.2-0.4,2.4-0.1,3.5-0.4
			c1.7-0.3,3.4-0.5,5.1-0.4c0.2,0.1,0.6,0.1,0.5-0.1c0-1.6,1.4-1.8,2.3-2.2c2.8-1.1,5-3,7.3-4.9c3.1-2.7,5.5-6.2,6.8-10.2
			c1-2.8,2.9-5.1,3.6-7.9c0.1-0.3,0.4-0.6,0.2-1.1c-0.8,0.3-1.4,1-1.6,1.8c-1.1,3.5-3.9,6.1-5.9,9c-1.2,1.9-2.6,3.6-4.2,5.2
			C427.1,388.3,427,388.3,426.9,388.5L426.9,388.5z M428.3,404.3c-2.2-1.2-4.2-3-6.8-3.4c-2.7-0.4-5.2-1.1-7.9-0.6
			c-1.2,0.3-2.3,0.4-3.5,0.4c-1.6-0.1-2.3,1.1-3,2.1c-1.5,2.4-3.8,3.7-5.8,5.5c-0.5,0.5-1.1,0.9-1.7,1.2c-0.6,0.4-0.4,0.7,0.1,1.2
			c4.6,3,9.4,2.2,14.1,0.9c3.4-0.9,6.4-2.6,9.7-4c2.3-0.9,4.7-1.4,7.1-1.5c0.6,0,1.1-0.2,1.7-0.4c-1.1-0.3-2-1.2-3.3-0.3
			c-1.1,0.7-2.8,0.6-4.1,0.6c-4.1,0.1-7.9,1.3-11.8,2.2c-2.2,0.6-4.5,0.9-6.7,0.7l-1.2-0.3c-0.2-0.1-0.5-0.2-0.4-0.4
			c0-0.2,0.2-0.3,0.4-0.3c0,0,0.1,0,0.1,0c5.4,0.3,10.4-1.6,15.6-2.6c2.1-0.4,4.3-0.5,6.4-0.7C427.5,404.5,427.9,404.6,428.3,404.3
			L428.3,404.3z M413.6,416.7c-1.2,0.3-1.9-0.8-2.9-1.1c-1.2-0.1-2.3-0.3-3.5-0.6c-3.5-0.8-6.5-2.6-9.7-4.3c-1.7-1-3.8-1.4-5.8-1.2
			c-0.5,0.2-1.1,0.2-1.7,0.1c-1.4-0.4-2.1,0.3-2.6,1.4c-1.5,2.7-3.9,4.7-6.7,5.9c-0.5,0.2-0.9,0.4-1.2,0.8c3,1.4,5.9,3.2,9.2,3.1
			c3.6,0.1,7.2-0.3,10.8-1.1c4.2-1,8.7-1.5,13-2.7C412.9,417.2,413.3,417.1,413.6,416.7L413.6,416.7z M308.8,425.9
			c-1.6,2.4-3.9,3.7-6.2,5.3c-3.2,2.3-7,3.9-9.8,6.9c-1.9,2-3.1,4.4-3.7,7.1c-0.3,1-0.5,1.9-0.9,3c-0.2,0.7-0.1,0.9,0.6,0.8
			c2.2-0.3,4.4-0.2,6.5,0.3c1.9,0.4,2.7-0.5,3.4-1.9c1.4-2.3,2.9-4.6,4.5-6.8c0.6-0.8,1.4-1.6,2.2-2.3c3-3,4.2-6.8,5.2-10.8
			c0.5-1.3,0.7-2.8,0.6-4.2C310.3,424,309.4,424.9,308.8,425.9z M325.6,448.2c-1.6-0.3-3.1-1-4.5-1.9c-0.9-0.5-1.9-1-3-1.3
			c-1.4-0.4-2.7-0.9-4.1-1.5c-2.7-0.8-5.5-1-8.3-0.4c-0.1,0.1-0.2,0-0.3,0.1c-3.3-0.1-4.5,2.3-5.6,4.7l-0.1,0.2
			c-0.9,1.7-0.9,1.7,1.2,2.2c1.1,0.3,2.1,0.8,3.1,1.3c3.2,1.2,6.5,1.5,9.9,1.1c2.7-0.4,5.6-0.2,8.3-0.9c3-0.7,6-1.5,9-2.3l-0.1-0.3
			C329.3,448.7,327.4,448.4,325.6,448.2z M271.5,434.5c-0.4,0.3-0.6,0.8-0.7,1.3c-0.8,3.2-2.1,6.2-3.9,8.9c-1.4,2.1-3.1,4.1-4.7,6.1
			c-1.4,1.7-2.6,3.5-3.7,5.4c-0.8,1.5-0.9,3.3-0.4,4.9c0.2,0.6,0.7,0.6,1.1,0.6c1.6,0.1,3.2-0.2,4.7-0.9c4.1-2,7.1-5.6,8.3-9.9
			c0.5-1.3,0-2.7,0.2-4.1C273,442.6,272.6,438.5,271.5,434.5L271.5,434.5z M326.6,436.2c-1-0.3-1.7,0.4-2.5,1.2
			c-1.8,1.8-3.9,3.4-6.2,4.7c-0.4,0.2-0.9,0.4-0.9,0.8c0.1,0.4,0.6,0.5,1,0.6c2.1,0.4,3.6,1.5,5.5,2.4c2.1,1,4.5,1,6.6,0.2
			c5.2-1.8,9.9-4.4,15.4-5.3c0.4,0,1,0.2,1-0.5c0-0.6-0.6-0.6-1-0.7c-2.4-0.8-4.9-1.4-7.5-1.8c-1.6-0.2-2.9-1-4.5-1.3
			C331.3,436.1,329,436,326.6,436.2L326.6,436.2z M284.3,455.5c2.3,0.6,4.4,1.7,6.2,3.2c1.3,1,2.7,1,4.2,1.1
			c5.8,0.5,11.4-0.3,17-1.2c0.1,0,0.2,0,0.3-0.1c0.3-0.1,0.6-0.3,1.1-0.5c-1-0.7-2.1-1.2-3.3-1.4c-2.1-0.7-3.6-2.2-5.5-3.3
			c-2-1.1-4.2-1.9-6.4-2.4c-3-0.7-6-1-9.1-0.9c-1.1,0.1-2,0.7-2.6,1.6c-0.7,1.4-1.9,2.5-3.3,3.1
			C283.2,455.2,283.7,455.5,284.3,455.5L284.3,455.5z M441,393.8c2.2,0.7,4.5,0.8,6.8,0.3c1.5-0.4,3-0.5,4.6-0.8
			c2.6-0.5,5.1-1.7,7.2-3.4c1.3-1.1,2.7-2.1,4.1-2.9c-1.1,0.1-2.3,0.4-3.2,1.1c-3.8,2.2-7.9,3.8-12.1,5c-0.5,0.2-1,0.2-1.4-0.1
			c2.9-1.1,5.8-1.9,8.7-3.2s5.5-2.9,8.4-4.2c-5.2,0.9-10.1,3.2-15.4,3.7c5.8-1.4,11.3-3.8,17.1-5.4c-1.6,0-3.2-0.7-4.8-0.5
			c-1.5,0.1-2.9,0-4.4-0.3c-1.8-0.2-3.6-0.2-5.3,0c-0.6,0-1.2,0.4-1.4,0.9c-3,3.6-6.9,5.7-10.9,7.9c-0.4,0.2-0.8,0-1.2,0.6
			C438.7,393.1,439.8,393.5,441,393.8z M460.2,373.6c-2.4,0.5-4.6,1.9-6.8,3.1c-0.4,0.2-0.6,0.6-0.7,1.1c-0.2,1-0.6,1.9-1,2.8
			c-0.6,1-0.2,1.3,0.7,1.1c1.3-0.1,2.6,0,3.9,0.1c2.3,0.1,4.3-1,6.3-2c3-1.6,5.4-3.9,8-6.1c1.1-0.9,2.2-1.8,3.6-2.8
			c-1-0.1-1.9,0.2-2.6,0.8c-1.8,2-4.3,2.9-6.4,4.3c-1.8,1.3-3.9,2.4-5.7,3.5l-0.7,0.4c-0.2,0.1-0.5,0.4-0.8,0
			c-0.3-0.4,0.2-0.5,0.4-0.7c1-0.8,2.1-1.4,3.3-2c2.2-1.3,4.3-3.1,7-3.8c0.4-0.1,0.4-0.1,0.9-1.4C466.4,373,463.3,373,460.2,373.6z
			 M294.8,463.9c-0.3-0.1-0.5,0.2-0.7,0.2c-0.2,0-0.5,0.3-0.7,0.3c-2.7-0.7-5.3,0.4-7.9,0.5c-3.5,0.1-7-0.1-10.5-0.8
			c-0.3-0.1-0.8-0.3-0.9,0.1s0.3,0.4,0.6,0.6c2.2,1.9,5,1.9,7.6,1.7c4-0.2,8.1,0,12.1-0.5c1.4-0.2,2.8,0.4,4.5,0
			C297.6,465,296.3,464.4,294.8,463.9z M288.7,441.6c-0.7,1-0.6,1.8-1.2,2.5c-1.5,1.9-2.9,3.7-4.5,5.4c-0.7,0.8-1.4,1.7-2,2.6
			c-0.3,0.3-0.6,0.6-0.9,0.9c-0.3,0.3-0.9,0.2-0.7,0.7s0.8,0.5,1.2,0.5c1.2,0,2.1-1,2.9-1.7c2.3-2.2,3.9-5.1,4.6-8.2
			C288.2,443.6,288.9,442.9,288.7,441.6L288.7,441.6z M284.1,475c-0.4-0.6-1-1.1-1.7-1.5l-0.3-0.1c-0.3,0-0.6,0.2-0.7,0.5
			c0,0,0,0,0,0c-0.2,0.6,0.3,0.5,0.6,0.6C282.6,474.7,283.2,474.7,284.1,475L284.1,475z"/>
		<path class="st1" d="M391.7,443.7c-4.2-0.1-8.3-0.4-12.4-1c-0.4,0-1.4,0.1-1.3-0.6c0.1-0.7,1-0.3,1.6-0.4l0.3,0.1
			c1.9,0.3,3.7,0.5,5.6,0.8c2.2,0.4,4.4,0.9,6.6,1.1C391.9,443.6,391.8,443.6,391.7,443.7z"/>
		<path class="st1" d="M275.2,448.3L275.2,448.3c-0.2,0.1-0.4,0.1-0.5-0.1c0,0,0-0.1-0.1-0.1c-0.1-0.1-0.1-0.4,0-0.5
			c1.6-1.1,2.6-2.7,4.4-3.5C278,445.7,276.7,447.1,275.2,448.3z"/>
		<path class="st1" d="M339.5,417.9c2.8-1.9,6.1-2.9,8.9-4.9c0.2-0.1,0.6-0.3,0.7,0.1l0,0c0.1,0.4-0.1,0.7-0.5,0.9c0,0,0,0-0.1,0
			c-2.3,0.7-4.2,2.2-6.4,3c-0.9,0.4-1.7,1.2-3.1,1.4C339.2,418.2,339.3,418.1,339.5,417.9z"/>
		<path class="st1" d="M445.9,379.1c-0.6,0.8-1.5,1.2-2.5,1.3C444,379.7,444.9,379.2,445.9,379.1z"/>
		<path class="st1" d="M390,397.1c-0.8,2.1-1.6,4.2-2.4,6.3c-1.1,2.6-2.4,5-4.8,6.8c-2.1,1.6-4.2,3.2-6.3,4.7
			c-0.4,0.3-0.9,0.5-1.4,0.6c-0.4,0.1-0.9,0-1.1-0.4c-0.2-0.5,0.3-0.8,0.6-0.8c2.5-1.2,4.9-2.7,7-4.4c2.9-2,4-4.9,5.2-8
			c-0.1,0-0.2,0-0.3,0c-3.5,3.2-6.9,6.3-10.4,9.5l-4.1,3.5c-0.3,0.2-0.7,0.5-1.1,0c-0.4-0.5,0.1-0.6,0.3-0.9
			c4.3-3.4,8.2-7.5,12.6-11c0.8-0.4,1.3-1.1,1.6-2l-0.7,0.1c-1.5,0.9-3,2-4.6,3c-1.5,1-2.6,2-4,2.8c-0.4,0.2-0.9,0.4-1.2,0.1
			c-0.2-0.3,0-0.7,0.3-0.9c2-1.2,3.9-2.5,5.7-3.9c2.3-1.5,4.8-2.9,6.7-5.2c0.7-0.8,1.5-1.7,2.4-2.6
			C390.4,395.4,390.3,396.3,390,397.1z"/>
		<path class="st1" d="M374.5,425.3c-2.1,0.1-4.2,0.3-6.3-0.6c-0.9-0.5-2.1-0.4-2.9,0.4l0,0c-0.2,0.2-0.4,0.2-0.6,0
			c-0.3-0.2-0.1-0.4,0.1-0.7c0.7-1,1.9-1.4,3.1-1c1.3,0.6,2.7,0.9,4.1,1c1.1,0,2.3,0,3.4-0.1c2.3-0.2,4.6,0.2,6.9,0.1
			c2.1-0.1,4.2,0.5,6,1.5c-0.5,0.1-1.1,0.1-1.6,0.1c-2.7-0.3-5.4-0.2-8,0.2c-2.7,0.6-5.3,1.3-8.1,1.8c-2.4,0.4-4.9,0.3-7.3-0.1
			c-0.4-0.1-0.8-0.2-0.6-0.6c0.2-0.3,0.5-0.4,0.8-0.3c0.6,0.2,1.2,0.3,1.9,0.3c3.1,0.3,6.2-0.4,9.2-0.9c1.1,0,2.1-0.4,2.8-1.2
			C376.4,425.2,375.4,425.2,374.5,425.3z"/>
		<path class="st1" d="M410.2,387.8c-1,1.3-2,2.5-3.1,3.6c-2.3,2.5-5,4.6-7.4,7c-1.2,1.1-2.8,1.9-3.8,3.3c-0.8,1-1.8,1.8-2.9,2.4
			c-0.4,0.3-1,0.5-1.3,0.1c-0.3-0.4,0.1-0.9,0.3-1.2c0.3-0.3,0.8-0.8,1.2-1.1c1.9-1.6,4.3-2.7,6-4.4c2.6-2.6,5.7-4.6,8-7.7
			c1-1.2,2.1-2.4,3.2-3.5C410.7,386.8,410.6,387.4,410.2,387.8z"/>
		<path class="st1" d="M406.6,417.5c-3.2,0.3-6.4,0.3-9.7,0.8c-4,0.6-7.9,0.5-11.7-1.2c-0.3-0.2-0.5-0.4-0.4-0.6
			c0.1-0.3,0.4-0.3,0.7-0.2c0.3,0.1,0.4,0.2,0.7,0.2c1.7,0.8,3.6,1.3,5.5,1.4c3.5,0.2,6.8-0.6,10.2-1c2-0.3,4-0.2,6,0.2
			C407.6,417.3,407.1,417.5,406.6,417.5z"/>
		<path class="st1" d="M305.8,435.3c-1.4,1.9-2.8,3.7-4.5,5.3c-2.2,2.7-4.6,5-7.3,7.1c-0.4,0.2-0.5,0.4-0.9,0.1
			c-0.3-0.3,0.2-0.6,0.3-0.8c0.6-0.6,1.2-1,1.8-1.5c2.5-2.1,4.9-4.5,6.9-7c1.3-1.5,2.7-2.7,4.1-4.3
			C306.2,434.7,306.1,435,305.8,435.3z"/>
		<path class="st1" d="M291.3,442.9L291.3,442.9c-0.1,0.2-0.4,0.3-0.7,0.2c-0.4-0.2-0.2-0.6,0-0.8c0.1-0.2,0.3-0.5,0.5-0.7
			c1.9-1.9,3.8-3.6,5.8-5.3c0.5-0.4,0.8-1.2,1.9-1C296.2,437.6,293.7,440.2,291.3,442.9z"/>
		<path class="st1" d="M311.7,450.5c3.8-0.6,7.7-0.8,11.5-0.8C319.4,450.8,315.5,451,311.7,450.5z"/>
		<path class="st1" d="M303.4,449.2c-0.5-0.1-0.8-0.5-0.4-1c0.8-1,1.8-1.7,2.9-2.2l0,0c0.3-0.1,0.6,0,0.8,0.3
			c0.1,0.3-0.2,0.5-0.2,0.7c-0.4,0.3-0.8,0.5-1.2,0.8c-0.6,0.4-0.8,0.9,0.2,1.2c0.7,0.2,1.3,0.7,1.7,1.3
			C305.5,449.8,304.5,449.6,303.4,449.2z"/>
		<path class="st1" d="M261.6,459.9c-0.5,0.2-1.1,0.1-1.5-0.2c-0.8-0.5-0.9-1.6-0.4-2.4c0,0,0,0,0,0c0.4-0.6,0.8-1.2,1.3-1.7
			c2.6-3,4.9-6.2,6.8-9.7c0.9-1.6,1.7-3.2,2.4-4.9c0.1-0.3,0.3-0.8,0.7-0.6c0.4,0.1,0.3,0.5,0.1,0.8c-1,2.7-2.3,5.3-3.8,7.8
			c-1.8,2.8-3.8,5.5-6,8c-0.4,0.5-0.9,1.3-0.5,1.8c0.4,0.5,1.1,0.1,1.6,0c0.3,0,0.8-0.6,1-0.2c0.2,0.5-0.4,0.7-0.6,0.8
			C262.3,459.6,262,459.8,261.6,459.9L261.6,459.9z"/>
		<path class="st1" d="M338.1,439c1.5-0.1,3.1,0.1,4.6,0.4c0.3,0,0.5,0.3,0.6,0.6l0,0.1c0,0.1-0.2,0.3-0.3,0.2
			c-1.3-0.2-2.2,0.8-3.3,0.9c-2.1,0.5-4.2,0.9-6.2,1.5c-2,0.6-4,1.7-6.1,1.9c-1.1,0.3-2.3,0.2-3.4-0.2c2.2-0.2,4.4,0,6.2-1.1
			c2.4-1.3,4.9-2.2,7.6-2.7l2.4-0.6l0-0.2c-2.5-0.1-4.9-0.1-7.3-0.1C334.5,439,336.4,439.3,338.1,439z"/>
		<path class="st1" d="M291.3,453.6c3.4-0.4,6.8-0.2,10.1,0.7c2.6,0.7,4.8,2.2,7.3,3.3c0.2,0.1,0.5,0.2,0.4,0.4
			c-0.1,0.2-0.2,0.3-0.4,0.4c-0.3,0.1-0.7,0.1-1.1,0c-2.5,0-4.9-0.1-7.5,0c-2.1,0.3-4.3,0.2-6.4-0.1c-0.5-0.2-1.2,0.1-1.2-0.6
			c0-0.7,0.7-0.4,1.2-0.3c2.3,0.3,4.5,0.3,6.8,0.1c1.9-0.1,3.9-0.1,5.8,0.1c0.3,0,0.8,0.2,0.8-0.4c0.1-0.6-0.4-0.3-0.7-0.4
			c-1.1-0.3-2.1-0.6-3.2-1c-4-1.7-8.3-1.9-12.5-1.6c-0.6,0-1.8,0.4-1.9-0.1c-0.2-0.5,1.2-0.4,1.7-0.6
			C290.7,453.5,291,453.5,291.3,453.6z"/>
	</g>
</g>
<g>
	<defs>
		<path id="SVGID_3_" d="M275.6-22.1l-419.7,175.5L21.4,549.2l419.8-175.6L275.6-22.1z M86.4,477.3c1.8-1.8,4.2,1.4,2.4,3
			c-1.5,1.4-3.1,3.1-4.7,4.7l0,0.2c0.4,1,0,2.2-1,2.6c-1.5,0.8-3,1.6-4.5,2.5c-12.4,11.3-27.3,22.9-42.9,24.6
			c-2.4,1.5-4.8,3.1-7.1,4.8c-0.3,0.2-0.6,0.3-0.9,0.4l-5.5,4c-0.9,0.6-2.1,0.4-2.8-0.5c-1.3,1.5-2.7,3.1-4,4.7
			c-1.6,2-4.8-0.4-3.2-2.4c10.1-12.6,21.7-23.1,36.9-29c0.9-0.3,1.9,0,2.4,0.8c0.7-0.2,1.4,0.1,1.9,0.7c5.5-3.8,11.3-7.2,16.8-10.9
			c0.2-0.1,0.5-0.3,0.7-0.3c1.1-0.2,2.2,0.5,2.5,1.6c0.7-0.4,1.4-0.7,2.2-1.2c0.7-0.6,1.4-1.2,2.1-1.8c0.2-0.5,0.6-0.9,1-1.2
			l0.3-0.1C81.4,482.2,83.9,479.8,86.4,477.3L86.4,477.3z M170.7,422.9c2.5-1.1,5.2-2.1,7.7-3.2c0.2-0.2,0.4-0.3,0.6-0.3
			c8.4-3.5,17.1-6.4,25.6-9.9c2.5-0.9,3.9,2.7,1.6,3.7c-1.2,0.5-2.3,0.9-3.5,1.4c-0.1,0.7-0.6,1.2-1.2,1.3l-1.5,0.6
			c-0.1,0.6-0.5,1-1.1,1.3c-4.5,2.4-9.5,3.4-14.4,5.2c-0.4,0.1-0.7,0.1-1.1,0.1c-1.4,0.5-2.7,0.9-4.2,1.2c-0.5,0.2-1.1,0.1-1.5-0.1
			c-2,0.7-3.8,1.5-5.8,2.3C169.8,427.6,168.3,423.9,170.7,422.9L170.7,422.9z"/>
	</defs>
	<clipPath id="SVGID_4_">
		<use xlink:href="#SVGID_3_"  style="overflow:visible;"/>
	</clipPath>
	<g class="st2">
		<path class="st1" d="M212.1,102c4.6,4.3,8.4,9.3,12.7,14c1.8,1.9,2.9,4.3,4.9,6c4.3,3.8,9,7.1,13.9,10c0.8,0.5,1.4,1.3,2.7,1.5
			c0-1-0.5-2-1.3-2.6c-1.7-1.9-3.1-4.1-4.1-6.5c-3.5-7-8.6-13.1-14.9-17.9c-3.3-2.3-6.4-4.9-9.4-7.6c-3-2.5-5.6-5.3-8-8.4l0,0
			c0.8,0,1.1,0.7,1.7,1.3c3.7,3.9,7.7,7.6,12.1,10.8c3.4,2.6,6.9,5,10.6,7.2c2.9,1.6,5.5,3.6,8.5,5.1c0.4,0.2,0.8,0.7,1.6,0.3
			l-4.2-7.2c-1.8-3-3.4-6-5-9.1c-1.4-3.1-3.9-5.5-6.1-8c-2-2.4-4.3-4.6-6.8-6.5c-2.3-1.8-4.6-3.6-5.9-6.5c3.4,3.5,7.1,6.6,11.2,9.3
			c3.9,2.6,7.6,5.9,12.4,7.4c-3.1-4.3-4.3-9.4-6.4-14.1c-1.6-3.5-3.2-7.1-6.2-9.8c-3.3-2.8-5.9-6.2-9-9.1c-0.8-0.7-1.4-1.5-2-2.4
			c-1.5-2.9-3.6-5.3-5.2-8.1c-2-3.3-4.7-6.2-6.2-9.8l0,0c0.6,0,0.8,0.5,1,0.9c3.5,4.6,6.4,9.6,10,14.3c2.4,3.4,5.2,6.4,8.4,8.9
			c5,3.8,10,7.5,15,11.3c0.2,0.1,0.5,0.1,0.6-0.1c0,0,0,0,0,0c-0.1-0.4-0.3-0.9-0.4-1.3c-2.7-5.8-4.4-11.9-7.6-17.5
			c-1.5-2.5-2.7-5.1-4.6-7.3c-4.3-4.6-7.7-9.9-11.5-14.9c0-0.2-0.1-0.4-0.2-0.6c3.9,4.9,8,9.6,12.3,14.3c4.1,4.7,8.6,9,13.6,12.8
			c0.4-0.7,0.5-1.6,0.3-2.4c-0.7-6.1-2.2-12.1-4.6-17.7c-1.8-5.1-4-10-6-15c-2.1-5.4-4.5-10.7-7.3-15.8c-0.8-1.5-1.6-3-2.3-4.5
			c1.7,1.7,2.6,3.9,3.7,5.9c2.4,4.5,4.5,9.1,6.3,13.9c3,7.4,6,14.7,9.2,22.1c1.1,2.3,2.3,4.5,3.6,6.6c2.3,4.2,5.6,8.1,6.6,12.9
			c0.4-0.2,0.7-0.6,0.7-1.1c1.7-4.6,2.7-9.5,2.8-14.4c0.2-5.1,1.6-9.9,3-14.9l0,0c0.4,1.2,0,2.1-0.1,3.3c-0.2,2.7-1.4,5.3-1.2,8.1
			c0.2,4.4,0.4,8.9,0.7,13.3c0.1,3.5,0.7,7,1.7,10.4c1.2,3.6,1.2,7.4,0.1,11c-0.4,1.2-0.8,2.5-1.1,3.7c2.9-2.7,5.3-6,6.8-9.6
			c0.7-1.7,1.5-3.4,2.4-5c1.8-3,3.2-6.1,4.3-9.4c0.1-0.4,0.2-1,0.9-0.7c-0.4,1.3-0.8,2.6-1.4,3.9c-1.3,3.1-2.3,6.3-3.2,9.6
			c-1,4.5-1.7,9-1.9,13.6c0,2.2-0.2,4.5-0.6,6.7c-1.1,5.4-2.7,10.7-7,14.6c-0.8,0.8-0.3,1.4,0.3,2.2c0.7-1.1,1.7-2.1,2.8-2.9
			c1.9-1.5,3.4-3.4,4.5-5.6c3.6-6.6,6.9-13.3,9.8-20.2c2.6-6.2,5.8-12.2,8.3-18.6c0.2-0.7,0.6-1.2,0.9-1.7c-0.5,2.3-1.3,4.5-2.3,6.6
			c-3.7,7.8-7,15.8-9.9,23.9c-0.8,2.3-1.6,4.6-2.6,6.8c-1.4,3-2.3,6.3-2.5,9.6c-0.2,4.7,0.8,9.4-0.3,14.7c1.3-1,2.4-2.2,3.4-3.5
			c3.3-4.8,5.6-10.2,7.8-15.6c0.3-0.9,0.7-2,1.2-2.9c3.9-7,7.2-14.3,10.5-21.6c0.6-1.4,0.9-2.9,2.1-4c-1,2.8-2,5.7-3.2,8.4
			c-2.3,5-4.7,9.7-6.8,14.7c-2,4.6-3.3,9.4-4.9,14.2c-1.5,4.5-2.4,9.2-2.7,14c-0.3,3.2-0.1,6.5-0.6,9.9s-1.3,6.7-3.8,9.3l-1.5,2.1
			c1.5-0.5,2.9-1.4,4-2.6c4.2-3.8,8.5-7.7,11-13c0.5-0.9,1.1-1.8,1.8-2.6c1.6-1.9,3.1-3.9,4.3-6.1c3-5.7,7-10.8,10.4-16.3
			c0.4-0.6,0.8-1.1,1.3-1.7c-0.2,1.2-0.8,2.3-1.5,3.3c-2.9,4.5-6,8.7-8.6,13.5c-0.8,1.5-1.7,2.9-2.7,4.2c-1.7,2.5-3.3,5-4.7,7.6
			c-2.6,4.5-5.4,8.8-6.7,13.9c-0.8,3.1-2.2,6-2.3,9.3c0,2.8-0.7,5.7-2.1,8.1c-0.2,0.3-0.6,0.8-0.1,1.3c1.1-0.8,2.2-1.6,3.3-2.3
			c4.5-2.6,8.4-6.1,11.5-10.2c1.3-1.8,2.7-3.6,4.1-5.4c4.2-5.3,9.1-10.1,12.8-15.8c0.4-0.6,0.9-1,1.5-1.2l0,0c-1,2-2.2,4-3.5,5.8
			c-2.3,3.2-5.3,5.9-7.7,9c-2.7,3.5-5.4,7-7.9,10.7c-3.7,5.3-6.3,11.3-7.6,17.6c-0.5,2.7-1.3,5.3-2.3,7.9c-0.4,1.2-0.9,2.4-1.3,3.6
			l0.3,0.3c1.7-2.1,4.2-3.3,6.2-5.3c4.2-4.1,7.4-9.2,10.7-14c5.2-7.7,10.5-15.3,15.7-23c0.3-0.6,0.7-1,1.3-1.3
			c0.2,0.5-0.2,0.8-0.4,1.1l-7.9,11.8c-5.4,8-10.8,15.8-16.1,23.9c-2.9,4.1-4.4,9-4.2,14c0.1,2.3-0.4,4.7-1.3,6.8
			c-0.7,1.5-1.3,3.1-1.9,4.6c1.7-0.9,3.1-2.1,4.2-3.6c1.5-2,2.9-4.1,4.5-6c3.6-4.7,6.7-9.7,9.5-14.9c1.2-2.2,2.6-4.3,4-6.4
			c3.6-4.9,7.7-9.5,10.6-14.9c0.4-0.7,0.8-1.3,1.2-2.1c-1,3.1-2.5,6-4.4,8.5c-4.2,6-9.3,11.5-12.3,18.2c-0.1,0.2-0.3,0.4-0.5,0.6
			c-2.4,3.7-4.9,7.3-7,11.1c-2.9,4.9-4.8,10.4-5.6,16c-0.4,3.2-1,6.4-1.9,9.4c-0.5,1.1-0.8,2.2-1.1,3.3c0.3-0.1,0.5-0.1,0.7-0.1
			c3-2.6,5.6-5.6,7.9-8.8c1.9-2.8,3.5-5.8,5.5-8.6c4.4-6.5,7.9-13.5,12.2-20c1.2-2,2.6-3.8,4.3-5.4c0,0.2,0,0.5-0.2,0.7
			c-2.7,4.3-5.6,8.4-8.1,12.9c-2.6,4.8-5.6,9.2-8.5,13.8c-0.7,1.4-1.5,2.7-2.3,3.9c-3.4,4.4-5.9,9.4-7.5,14.7l-3.7,13.3
			c-0.2,0.6-0.6,1.2-0.2,1.8c0.9-0.2,1.7-0.6,2.3-1.3c2.5-1.9,4.7-4.1,6.7-6.6c4.1-5.1,8.1-10.3,12-15.6c1.9-2.6,4.4-4.5,6.9-6.8
			c0.1,0.6-0.2,1.1-0.7,1.4c-3.4,3.3-6.5,7-9.2,10.9c-1.6,2.6-3.6,4.5-5.4,7c-1.8,2.5-3.7,5.1-5.4,7.7c-1.9,2.5-3.3,5.4-4.4,8.3
			c-1.1,4.1-2.3,8.1-5.4,11.4c1.4,0.1,2.7-0.2,3.9-0.8c4.7-2.1,9.2-4.6,13.3-7.6c3.4-2.3,6.2-5.3,9.3-8c1.3-1.3,2.9-2.2,4.6-2.8
			c-1.9,1.4-3.6,2.9-5.3,4.6c-3.3,3.2-6.8,6.1-10.3,9.1c-4.5,3.9-8.9,7.9-11.9,13.2c-1.1,2.1-2.6,4.1-4.2,5.9c-1.7,2-4,3.4-6.6,3.8
			c-1.3,0-2.4,0.9-2.7,2.2l-3.5,9.3c-3,8.2-5,16.8-8.4,25c-3.4,8.2-7.2,16.1-10.5,24.2c-2.2,5.2-5.1,10-7.6,15.1
			c-2.2,4.6-4.4,9.2-6.7,13.6c-3.1,5.6-6.4,11.1-10.1,16.4c-5.1,7.7-10.7,15-16.7,22c-1.2,1.3-2.1,2.8-3.4,4.1
			c-3.4,3.4-6.7,7-10.1,10.4c-3.1,3.2-6.3,6.2-9.6,9.2c-6.9,5.7-13.5,11.8-20.5,17.3c-5.9,4.6-11.9,9.3-18.1,13.6
			c-3.5,2.4-7.2,4.3-10.4,7c-1.8,1.4-3.7,2.6-5.6,3.7c-0.4,0.2-1,0.2-0.8,1c0.6-0.2,1.3-0.4,1.9-0.5c5.5-1.7,11.1-2.9,16.8-3.5
			c9.8-1.2,19.5-2.4,29.1-3.9c2.4-0.4,4.8-0.8,7.1-1.4c5-1.3,9.9-3.1,14.5-5.3c10.8-4.9,21.4-10.1,30.8-17.6
			c3.9-3.1,8.1-5.5,11.7-8.9c2-1.8,3.9-3.8,6.1-5.5c4.4-3.7,9-7.1,13.6-10.6c5-3.8,9.5-8.2,14.4-12.1c4.5-3.5,8.8-7.3,13.3-10.9
			c7.4-5.8,14.9-11.6,22.3-17.3c0.6-0.4,1.1-0.9,1.5-1.4c1.5-2.4,3.7-4.1,5.6-5.9c0.5-0.8,1.4-1.2,2.4-1.1c-0.2,1-0.8,2-1.6,2.7
			c-5.4,5.3-10.7,10.6-16.1,15.8c-0.6,0.5-1.1,1.1-1.6,1.7c-2.2,2.9-4.7,5.6-7.3,8.1c-6.9,6.2-13.7,12.5-20.3,19
			c-3,2.9-5.8,5.9-8.8,8.7c-5.1,4.6-10.3,9.1-15.1,13.9c-8.8,8.6-18.1,16.5-28,23.7c-6.5,4.8-14.2,7.7-21.8,10.5
			c-4.8,1.5-9.7,2.6-14.7,3.1c-3.9,0.7-7.8,1.1-11.8,1.1c-0.9,0-1.8,0-2.7,0.2c-4.8,0.8-9.7,1.1-14.6,1.2
			c-6.2,0.2-12.3,0.7-18.4,1.6c-4.3,0.7-8.7,1.7-13,2.4c-5.6,1.1-11.1,2.7-16.4,4.9c-6.4,2.6-12.5,5.7-19,8.1
			c-4.5,1.7-9,3.4-13.5,5.3c-11.6,5.1-23.3,9.5-35.2,13.7c-2.5,0.9-4.8,1.8-7.2,2.6c-5.6,1.9-11.3,3.6-16.9,5.7
			c-8.8,3.1-15.6,2.8-7.1,0c8.3-2.8,16.8-5.2,25-8.2c7.1-2.6,14.3-4.9,21.4-7.7c5.1-2,10.1-4.1,15.3-6c2.9-1.1,5.6-2.7,8.6-3.9
			c11.3-4.1,22.3-8.9,33.4-13.3c1.2-0.5,2.5-1,4.3-1.7c-1.2-0.1-2.3,0.1-3.4,0.5c-0.1,0-0.1,0.1-0.2,0c-0.7,0.2-1.5-0.3-1.7-1
			c-1.2-3-2.2-2.6-4.3-1.7c-3.8,1.6-7.4,3.1-11,4.9c-3.6,1.8-7.4,3.6-11.2,5.2c-2.4,1-4.8,1.4-7,2.9c-0.3,0.2-0.6,0.3-0.9,0.4
			c-6,1.2-11.3,4.3-16.9,6.4c-4.6,1.7-9.2,3.6-13.6,5.6c-1.5,0.7-3.3,0.9-4.8,1.6c-1.3,0.3-2.4,1-3.3,1.9c-0.9,1.1-2.5,1.1-3.8,1.3
			c-3.5,0.9-7.2,2.1-10.6,2.9c-4.3,1-8.4,2.7-12.9,3.2c-2.5,0.4-4.7,1.5-7.2,2.2c-9,2.4-19.2,2.9-6.6-0.6c4.2-1.1,8.7-1.9,13-3.1
			c4.3-1.2,8.2-2.4,12.3-3.7c3-1,6.1-1.4,8.6-3.8c0.5-0.5,1.4-1.3,2.4-0.8c0.8,0.4,1.8,0.4,2.6,0c3.4-1.1,6.9-2.2,10.3-3.5
			c3-1.1,5.9-2.6,8.9-3.7c7.4-2.5,14.4-6.2,21.7-8.9c4.4-1.7,8.8-3.7,13.1-5.5c4.5-1.7,9-3.6,13.4-5.7c1.9-1.2,4-2.1,6.1-2.8
			c1.8-0.6,3.5-1.5,5-2.7c0.8-0.5,1.5-0.9,2.3-1.5c1.7-1.1,3.5-1.9,5.2-3.1c5.4-3.8,11-7.3,16.7-10.7c7-4,13.3-9.1,20-13.5
			c2.8-1.9,5.4-4.1,8.3-5.9c4.4-2.9,8.6-6.3,12.4-10c6.1-5.6,11.9-11.6,17.3-18c4.1-4.9,8.2-9.8,11.9-14.9c3.2-4.4,6.3-9,9.4-13.4
			c3.4-4.5,6.5-9.2,9.4-14.1c3-5.6,6.6-10.8,9.3-16.6c1.7-3.5,3.7-7,5.4-10.5s3.2-7.2,4.8-10.8c1-2.3,1.8-4.7,2.9-6.9
			c2.1-4.6,4-9.4,5.7-14.1c2-5.4,3.6-10.8,5.3-16.3c1.3-4.1,2.2-8.4,2.6-12.8c0.2-2.1,0.5-4.3-1-6.1c-1.6-2.2-3-4.6-4.1-7.1
			c-1.5-3.1-2.5-6.5-3.8-9.6c-3-7-6.4-13.8-10.1-20.4c-0.6-1-1.1-2-1.6-3c-2-5.1-4.3-10.1-7-14.9c-0.4-0.8-0.8-1.7-1.1-2.5
			c-0.4-0.7-0.7-1.4-0.6-2.2c2.4,4.3,4.8,8.6,7,13c2.5,5.5,5.4,10.8,8.5,15.9c2.6,3.8,6.1,7.1,10,9.5c0.4,0.4,1,0.5,1.6,0.3
			c-1.5-5.6-2.6-11.3-3.3-17.1c-0.2-3.8-1.1-7.5-2.7-11c-3-5.9-5.8-11.8-8.9-17.8c-1.4-2.6-2.6-5.3-3.9-8c-0.9-1.5-1.6-3.1-2-4.8
			c0.5,0,0.8,0.4,0.9,0.9c1.4,3.5,3.5,6.7,5.2,10c3.2,6.2,6.6,12.3,10,18.2c1.3,2.3,3,4.3,5,6c-0.5-3.5-0.4-6.3-0.8-9.3
			c-0.2-1.6,0.1-3.2,0-4.8c-0.5-4.9-2.4-9.6-5.3-13.6c-1.4-1.8-2.6-3.7-3.7-5.7c-2.3-4.2-4.6-8.3-6.7-12.6c-1.1-1.8-1.9-3.9-2.2-6
			c0.6,0.5,1,1.1,1.4,1.8c3.1,6.6,6.6,12.9,10.6,19c0.4,0.8,1,1.5,1.6,2.1c1.7,1.8,3.3,3.7,4.8,5.8c0.3,0.5,0.7,0.9,1.2,1.2
			c-0.7-2.4-1.1-4.9-1.2-7.4c-0.3-2.8-0.8-5.6-1.5-8.3c-1.6-5.6-4.3-10.8-8.1-15.3c-2.8-3.3-5-6.9-6.8-10.8c-0.6-1.6-1.4-3-2.3-4.5
			c-2.5-3.8-5.5-7.2-8.1-10.8c-2-2.9-4.3-5.5-5.9-8.7c0.3,0.1,0.6,0.3,0.8,0.5c3.9,5.2,7.6,10.4,11.8,15.4c1,1.3,1.8,2.6,2.6,4
			c1.3,2.2,2.3,4.6,3.5,6.9c2.2,3.8,5.3,6.6,7.8,10.1c1.2,1.7,2.5,3.3,4,4.8c0.4,0.4,0.7,1,1.5,1c-0.8-2.9-1.5-5.9-2.4-8.6
			c-0.9-2.8-1.6-5.6-3.3-8c-1.4-1.8-2.9-3.6-4.4-5.5c-2.9-3.6-6.1-6.9-8.8-10.6c-0.3-0.4-0.8-0.7-0.5-1.6c4.8,5.2,8.8,10.9,14.7,15
			c-1.6-4-3.5-7.8-5.5-11.6c-1.1-2-2.4-3.8-3.9-5.4c-4.8-5.2-9.5-10.3-14.2-15.5c-2.6-3-5.2-5.9-8-8.7c-2.2-2-4.2-4.2-5.9-6.7
			c6.7,5.9,12.1,12.6,18.1,18.8c1.9,2,3.7,4,5.6,6c1.3,1.5,2.9,2.8,4.7,3.8c2.1,1,4.2,2.1,6.1,3.4c0.5,0.2,0.8,0.7,1.6,0.2
			c-1.8-2.6-3.5-5.4-4.9-8.3c-0.9-1.8-1.9-3.5-3-5.2c-2.5-3.4-5.3-6.4-8.5-9.2c-3.6-3.3-6.8-7-9.5-11c-1.8-2.5-3.8-4.9-5.8-7.3
			C216.3,107.1,213.8,104.9,212.1,102L212.1,102z M264.3,273.2c0,0.1-0.1,0.1-0.2,0.2c-0.6,1.3-1.4,2.9-0.2,4.1s3,0.6,4.5-0.1
			c2-0.9,3.7-2.4,5-4.1c1.9-2.3,3.3-4.9,5.7-6.8c0.6-0.4,0.8-0.2,0.9,0.3c-1.7,1.2-2.5,3.1-3.6,4.8c-1.4,2-3,3.9-4.8,5.7
			c1.6-0.5,3-1.6,3.9-3c1.6-2,3-4.2,4.2-6.4c0.2-0.3,0.2-0.7,0.1-1.1c2-0.9,2.7-3.1,4.3-4.4c-1.3-0.2-2.1,0.7-3.1,1
			c-3.6,1.1-7.2,2.4-10.5,4.1c-2.3,1-4.2,2.6-5.8,4.5C264.4,272.1,264.2,272.6,264.3,273.2L264.3,273.2z M199.9,460.2
			c-1.2,1.3-2.6,2.3-4.3,2.9c-4.7,1.8-9.5,3.6-14.2,5.5c-0.4,0.1-0.8,0.3-1.1,0.7c2.9,0.5,5.7-0.1,8.6-0.6c-1,0.9-2.2,1.4-3.5,1.6
			c-4.9,0.8-9.9,1.6-14.8,2.2c-4.7,0.6-9.5,1.3-14.3,2c-5.1,0.7-9.9,1.8-15.1,2.2c-0.1,0-0.3,0.1-0.5,0.4c1,0.2,2.1,0.2,3.1-0.1
			c2.9-0.3,5.8-0.4,8.7-0.4c4,0,8-0.4,12-1.1c3.4-0.5,6.8-0.1,10.1-0.6c6.5-1,13.2-1.3,19.5-3.7c6-2.3,12.1-4.5,17.6-7.9
			c4.1-2.6,8-5.4,11.8-8.5c6.1-4.8,11.8-9.7,17.4-15c7.9-7.5,16.1-14.7,23.8-22.3c4.8-4.8,9.8-9.3,14.6-14c3.4-3.3,7-6.4,10.5-9.7
			c2.6-2.6,5-5.4,7.2-8.4c-2.3,1.4-4.4,2.9-6.4,4.7c-6.8,5.3-13.5,10.7-20.2,16.2c-6.2,5.2-12.1,10.7-18.6,15.4
			c-3.1,2.3-6.2,4.7-9.1,7.1c-2.9,2.4-5.6,5.4-8.7,7.7c-6.2,4.5-11.8,9.8-18.5,13.6c-7.9,4.7-16.1,8.9-24.5,12.6
			c-0.9,0.4-1.7,0.8-2.6,1.2C192.2,462.9,196.1,461.6,199.9,460.2L199.9,460.2z M111.4,479.6c2-1,3.9-2.2,5.7-3.5
			c0.7-0.5,1.3-1,1.9-1.4c4.8-2.6,9.4-5.6,13.8-8.8c7.7-5.3,15.5-10.1,22.7-16.1c4.9-4,10.1-7.9,14.7-12.1c3-2.7,6.2-5.2,9.2-7.8
			c3.2-2.9,6.1-6,9.1-9c2.2-2.2,4.2-4.6,6.4-6.7c2.3-2.1,4.3-4.4,6.1-6.8c2.5-3.5,5.7-6.3,8.3-9.7c5.6-7.5,10.9-15.4,16-23.4
			c2.7-4.4,5-9,7.1-13.7c2.1-4.4,4.5-8.7,6.7-13.2c2.1-4.2,4.1-8.4,5.9-12.7c2.3-5.2,4.7-10.3,6.8-15.4c3.1-7.9,5.8-15.9,8.1-24
			c1.3-4.4,2.5-8.8,4-13.2c0.4-1,0.3-1.7-0.6-2.2c-0.8-0.4-1.1-1.3-1.7-2c-0.5-0.4-1-0.3-1.1,0.3c-0.1,0.8-0.2,1.6-0.2,2.4
			c-0.2,5.4-1.3,10.8-3.3,15.8c-0.5,1.2-0.6,2.5-0.9,3.8c-2.6,8.2-5.5,16.4-8.9,24.3c-2.2,5.1-4.5,10.2-6.6,15.3
			c-1.6,4.1-4,7.9-5.9,11.8c-2.1,4.4-4.4,8.6-6.9,12.7c-4.4,7.1-8.2,14.5-13.4,21.2c-2.5,3.2-4.5,6.9-6.9,10.1
			c-2.9,4-6,7.9-9.2,11.8c-6.3,8-13.3,15.4-20.8,22.3c-4.3,4-8.9,7.7-13.6,11.2c-7.2,5.2-14.4,10.4-21.6,15.5
			c-2.9,2.1-5.9,3.9-8.9,5.7c-5,3-9.7,6.3-14.7,9.2c-3.1,1.8-6.3,3.6-9.4,5.4c-0.6,0.4-1.9,0.5-1.4,1.8c0,0.2,0.1,0.3,0.2,0.5
			c0.5,1,1.8,1.4,2.8,0.9c0,0,0.1,0,0.1,0C111.1,479.8,111.2,479.7,111.4,479.6L111.4,479.6z M255.7,116c0.2-0.4,0.2-0.8,0.1-1.2
			c-1.2-4-2.2-7.9-5.5-10.9c-1.3-1.2-2.5-2.7-3.9-4c-2-1.9-4.6-2.6-7-3.6c-3.3-1.5-6.5-3.3-9.4-5.4c-0.4-0.2-0.6-0.4-1.2-0.8
			c-0.1,0.7,0.3,1.4,0.9,1.7c2.1,1.9,3.8,4.2,5,6.8c2.2,4.2,4.4,8.5,6.8,12.5c1.5,2.4,3.4,4.5,5.5,6.3c2.1,1.8,4.6,2.9,7,4.6
			C254.8,119.9,255,117.8,255.7,116L255.7,116z M258.4,141.7c-0.2-0.8-0.3-1.6-0.2-2.4c1-2.9,0.1-5.8-0.7-8.5
			c-0.2-0.3-0.2-0.6-0.3-0.9c0.4-3.2-2-5-4-6.8c-2.2-1.9-4.8-3.1-7.3-4.6c-0.3-0.2-0.6-0.1-1.2-0.2c1.2,1.8,2.8,3.4,4.5,4.7
			c2.5,1.8,4.6,4.1,6.1,6.8c0.9,1.6,1.3,3.4,1.1,5.2c-0.2,0.5-0.4,1-0.9,0.9c-0.5-0.1-0.4-0.6-0.4-1.1c0.5-4.9-2.6-8-5.9-10.7
			c-1.7-1.4-3.7-2.6-4.6-4.6c-0.8-2-2.3-2.9-4-3.8c-2-1-3.9-2.2-5.8-3.5c-0.3-0.4-0.8-0.6-1.3-0.5c-0.2,0.7,0.3,1,0.7,1.3
			c3.2,3.2,5.8,7,7.6,11.1c1.8,3.6,4.4,6.7,6.6,10.1c0.6,0.8,1.3,1.4,2.2,1.9C253.6,137.6,256.2,139.5,258.4,141.7L258.4,141.7z
			 M250,102.2c1.7-7.8-0.9-14-6.3-19c-4.3-4-8.9-7.6-13.8-10.7c-0.5-0.4-0.9-1-1.8-0.8c0,0.2,0.1,0.5,0.2,0.7c3,3.7,4.6,8,6.4,12.4
			c1.4,3.6,2.9,7.2,5.6,10.1c0.6,0.7,1.2,1.3,2,1.7C245.4,97.9,248,99.8,250,102.2L250,102.2z M263.6,155.2c1-0.2,1.4-0.9,1.3-1.2
			c-0.8-1.3,0.3-2.1,0.8-2.9c0.5-1,1.2-1.9,1.9-2.7c2.5-2.5,3.4-5.8,4-9.2c0.5-3.1,0.8-6.2,0.9-9.3c0.1-4.2,0.8-8.5,1.9-12.5
			c-0.7,0.2-0.7,0.8-0.9,1.2c-1.6,3-3.5,5.8-5.8,8.3c-1.6,2-3.4,3.9-5.3,5.6c-1.1,1-1.9,2.4-2.1,4c-0.5,1.8-0.2,3.9-0.8,5.7
			c-0.1,0.3,0,0.7,0.3,0.9C262.1,146.6,263.5,150.8,263.6,155.2L263.6,155.2z M237.4,129.7c1.3,1.7,2.7,3.3,4.2,5
			c1.9,2.2,3.5,4.6,4.8,7.2c1.7,3.5,3.8,6.7,6.1,9.8c0.3,0.4,0.6,0.7,1,1c2.2,1.5,4.2,3.1,6.1,5c0.9-0.5,1.5-1.5,1.3-2.5
			c-0.1-2.4,0-4.8-0.3-7.2c-0.3-1.8-1.1-3.4-2.3-4.7c-2.7-3-5.9-5.5-9.5-7.3c-2.8-1.5-5.5-3.1-8.1-4.8
			C239.7,130.4,238.6,130,237.4,129.7L237.4,129.7z M255.8,110c4.2-4.8,6.8-9.9,7.2-15.8c0.4-4.4,0.8-8.7,1.6-12.9
			c0.1-0.7,0.4-1.5-0.1-2.1c-0.7,0.2-0.8,1-1,1.5c-1.5,3-3.5,5.8-5.8,8.3c-2.5,2.7-4.4,5.8-5.5,9.3c-0.3,1-0.6,2-0.7,3
			c-0.4,1.4,0.1,3,1.3,3.9C254.1,106.2,254.6,108.2,255.8,110L255.8,110z M243.5,148.8c3.8,4.7,6.1,9.8,8.5,14.8
			c1.3,2.9,3.4,5.3,6,7.1c1.8,1.2,3.4,2.7,4.8,4.3c0.2,0.4,0.6,0.6,1,0.6c2.6-7.1-0.8-14.6-7-18.6c0.1,0.8,0.4,1.6,1.1,2.2
			c2.2,2.5,3.1,5.6,4,8.7c0.3,0.8,0.3,1.7,0,2.6c-0.1,0.5-0.5,0.9-1,0.9c-0.6,0-0.7-0.6-0.8-1c0-1.1-0.1-2.2-0.1-3.4
			c-0.2-2.3-1-4.4-2.5-6.2c-0.2-0.2-0.3-0.4-0.4-0.6c-2.4-5.9-8-8.3-13.1-11.2C244.1,148.8,243.9,148.8,243.5,148.8L243.5,148.8z
			 M255.4,186.5c-0.1,0.2-0.1,0.5-0.2,0.7c1.7,3.7,2.3,7.7,3,11.6c0.2,1.2,0.3,2.4,0.3,3.6c0.1,3.1,1.1,6.1,2.8,8.6
			c0.5,0.5,0.8,1.2,0.9,1.9c0.2,3.1,2.7,4.7,3.9,7.4c4.1-5.6,4.7-11.4,1.8-17.4c-1.7-3.6-4.6-6.3-6.8-9.6
			C259.6,190.8,257.3,188.9,255.4,186.5L255.4,186.5z M264.5,195.4c0.6-0.2,0.5-0.8,0.9-0.9c3.8-2.6,3-6.4,2.3-9.8
			c-0.7-3.9-2.9-7.5-6.2-9.8c-2.6-1.9-5.2-3.8-7.9-5.6c-0.3-0.2-0.7-0.3-1.1-0.1c1.7,3.2,2.9,6.7,3.7,10.2c0.6,2.8,1.5,5.4,2.8,7.9
			C260.4,190.3,262.3,193,264.5,195.4L264.5,195.4z M270.3,235.1c1.4-1.4,2.5-2.4,3.6-3.5c0.3-0.3,0.6-0.6,0.8-0.9
			c1.9-4.6,4.5-9,4.8-14.2c0.2-2.5,0.8-5,1.8-7.3c0.3-0.5,0.4-1.1,0.1-1.6c-0.6-0.4-0.9,0.2-1.2,0.5c-1.9,1.7-3.8,3.4-5.7,5.1
			c-2.4,2-4.4,4.5-5.7,7.3c-0.9,1.5-1,3.3-0.4,4.9c0.6,1.4,1,2.9,1.5,4.3C270.4,231.2,270.2,233,270.3,235.1L270.3,235.1z
			 M267.1,198.6c0.9-0.5,0.9-1.2,1-1.9c0.2-1,0.8-1.9,1.6-2.6c2.2-1.7,3.2-4.1,4-6.5c0.6-2.2,1.3-4.3,2.1-6.5c1-2.6,1.1-5.5,2.3-8.1
			s2.2-5.3,3.3-8.2c-0.6-0.1-1.2,0.2-1.4,0.7c-1.7,1.4-3.6,2.6-5.5,4c-2.9,2.3-5.4,5.2-7.2,8.4c-0.6,1.1-0.5,2.5,0.2,3.5
			c0.9,1.7,1.6,3.5,2.1,5.3c0.9,3.8,0,6.7-3.2,9.1c-0.6,0.4-0.7,0.7-0.4,1.4C266.2,197.8,266.6,198.3,267.1,198.6L267.1,198.6z
			 M260.5,132.9c1.2-1.8,2.9-2.5,3.7-4.1c1.1-2.3,1.6-4.8,1.5-7.3c0.1-2.1-0.3-4.4-0.3-6.5c-0.2-3.7,0.3-7.4,1.5-10.9
			c-0.7-0.2-0.8,0.2-0.9,0.5c-1.2,2.4-3,4.6-5.1,6.4c-3,2.5-4.9,6.2-5.2,10.1c-0.3,1.6,0.2,3.3,1.4,4.4c1,1.1,1.7,2.4,2.1,3.8
			C259.5,130.3,260,131.4,260.5,132.9L260.5,132.9z M252.2,94.2c1-1.6,1.6-2.8,1.5-4.4c0-1.2,0.5-2.4,1.2-3.4
			c1.6-2.6,2.3-5.7,1.9-8.8c-0.1-1.4-0.3-2.8-0.7-4.2c-1.1-4.3-1.6-8.7-1.5-13.2c0.1-0.4-0.1-0.8-0.4-1c-0.5,2.6-1.2,5.1-2.1,7.6
			c-0.8,2.5-1.8,5-3,7.4c-1.6,3.2-1.6,6.9-1.5,10.4c0,0.6,0.2,1.1,0.6,1.5C250.5,88.2,251.4,90.9,252.2,94.2L252.2,94.2z
			 M266.2,160.4c0-2.8,1.5-5,2.7-7.4c-0.9-0.3-1.1,0.2-1.5,0.5c-1.5,1.3-2.7,3-3.4,4.9c-0.7,1.5-1.1,2.8,0.2,4.2
			c0.3,0.4,0.5,0.8,0.6,1.3c0.8,1.7,1.4,3.4,1.8,5.2c0.9,2.4,0.5,5.1-1,7.2c-0.3,0.4-0.3,0.9,0.1,1.2c0.4,0.2,0.7-0.2,0.9-0.6
			c0.4-0.5,0.7-1.1,0.9-1.7c0.2-2.5,1.8-4.5,2.8-6.6c1.3-2.2,2-4.7,2.2-7.3c0.1-3.8,1.8-7.2,2.9-10.7c0.6-1.8,1.2-3.6,1.8-5.5
			C272.6,149.3,268.8,154.5,266.2,160.4L266.2,160.4z M281.7,227.6c-4.1,3.5-8.8,6.2-11.6,11c-1,1.9-1.4,4-2.5,5.7
			c-0.2,0.5-0.1,1,0.1,1.4c0.6,1.8,1.1,3.7,1.4,5.7c4.5-1.9,7.5-4.8,8.7-9.6l3.5-13C281.7,228.6,281.8,228.1,281.7,227.6
			L281.7,227.6z M281.5,247c-0.6-0.2-0.8,0-1,0.3c-1.9,4-4.2,7.9-5.9,12.1c-0.8,2.1-2.6,3.5-4.2,5c-0.4,0.4-0.9,0.5-1.3,0.1l0,0
			c-0.3-0.3-0.3-0.8,0-1.1c0.5-0.6,1-1.1,1.5-1.7c2.3-2.3,4.2-4.7,4.8-8.1c-1.8,1.2-3.5,2.5-5,4c0.4-2.5,2.2-3.1,3.3-4.4
			s2.5-2.2,3.1-3.9c-3.5,1.6-7.3,2.9-9.4,6.6c-0.4,0.8-0.9,1.5-1.5,2.2c-1.2,1.7-1.8,3.8-1.4,5.9c0.1,1.5,0.4,2.9,0.7,4.3
			c2.2-1.9,4.8-2.6,7.1-3.8c1.7-0.8,2.5-2.6,3.5-4.1c2.2-3.1,3.1-6.8,4.5-10.4C280.8,249,281.2,248,281.5,247L281.5,247z
			 M262.8,236.4c0.2-1.3-0.7-2.5-0.3-4c1.3,1.6,1,3.5,2.3,5.1c1.1-1.9,1.3-4.2,0.8-6.3c-0.8-3-1.8-6.1-2.6-9.1
			c-0.4-1.9-1.5-3.6-0.9-5.7c0-0.3-0.1-0.5-0.2-0.7l-5.3-7.5c-0.3,0.6-0.2,1.4,0.2,1.9c1,2.9,1.5,6,1.6,9c0,2.5,0.1,5,0.2,7.4
			c0.1,2.2,0.8,4.3,1.8,6.2C261.2,234.1,261.3,235.6,262.8,236.4L262.8,236.4z M242.5,66.8c1.3,4.3,4.4,8.3,1.7,13.1
			c-1.2-1.3-2.8-4.8-3.4-7.8c1.2,1.7,2.2,3.5,3,5.5c0.9-0.3,0.7-1,0.7-1.5c0-1.3-0.2-2.6-0.7-3.8c-0.9-2.5-1.9-4.8-2.9-7.2
			c-0.1-0.3-0.3-0.6-0.5-0.8c-2.6-2.5-5.4-5-8.2-7.3c2.4,4.1,3.6,8.5,5.3,12.8c1,2.7,2.3,5.4,3.6,7.9c1.3,2,3,3.8,5,5.3
			C247.2,76.9,247.5,71.3,242.5,66.8L242.5,66.8z M269.2,198.2c-0.7,1.3-0.8,2.8-0.2,4.1c1.3,3.2,2.4,6.5,1.9,10.1
			c0,0.5-0.1,1,0.5,1.2c0.5,0.1,1-0.2,1.2-0.6c0.7-1.1,1.4-2.3,2-3.6c1.8-3.7,3.1-7.7,3.7-11.7c0.1-0.4,0-0.9-0.4-1.2
			c-1.7,3.2-1.6,7.1-4.3,10.3c-0.3-2.1,1.1-3.1,1.4-4.6c0.3-1.6,0.8-3.1,1.4-4.6c0.5-1.4,0.8-2.9,1.1-4.4c-3.4,2.4-4.9,6-6.4,9.6
			c-0.5-0.2-0.7-0.8-0.5-1.3c0,0,0,0,0,0c0.4-1.7,1.1-3.4,2.2-4.8c1.8-1.9,2.9-4.3,5.4-5.5c0.9-0.5,1-1.5,1-2.8
			C275.3,191.3,271.6,194,269.2,198.2z M183.5,465.5c-6.7,2.3-13.6,2.9-20.6,4.1c-6.5,1.2-13.2,1.5-19.7,2.6
			c-6.7,1.1-13.6,2.1-20,4.3c-1.4,0.5-2.9,0.9-4.4,1.3c-1.1,0.2-2.1,0.8-2.7,1.6c1.7-0.4,3.3-0.8,5-1.1c9.6-2.1,19.3-4,29-5.4
			c6.3-0.9,12.4-1.8,18.6-2.5c5.9-0.8,11.7-2.4,17.1-4.9c0.4-0.2,0.7-0.5,0.9-0.8C185.3,465,184.4,465.3,183.5,465.5z M258.1,239.1
			c2.1,5.1,2.5,10.6,4.6,16.2c1.4-2.2,1.6-4.9,0.5-7.3c-0.6-1.8-1.4-3.5-2.4-5.1c-1.7-2.7-2.9-5.8-3.5-8.9c-0.4-2.3-1.8-3.6-3.4-5.6
			c0,1,0.1,1.9,0.5,2.8c0,0.8,0.1,1.6,0.3,2.5c0.9,5.3,1.3,10.7,2.6,16c0.7,3,2.2,5.7,4.4,7.8C260.2,251.4,259.2,245.3,258.1,239.1z
			 M248.6,250.1c0.4,0.9,0.8,1.8,1.1,2.8c2.6,5.6,4.4,11.7,7.2,17.2c0.8,1.6,1.6,3.3,3.7,4.6c-0.5-2.9-2.3-4.7-3.4-7
			c-1-2.3-2.3-4.5-2.6-7.7c1.5,1.4,1.3,2.9,2,4.3c0.8,1.3,1.4,2.8,2.1,4.1c0.7,1.3,1.6,2.6,2.2,3.9c0.1-0.1,0.3-0.2,0.5-0.3
			C261.4,262.3,256.9,255.3,248.6,250.1L248.6,250.1z M258.7,234.2c0.4,2.6,1.3,5,2.7,7.2c1.5,2.4,2.7,5,3.5,7.7
			c0.8,2.8,0.2,5.9-1.4,8.3c-0.2,0.3-0.5,0.5-0.6,0.8c-0.2,0.6-0.6,1.4-0.1,1.7c0.9,0.5,0.9-0.6,1.2-1c0.4-0.8,0.9-1.5,1.4-2.2
			c2.4-2.8,2.4-6.1,1.5-9.1C265.3,242.5,262.5,237.9,258.7,234.2L258.7,234.2z M240.7,52.8c0.5,3.2,0.8,6.5,0.9,9.8
			c0,0.5,0.2,1,0.6,1.3c2.3,1.9,4.1,4.4,5.3,7.2c0.5-1.5,0.5-3,0.1-4.5c-0.4-1.8-1.1-3.5-2-5.1C244,58.5,242.2,55.7,240.7,52.8
			L240.7,52.8z M267.7,237.7c0.4-2.7,1.5-5.4,0.5-8.3c-1.3-4-2.3-8.2-5.2-11.8c-0.2,0.5-0.2,1.2,0.1,1.7c1.1,3.7,2.1,7.6,3.3,11.3
			c0.8,2.3-0.1,4.4-0.3,6.6c-0.1,0.6-0.6,0.6-1,0.7c-1.3,0.4-1.4,0.6-0.7,1.9c0.8,1.1,1.4,2.3,1.8,3.5
			C267.7,241.2,267.5,239.4,267.7,237.7z M257.5,256.3c2.2,4.4,5.1,8.1,5,13.4C265,266.1,262.2,259.4,257.5,256.3z M263,270.5
			c-0.4,0.1-0.2,0.5-0.2,0.7c0,0.2,0,0.3,0.2,0.3c0.2,0,0.2-0.4,0.2-0.6L263,270.5z"/>
		<path class="st1" d="M231.8,164.9c2.7,3.8,4.4,8,6.3,12.1C235.6,173.2,233.5,169.1,231.8,164.9z"/>
		<path class="st1" d="M256.5,37.8c-0.2-0.4-0.2-0.9-0.1-1.4c0.4-3.4,0.4-6.8,0.6-10.3c0.1-1.5-0.2-3.2,0.4-4.7
			c0.3,3.7,0.3,7.3,0,11C257.1,34.2,257.2,36.1,256.5,37.8L256.5,37.8z"/>
		<path class="st1" d="M206.7,66.8c0.3,0,0.6,0.1,0.8,0.3c1.9,2.5,3.7,5.1,5.6,7.6c0.3,0.4,0.8,0.7,0.3,1.8L206.7,66.8L206.7,66.8z"
			/>
		<path class="st1" d="M275.3,50c0.1,0.3,0.1,0.6,0.1,0.9c-1.1,3.1-1.9,6.3-3.8,9.3c1-3.1,2-6.3,3.2-9.5
			C274.9,50.5,275.1,50.3,275.3,50L275.3,50z"/>
		<path class="st1" d="M208.5,90.4c-1.3-0.8-2.4-1.9-3.1-3.3C206.7,88.1,208,89,208.5,90.4z"/>
		<path class="st1" d="M206.7,66.8c-1.1-1.4-2-2.9-2.6-4.5C205.1,63.6,206.5,64.9,206.7,66.8z"/>
		<path class="st1" d="M275.4,50c-0.3-1.4,0.5-2.5,1.3-3.5C276.3,47.7,276.2,49,275.4,50z"/>
		<path class="st1" d="M212.2,102c-0.8-0.1-1.4-0.8-1.3-1.6C211.5,100.7,212,101.3,212.2,102z"/>
		<path class="st1" d="M203.4,41.4c-0.6-0.5-0.9-1.2-0.9-1.9C203,40,203.3,40.7,203.4,41.4z"/>
		<path class="st1" d="M304.9,135.3c-0.1-0.6,0.3-1.2,0.8-1.5C305.6,134.3,305.5,134.9,304.9,135.3z"/>
		<path class="st1" d="M253.2,115.4c0.2,0.5,0.2,1-0.1,1.4c-0.3,0.5-0.9,0.7-1.4,0.4c0,0,0,0,0,0c-0.7-0.2-0.6-0.7-0.4-1.1
			c0.8-1.5,0.3-2.9-0.2-4.4c-0.7-1.8-1.7-3.4-2.9-4.9c-1.4-2-3.2-3.8-4.5-5.8C248.3,104.7,252,109.2,253.2,115.4z"/>
		<path class="st1" d="M245.9,91.1l-3.2-5.7c3.6,3.5,5.9,8.6,5.3,11.6C247.1,95,246.9,92.9,245.9,91.1z"/>
		<path class="st1" d="M266.3,130.7c1.6-1.4,2.9-3.1,3.7-5c0.2-0.5,0.4-1,1-0.7c0.7,0.3,0.4,0.7,0.3,1.2c-0.9,5.5-2.2,10.9-2.8,16.5
			c-0.2,1.6-0.9,3.1-1.9,4.3c0,0.1-0.1,0.2-0.2,0.3c-0.6,0.6-1.5,0.7-2.2,0.2c2.1-1.7,3.4-4.3,3.6-7c0.3-2.7,0.9-5.4,1.6-8.1
			c0.4-1.1,0.5-2.3,0.3-3.4c-2.2,1.6-4.1,3.7-5.4,6.1C264.5,133.3,265.2,131.8,266.3,130.7z"/>
		<path class="st1" d="M256.1,143.9c1.7,1.8,2.8,4,3.2,6.4c0.2,0.7,0.2,1.4-0.1,2.1c-0.2,0.5-0.7,0.5-0.9,0
			c-0.2-0.3-0.3-0.6-0.3-0.9c0.3-3.7-1.8-6.2-4.1-8.6c-0.9-0.7-1.5-1.7-1.7-2.9C253.5,141.3,254.8,142.6,256.1,143.9z"/>
		<path class="st1" d="M255.1,103.1c-0.6-0.2-0.5-0.5-0.4-0.7c0.8-4.4,2.3-8.7,4.3-12.7c0.6-1.2,1.2-2.5,2.9-2.6
			C258,91.7,256.8,97.5,255.1,103.1z"/>
		<path class="st1" d="M266.5,201.9c1.7,3.7,3.1,7.5,1.1,11.6c-0.5,1-1.2,2.1-2.1,2.1s-1.4-1-1.7-1.8c-2.5-4.9-4-10.2-4.4-15.7
			c-0.2-0.8,0-1.6,0.5-2.2c1.3,8.8,3.5,15.9,5.5,17.7c0.6-0.4,0.9-0.9,1.1-1.6c1-3.2,0.7-6.6-0.9-9.6c-0.9-1.7-2.1-3.4-2.1-5.5
			C264.5,198.5,265.5,200.2,266.5,201.9z"/>
		<path class="st1" d="M262.5,179.5c1.3,1.9,2.4,4.1,3,6.3c0.3,1.1,0.7,2.4-0.4,3.5c-0.2-5.1-3.6-9-5.4-13.5
			C261,176.7,261.6,178.2,262.5,179.5z"/>
		<path class="st1" d="M259.9,184.1c0.6,1.9,1.4,3.7,2.5,5.4c0.3,0.7,1,1.3,1.8,1.5c0.5,0.2,1.1,0,0.8,0.7s-0.8,0.7-1.4,0.5
			c-0.7-0.3-1.3-0.9-1.6-1.6c-1.9-2.7-2.7-5.8-3.5-9.5C259.1,182.1,259.6,183.1,259.9,184.1z"/>
		<path class="st1" d="M273.3,228.4c-0.4,0.4-0.8,0.7-1.3,1c-1,0.5-1.6,0.1-1.7-0.9c-0.1-0.5-0.1-1,0-1.5c0.1-0.2,0.2-0.5,0.4-0.5
			c0.4-0.2,0.6,0.1,0.8,0.3c0.3,1.2,1,0.7,1.6,0.3c1.3-0.8,1.8-2.1,2.8-3.2C275.4,225.7,274.5,227.3,273.3,228.4z"/>
		<path class="st1" d="M276.5,215.4c-1.7,2.7-3.2,5.4-4.8,8.1C272.5,220.3,273.5,217.3,276.5,215.4z"/>
		<path class="st1" d="M269.7,180.3c1.2-4.3,3.8-8.1,7.3-10.8c0.4-0.4,0.8-1.7,1.5-0.7c0.5,0.7-0.3,1.2-0.9,1.7
			c0,0.1-0.1,0.1-0.1,0.2c-2.8,2.2-5,5.1-6.3,8.4c-0.3,1.1-0.8,2.2-1.5,3.1C269.4,181.6,269.4,180.9,269.7,180.3z"/>
		<path class="st1" d="M263,115.3c0.3,3.4,0.8,6.8-0.1,10.1c-0.2,0.6-0.4,1.2-0.7,1.8c-0.4,0.9-1.5,1.4-2.5,1.2
			c1.5-2,2.6-3.9,2.6-6.2s0-4.6,0-6.9L263,115.3z"/>
		<path class="st1" d="M250.9,79.1c0.5,1.8-0.4,3.8,0.7,6.2c1.2-4.6,3.6-8.6,1.3-13.5c1.1,0.5,1.8,1.6,1.7,2.9
			c0.4,4.2-0.9,8.2-2,12.1c-0.1,0.3-0.2,0.6-0.4,0.8c-0.3,0.4-0.7,1-1.4,0.9c-0.6-0.2-1-0.8-0.9-1.4c0.1-2.7-0.2-5.4,1.1-7.8
			L250.9,79.1z"/>
		<path class="st1" d="M251.1,79.2c-0.4-0.7-0.2-1.6,0.5-2c0.2,0.3,0.3,0.7,0.1,1.1c-0.1,0.4-0.3,0.7-0.7,1L251.1,79.2z"/>
		<path class="st1" d="M275.8,244.4c-1.1,1.9-2.5,3.5-4.2,5c-0.2,0.2-0.4,0.3-0.6,0.4c-0.4,0.2-0.8,0.1-1.1-0.3c0,0,0,0,0,0
			c-0.2-0.4-0.2-0.8,0.2-1.1c0.2-0.2,0.4-0.3,0.6-0.4c2.9-2,4.8-5.1,5.5-8.6c0.3-1.7,0.9-3.3,1.9-4.8
			C278.1,238,277.3,241.4,275.8,244.4z"/>
		<path class="st1" d="M264.1,273.1c0.3-0.3,0.7-0.7,1.1-0.9c1.6-1.5,3.3-2.9,5.2-4c0.2-0.1,0.6-0.3,0.8,0.1c0.2,0.4,0,0.6-0.2,0.9
			c-2,1.4-3.8,2.9-5.7,4.5C264.7,274.1,264.5,273.4,264.1,273.1z"/>
	</g>
</g>
<g>
	<defs>
		
			<rect id="SVGID_5_" x="-29.2" y="225.1" transform="matrix(0.9225 -0.386 0.386 0.9225 -120.3421 134.7666)" width="609.3" height="283.9"/>
	</defs>
	<clipPath id="SVGID_6_">
		<use xlink:href="#SVGID_5_"  style="overflow:visible;"/>
	</clipPath>
	<g class="st3">
		<path class="st1" d="M523.2,189.7c-0.1,0.9-1.1,1-1.7,1.4c-0.4,0.2-0.8,0.3-1.2,0.5c-5.6,3.7-11.7,6.5-17.7,9.3
			c-6.8,3.3-13.6,6.8-20.2,10.5c-5.3,2.9-9.6,6.9-13.8,11c-1.2,1-2.3,2.2-3.4,3.3c7.1-1.8,14.1-4.3,21.2-6
			c7.2-1.6,14.5-2.7,21.9-3.1c-0.9,0.7-2.1,0.3-3.2,0.6c-4.6,0.9-9.3,1.3-13.8,2.7c-6.3,1.9-12.9,3.1-18.9,6.1
			c-4.2,2.2-8.6,4.3-12.1,7.5c-3.1,2.7-5.9,5.4-9.9,6.8c-0.4,0.1-0.7,0.4-0.6,0.8c1.4-0.5,2.8-0.8,4.1-1.4c2-0.9,4.1-1.7,6.2-2.5
			c8.5-2.6,17.3-4.1,25.7-6.9c2.6-0.8,5.3-1.6,7.9-2.3c3.8-1.1,7.5-2.5,11.4-3.1c0.7-0.1,1.3-0.8,2.4-0.2c-3.9,0.9-7.7,2-11.5,3.4
			c-4.7,1.6-9.4,3.2-14.1,4.6c-7.6,2.2-15.5,3.8-22.8,6.9c-4,1.7-7.8,3.8-10.8,7.1c-1.8,2.2-4,4-6.5,5.5c-0.2,0.1-0.6,0.4-0.6,0.7
			s0.4,0.2,0.8,0.3c3.8,0.7,7.5-0.1,11.1-1.3c4.2-1.3,8.3-2.8,12.5-4.2c6.3-2.1,12.4-4.6,18.3-7.4c5.6-2.7,11.3-5.5,17.2-7.8
			c0.3-0.3,0.8-0.3,1.1,0c-0.5,0.2-1,0.4-1.4,0.7c-2.1,1.1-4.3,1.6-6.3,2.9c-5.9,3.5-12.1,6.6-18.5,9.2c-6.5,2.9-13.5,4.5-20.1,7.2
			c-2.8,1.2-5.7,2.1-8.5,3.2c-2.4,1-4.7,2.2-7,3.5c-1.8,1.1-3.5,2.3-5.2,3.7c-1.1,0.8-2.5,1.2-3.5,2.6c19.4-3.5,38.4-7.8,57.3-12.4
			c-2.9,1.2-6,2.1-9,3c-4.4,1.5-9.1,2-13.5,3.4c-4.5,1.3-9.1,2.4-13.8,3.3c-6.9,1.3-14,2.2-20.1,6c-2.6,1.7-5.7,2.7-8.3,4.6
			c-1.6,1.2-3.4,2.2-5.3,2.9c-1.6,0.6-3.2,1.3-4.7,2.1c2.8,0.7,5.7,0.9,8.5,0.7c5.2-0.7,10.3-1.6,15.6-1.6c2.6,0,5.1-0.4,7.7-0.4
			c5.5,0.1,10.8,0.2,16.3,0.4c2.7-0.1,5.3,0,8,0.4c-1.2,0.2-2.5,0.3-3.7,0.2c-10.6,0.4-21.1,0-31.7,0.5c-0.7,0-1.6-0.3-2.2-0.1
			c-2.7,0.9-5.5,1.3-8.3,2.2c-2,0.6-4.2,0.8-6.1,2c-1.1,0.6-2.2,1.2-3.4,1.5c-4.7,1.7-9.1,4.1-13.1,7c-0.1,0.1-0.1,0.2-0.1,0.4
			c8.9-2.5,18.1-3.9,27.1-5.2c9.1-1.3,18.2-2.6,27.5-2c-3.2,0.1-6.4,0.5-9.6,1c-4.6,0.6-9.3,1-13.9,1.7c-6.8,1.1-13.6,2.4-20.3,3.8
			c-8.4,1.7-16.2,5.7-22.5,11.6c-0.1,0.2-0.5,0.4-0.4,0.7c0.1,0.3,0.5,0.2,0.8,0.2c1.2,0,2.4-0.6,3.5-0.7c4.4-0.5,8.6-1,13-1.2
			c9.9-0.3,19.8-0.6,29.7-0.5c2.1,0,4.3,0.1,6.5,0.1c-2.3,0.8-4.7,0.6-7,0.6c-8.1,0.1-16.2,0.3-24.1,0.7c-5.1,0.2-10.4,0.8-15.6,1.3
			c-4.8,0.5-9.1,3.1-13.2,5.3c-4.1,2.2-7.7,5.4-12.3,7c-0.1,0-0.1,0.2-0.2,0.5c6.7-0.7,13.2-1.8,19.8-2.2c6.6-0.5,13.1-0.9,19.6-0.9
			c6.5-0.1,13.1,0,19.6-0.4c-0.1,0.2-0.3,0.2-0.4,0.3c-9.3,1.6-18.7,1.2-27.9,2.1c-3.8,0.3-7.8,0-11.7,0.5c-4.5,0.4-9,1.2-13.4,2.5
			c-6.6,2.1-12.4,5.8-18.8,8.3c-0.9,0.3-1.8,0.8-2.4,1.6c19.2,1.4,38.4,1.2,57.5-0.7c-5.1,1.6-10.4,1.7-15.6,2.4
			c-7.5,0.8-15,0.2-22.4,0.6c-3.7,0.1-7.4,0.4-11,0.6c-4.5,0.3-8.9,1.5-12.9,3.5c-1.7,0.9-3.5,1.6-5.2,2.4c-1.5,0.5-2.9,1-4.2,1.8
			c6,1.4,12.2,1.7,18.3,1.9c6.2,0.2,12.3,0.6,18.4,0.3c6.1-0.3,12.2-0.2,18.3-0.2c-1.2,0.3-2.4,0.5-3.6,0.6
			c-7.2,0.6-14.4,1.1-21.7,1.1c-6.9,0-13.8,0.1-20.7-0.3c-1.6-0.2-3.2-0.3-4.8-0.1c-3,0.4-6.1,0.6-8.9,2.1c-2.1,1.2-4.4,2-6.8,2.4
			c-0.9-0.1-1.8,0.3-2.5,0.9c0.8,0.3,1.7,0.6,2.6,0.8c5,0.9,10.1,1.4,15.2,1.6c9.6,0.2,19.1-0.1,28.7-0.4c2.8,0,5.6,0.1,8.4,0.1
			c-3.2,0.5-6.6,0.9-10,1.1c-5.9,0.4-11.7,0.3-17.6,0.6c-4.2,0.1-8.3,0.3-12.4,0.5c-2.6,0.1-5.2,0-7.8-0.3c-3.7-0.4-7,0.6-10.3,1.9
			c-1.5,0.8-3.1,1.4-4.8,1.9c-1,0.3-2,0.7-2.9,1.2c1,0.5,1.9,0.1,2.8,0.4c2.4,0.8,4.9,1.1,7.4,1c2-0.1,4,0,6.1,0.2
			c4.2,0.5,8.4,1.4,12.8,1.5c5.1,0.2,10.2,0.2,15.4,0.2c2.3-0.1,4.6-0.2,7-0.1c-0.5,0.6-1.1,0.4-1.5,0.4c-4,0.1-7.9,0.3-11.9,0.4
			c-2.9,0.2-5.9,0.3-8.8,0.1c-3.4-0.4-6.9-0.3-10.3-0.6c-0.8,0-1.6,0.4-2.4,0.1c-1.9-0.7-3.9-1-5.8-0.7c-3.6,0.3-7.1,1.6-10.5,2.5
			c-4.3,1.1-8.4,2.9-12.8,3.5c-3,0.5-6.1,0.6-9.2,0.3c-1.6-0.1-3.2-0.8-5,0c-6.3,2.5-11.7,6.5-17.5,9.9c-3.6,2-6.9,4.6-10.4,6.5
			c-3.4,1.7-6.6,3.6-9.9,5.6c-4.6,3.2-9.7,5.6-14.7,8.5c-4.3,2.4-8.6,4.9-13.1,7c-3.3,1.5-6.6,3-9.8,4.8c-5.2,2.7-10.7,5.1-15.9,7.8
			c-2.7,1.4-5.3,2.9-8.2,4.2s-5.8,2.8-8.8,4c-3.8,1.5-7.5,3.4-11.3,5.1c-1.4,0.6-3.1,0.7-4.1,1.7c-0.9,0.8-1.9,1.3-3,1.6
			c-3.7,1.8-7.3,3.8-10.6,6.2c-2.4,1.6-4.4,3.8-7.1,4.9c-3.3,1.4-6.6,2.9-10,4.3c-1.6,0.8-3.3,1.5-5,2c-1.9,0.4-3.8,1.1-5.6,2
			c-2.3,1.1-4.6,2.4-6.9,3.3l-17.9,7.2c-2.8,1.2-5.6,2.4-8.4,3.5c-5.4,2-10.8,4-16.1,6.5c-3.4,1.7-6.9,3.2-10.5,4.5
			c-3,0.9-5.7,2.3-8.5,3.1s-5.4,2.6-8.1,3.4c-4.8,1.4-9.4,4-14,5.5c-3.6,1.2-6.9,2.8-10.3,4.2c-6.4,2.5-13.1,4.5-19.4,7.2
			c-3.2,1.3-6.3,2.3-9.5,3.5c-4.5,1.7-9,3.2-13.4,5c-5.5,2.3-10.9,4.7-16.6,6.8c-6.5,2.3-13.1,4.3-19.6,6.5
			c-3.3,1.2-6.6,2.4-9.8,3.5s-6.3,2.3-9.4,3.4c-5.3,2-10.7,3.7-16.1,5.7c-0.2,0-0.7,0-0.6,0.4c0.1,0.4,0.4,0.5,0.8,0.5
			c1.3,0.1,2.6,0,3.9-0.1c5.5-0.6,11.2-0.7,16.7-1.3c5.1-0.6,10.2-1,15.3-1.7c7.8-1,15.6-1.5,23.4-1.6c6.5-0.1,13.1-1.2,19.6-1.6
			c5.3-0.3,10.7-0.8,15.9-1.4c5.5-0.7,11-1.8,16.4-2.8c4.2-0.8,8.4-1.4,12.6-1.8c4.5-0.3,9-0.8,13.6-1.4c4.9-0.5,9.8-1.6,14.7-2.4
			c7.5-1.3,15.1-2.2,22.6-3.4c4.5-0.7,9-1.3,13.4-2c4.4-0.8,9.3-1.2,13.7-1.7c4.5-0.5,8.9-1.8,13.4-2.2c4.3-0.4,8.5-1,12.7-1.4
			c7.2-0.6,14.4-1.4,21.6-2.3c5-0.5,9.9-1.5,14.9-2c5.2-0.5,10.6-1.1,15.8-1.9c4.7-0.7,9.6-1,14.3-1.3c2.9-0.3,6-0.1,8.7-0.6
			s5.5-1.3,8.4-1.4c4.8-0.4,9.4-1.4,14.3-1.7c3.5-0.3,6.8-1.1,10.3-1.5c4.5-0.5,9.1-0.6,13.6-1.1c3.2-0.4,6.4-0.6,9.6-0.4
			c-0.2,0.1-0.4,0.2-0.7,0.2c-6.4,1.1-13,1.4-19.5,2.3c-3.8,0.5-7.5,1-11.3,1.9s-7.3,1.7-10.9,2.7c-3.3,0.8-6.8,1.3-10.2,2.1
			c-5.5,1.2-11.1,2.3-16.7,2.9c-5.3,0.6-10.7,1.4-16,2c-7,0.8-14,2.5-20.9,3.9c-2.4,0.5-4.9,1-7.4,1.5c-3.6,0.7-7.3,1.3-10.9,2.1
			c-4.8,1.1-9.5,1.9-14.3,2.8c-4.3,0.8-8.6,1.4-12.9,2.3c-2.2,0.5-4.3,1.6-6.7,1.7c-1.4,0-2.9,0.2-4.3,0.6
			c-7.8,1.7-15.8,3.4-23.6,5.2c-1.1,0.3-2.2,0.6-3.3,0.8c-2.9,0.3-5.7,0.9-8.5,1.8c-3.8,1-7.7,1.8-11.5,3c-5,1.4-10.1,2.3-15.1,3.7
			c-9.5,2.8-19.4,3.8-29.2,5.1c-6.7,0.8-13.5,1.2-20.2,2c-6.3,0.8-12.7,1.3-19,1.7c-10,0.7-20.1,1.2-30.2,1.3
			c-5.7,0-11.4,0.8-17.2,0.9c-4.1,0-8.3,0.2-12.4,0.4c-8.1,0.4-16.3,0.4-24.4,1.2c-2,0.2-4,0-6,0.6l-1.7-4c1.6-0.4,3.3-0.5,5-0.4
			c8.6-0.1,17.3-1.3,26-0.9c13.5,0.7,26.9-0.5,40.4-1.3c8.1-0.5,16.3-1,24.4-1.3c1.6-0.1,3.1-0.2,4.6-0.4c6.1-1,12.3-0.2,18.5-1
			c9.4-1.3,18.8-2.2,28.2-3.4c2.1-0.3,4.1-0.9,6.1-1c6.4-0.5,12.2-3,18.4-4.3c6.4-1.4,12.7-3.1,19-4.3c6.7-1.4,13.5-3,20.2-4.4
			c4.4-0.8,8.7-1.9,12.9-3.2c3.4-1.1,6.9-1,10.3-1.7c5.5-1.2,11.2-1.8,16.7-2.9c8.2-1.6,16.4-3.4,24.7-4.9c4.4-0.8,8.6-1.7,13-2.5
			c4.2-0.8,8.3-1.5,12.5-2c5.2-0.6,10.6-1.2,15.8-2.1c7.4-1.2,14.7-2.3,22-4c0.8-0.2,1.6,0.1,2.5-0.8c-2.4,0-4.8,0.2-7.1,0.7
			c-3.8,0.8-7.5,1.7-11.4,1.4c-0.8,0-1.6,0-2.4,0.2c-7.4,0.7-14.9,1.4-22.4,2.3c-3.7,0.5-7.4,0.7-11,1.3c-6.2,1.1-12.4,1.9-18.8,2.6
			c-6.7,0.7-13.3,1.4-20.1,2.1c-4.7,0.4-9.2,1-13.8,1.8c-4.4,0.9-8.8,1.5-13.2,2.1c-5.9,0.8-11.9,1.4-17.8,2.4
			c-7.8,1.4-15.7,2.3-23.5,3.6c-4.8,0.8-9.5,1.7-14.2,2.3c-5.5,0.7-11,1.4-16.5,1.8c-2.7,0.3-5.4,0.7-8.1,1.3
			c-6.2,1.1-12.5,2.5-18.8,3.3c-4.6,0.6-9.2,0.9-13.8,1.3c-5.4,0.4-10.8,1.1-16.1,1.5c-3.3,0.2-6.5,0.3-9.8,0.5
			c-3.7,0.3-7.5,0-11.2,0.6c-3.1,0.4-6.2,1.2-9.5,1.2c-3.4,0.1-6.7,0.4-10,1c-2.1,0.3-3.9,0.3-6.1,0.7c-2.2,0.4-4.6,0-6.8,0.4
			c-4.5,0.8-9.1,0.1-13.6,0.4c-2.5,0.3-5.1,0.5-7.6,0.5c-3.1-0.1-5.5,1.3-8.3,2c-0.3,0.1-0.8,0.1-0.8,0.6c0.9,0.5,2,0.7,3,0.7
			c8.5,0.2,16.9,0,25.2-0.5s16.7-0.9,25.1-1.5c6.6-0.5,13.1-1.1,19.5-1.7c3.8-0.3,7.5-0.9,11.4-1c-1.5,0.3-2.9,1.2-4.5,1.3
			c-3.9,0.3-7.7,1.3-11.6,1.7c-3.5,0.4-7.1,0.6-10.7,1c-4.4,0.7-8.9,0.7-13.4,1.2c-3.5,0.4-7.1,0.6-10.7,0.7
			c-4.8,0.4-9.6,0.8-14.3,1c-3.6,0.2-7.1,0.2-10.7,0.1c-3.3-0.1-6.5-0.1-9.8,0c-1,0.3-2.1-0.2-2.6-1c-0.2-0.5-0.7-0.7-1.2-0.5
			c-1.8,0.4-3.7,0.6-5.3,1.3l-0.9-2.1l3.3-0.7c6.5-1.6,12.7-4,19-6.1c4.5-1.5,8.9-3.3,13.4-4.8c5.5-1.9,11.2-3.7,16.7-5.7
			c7.2-2.7,14.4-5.1,21.6-7.4c5.4-1.7,10.7-3.5,15.9-5.6c5.8-2.3,11.5-4.8,17.5-6.9c5.7-2.1,11.3-4.2,17-6.2
			c7.6-2.7,15.2-5.4,22.6-8.4c2.8-1.1,5.6-2.4,8.4-3.5c6-2.4,12-4.6,17.9-7c7-2.8,14.1-5.4,21-8.3c7.3-3.3,14.9-6.2,22.4-9.1
			s15-6,22.5-9.4c4.7-2.1,9.6-3.8,14.2-5.9c3.6-1.6,7.3-3,10.2-5.7c3-2.9,5.2-6.2,5.8-10.4c0.5-4.2,2.7-8,4.5-11.8
			c1.3-2.7,2.6-5.5,3.8-8.2c1.6-3.4,3.2-6.8,4.8-10.3c1.2-2.4,2.2-4.7,3.6-7c1.9-3.6,3.6-7.3,5.3-10.9c0.2-0.9,0.8-1.6,1.5-2.1
			c-7.1,16.2-15.9,31.6-22,48.5c0.8-0.4,1.5-1.1,2-1.9c2.8-4.4,5.3-9.1,7.3-14c1.4-4.2,3-8.4,4.9-12.5c1.8-3.4,3.5-6.6,5-10
			c1.7-3.9,3.4-7.8,5-11.7c2.4-5.7,4.7-11.2,6.7-17c1.8-5.4,4.2-10.7,6.1-16.1c1.5-4.1,3.6-8.1,5.3-12.2c2.2-5.3,4.3-10.5,6.1-16.1
			c1.8-5.7,3.9-11.3,6.4-16.8c1-2.3,1.7-4.8,2.2-7.3c0.7-2.9,1.7-5.8,2.5-8.7c1.6-5.4,3.4-10.6,4.9-16c1.4-4.9,3.5-9.5,4.7-14.5
			c0.2-0.5,0.2-1,0.8-1.2l0,0c0.2,0.6,0.1,1.3-0.1,1.8c-0.7,2.1-1.3,4.2-2,6.3c-0.9,2.8-1.8,5.4-2.7,8.2c-1.3,4.4-2.7,8.8-3.9,13.2
			c-0.8,2.9-1.9,5.6-2.5,8.5c-0.4,2.6-1.1,5.2-2,7.7c-2.8,6.2-5.1,12.7-7.1,19.2c-2.3,7.4-5.1,14.6-8.6,21.6
			c-2.1,4.3-3.5,8.9-5.4,13.2c-1.5,3.7-2.6,7.7-4,11.5c-1.9,4.9-3.7,9.7-5.9,14.4c-2.1,4.6-3.9,9.2-5.9,13.7c-1.3,3-2.9,5.7-4.3,8.7
			c-1.8,4-3.3,8-4.6,12.2c-0.6,1.9-1.4,3.7-2.3,5.5c-1.5,3.1-3.1,6.2-4.7,9.3c-0.2,0.2-0.3,0.5-0.1,0.7c0,0,0,0,0,0
			c0.2,0.4,0.5,0.2,0.7,0c4.9-1.9,10.1-3.6,15-5.6c4.9-2,9.6-4.2,14.5-6.3c4.1-1.9,8.2-3.8,12.4-5.5c3.4-1.5,6.7-3.2,9.9-5
			c2.2-1.2,4.3-2.5,6.5-3.7c2.7-1.4,5.6-2.7,8.3-4.1c4.4-2.3,8.5-4.9,12.6-7.5c2.3-1.4,4.6-2.7,7.1-3.8c2.6-1.4,5.2-2.9,7.7-4.5
			c1.9-1.2,3.9-1.9,5.8-3.1c2.5-1.4,4.8-3,7.2-4.4c4-2.3,8.1-4.6,12-7.3c2.9-2,6.1-3.8,8.7-6.4c1.3-1.2,2.3-2.6,2.8-4.3
			c1.1-3.3,1.6-6.9,2.4-10.3c0.7-2.8,1.5-5.5,2.5-8.1c1-2.5,2.4-4.9,3.3-7.5c0.7-2.1,1.3-4.3,1.8-6.5c0.7-3.3,1.4-6.6,1.8-9.9
			l0.9-8.3c0.3,0.5,0.4,1.1,0.4,1.7c0.2,4.4-0.8,8.7-0.6,13.1c0.1,4,0.7,8.1,1.9,11.9c0.1,0.2,0.1,0.7,0.4,0.6
			c0.3,0,0.4-0.3,0.6-0.6c0.2-0.6,0.4-1.3,0.7-1.9c1.9-2.4,3.4-5,4.6-7.8c1-2.2,1.9-4.5,2.7-6.8c0.9-4.1,1.6-8.2,2.1-12.4
			c0.5-3.8,0.9-7.7,1-11.5c-0.1-1.5,0.3-3.1,1.2-4.3c-1.3,13.2-2.5,26.5-0.3,39.7c0.8-1.5,1.7-3.1,2.4-4.6c1.4-3.3,3.2-6.5,5.5-9.3
			c3.8-4.3,5.1-9.3,5.7-14.6c0.4-3.7,0.7-7.4,1.2-11.1c0.7-5.3,1.5-10.5,2.3-15.7c0.3-2.3,0.7-4.6,1.2-6.8c0.4,2.6,0.3,5.2-0.3,7.8
			c-1.1,7.1-1.8,14.2-2.7,21.4c-0.3,2.1,0.2,4.2-0.1,6.3c-0.5,3.7-0.7,7.5-0.8,11.3c-0.1,1.1,0,2.2,0.3,3.3c1.1-1.1,1.3-2.5,2-3.7
			c1.3-2.5,3.7-3.9,5.3-5.9c3-3.7,5.5-7.6,6.4-12.4c0.3-1.7,0.1-3.5,0.5-5.2c0.9-4.8,1.8-9.8,2.9-14.6c1-4.4,1.7-8.9,2.6-13.3
			c0.4-1.8,0.9-3.5,1.4-5.3l0.4,0.1l-2.1,13.4c-0.6,4-1.9,8.1-2.5,12.3c-1.1,7.4-1.7,14.8-1.8,22.2c0,0.3-0.2,0.7,0.3,0.8
			c0.3-0.2,0.5-0.6,0.6-1c1.5-3.7,4-6.9,7.1-9.2c3.3-2.8,6-6.2,7.9-10.1c1.2-2.6,2.1-5.4,2.6-8.2c1-4,2.1-8,3.1-12
			c1.5-6.4,2.8-13,4.3-19.5c0.4-1.8,1-3.5,1.3-5.2c-1.5,6.7-2.4,13.7-3.8,20.4c-2,9-4.2,17.9-4.6,27.3c-0.2,0.9-0.1,1.7,0,2.6
			c2.3-1.9,4.1-4.2,6.2-6.1c3.1-2.6,5.6-5.7,7.4-9.3c1.6-3.1,2.9-6.3,3.9-9.6c1.5-6,2.4-12.2,4.1-18.2c2.1-7.8,3.2-15.7,5.1-23.6
			c0.2-0.9,0-2,1-2.6c0,1.2-0.1,2.3-0.3,3.4c-1.2,5.2-1.5,10.6-2.9,15.7c-1.2,4.2-1.8,8.6-2.8,13c-1.7,6.8-2.1,14-2.6,21.1
			c-0.1,0.2,0,0.5,0.3,0.6c0,0,0,0,0.1,0c1.8-1.9,3.6-3.9,5.3-5.8c3-3,5.5-6.5,7.3-10.3c1.5-3.7,3.1-7.4,4.7-11.1
			c1.5-3.3,2.8-6.8,3.8-10.3c1.4-6,3.3-11.9,5-17.9c1.1-3.5,2.8-6.9,3.8-10.4c0.1-0.5,0.5-0.9,1-1.1l0,0c-0.7,4.3-3,8-3.9,12.2
			c-0.5,2.5-1.6,4.8-2.3,7.3c-0.5,1.9-0.9,4-1.5,6c-1.4,5.1-3,10.1-4.3,15.2c-0.9,3.5-1.7,7.1-2.5,10.7c-0.1,0.4-0.3,0.8,0,1.1
			c0.3,0.2,0.6-0.4,0.8-0.6c2-2.5,3.9-5.1,6.5-6.9c1.1-0.8,2-1.7,2.7-2.8c2.3-3.1,3.8-6.5,5.7-9.7c2.7-5,4.9-10.2,6.5-15.6
			c1.5-4.7,2.5-9.6,3.7-14.3c1.1-4.1,2.3-8.2,3.5-12.3l0,0c0.3,2.2,0,4.4-0.8,6.4c-1.8,6.3-3.4,12.6-4.7,19.1
			c-0.4,2.2-1.1,4.3-2,6.3c-0.5,0.8-0.7,1.8-0.7,2.7c0,1.2-0.3,2.5-0.8,3.6c-1,2.6-2.2,5.3-3.1,8.1c-0.5,1.3-1.1,2.7-0.5,4.3
			c0.8-1.2,1.4-2.4,1.9-3.7c2.7-5,6.3-9.4,9.1-14.2c2.2-3.8,4.1-7.6,4.5-11.9c0.4-3.8,1.1-7.6,2-11.4c0.9-3.9,2.7-7.5,3.3-11.4
			c0.5-3.1,1.1-6.1,1.6-9.3c0.5-2.4,1.3-4.8,2.3-7c0.1,0.7,0,1.4-0.2,2c-0.4,2-1,3.9-1.3,5.8c-0.8,4-1,8.2-2.3,12.1
			c-2.3,7.3-3.9,14.8-4.8,22.4c-0.5,4.1-0.6,8.3-0.4,12.4c0.9-1.7,1.6-3.1,2.2-4.6c0.8-2.2,1.9-4.3,3.2-6.3
			c3.4-5.1,5.9-10.7,7.2-16.7c0.7-3.4,1.1-7.1,2.2-10.5c1.4-4.1,2.3-8.3,2.7-12.6c0-0.8,0.2-1.6,0.7-2.2c0.2,0.2,0.3,0.5,0.2,0.8
			c-0.9,4.2-1.6,8.6-2.5,12.8c-0.9,4.2-1.7,8.5-2.2,12.8c-0.3,3.1-0.1,6.3-0.4,9.4c-0.3,1-0.3,2.1,0.1,3.1c0.4-0.8,0.8-1.5,1.1-2.2
			c2.4-5.2,5.4-10.1,8.9-14.6c2.5-3.2,5.1-6.6,5.9-10.9c0.2-1.9,0.6-3.7,1.1-5.5c1.8-5.6,3.6-11.2,5.3-17c1-3.2,2-6.3,3.1-9.4
			c0.2-0.7,0.6-1.3,0.8-1.8c-0.2,1.7-0.6,3.3-1.1,4.9c-1.1,3.5-2.2,7.1-3.2,10.6c-0.7,2.6-1.5,5.3-2.3,7.9c-0.9,2.4-1.5,4.9-1.9,7.4
			c-0.3,3.8-0.8,7.7-1.2,11.5c0,0.4-0.4,0.9,0.1,1.2c0.5,0.3,0.6-0.3,0.9-0.7l1-1.3c2.5-3.5,5.8-6.3,9.5-8.3
			c1.8-0.8,3.3-2.1,4.4-3.7c1.5-2,3-3.8,4.5-5.8c1.8-2.4,3.5-4.9,5.3-7.5c3.9-5.8,7.3-11.8,11.1-17.6c0.8-1.1,1.6-2.1,2.5-3.1
			c-1.8,3.5-3.9,6.8-5.8,10.2c-2.7,4.9-5.7,9.4-8.8,14.1c-1.7,2.6-3.6,4.9-4.8,7.9c-0.9,2.7-2.1,5.3-3.6,7.7
			c-0.5,0.7-0.9,1.3-1.4,1.9c2.9-1.7,6-3.2,8.4-5.7s4.7-5.1,7.2-7.4c7.3-6.8,14.3-13.8,21.2-21c0.6-0.7,1.4-1.2,2.1-1.8
			c0.1,0.2,0.1,0.5-0.2,0.6c-5.1,5.7-10.2,11.2-15.6,16.5s-10.5,10.7-15.8,15.9c-1.1,1.1-2.5,2.2-3.1,3.6c-1.1,2.7-2.9,5.1-4.2,7.8
			c-1.1,2-2.4,3.9-3.9,5.7c-0.3,0.3-0.7,0.7-0.4,1.1c0.3,0.4,0.8,0.1,1.1,0c2-0.3,4.1-0.8,6.1-1.3c2.1-0.7,4-1.5,6.1-2.2
			c10.7-3.7,20.8-8.6,30.8-13.6c2-1.2,4.1-2.2,6.3-3L523.2,189.7z M429.7,248c-1.1,1.8-2.2,3.5-3.3,5.5c2.4-0.5,4.7-0.3,7.1-0.6
			c3-0.3,5.2-2,7.7-3.3c1.7-0.9,2.7-2.7,4.2-3.7c0.5-0.3,0.8-1.1,1.5-0.3c0.1,0,0.2-0.1,0.3-0.1c1.1-0.7,2-1.6,2.7-2.7
			c-2.5-0.5-5.1-0.4-7.6,0.4c-2.1,0.6-4.2,1.4-6.2,2.3c-1.8,0.6-3.5,1.5-5,2.8c-0.4,0.5-1.1,0.1-1.4-0.5c0.8-2.1,2.7-2.7,4.3-3.6
			c4.2-2.3,6.4-5.9,7.9-10.1c0.7-1.7,1.1-3.5,1.4-5.3c0.2-3.5,0.2-6.9,0.3-10.4c0-2,0.1-3.8,0.2-6.2c-1,1.5-1.3,3-2.1,4.2
			c-1.8,3-3.6,6-5.2,9.1c-1.6,2.8-2.7,5.8-3.4,8.9c-0.2,1.5-0.8,2.9-1.7,4.1c-0.5,0.8-0.7,1.6-0.6,2.5c-0.1,2.3-1,4.4-1.1,6.6
			C430,247.9,429.7,247.9,429.7,248L429.7,248z M157.4,434.2c2.8-1.8,5.3-3.9,8.7-5.1c3.3-1.2,6.4-2.6,9.6-4
			c4.9-2.2,9.7-4.3,14.6-6.6c4-1.9,8-4,11.9-6c8.1-3.8,16.1-7.8,24.2-11.7c5-2.4,9.8-5.4,14.7-8c2.8-1.5,5.5-3.1,8.3-4.8
			c2.1-1.3,4-3,6.3-4.1c7.2-3.4,13.7-7.7,20.4-11.9c2.9-1.8,5.7-3.7,8.7-5.3c1.7-0.9,3.3-2.1,5.2-2.7c0.9-0.3,1.2-0.7,0.2-1.3
			c-0.7-0.6-1.2-1.4-1.4-2.3c-0.4-1.2-0.6-1.5-1.5-0.3c-1.8,2.3-4.4,3.9-6.8,5.5c-5.7,3.9-11.8,7.4-17.9,11c-3.5,2.2-7.2,3.9-10.7,6
			c-2.6,1.6-5.2,3.3-7.9,4.7c-4.3,2.2-8.5,4.7-12.6,7.4c-5.2,3.2-11.1,5.5-16.3,8.9c-4.4,2.7-8.9,5-13.4,7.3
			c-2.6,1.4-5.6,2.3-8.3,3.4c-1.7,0.7-3.3,1.7-4.9,2.4c-1.1,0.5-2.2,1-3.4,1.3c-3.6,1.3-6.9,3.1-10.4,4.3c-2.9,1-5.6,2.5-8.4,3.4
			c-1.8,0.5-3.4,1.5-5.2,2.1l-5.5,1.9c-0.8,0.2-1.4,0.8-1.5,1.6c-0.2,1.1-0.7,2.1-1,3.1c-0.2,0.5-0.6,0.8-0.2,1.3
			c0.5,0.5,0.9,0.1,1.3-0.2c0.2-0.2,0.4-0.3,0.6-0.3C155.7,435.2,156.6,434.8,157.4,434.2z M395.6,260.3c-1.6,2.9-3.6,5.5-5.9,7.9
			c-2.5,2.5-4.7,5.1-6.8,8c-0.9,1.2-0.6,2.6-0.8,4c-0.4,4.7-1.5,9.4-3.3,13.8c-0.1,0.2-0.1,0.5-0.1,0.7c1-0.2,2-0.4,2.9-0.8
			c2.9-0.9,6-1.2,9-0.8c3,0.4,6-0.2,8.5-1.8c1.7-1,3.2-2,4.9-3.1c2.9-1.9,6-3.5,9.3-4.7c2-0.8,4-1.7,5.8-2.8c-3.1-0.9-6-1.3-8.7,0
			c-5.5,2.7-11.3,4.7-16.4,8.1c-0.5,0.3-1,0.7-1.4,0s0.2-0.9,0.6-1.1c1.3-0.8,2.7-1.5,4-2.4c2.9-2,6.3-2.8,9.4-4.3
			c0.6-0.4,1.3-0.4,1.7-1.2c-1.7-0.6-3.2,0.1-4.9,0.1c-0.5,0-1,0.2-1.4,0.1c-2.4-0.8-4.2,0.3-6,1.6c-0.9,0.7-2.1,0.7-3,1.6
			c-1,1-1.6,2.2-2.5,3.1c-2,2.6-4.8,4.4-8,5.1c-0.5,0.1-1.2,0.6-1.5-0.2c-0.3-0.8,0.4-1.2,1-1.5c1.2-0.5,2.4-1.1,3.5-1.7
			c3.5-1.8,5.4-4.9,6.9-8.4c1.3-3.4,2.3-6.8,2.9-10.4c0.9-5.5,2.9-10.7,4-16.2c0.1-0.3,0.3-0.6-0.1-0.9
			C397.9,255,397,257.6,395.6,260.3z M425,251.5c3.4-2.8,4.6-6.6,5-10.8c0.6-4.2,0.9-8.5,0.8-12.8c0-0.3,0.1-0.7-0.3-1
			c-0.8,1.1-1.5,2.3-2.1,3.5c-2,3.5-4.2,6.8-6.7,10c-2.7,3.7-4.1,8-5.1,12.3c-0.3,1-1.2,1.3-1.5,2.3c-1.1,3.4-2.5,6.6-4,9.8
			c-0.6,1.4-0.5,1.4,1,1.3c1.4-0.1,2.8,0.1,4.1,0.4c0.8,0.3,1.2,0.2,1.6-0.8c1.4-3.5,3.6-7,9.1-6.9c1.1-0.1,2.2-0.4,3.2-0.8
			c1.6-0.6,3.3-0.7,4.9-0.4c0.6,0.2,1.2,0.1,1.7-0.2c0.5-0.3,1.1-0.1,1.1,0.5c0,0.6,0.1,1.3-0.9,1.2c-0.4,0-0.7,0-1.1-0.1
			c-1.9-0.6-3.8-0.1-5.7,0.3c-1.2,0.4-2.5,0.6-3.7,0.8c-3.5,0.3-6.4,2.9-7.1,6.3c-0.2,0.8,0.2,0.7,0.6,0.7c1.9-0.2,3.8-0.6,5.6-1.1
			c4.2-1.3,8.1-3.4,11.5-6.2c1.7-1.3,3.5-2.4,5.5-3.3c0.6-0.2,1.1-0.6,1.4-1.2c-1.1-0.3-2.2-0.4-3.2-0.3c-2.2,0.3-4.5,0.3-6.7,0
			c-3.8-0.3-7.3,0.5-10.9,1.1c-1.1,0.3-2.1,0.9-3,1.8c-1.5,1-2.9,2.2-4.2,3.5c-0.3,0.4-0.8,1.1-1.3,0.7c-0.5-0.4,0-1.1,0.4-1.7
			c1.7-2.2,3.9-4,6.4-5.3l0.7-0.4c0.6-0.6,0.5-1.6-0.1-2.2c0,0,0,0,0,0c-0.3-0.3-0.3-0.8,0-1.1c0.5-0.7,1-1.4,1.6-2.1
			c3.5-4.1,4.5-9,5.1-14.1l0.1-0.7c0.1-0.3,0.1-0.6,0.5-0.6c0.3,0,0.5,0.3,0.5,0.5c0.1,0.5,0,1.1,0,1.8c-0.5,5.2-2.2,10.2-4.9,14.6
			c-0.5,0.8-1.1,1.5-1.7,2.1C423.7,252.6,424.3,252.1,425,251.5L425,251.5z M451.7,210.2c-2.3,4.2-4.9,8.3-6,13.1
			c-0.5,1.7,0,3.5-0.3,5.3c-0.7,4.5-2.4,8.8-5,12.6c-0.2,0.4-0.7,0.6-0.4,1c0.3,0.4,0.7,0.1,1.1,0.1c5.4-0.7,9.9-3.3,14.3-6.2
			c1.1-0.8,2.1-1.8,3-2.8c2-1.9,4.6-2.9,6.9-4.6c0.4-0.2,0.9-0.5,0.7-0.8c-0.2-0.6-0.8-0.2-1.1-0.2c-2.5,0-5,1.1-7.6,0.9
			c-3.1-0.2-6.2,0.7-8.8,2.5c-0.4,0.3-0.9,0.3-1.2,0c-0.4-0.3-0.1-0.8,0.1-1.1c0.6-1,1.5-1.7,2.6-2.1c4.8-1.6,6.8-5.3,8.1-9.9
			c1.1-4.4,1.3-8.8,1.9-13.1c0.5-1.9,0.8-3.7,0.9-5.7c0-0.4,0.1-0.9-0.3-1.3C457.3,201.6,454.3,205.8,451.7,210.2L451.7,210.2z
			 M477.7,210.7c-2.1,0.4-4.1,0.9-6.1,1.2c-3.3,0.7-6.4,2-9.1,3.8c-0.2,0.1-0.4,0.3-0.6,0.4c-0.4,0.2-0.9,0.3-1.1-0.2
			c-0.2-0.3-0.1-0.7,0.3-0.9c0,0,0.1,0,0.1,0c2.4-1.1,4.4-2.8,6.7-3.8c3.5-1.6,5.5-4.4,7.5-7.5c1.3-2,2.5-4.1,3.7-6.2
			c0.2-0.2,0.3-0.5,0.4-0.7c0.2-0.6,0.7-1.3,0.2-1.7c-0.5-0.4-1,0.2-1.5,0.4c-1.9,1.1-3.9,2.1-5.9,2.9c-2.5,1.1-4.7,2.7-6.5,4.8
			c-0.8,0.7-1.6,1.3-2.5,1.9c-1.7,1.6-2.7,3.9-2.8,6.3c-0.3,5.3-1.5,10.4-4.7,14.8c-0.2,0.3-0.6,0.4-0.4,0.8
			c0.2,0.4,0.6,0.2,0.9,0.1c4.5,0.1,7.8-2.4,11.1-4.9c2.3-2,4.5-4.1,6.6-6.3c2.1-2.1,4.9-3.4,7.3-5.1c0.6-0.4,1.3-0.8,1.9-1.2
			C481.3,209.6,479.5,210.4,477.7,210.7L477.7,210.7z M379.2,283.8c-1.7,6.3-4.5,12.1-8.5,17.3c-0.6,0.8-1.3,1.8-1.9,2.7
			c-0.2,0.3-0.4,0.5-0.2,0.8c0.1,0.3,0.5,0.2,0.7,0.1c0.4,0,0.7-0.3,0.8-0.6c0.6-1.5,2-2.4,2.9-3.5c3.8-4.4,6.2-9.8,7-15.6
			c0.2-1.8,0.9-3.5,0.1-5.4c-0.5-1.2,0.5-2.3,0.9-3.6c0.7-2.6,0.5-5.4,0.9-7.9l-0.4-0.1c-0.7,1.5-1.5,3-2.1,4.6
			c-1.9,4.3-4.7,8.1-8.2,11.2c-2.7,2.4-5.2,5.1-7.6,7.9c-0.3,0.3-0.5,0.6-0.6,1c-0.6,4.5-1.7,9-2.8,13.5c0,0.2,0,0.3,0.1,0.4
			c1.8-0.9,3.5-1.9,5.6-1.7c0.2,0.1,0.4,0,0.6-0.2c1.7-3.2,4.2-5.7,6.2-8.7c2.3-3.8,4-7.9,5.2-12.2c0.3-1,0.6-1.8,0.9-3.1
			C379.6,281.6,379.6,282.8,379.2,283.8z M359.2,289.4c0.2-0.1,0.4-0.1,0.6-0.3c0.5-0.3,0.6-1.5,1.3-0.9c0.5,0.4-0.3,1.1-0.6,1.6
			c-1.7,3.1-4.3,5.5-6.3,8.3c-2.5,3.5-4.5,7.3-5.9,11.3c-0.3,0.8-0.7,1.9-0.1,2.4c0.6,0.5,1.3-0.6,1.7-1.1c2.9-3,5.5-6.3,6.5-10.4
			c0.4-0.9,0.8-1.8,1.4-2.6c0.4,1.2-0.2,2.1-0.4,3.1c-1.6,5.5-5.1,10.3-9.8,13.6c-0.3,0.3-0.8,0.4-1.2,0.2c-0.6-0.3-0.3-0.7-0.3-1.1
			c0.8-4.8,2.6-9.3,5.4-13.2c1.9-2.9,4-5.6,6.3-8.2c0.4-0.3,1-0.9,0.7-1.6c-0.1,0-0.2,0-0.3,0c-4.8,4.9-9.9,9.5-12.6,16
			c-0.8,2.3-1.4,4.7-1.7,7.1c-0.2,1.1-0.4,2.2-0.5,3.3c-0.1,0.8,0.2,1,0.9,0.6c0.3-0.1,0.6-0.3,0.9-0.6c1.5-1.4,3.6-2,5.7-1.8
			c1.1,0.1,2.1-0.4,2.7-1.2c1.1-1.3,2.3-2.6,3.5-3.8c0.7-0.6,0.8-1.8,1.3-2.7c1.7-3.7,2.7-7.6,3-11.7c0.4-3.6,1.5-7,1.5-10.7
			c0-0.3,0.2-0.8-0.3-1.3L359.2,289.4z M415.7,241.4c-0.9,0.5-1,1.6-1.4,2.3c-1.1,1.7-2.2,3.5-3.1,5.2c-1,1.4-2.2,2.6-3.6,3.6
			c-3.7,3.1-6.4,7.1-9.1,11c-0.9,1.3-0.9,3-1.3,4.4c-0.6,2.2-1.1,4.5-1.6,6.7c-0.2,0.6-0.6,1.5,0,1.9c0.6,0.4,1.4,0,1.9-0.5
			c3.7-2.8,7.2-5.6,10-9.5c2.5-3.5,4.6-7.3,6.1-11.3c0.9-2.4,0.9-5.1,1.1-7.7C414.9,245.4,415.3,243.5,415.7,241.4L415.7,241.4z
			 M359.6,329.8c-0.9-0.3-1.9-0.5-2.9-0.6c-5.5-0.3-10.9-1.5-16.3-1.3c-4.1,0.1-8.2,1-12,2.6c-0.9,0.4-1.7,1.2-2.1,2.1
			c-0.5,1.1-1.2,2.1-2.1,3c1.5,0.6,3.2,0.4,4.4-0.7c0.9-0.5,1.8-0.8,2.8-1c3.5-0.8,6.8-2.2,10.4-3.1c2.8-0.6,5.5-0.4,8.3-0.7
			c0.4-0.1,1,0.1,1,0.6c0,0.5-0.5,0.5-0.8,0.6c-1.4,0.4-2.8,0.5-4.2,0.4c-2.1,0-4.2,0.4-6.2,1.1c-2.9,1.1-5.9,1.7-8.8,2.7
			c-0.3,0.1-0.6,0.3-0.9,0.5c2.8,0.2,5.6,0.9,8.3,1.9c0.4,0.1,0.7,0.2,1.1,0.1c4.7-1.6,9.3-3.5,13.8-5.6c1.9-0.9,4.2-0.8,6.1-1.7
			C359.3,330.1,359.6,330.2,359.6,329.8L359.6,329.8z M394,281.4c2.6-2.5,6.1-2.5,9.2-3.4c1.2-0.2,2.5-0.2,3.7,0
			c5.3,0,10.5-1.7,14.7-4.9c2.6-1.7,5.3-3.1,8.1-4.3c0.6-0.3,1.7-0.6,1.5-1.1c-0.3-0.8-1.3-0.2-1.9-0.1c-1.9,0.6-3.8,1-5.8,1.1
			c-1-0.1-1.6,1.1-2.6,1.3c-0.8,0.2-1.7,0.3-2.5,0.5c-3.3,0.2-6.5,0.7-9.3,2.5c-0.4,0.3-1,0.7-1.4,0c-0.3-0.7,0.3-1.1,0.7-1.2
			c2.5-1.4,5.2-2.3,8.1-2.6c0.8-0.1,1.5-0.1,2.2-0.2c-0.8-0.7-5.2-1.5-6.4-1.4c-2.3,0.2-4.4,1.4-5.8,3.3c-2.4,3.3-6.2,4.6-9.3,6.8
			c-0.4,0.3-0.9,0.4-1.4,0.2c-1.3-0.6-1.4,0.2-1.7,1.1c-0.2,0.7-0.4,1.3-0.6,2L394,281.4L394,281.4z M371.9,318.3
			c-1.4,0-2.5,0-3.8,0.2c-3.6,0.5-7-0.4-10.4-1.1c-2.9-0.6-5.8-0.8-8.7-0.6c-0.8,0.1-1.6,0.4-2.2,0.9c-1.1,0.8-2.2,1.9-3.8,1.3
			c-0.4-0.1-0.5,0.1-0.6,0.4c-0.5,2.6-1.7,5-3.6,6.9c0.5,0,1.1,0,1.7,0c0.6,0.1,0.9-0.2,0.8-0.7c-0.1-0.8,0.3-1.1,1-1.2
			c3.4-0.3,6.9-0.5,10.3-1c1.6-0.4,3.2-1,4.7-1.7c1.2-0.4,2.2-0.9,3.4-1.4c0.5-0.2,1.1-0.7,1.4,0.2c0.3,0.8-0.6,1-1,1.2
			c-3.2,1.4-6.5,2.5-9.9,3.2c-2.3,0.4-4.6,0.4-6.9,0.7c-0.6,0-1.3,0.3-1.7,0.8c2.1-0.3,3.9,0.6,5.7-0.1c0.7-0.2,1.4,0.2,2.1,0.2
			c4.4-0.2,8.7-1.6,12.4-4c2.5-1.5,5.2-2.7,8-3.6C371.4,319,371.8,318.7,371.9,318.3L371.9,318.3z M364.3,316.8
			c1.3,0,2.7-0.3,3.9-0.8c6-2.4,11.5-6.2,17.2-9.6c-0.8-0.5-1.9-0.6-2.8-0.3c-2.7,0.5-5.3-0.2-8-0.1c-3.1,0-6.2,0.1-9.3,0.3
			c-1.9,0.3-3.8,1-5.5,2c-0.2,0.1-0.4,0.3-0.4,0.5c-0.8,2.4-2.1,4.6-4,6.4C358.3,315.4,361.1,316.9,364.3,316.8L364.3,316.8z
			 M343.8,298.9c-1,0.2-0.9,1.1-1.2,1.5c-1.8,3.4-4.2,6.5-7,9.1c-2,1.7-3,4.1-4,6.5c-0.6,1.3-1.4,2.4-1.2,3.9c0,0.1-0.1,0.3-0.2,0.4
			c-1.5,0.5-1.1,2-1.1,3c-0.2,1.7-0.6,3.4-0.8,5.2c1.5-0.4,2.9-0.4,3.8-2.1c0.6-1.2,2-1.7,3.2-2.4c2.8-1.7,3.5-4.5,4.5-7.4
			c0.8-2.2,1.3-4.4,2.1-6.7c0.7,2.3-0.7,4.3-0.9,6.5s-1.5,4.1-2.6,6.5c2.5-1.6,2.9-4,3.4-6.2c1-5.1,1.8-10.3,2.2-15.5
			C344.1,300.5,344,299.7,343.8,298.9L343.8,298.9z M321.7,350.7c-3.3,2.1-7,2.5-10.6,3.8c0.6,0.6,1.4,0.8,2.2,0.7
			c3.6-0.2,6.8-1.7,10-2.8c2-0.9,4.1-1.7,6.1-2.4c-0.5-0.7-1.3-1.1-2.2-1.2c-2.8-1-5.7-1.7-8.7-2.1c-2.7-0.5-5.6-0.4-8.3,0.3
			c-2.9,0.8-6,1.5-8.6,3l-0.4,0.2c-0.6,0.3-1.2-0.6-1.6,0c-0.7,1.1-1.3,2.1-1.9,3.2C306,354,314,353.8,321.7,350.7L321.7,350.7z
			 M312.9,361.8c-1.4-0.5-2.9-0.5-4.3,0c-3.6,1-7.3,1.4-11,1c-0.9,0-1.8,0-2.7,0.1c-0.9,0.2-1.9-0.1-1.9-1.3c0-1.1,1-1,1.8-0.9
			c3.3,0.3,6.7,0.2,10,0.2c3.9,0,7.7-0.9,11.5-1.2c1.3-0.1,2.5-0.5,3.6-1.1c-2.5-0.6-5.1-1.6-7.7-1.9c-1-0.2-2.1-0.2-2.8-1.2
			c-0.2-0.3-0.5-0.3-0.8-0.2c-1.4,0.6-2.8,0-4.2-0.2c-3.6-0.6-7.2-0.6-10.5,1.1c-1.7,0.8-3.3,2.1-3.2,4.4c0.1,0.9,0.6,1.7,1.3,2.2
			c2,1.4,4.4,2.1,6.9,1.9c1.9,0,3.8-0.2,5.6-0.4C307.5,363.7,310.2,362.8,312.9,361.8L312.9,361.8z M318.1,344.4
			c1.6,0.4,3.2,1.2,4.9,1.5c1.7,0.4,3.4-0.2,5.1-0.5c3.7-0.4,7-2.2,10.5-3.4c0.9-0.4,1.8-0.7,2.8-0.8c0.3,0,0.8-0.1,0.7-0.4
			c0-0.3-0.4-0.3-0.7-0.5c-2-0.7-4.1-1-6-1.7c-4-1.6-8.1-1.2-12-0.7c-2.6,0.4-5.1,1.2-7.4,2.4c-1.8,0.9-1.9,0.7-2.5-1.1
			c-1.3,2-1.7,4.5-3.6,6.1c4.1-0.2,7.6-2.3,11.3-4c2.6-1.1,5.3-1.6,8.1-1.6c0.1,0,0.3,0.1,0.4,0.2c0.1,0.1,0.1,0.4-0.1,0.5
			c0,0,0,0,0,0c-0.5,0.4-1.1,0.6-1.7,0.6C324.1,341.2,321.2,342.9,318.1,344.4L318.1,344.4z M300.9,349c1.9-1.7,4-2.2,6.2-2.9
			c0.3,0,0.5-0.2,0.6-0.4c0.9-2,2.7-3.5,3.7-5.4c1-2,1.6-4.2,1.9-6.4c-0.9,0.8-0.8,0.8-1.2,2.2c-0.9,4-3.2,7.5-6.6,9.9
			c-0.5,0.3-0.9,0.7-1.4,0.2c-0.5-0.4,0.1-1,0.3-1.4c0.7-1.1,2-1.7,3.1-2.6c1.9-1.7,3.2-3.9,3.6-6.4c0.4-1.9,0.9-3.7,1.6-5.5
			c0.6-1,0.8-2.2,0.7-3.4c-0.3-1.3,0.1-2.7,0-4c-0.3-1.6-0.4-3.2-0.5-4.9c-0.6,0.3-1.1,0.9-1.1,1.5c-1.2,3.9-3.1,7.5-5.6,10.7
			c-1.4,1.9-1.7,4.1-2.3,6.2c-1.1,4.1-1.3,8.2-2.9,12.2C300.8,348.5,300.8,348.8,300.9,349L300.9,349z M293.6,339.4
			c1.2-0.6,1.4-0.1,1.2,0.6c-0.8,3.8-1.5,7.7-1.9,11.6c0,0.3-0.1,0.7-0.2,1c-0.2,0.5-0.4,0.6-0.8,0.1c-0.7-0.8-0.9-2-0.5-3
			c1-2.2,1.1-4.6,1.6-7.1c-1.5,1.1-3.8,12.6-3.1,14.5c1.6-0.8,2.9-2.2,4.6-2.9c0.1-0.1,0.3-0.2,0.3-0.3c0-2.5,2.4-3.2,3.6-4.7
			c1.4-1.8,2.3-4,2.5-6.3c0.1-2.3,1-4.4,0.5-6.7c-0.5-2.3-0.5-4.8-1.6-7c-0.5-1.1-0.2-2.2-0.9-3.7
			C297.6,330.3,295.8,334.9,293.6,339.4L293.6,339.4z M315.5,337c0.3-0.3,0.7-0.5,1-0.7c3-1.4,4.6-3.9,6.1-6.5
			c0.9-1.3,1.5-2.7,2.1-4.1c0.9-2.4,1.6-4.9,2-7.4c0.1-0.3,0-0.6,0.4-0.6c0.4,0,0.4,0.3,0.3,0.6c-0.2,1.4-0.4,2.9-0.8,4.3
			c-0.7,2.7-1.6,5.5-2.5,8.1c-0.8,2-2,3.9-3.5,5.3c-0.3,0.2-1,0.5-0.5,1c0.5,0.5,1.1-0.1,1.2-0.4c0.8-2.1,3.3-3.1,3.4-5.5
			c0.1-0.2,0.3-0.5,0.5-0.7c1.3-1,2.2-2.6,2.3-4.2c0.7-5.3,1.1-10.7,1-16.1c0-0.3,0.1-0.6-0.3-0.7c-0.4-0.1-0.4,0.3-0.6,0.6
			c-2,3.2-4.2,6.2-6.5,9.2c-0.9,1.3-1.6,2.7-2.1,4.2c-0.4,0.9-1,1.8-1.3,2.6c-0.8,1.8-1.3,3.6-1.7,5.5
			C315.5,333.3,315.3,335.1,315.5,337L315.5,337z M372,304.6c2.9-0.4,5.6,0.2,8.3,0c2.3-0.1,4.5-0.2,6.5-1.3
			c2.7-1.6,5.1-3.5,7.4-5.7c1.2-1.2,2.5-2.2,3.9-3.1l-0.1-0.3c-2.3,0.1-4.5,0.1-7,0.3c-2.5,0.1-5,0.3-7.4,0.7
			c-3.7,0.4-6.7,1.8-8.7,5.1C374,301.7,373.1,303.2,372,304.6L372,304.6z M461.5,204.5c1.3-0.7,2.4-1.6,3.3-2.7c2.1-2,4.5-3.7,7.1-5
			c3.2-1.6,4.8-4.5,6.5-8C471.3,192.8,465.3,197.4,461.5,204.5z M335,326.8c1.4-0.4,2-1.7,2.9-2.7l-0.2-0.3l-2.9,2.6L335,326.8
			L335,326.8z M321.2,358.8c-0.3,0.1-0.8,0.2-0.6,0.6c0.4,0.5,1,0.2,1.4,0.1c0.2,0,0.7-0.2,0.4-0.5
			C322.3,358.4,321.7,358.8,321.2,358.8z"/>
		<path class="st1" d="M-119.2,535.9c4.9-2.2,10.1-3.6,15.2-5.4c4.2-1.5,8.2-3,12.4-4.5c3-1,6-2.2,9-3.2c2.3-0.8,4.6-1.6,6.9-2.4
			c3.2-1,6.4-1.7,9.4-2.8c4.1-1.5,8.3-2.7,12.5-4.1c7.2-2.5,14.5-4.7,21.7-7.2c5.6-2,11-4.3,16.6-6.4c2.9-1.2,5.7-2.4,8.6-3.4
			c3.2-1.2,6.5-2.3,9.8-3.5c3.7-1.4,7.2-3.1,10.8-4.5c6.8-2.7,13.4-5.7,20.2-8.3c5.6-2.3,10.9-5.1,16.6-7.5s11.3-5,17-7.4
			c9.1-3.8,18.3-7.4,27.6-10.9c4.8-1.8,9.6-3.7,14.5-5.5c3.9-1.5,7.8-3.2,11.6-5c5-2.4,10.1-4.8,14.9-7.6c2.9-1.7,5.6-3.6,8.3-5.6
			c1.1-0.6,2.1-1.5,2.7-2.7c0.9-1.9,1.7-3.9,2.3-5.9c0.8-2.4,1.9-4.6,2.9-7.1c2.2-5.6,3.8-11.5,6.1-17.1c1.5-3.7,2.8-7.5,4.3-11.2
			c2.2-5.2,4.4-10.2,6.6-15.4c1.8-4.3,3.4-8.8,5.2-13.1c2.5-5.7,5.5-11.4,7.8-17c2.3-5.7,4.8-11.2,7.2-16.9
			c2.1-5.1,4.2-10.3,6.4-15.5c1.6-3.8,3.3-7.7,5-11.5c1.2-2.7,2.5-5.3,3.4-8c1.5-4.3,3.3-8.4,4.9-12.6c2.2-5.9,5.1-11.5,7.7-17.3
			l1.4-3c0.1-0.2,0.2-0.5,0.5-0.4s0.2,0.5,0,0.6c-0.5,0.8-0.8,1.7-1.1,2.6c-1.5,3.2-3,6.5-4.5,9.7c-1.9,4.4-3.5,8.8-5.2,13.2
			c-1.4,3.5-2.9,6.9-4.3,10.3c-1.6,4.2-3.5,8.3-5.3,12.4c-2.1,4.9-4.4,9.9-6.2,14.9c-1.8,4.8-4,9.5-5.9,14.3c-0.9,2.4-2.1,4.6-3,6.9
			c-1.7,4-3.4,7.9-5.3,11.7c-1.6,3.3-3.1,6.6-4.5,10.1c-2.2,5.2-4.1,10.6-6.4,15.7c-1.1,2.6-2.2,5.2-3.2,7.8
			c-0.7,1.8-1.3,3.5-1.9,5.3c-1.3,3.2-2.6,6.2-3.6,9.4c-1.2,3.8-2.6,7.6-3.9,11.3c-1.6,4-3,8.1-4.2,12.3c-0.9,3.5-3.2,6.5-6.5,8.1
			c-4.4,2.4-9,4.9-13.3,7.2c-4.3,2.3-8.5,4.9-13,6.9c-6.3,2.7-12.7,5-19.1,7.5c-5.5,2.1-11.1,4.1-16.5,6.2
			c-5.2,2.1-10.4,4.5-15.6,6.5c-6.4,2.5-12.6,5.5-18.8,8.2c-4.8,2.1-9.6,4.7-14.7,6.6c-2.7,1-5.2,2.4-7.7,3.6
			c-4.1,1.7-8.3,3-12.3,5.1c-3.5,1.7-7.2,3.3-10.9,4.6c-3.6,1.3-7.2,2.3-10.6,3.7c-5.9,2.5-11.9,4.7-17.9,7.1
			c-6,2.4-12.1,4.5-18.3,6.5c-10.2,3.3-20.5,6.9-30.8,10c-6.1,1.8-11.9,4.1-17.8,6.3s-12.1,4.3-18.1,6.5c-2.2,0.7-4.5,1.3-6.4,2.5
			L-119.2,535.9z"/>
		<path class="st1" d="M225.3,244.6c0.4,2-0.9,3.4-1.4,5.1c-0.2,0.7-0.1,1.6-1,2.1l0,0c-0.2-1.8,0.8-3.3,1.3-4.8
			C224.5,246.1,224.3,244.9,225.3,244.6L225.3,244.6z"/>
		<path class="st1" d="M221,251.5l-1.9,3.8c0-1.5,0.5-2.9,1.4-4.1L221,251.5z"/>
		<path class="st1" d="M429.2,196.3c0.3-1.9,0.8-3.8,1.5-5.6C430.6,192.6,430.1,194.5,429.2,196.3z"/>
		<path class="st1" d="M414.2,206.2c-0.4-1.6,0.7-2.8,0.9-4.2C415.2,203.4,414.9,204.9,414.2,206.2z"/>
		<path class="st1" d="M225.3,244.6c-0.1-0.2-0.3-0.4-0.5-0.5c-0.4-0.2-0.8-0.1-0.5-0.8c0.3-0.7,0.5-0.2,0.9,0.1
			c0.4,0.2,0.5-0.3,0.9-0.3C225.9,243.5,225.9,244.3,225.3,244.6L225.3,244.6z"/>
		<path class="st1" d="M523.3,189.6c1.2-0.9,2.4-1.6,3.8-2.2C525.9,188.4,524.7,189.1,523.3,189.6z"/>
		<path class="st1" d="M393.4,273.4c-0.5,1.7-1.1,3.3-1.9,4.9c-0.8,2.7-2.3,5-4.4,6.9c-0.8,0.7-1.3,1.9-2.6,2.2
			c-0.5,0.1-1.2,0.5-1.5-0.1s0.4-1,0.8-1.3c2.6-2,4.8-4.6,6.3-7.5c1-1.9,1.6-4,2.8-5.9C393.5,273,393.3,273.2,393.4,273.4z"/>
		<path class="st1" d="M457.7,209.7c-0.1,2.3-0.6,4.6-1.5,6.7c-1.1,2.2-2.3,4.3-3.7,6.3c-1.1,2-2.9,3.6-5,4.6
			c-0.5,0.2-1,0.5-1.3-0.1c-0.4-0.5,0.1-0.9,0.5-1.2c2.2-1.7,4.1-3.7,5.9-5.9c1.9-2.4,3.2-5.2,3.6-8.3c0.2-1.7,0.5-3.5,0.9-5.1
			c0.1-0.3,0.2-0.7,0.6-0.7c0.2,0.1,0.3,0.2,0.4,0.3C458,207.7,457.8,208.7,457.7,209.7z"/>
		<path class="st1" d="M454.2,235.7c-2.6,1.5-5.3,2.8-8.2,3.8c-0.6,0.2-1.3-0.2-1.6-0.7c-0.4-0.5,0.3-0.9,0.7-1.3
			c0.4-0.4,0.9-0.7,1.4-1c0.5-0.2,1.1-0.8,1.5-0.2s-0.6,0.9-0.9,1.2c0,0.2-0.1,0.3,0,0.5c2.3-0.9,4.5-1.9,6.8-2.8L454.2,235.7z"/>
		<path class="st1" d="M460.8,223.5c-0.4,0-0.9,0.1-1-0.4c-0.2-0.5,0.3-0.8,0.7-1c0.6-0.2,1.3-0.5,1.9-0.7c2.4-1.1,4.4-2.9,6.6-4.4
			c0.6-0.4,1.3-1.5,2.1-0.5c0.8,1-0.6,1.4-1,2l-0.1,0.1c-2.7,1.3-5.2,2.7-7.7,4.3C461.8,223.3,461.3,223.5,460.8,223.5z"/>
		<path class="st1" d="M468.6,207.7c0.5-0.7,1.1-1.3,1.5-1.9c1.1-1.5,2.3-3,3.4-4.5c0.2-0.3,0.4-0.6,0.8-0.5c0.4,0.1,0.3,0.6,0.2,1
			c0,0.2-0.1,0.5-0.2,0.7c-1.5,2.1-3.2,4.1-5,5.9c-0.3,0.2-0.5,0.5-0.9,0.1C468.3,208.2,468.4,207.9,468.6,207.7z"/>
		<path class="st1" d="M362.6,301.5c0.4-1.8,1-3.5,1.8-5.1c1.9-4.3,4.7-8.2,8.1-11.4c1.5-1.3,2.6-3,3.5-4.7c0.2-0.5,0.6-1.1,1.3-0.8
			c0.6,0.3,0,1.1-0.2,1.4c-1,1.7-2.1,3.3-3.4,4.8c-1.9,1.7-3.6,3.6-4.9,5.8c-1.6,2.9-3.8,5.5-4.3,8.9c-0.1,0.8-0.5,1.6-1,2.2
			c-0.3,0.2-0.6,0.6-0.9,0C362.7,302.3,362.7,301.9,362.6,301.5z"/>
		<path class="st1" d="M402.6,267.1c4.2-4,7.4-8.9,9.4-14.3c0.1-0.3,0.1-0.8,0.6-0.7c0.5,0.1,0.3,0.6,0.2,1c-0.3,1-0.6,1.9-1,2.8
			c-1.7,4.1-4.8,7.3-7.3,10.8c-0.7,1-1.5,1.8-2.5,2.4c-0.3,0.2-0.5,0.5-0.8-0.1C401.4,268.3,401.9,267.6,402.6,267.1z"/>
		<path class="st1" d="M442.5,226.5c-0.2,3.8-0.4,7.7-3.3,10.7c-1.6,1.8-3.4,3.5-5,5.4c-0.5,0.6-1.2,1.8-2,1.1
			c-0.7-0.7,0.1-1.7,0.8-2.5c1.3-1.3,2.7-2.7,4.1-3.8c2.4-2,3.8-4.9,4.1-8l0.4-2.7l0.2-0.7C442.4,225.6,442.6,225.9,442.5,226.5z"/>
		<path class="st1" d="M362.8,315.2c-0.5,0.1-1-0.1-1.2-0.5c-0.2-0.6,0.5-0.6,0.8-0.8c0.4-0.2,0.5-0.2,0.7-0.1
			c5.5-0.8,10.2-3.5,15-6.2c0.5-0.3,1.3-0.8,1.6,0c0.4,0.8-0.3,1.2-0.9,1.4c-3.2,1.1-6,2.9-9.4,4.4
			C367.6,314.6,365.2,314.6,362.8,315.2z"/>
		<path class="st1" d="M338.9,311.1c-2.2,3.8-5.1,7.4-6.1,11.8c-0.1,0.5-0.3,0.9-0.6,1.3c-0.1,0.3-0.4,0.4-0.7,0.3
			c-0.4-0.1-0.3-0.4-0.2-0.7c0.2-0.9,0.3-1.7,0.6-2.5c1.5-4.1,4.2-7.6,6.5-11.2c0.2-0.4,0.6-0.7,1.1-0.7
			C339.4,310,339.2,310.6,338.9,311.1z"/>
		<path class="st1" d="M306.8,334.5c-0.3,1.8-1.4,3.3-1.6,5.2c0,0.4-0.3,1-0.8,0.9s-0.4-0.7-0.3-1c0.4-2.9,1.6-5.6,3.5-7.9
			C307.7,332.9,306.9,333.6,306.8,334.5z"/>
		<path class="st1" d="M299.4,338.2c-0.3,1.4-0.5,2.7-0.7,4.1c0,0.5,0.2,1.3-0.5,1.2s-0.9-0.8-0.8-1.5c0.3-1.2,0.6-2.5,0.9-3.8
			c0.1-0.3,0.3-0.6,0.5-0.8C299.4,337.3,299.5,337.8,299.4,338.2z"/>
		<path class="st1" d="M321.7,321.5c0.3,0.4,0.1,0.8-0.1,1.1c-1.4,3-3.3,5.8-3.6,9.2c0,0.3-0.1,0.7-0.6,0.7s-0.4-0.4-0.5-0.8
			c-0.1-0.8,0-1.5,0.2-2.3c1-2.7,2.3-5.3,3.8-7.8c0.2-0.2,0.3-0.4,0.5-0.6C321.5,321.2,321.6,321.3,321.7,321.5z"/>
		<path class="st1" d="M377.9,301.2c2.7-2.3,6-3.4,9.3-4.4c1.8-0.5,3.7-1.1,5.5-1.6c0.3,0,0.7-0.1,0.8,0.1c0.1,0.3,0,0.7-0.2,0.9
			c-0.2,0.2-0.5,0.4-0.9,0.5c-1.2,0.4-2.5,0.7-3.7,1.1c-3.4,1-6.9,1.7-9.8,4c-0.7,0.4-1.3,0.8-2.1,1.1
			C376.9,302.2,377.3,301.5,377.9,301.2z"/>
	</g>
</g>
</svg>
