<svg xmlns="http://www.w3.org/2000/svg" xmlns:xlink="http://www.w3.org/1999/xlink" viewBox="0 0 536.86 631.3"><defs><style>.a{fill:none;}.b{clip-path:url(#a);}.c{fill:#8e5039;}.d{clip-path:url(#b);}.e{clip-path:url(#c);}</style><clipPath id="a" transform="translate(-34.79 -16.75)"><path class="a" d="M513.44,133.52l-414,384.63L246.31,676.21l414-384.63Z"/></clipPath><clipPath id="b" transform="translate(-34.79 -16.75)"><path class="a" d="M212.69-29.57-120.65,280.09l292,314.26L504.66,284.6Zm-5.13,533.94c1.11-2.3,4.4-.17,3.28,2-.94,1.89-1.87,4-2.8,6l.11.19a2,2,0,0,1-.06,2.82c-1.09,1.29-2.29,2.6-3.38,3.9C197,534.17,187,550.18,172.9,557.19c-1.72,2.25-3.43,4.6-5,6.95a1.58,1.58,0,0,1-.75.66l-3.74,5.64a2,2,0,0,1-2.76.53c-.75,1.87-1.48,3.84-2.12,5.8-.8,2.38-4.61,1.3-3.81-1.18,5.12-15.29,12.38-29.15,24.61-39.92a2,2,0,0,1,2.5-.11,1.83,1.83,0,0,1,2,0c3.86-5.45,8.13-10.62,12-16.07a2.6,2.6,0,0,1,.55-.55,2.13,2.13,0,0,1,2.87.66c.55-.65,1.1-1.2,1.65-1.84.43-.84.87-1.58,1.3-2.42a2.11,2.11,0,0,1,.58-1.46l.28-.22c1.46-2.93,3-6.08,4.53-9.32Zm60.35-80.08c2-1.88,4.2-3.77,6.15-5.64a1.15,1.15,0,0,1,.46-.54c6.7-6.19,13.84-11.91,20.64-18.11,2-1.67,4.62,1.22,2.75,2.88-.93.88-1.86,1.66-2.79,2.55a1.55,1.55,0,0,1-.66,1.66l-1.22,1.1a1.77,1.77,0,0,1-.57,1.56c-3.39,3.8-7.78,6.48-11.71,9.82a2.79,2.79,0,0,1-1,.48c-1.13.9-2.26,1.8-3.49,2.61a2,2,0,0,1-1.47.42c-1.6,1.34-3.08,2.77-4.66,4.21-1.67,1.65-4.42-1.23-2.47-3Z"/></clipPath><clipPath id="c" transform="translate(-34.79 -16.75)"><rect class="a" x="42.26" y="193.81" width="609.33" height="283.91" transform="translate(-135.78 325.92) rotate(-42.9)"/></clipPath></defs><title>wheat-rust</title><g class="b"><path class="c" d="M407.9,406.41a30.43,30.43,0,0,0,6,.09A98.21,98.21,0,0,0,429.79,403c3.42-1.1,7.08-1.71,10.51-2.7,2.75-.74,5.45-2,8.21-2.6L463.15,394a4.5,4.5,0,0,1,2.29-.3.56.56,0,0,1-.56.55,20.8,20.8,0,0,0-4.71,1.3c-5.77,1.7-11.6,2.79-17.24,5-3.6,1.31-7.36,1.93-10.88,3-1.76.55-3.39,1.49-5.18,1.64a40.46,40.46,0,0,0-8.92,2.46c-2.35.8-4.43,2.28-6.64,3.47-3.26,1.79-6.19,3.84-9.69,5.24-1.64.74-3.64.81-5.49,1.47a37.14,37.14,0,0,0,12.95,1.21c6.26-.63,12.58-.76,18.73-2.79a40,40,0,0,1,6.81-1.28c3.66-.61,7.3-1.52,11.05-2.24a8.5,8.5,0,0,1,3.5-.2c-2.65.73-5.31,1.26-7.87,1.87-5.21,1.25-10.57,2-15.78,3.35a89.76,89.76,0,0,1-17,2.75,30.82,30.82,0,0,0-10.56,3.3c-2.13,1-4.17,1.76-6.39,2.75s-4.58,1.69-7.11,2.61c3,1.25,5.81,2.22,8.52,3.39,2.08.93,4,2.27,6.26,2.88,6.06,1.6,12.17,2.68,18.52,1.75a3.86,3.86,0,0,1,2.12.12c-3,.25-5.81,1.39-8.75,1a91,91,0,0,1-12.85-2.42,21.52,21.52,0,0,0-9.88-.57c-4.73,1-9.32,2.49-13.93,3.79-2.75.73-5.41,1.26-8.21.19a3.17,3.17,0,0,0-3,.26c-2.95,1.95-5.89,4-8.71,6.25-1.59,1.34-3.29,2.59-5,3.84-3.51,2.4-7,4.81-10.42,7.3-5.28,4-10.66,8-15.95,12-3,2.27-6.15,4.34-9.05,6.79-2.44,2-4.89,3.93-7.34,5.84-2,1.57-4.06,3-6.24,4.45-2.47,1.71-4.71,3.71-7.16,5.52-4.26,3.07-8.52,6.14-12.88,9.12s-8.6,6.25-13,9.13c-4.76,3.11-9.5,6.42-14.14,9.63-2.94,2-6,4.12-9,6-4.57,2.9-9,6-13.71,8.69a112.82,112.82,0,0,0-10.48,6.71c-4.36,3-8.82,6-13.41,8.66-3.92,2.34-7.5,5-11.43,7.29-3.63,2.12-7.24,4.53-10.87,6.74-5.16,3.05-10.08,6.58-14.91,10-2.17,1.59-4.68,2.7-6.85,4.39-1.23.91-3,1.46-3.13,3.38a1.56,1.56,0,0,1-.63.76c-3.25,2-6.27,4.24-9.63,6-3,1.66-5.7,3.79-8.57,5.44-4.88,2.83-9.87,5.56-14.85,8.29-3.46,1.9-6.44,4.56-10,6.46-1.54.84-3.06,1.77-4.59,2.7-4.95,3.23-9.8,6.35-15.07,9.31S85.8,626.09,80.53,629c-4.59,2.6-9.18,5.3-13.79,7.8-2.78,1.54-5.78,2.8-8.45,4.43-5,3-10.46,4.5-15.79,6.75l-.2,0a.45.45,0,0,1-.53-.36c-.13-.29,0-.49.35-.63,1.07-.39,2.13-.88,3.2-1.27,8-2.49,15.27-6.92,22.46-10.94S82.07,627,89,622.8c2.29-1.39,4.92-2.32,7.2-3.82,4.77-2.91,9.53-5.92,14.31-8.84,3.34-2,6.67-4.08,9.89-6.36a58.82,58.82,0,0,1,5.25-3.25c4.41-2.38,8.71-4.95,13-7.33A146,146,0,0,0,156.63,582a3.84,3.84,0,0,0,1.87-4,17.9,17.9,0,0,0-.87-3.14c-.51-1.26-1.21-1.3-2-.33a33.86,33.86,0,0,1-7.63,7.07c-7,4.3-13.83,8.6-21,12.72-7.75,4.47-15.26,9.42-22.67,14.37-7.7,5.06-15.75,9.56-23.82,13.86-7.19,3.92-14.63,7.36-21.38,11.74A157.13,157.13,0,0,1,40.35,644a.49.49,0,0,1-.7,0c-.13-.29.06-.41.35-.53,2.5-1.32,4.9-2.62,7.51-3.85a72.46,72.46,0,0,0,10.15-5.68c3.72-2.32,7.54-4.55,11.38-6.68,4.22-2.27,8.77-4.26,13-6.62,4.69-2.61,9.48-5.32,14.06-8.12,6-3.62,11.79-7.72,17.8-11.44,3.81-2.43,7.52-4.75,11.54-7.1s7.91-4.89,11.92-7.33c4.86-3,10.07-5.57,14.46-9.46,3.63-3.32,5.47-7.69,7.31-12,1.18-2.71,2-5.59,3.63-8.13,3.27-5.2,6.65-10.3,9.83-15.39,1.41-2.33,3.25-4.29,4.87-6.53,2.51-3.53,4.81-7.24,7.43-10.67a94.63,94.63,0,0,0,7.13-9.34,127.45,127.45,0,0,0,10.68-20.87c1.4-3.63,2.9-7.17,4-10.88,1.32-4.63,2.32-9.33,4-13.89,1.55-4.14,3.41-8.22,4.87-12.35a99.51,99.51,0,0,1,9.27-18.55c3.62-5.83,7.77-11.3,11.4-17,3-4.67,5.72-9.41,8.43-14.26.17-.32.21-1,.82-.87s.58.85.42,1.37a4.26,4.26,0,0,1-.42.94A134.62,134.62,0,0,0,238,423q-1.86,4.68-4.05,9.08a95.11,95.11,0,0,0-7.35,16.28c-1.42,4.53-2.65,9.05-3.66,13.65-.51,2.25-1,4.51-1.33,6.84-.59,3.66-.67,7.48-1.76,11.19-.47,1.54-1,3.1-1.51,4.64-1.63,5.66-3.27,11.22-4.9,16.88-.23.82-.67,1.56-.9,2.38-1.54,5.45-3.51,10.64-7.37,14.88-1.92,2.17-3.43,4.5-5.36,6.57a113.59,113.59,0,0,0-7.66,9.08c-2.44,3.22-5.2,6.16-7.63,9.48s-5.41,6-8,9.1c-3.46,4.21-7.14,8.14-10.81,12.16-1.38,1.52-2.86,2.95-4.23,4.57-.27.33-.75.67-.48,1.45a8.11,8.11,0,0,1,2-1.77c5.42-3.47,11-6.75,16.29-10.21a101.41,101.41,0,0,1,11-6.46c4-1.94,7.53-4.65,11.37-6.78,4-2.35,7.7-5,11.61-7.41,4.47-2.88,9.06-5.58,13.52-8.67,3.7-2.52,7.63-4.66,11.22-7.37a63.27,63.27,0,0,1,5.51-3.58,43.77,43.77,0,0,0,7.79-5.28,18.08,18.08,0,0,1,3.11-2.37c2.77-1.64,5.43-3.37,8.09-5.2,3.51-2.41,6.89-5.1,10.39-7.61,2.08-1.48,4.29-2.67,6.48-4.06,4.2-2.56,7.95-5.69,12-8.34,5.41-3.67,10.58-7.72,15.89-11.49,4.72-3.41,9.56-6.73,14.17-10.43,4.33-3.38,8.76-6.66,13.09-10,3.95-3.15,8-6.3,12-9.34a86.64,86.64,0,0,0,7.42-5.95,35.68,35.68,0,0,0,4.11-4.77c1.62-2.24,3-4.67,2.17-7.61a2,2,0,0,1,.09-1.31,18.63,18.63,0,0,0,.51-2.25,46,46,0,0,1,1.77-6.37,47,47,0,0,0,1.93-6.79c.54-3.16.06-6.43.4-9.57.1-1.11,0-2.31.21-3.43.32-2.13-.37-4.28.06-6.33a45.53,45.53,0,0,0,.32-8.15c0-3.71.07-7.43.16-11.05,0-.3-.06-.7.34-.74a.61.61,0,0,1,.47.77,21.09,21.09,0,0,0-.18,5c0,4.62.18,9.22.27,13.83.05,1.7-.21,3.43-.07,5.12.28,4.39,3.18,7.86,4.91,11.73a9,9,0,0,0,.81,1.23,39.63,39.63,0,0,1,5.19-8.66,9.2,9.2,0,0,0,2.19-4.91c.3-2.43.7-4.77,1.2-7.12a108.75,108.75,0,0,0,1.26-11.25c.28-3.74.56-7.57.75-11.3a61,61,0,0,1,1.27-8.64c-.13,4.32-.77,8.69-.79,13.21s-.64,9,.13,13.34,1.64,8.69,2.53,13.33a3.55,3.55,0,0,0,.62-1.05,16.25,16.25,0,0,1,2.9-4.87,23.25,23.25,0,0,0,2.72-3.44c1.88-2.67,4.09-5,5.22-8.27,1.2-3.51,2-7.09,1.39-10.85-.44-2.78-1-5.54-1.31-8.32a29.22,29.22,0,0,1-.16-7.82c.06-.4,0-1,.82-1a43.49,43.49,0,0,1,.13,5.11c-.09,3.72,1.11,7.23,1.42,10.82.19,2.29,1.18,4.41,1.18,6.82a54.06,54.06,0,0,0,.8,7.06c.4,0,.47-.34.55-.55a21.65,21.65,0,0,1,2.57-4,29.47,29.47,0,0,1,3.16-3,21,21,0,0,0,4.52-8.31c1.48-4.94,2.86-10.08,2.31-15.35a11.42,11.42,0,0,1-.17-3.2c.52-4.56,0-9.13.34-13.68.28-3.83.87-7.6,1.14-11.43.06-.51,0-1.61.58-1.46.82.13.09,1,.13,1.5,0,.2-.08.31-.06.5,0,5.73-1.15,11.34-.76,17.13.28,4.39-.56,8.78.32,13.22.76,4.15,1.3,8.22,2,12.58.89-1.38,1.38-2.73,2.4-3.72.64-.65,1.51-1,2.15-1.79,1.84-2,3.27-4.09,5-6a13.78,13.78,0,0,0,3.35-6.71,106.5,106.5,0,0,0,2-11.81c.45-4.15,1.4-8.25,2.05-12.42.72-4.57,1.43-9.25,2.14-13.83.14-.81.27-1.62.4-2.44.39,3.48-.22,6.84-.74,10.2-.37,2.74-.85,5.39-1,8.12a56.32,56.32,0,0,1-1,7.11c-.43,2-1,4-.19,6a1.42,1.42,0,0,1,0,.91c-1.22,3.31-.05,6.53-.07,9.84,0,.3.06.7.46.66s.37-.43.55-.65a37.81,37.81,0,0,1,5.09-7.45,25.39,25.39,0,0,0,5.41-9.49c.47-1.65.73-3.28,1.3-4.83a22.58,22.58,0,0,0,1.26-6.43,58.11,58.11,0,0,1,1.86-12.4,71.81,71.81,0,0,0,2.59-16.88c0-.3-.16-.69.42-.94a7.76,7.76,0,0,1,.18,2.19,87.51,87.51,0,0,1-1.62,12.79c-1,5.3-2.52,10.55-2,16a32.11,32.11,0,0,1-.24,5.44,46,46,0,0,0,.43,7.39,17.44,17.44,0,0,1,2.62-3.43,36.89,36.89,0,0,0,7-7.22c1.79-2.56,2.46-5.33,3.22-8.2.7-2.47.69-4.88,1.27-7.54s.76-5.28,1-7.91c.32-2.14-.07-4.31.15-6.44.8-7.19,1.89-14.41,3.19-21.55.06-.5.12-1,.7-1.26a2.65,2.65,0,0,1,.13,1.5c-.57,5.16-1.94,10.3-2.2,15.54-.15,2.92-.6,5.87-1,8.81a122.69,122.69,0,0,0-.76,12.31c0,1.6-.55,3.05-.19,4.93s.72,3.65,1,5.44l.52,2.66a47.92,47.92,0,0,1,6.64-9.29,26.68,26.68,0,0,0,5.14-6.86,34.29,34.29,0,0,0,3.76-13.66c.17-5.14.44-10.28.7-15.42a75.92,75.92,0,0,1,1.44-7.85c.67-4,1.55-7.86,2.21-11.83a.11.11,0,0,1,.1-.11c.08-.2.28-.22.48-.14A15,15,0,0,1,487,260c-.54,3.06-.68,6.18-1.21,9.34-.33,2-1.18,3.91-1.31,5.93-.49,7.17-.47,14.49-1.17,21.68-.2,2.32.49,4.57.69,7a15.14,15.14,0,0,1,5.76-5.5,24.18,24.18,0,0,0,9.2-9.82c1.48-2.63,2.13-5.7,3.09-8.59a17.32,17.32,0,0,0,1-5,35.81,35.81,0,0,1,2.23-10.32,134.82,134.82,0,0,0,5.21-17.91c.14-.71.16-1.62.93-2.08.43,1.57-.46,2.85-.75,4.18-1.17,5.21-2.43,10.44-4,15.59-.95,3-2.08,6.2-2.23,9.22s-.19,6-.54,9a16.8,16.8,0,0,0-.14,5.53,4.48,4.48,0,0,1,1-1,40.77,40.77,0,0,1,6-5.73,20.15,20.15,0,0,0,6-6.94,71.57,71.57,0,0,0,6.35-15.09c2.13-6.8,3.45-13.74,5.26-20.71l.38-1.44a1.39,1.39,0,0,1,.08.9,161.57,161.57,0,0,1-7.41,28.62,109.34,109.34,0,0,0-3.58,11.05,2.09,2.09,0,0,0,.06,1.9c.18-.22.47-.34.66-.56a19.35,19.35,0,0,1,5.56-4.29A53.59,53.59,0,0,0,529,272.3c3.71-2.42,6.33-5.85,9.59-8.84a15.38,15.38,0,0,0,2.21-2.3c2.64-3.23,5.27-6.56,7.9-9.9,1-1.29,2-2.48,2.89-3.76a40.74,40.74,0,0,1,4.43-5.69c3.14-3.28,6.7-6.19,9.51-9.84a2.24,2.24,0,0,1,1.81-1.15c-.91,1.18-1.63,2.14-2.45,3.11-4.48,5.2-9.5,9.84-13.75,15.42-4.78,6.33-9.36,12.73-13.93,19.14-2,2.78-3.62,5.83-5.37,8.89a33.26,33.26,0,0,1-2.83,4.45,9.25,9.25,0,0,0-1.79,2.56c4.08-.34,7.33-2.32,10.44-4.69s6.51-4.87,9.59-7.54c2.72-2.34,5.75-4.5,8.67-6.76a89.08,89.08,0,0,0,12.63-12c.27-.32.53-.84,1.27-.41a61.63,61.63,0,0,1-4.66,5.42c-4.25,4.37-9.28,7.81-13.86,11.81-2.71,2.34-5.32,4.67-8,7.1-2.15,1.89-3.86,4.24-5.91,6.12a52.44,52.44,0,0,0-8,9.51c-2.05,3.09-4.21,6-7.68,7.68a12.46,12.46,0,0,0-3.9,2.54,8.5,8.5,0,0,0,5.14-.84c2.82-1.14,5.77-1.79,8.12-3.7a47.59,47.59,0,0,1,5.54-4.48c6.5-3.86,13-7.83,19.37-11.88,2.66-1.73,5.32-3.56,7.87-5.38,2.28-1.6,4.44-3.29,6.73-4.69.38-.23.76-.56,1.1-.09a3.2,3.2,0,0,1-1,1c-1.33.91-2.77,1.74-4.09,2.75-6.88,5.2-14.23,9.64-21.45,14.47-3,2.06-6.17,4.13-9.09,6.39-2.45,1.91-4.76,4.21-7.34,5.84a57.45,57.45,0,0,1-15.55,7.14c-3.83,1-6.95,3.2-10.25,5.78a19.73,19.73,0,0,0,8.4-.41c6.27-1.83,12.58-3.17,18.83-5.21,3.52-1.1,7.15-2,10.76-3.22,4.39-1.47,8.76-3.25,13-5.11,3.19-1.38,6.5-2.56,9.72-3.74a14.55,14.55,0,0,1,4.89-1.42c-1,.49-1.92,1-2.89,1.35-4.37,1.78-8.86,3.26-13.21,5.24A195.23,195.23,0,0,1,533,310.1c-3.41,1.19-6.95,2.09-10.37,3.18a155.63,155.63,0,0,0-18.55,7.3c-.19.11-.48.24-.67.35a46.55,46.55,0,0,1-4.66,4.31c-3,2.66-5.75,5.51-9.2,7.41-.29.12-.88.27-.75.66s.71.14,1,.12c3.55-.81,7.14-1,10.56-2.2,1.65-.64,3.36-.59,5-1.13,3.91-1.23,7.93-2.28,11.84-3.61,2.92-1.05,5.94-2.11,8.74-3.35a133,133,0,0,1,13.83-5c5.37-1.76,10.74-3.52,16.09-5.58.19-.11.57-.35.71.14a27.08,27.08,0,0,1-5.33,2.26c-2.34.8-4.67,1.7-7,2.6-3.41,1.19-6.95,2.1-10.24,3.48-6.11,2.52-12.34,4.86-18.46,7.18-5,1.83-10.17,3.17-15.24,5a22.36,22.36,0,0,0-4.27,1.66c-4.67,2.91-9.23,5.91-13.91,8.81a23.53,23.53,0,0,1-6.93,3.4c-.88.27-1.75.65-2.63,1-.29.13-.78.27-.64.66s.44.46.74.44a12.7,12.7,0,0,0,2.73.27,78.9,78.9,0,0,0,10.87-2c3.74-.81,7.23-2.31,11-2.93a16.18,16.18,0,0,0,3.64-.81c2.63-1,5.25-2.05,8-2.89,5.84-2.1,11.67-4.4,17.64-6.21,7.24-2.12,14.08-5.51,21.31-7.83,1.07-.39,2-1.07,3.22-1.07a2.74,2.74,0,0,1-1.43.92l-6.79,2.68c-4.76,1.91-9.51,3.92-14.29,5.53-3.8,1.32-7.72,2.46-11.39,4.08a210.54,210.54,0,0,1-22.71,8c-5.28,1.55-10.32,3.69-15.47,5.73-2.13.88-4.5,1.38-6.61,2.47-4.51,2.49-8.2,6.31-12.82,8.61-.19.12-.29.12-.27.42.11.09.22.19.32.18.66-.56,1.49-.23,2.27-.4,4.46-.68,8.8-1.64,13.13-2.61a66.6,66.6,0,0,0,7.66-2c2.44-.81,5-1.52,7.44-2.23,3.43-1,7.12-1.31,10.51-2.7,1.36-.52,2.63-.93,4-1.34,7-2.31,14.24-3.72,21-6.8.39-.13.87-.38,1,.11s-.46.54-.75.67c-2.82,1-5.64,2.18-8.48,3-3.32,1.08-6.76,1.87-10.07,3.06A128.05,128.05,0,0,1,494,357.16a49.27,49.27,0,0,0-7.25,2,31.35,31.35,0,0,1-6,1.91c-3.06.66-6,1.32-9.05,2.18-3.82,1.12-7.52,2.44-11.22,3.76a18.83,18.83,0,0,0-5.1,2.64c-4.45,3.08-8.92,6.07-14.31,7.63a6.51,6.51,0,0,1-1.38.22h0c-.4,0-.63-.25-.66-.65s.37-.43.66-.45a25,25,0,0,0,5.73-2.3,82.2,82.2,0,0,0,7.75-4.47,32.6,32.6,0,0,1,5.92-3.61,25.16,25.16,0,0,0-2.73-.17c-1.39.12-2.92-.15-3.57,1.61-.17.41-.57.45-1,.58a20,20,0,0,0-2.5,1.22c-3.17,1.77-6.23,3.53-9.4,5.21-.86.47-1.69,1.35-2.91,1.15-.14-.49.25-.62.44-.74,4.11-2.36,8.21-4.91,12.45-7a3.32,3.32,0,0,0,2.15-1.89,63,63,0,0,0-8.62,1.24c-.4,0-.78.36-.93-.23s.46-.54.75-.66a17.8,17.8,0,0,1,2.28-.3c1.39-.21,2.87-.54,4.25-.76l0-.3c-1.74-.35-3.4-1-5.2-1a24.24,24.24,0,0,0-8.27,1.9,1.44,1.44,0,0,0-.91,1.09c-.81,3.48-3.1,6.08-5.06,8.95a31.12,31.12,0,0,1-2.28,2.71,33.93,33.93,0,0,0,4.39-.27,55.87,55.87,0,0,1,7.09-.41,33.32,33.32,0,0,0,6.38-.54c2.06-.47,4.12-1.15,6.17-1.72a87,87,0,0,0,8.38-3c2.51-1.12,5.11-1.24,7.64-2.15.29-.13.5-.05.73.24s-.06.5-.35.63c-.48.24-1,.38-1.45.62-3.71,1.22-7.55,2.15-11.24,3.56-4,1.55-8.2,2.71-12.3,4.06a22.66,22.66,0,0,0-5.32,2.35,78.23,78.23,0,0,0-7.14,5.83c-1.59,1.34-3,3.07-5.09,3.84-.19.12-.38.23-.15.62a55.84,55.84,0,0,0,8.75-2.15,102.42,102.42,0,0,1,13.12-3.82c4.74-1,9.36-2.1,14.07-3.4,3.23-.88,6.45-2.05,9.71-2.63s6.52-1.26,9.66-2c2.36-.61,4.71-1.31,7.06-2,3-1,6.15-2,9.19-2.88a9.42,9.42,0,0,1,4.05-.75,1.59,1.59,0,0,1-1.24.71c-2.16.58-4.31,1.27-6.56,2-6.26,1.94-12.5,4.07-19,5.23-1.19.2-2.37.5-3.54.8-4.5,1.38-9.13,2.48-13.63,3.86-6.06,1.92-12.39,3-18.57,4.69a40.51,40.51,0,0,0-13.27,6.74,52.73,52.73,0,0,1-8.78,5.46c-3,1.36-6.22,2.34-9.52,3.72C407.18,406.17,407.49,406.24,407.9,406.41ZM365,436.74c-.33-.38-.46-.77-.19-1.09s.61.15.91.12c2.14.32,4.2,1,6.46.36,3.54-.8,7.2-1.42,10.85-2.13l3.27-.57c.06-.41-.24-.39-.44-.47a29.9,29.9,0,0,1-5.28-.66,6,6,0,0,0-1.92-.13c-.39,0-1.11-.11-1.05-.62s.67-.36,1.08-.29l5.38.75a16.51,16.51,0,0,0,2.42.1c-.78-.84-1.67-.77-2.4-1.11a29.83,29.83,0,0,0-5.9-2.11,16.39,16.39,0,0,0-3.85-.37c-3.9.13-7.53,1.14-10.41,3.89a2.43,2.43,0,0,0-.59,2.46c.17.89.55,1.76,1.66,1.87a6.09,6.09,0,0,0,3.88,2,9.44,9.44,0,0,0,4.69-.4c2.64-.83,5.38-1.56,8.14-2.2a29,29,0,0,0,7-2c-1.79.25-3.57.5-5.35.85-3,.56-5.82,1.2-8.69,1.64a5.63,5.63,0,0,0-1.77.45c-2.75.74-5.3.25-7.86-.33Zm147.2-150.67c.81-1.17,1.83-2.16,2-3.78a2.33,2.33,0,0,1,1.27-1.62,2,2,0,0,0,.83-2.07c-.2,0-.29.12-.39.13-1.67,2.85-4.65,4.41-7,6.61a28.82,28.82,0,0,0-5.16,5.36A4.5,4.5,0,0,0,503,293a34.16,34.16,0,0,1-1.19,8.43,24.81,24.81,0,0,1-5,9.66c-1.18,1.51-2.13,3.29-3.72,4.63,1.31.09,2.48-.31,3.8-.12a12.52,12.52,0,0,1,2.72.17c.53.26,1-.08,1.37-.42,1.8-1.25,3.61-2.41,5.51-3.67,3.14-2.08,6.79-2.79,10.2-4,1.86-.66,3.93-1,5.56-3.08-7.27,3-14.94,3.67-21.64,7.55a8.71,8.71,0,0,1,4.48-2.88c1.76-.55,3.5-1.3,5.37-1.76a27.61,27.61,0,0,0,5.25-1.95,21.62,21.62,0,0,0-4.35-.44,40.7,40.7,0,0,0-6.88.58c-.78.27-1.46.53-2.14.79-.39.13-1.16.5-1.41-.08s.32-.93.9-1.18a18.87,18.87,0,0,1,4.51-1.29c.69-.16,1.3-.11.81-1.07-.24-.48.13-.92.5-1.25a43,43,0,0,0,4.69-5c2.16-3,4.2-6.18,4.06-10.18a2.78,2.78,0,0,0-.75-1.74c-.92,1-.91,2.28-1.23,3.31-1.49,4.85-4.48,8.61-8,12.12-.47.44-1.3,1.21-1.75.65s.73-.86,1.09-1.3a28.72,28.72,0,0,0,6.78-10c-.38.23-.66.45-1.33.91.47-1.64,1.49-2.63,2.27-4-1.06.5-1.37,1.53-2.25,1.8h0C511,287.27,511.77,286.71,512.21,286.07ZM158.48,571.76a32.63,32.63,0,0,0,2.63-4.44,145.14,145.14,0,0,1,13.22-20.49c2.62-3.43,5.14-6.76,7.54-10.47s5.11-7.16,7.73-10.59a67.66,67.66,0,0,0,5.74-9.22c2.69-5,6-9.74,9.11-14.52.8-1.27,1.48-2.64,2.18-3.9l.42.16c-.44.84-.77,1.68-1.2,2.51-2.82,4.56-5.66,9-8.37,13.66a133.48,133.48,0,0,1-8,12.83c-2.53,3.32-5,6.64-7.28,10.05-3.47,5.21-7.37,10.06-11,15.18-.53.84-1.06,1.69-1.59,2.64,7.55-8.07,13.49-17.3,20.4-25.82a3.5,3.5,0,0,1-1,2c-3.51,4.81-6.91,9.62-10.43,14.23-3.88,5.15-8.09,10-12.28,15a23.57,23.57,0,0,0-3.25,5.5,3.11,3.11,0,0,0,1.9-1.27c3.86-4.24,7.72-8.38,11.37-12.7,2.55-3,5.44-5.68,7.78-8.79,4.43-5.8,9.06-11.51,13.91-17,2.75-3.14,5.38-6.48,7.91-9.7a27.15,27.15,0,0,0,4.7-9.73,40,40,0,0,1,2.12-5.8c1-2.4,1.18-5,2-7.5q2.55-7.29,4.46-14.83c.86-3,.9-6,1.35-9a87.84,87.84,0,0,1,1.84-9c.74-3.17,1.46-6.45,2.5-9.64a92.47,92.47,0,0,1,6.64-16.32,103.91,103.91,0,0,0,5.8-12.14c-.67.36-.67.36-2,2.68a83.41,83.41,0,0,1-4.92,7.14c-1.79,2.56-3.37,5.2-5,7.85-1,1.48-1.85,3.06-2.93,4.56a42.65,42.65,0,0,0-3.76,7.75c-3,7.47-6.37,14.79-8.63,22.5-1.63,5.56-3,11.29-5.11,16.7a131.19,131.19,0,0,1-8,17.44c-2.2,3.7-4.18,7.58-6.91,10.82-4.65,5.51-8.45,11.66-12.78,17.34-5,6.44-8.9,13.4-13.35,20.1-2.32,3.41-3.5,7.32-4.66,11.33a18.26,18.26,0,0,0-.75,3ZM361.41,430.92a12,12,0,0,1-2.68,3.94c-1.37,1.62-2.41,3.52-4,5.05-3.08,2.67-6.38,5.26-9.69,7.65-4.25,3.07-8.4,6.23-12.54,9.49-3.57,2.81-7.26,5.54-10.83,8.35a42.77,42.77,0,0,1-7,5,11.36,11.36,0,0,0-2.15,1.79,39.38,39.38,0,0,1-7.19,5.12c-2.49,1.52-4.75,3.21-7.11,4.92-4.73,3.41-9.56,6.83-14.3,10.14s-9.3,6.31-13.95,9.51c-2.46,1.72-4.8,3.72-7.26,5.44s-5,3.33-7.5,5.05c-2.29,1.5-4.34,3.28-6.73,4.68-3.74,2.13-7.24,4.63-10.75,7-4.07,2.85-8.16,5.5-12.44,8.28s-8.56,5.54-13,8.12c-2.68,1.53-5.35,3.26-7.93,4.79-11.35,7-22.59,14.05-33.93,21.14-2.67,1.63-5.25,3.25-7.91,5-1.62,1-3.12,2.27-2.73,4.55,0,.5.1,1.09.52,1.36s.78-.27,1.06-.49c4.09-2.66,8.08-5.4,12.17-8.06,3.23-2.08,6.36-4.25,9.59-6.43,2.46-1.71,5.28-2.76,7.75-4.47,3.89-2.64,7.91-5,11.9-7.53,6-3.72,11.7-7.72,17.59-11.63,3.9-2.54,8-4.79,12-7.34,2.95-1.86,6-3.72,8.85-5.67,3.89-2.64,8.11-5,11.88-7.83,6.89-5.2,14.46-9.45,21.35-14.55,6.15-4.44,12.43-8.48,18.35-13.2,4.7-3.71,9.76-6.85,14.45-10.66,6-4.92,12.25-9.47,18.48-14.11,2.74-2,5.37-4.07,8.11-6.11,2.55-1.92,5.11-3.64,7.66-5.56,3.68-2.72,7.6-5.06,11.07-8,3.09-2.57,6.5-5,9.81-7.35.47-.34.55-.65.2-1.22a5.11,5.11,0,0,1-.71-4.76c.47-.44,0-.9-.52-1.46ZM397,419.58A25.49,25.49,0,0,0,386.32,417a19.68,19.68,0,0,0-4.2.25,14.22,14.22,0,0,0-6.4,2.55c-.28.23-.76.57-1.1.09s0-.7.32-1a7.47,7.47,0,0,1,1.41-1.12c2.62-1,3.51-3.51,4.74-5.62A21.06,21.06,0,0,0,384.38,400c.68-.26.54.46,1,.51a108.23,108.23,0,0,0-2.37-15,41.75,41.75,0,0,0-1.49,6.05c-.27,1.53-.55,3.05-.72,4.57-.34,1.94-1.52,3.34-2.6,4.84a29.84,29.84,0,0,0-3.9,6.05,7.85,7.85,0,0,0-.41,5.86,10,10,0,0,1,.16,5.4c-.37,1.54-.74,3.18-1.11,4.71a12.73,12.73,0,0,1-2.55,4.23c2.31,0,4.31-.06,6.31-.13a.71.71,0,0,0,.38-.23c-.13-1.6,1.11-1.1,1.82-1.06,2.42.2,4.55-.79,6.72-1.17,3.27-.58,5.91-2.51,8.91-3.87a20.52,20.52,0,0,0-5.45-.34,21.3,21.3,0,0,0-7.06.7c-.3.13-.69.26-.82-.13s.26-.52.55-.65a11.84,11.84,0,0,1,4.17-.55,70.09,70.09,0,0,1,10.24.13c.1-.11.19-.21.78-.36Zm25.66-42.93c2.37-1.7,3.87-4.14,5.27-6.56a34.89,34.89,0,0,0,3.37-7.61c.87-2.69,1.24-5.53,2.11-8.21a12.15,12.15,0,0,0,0-6c-.09-1.1-.18-2.2-.17-3.2A7.68,7.68,0,0,0,432,348c-.62,3.26-2.65,5.34-4.55,7.81s-4.14,4.46-6.15,6.74a11.09,11.09,0,0,0-2.82,7.07c0,2.3.28,4.49.38,6.79a30.4,30.4,0,0,1-.57,5.16,17.66,17.66,0,0,1,6.25-2,1.42,1.42,0,0,0,1.22-1c.79-1.37,2.23-2.09,3.13-3.37,1.5-2.44,3.42-4.61,4.3-7.29a12.9,12.9,0,0,0,1.05-4.21,53.08,53.08,0,0,0-.19-8.11,14.78,14.78,0,0,0-1.16,4.11A40.65,40.65,0,0,1,427.67,372a9.15,9.15,0,0,1-5,4.64Zm25.81-48.35a10.35,10.35,0,0,0-1.2,3.52,28.19,28.19,0,0,1-6.4,11,25.69,25.69,0,0,0-4.59,7.41,10.38,10.38,0,0,0-.72,4.58,67.78,67.78,0,0,1,.17,9c0,.7.07.89.85.63a10.44,10.44,0,0,1,2.95-.76,4.8,4.8,0,0,0,2.9-1.35c1.57-1.53,3.47-2.8,4.51-4.69,2.45-4.33,4.17-8.89,3.15-13.82a22.15,22.15,0,0,0-1.34-5.1c-.09,1.31-.37,2.64-.36,4a32.68,32.68,0,0,1-1.46,10c-1,2.79-2.35,5.42-5.32,7.07.35-.53.52-.94.9-1.18a4.5,4.5,0,0,0,.91-1.08,24.81,24.81,0,0,0,3.88-13.47c.09-1.31.19-2.53.38-3.85.07-.3.24-.62-.17-.79s-.58.25-.76.47c-2.09,2.69-4.17,5.37-6.35,8-.19.22-.34.74-1.06.6,1.17-1.61,2.34-3.21,3.41-4.81a68.48,68.48,0,0,0,4.84-6.83c1.48-2.64,1.34-5.53.88-8.51Zm-31.4,41.5a98.48,98.48,0,0,1-2.08,9.81,20.21,20.21,0,0,1-2.32,4.62c-.87,1.58-2.06,3-2.82,4.65a3.36,3.36,0,0,1-2.67,1.63c-.23-.28-.13-.39.06-.5,2.32-2.21,3.88-5.05,5.57-7.7s1.86-5.28,2.72-8.16.8-5.89,1.56-8.77c.47-1.54-.08-3.3-.41-4.88-.17-.79.15-1.72-.5-2.36-.63,2.06-1.17,4-1.81,6-1.45,4.14-3,8.28-6.36,11.38a17.77,17.77,0,0,0-5.32,8.28,22.88,22.88,0,0,0-.75,5.28c4.33-5.69,6.47-12.39,10.29-18.24.54.36.36.68.27.78-2.18,2.7-3,6-4.56,8.92a40.8,40.8,0,0,1-3.68,6.34,27.79,27.79,0,0,0-2,3.88c-.42.94-.59.15-.92-.23-.67,1.57-1.26,2.92-1.84,4.37-.07.31-.34.74,0,.91a.9.9,0,0,0,1-.09,18.94,18.94,0,0,1,8.08-3A2,2,0,0,0,410,392c1.24-2,3.24-3.29,4.47-5.3,1.92-3.37,3.63-6.93,3.08-11.1a37.73,37.73,0,0,1-.1-5.81l-.39,0Zm46.87-53.15c-.37.34-.33.74-.51,1.05a19.43,19.43,0,0,1-6.21,10.76c-2,1.78-4.24,3.27-5.54,5.69a7,7,0,0,0-1.21,4.72c.46,3,1.2,5.82,1.05,8.84-.1,1.12-.63,2.06-.43,3.15,3.38-.38,6.14-2.12,8.8-3.85,1.91-1.17,2.83-3.36,4.08-5.17,2.77-4,2.77-8.76,2.58-13.36a27.35,27.35,0,0,0-2.32-10.85c-.13-.39,0-.8-.29-1Zm19.66,33a47.28,47.28,0,0,1-7.32,1.33,8.53,8.53,0,0,1-6.08-.79,11,11,0,0,0-4.72-1.21,58.42,58.42,0,0,0-5.92.1c-1.89.16-3.4,1.29-5.16,1.84-.39.14-.77.37-1.16.5-1.65.64-3.1,1.37-3.63,3.42a18.12,18.12,0,0,1-4.31,7.09c-.28.33-1,.89.09,1.1a36.54,36.54,0,0,0,6.63,1.24c3.53.2,6.72-1.27,9.56-3.22l7.94-5.79a14.72,14.72,0,0,1,4.73-2.21,67,67,0,0,0,9.35-3.4ZM482,302.18a46.59,46.59,0,0,1-5,8.65,15.57,15.57,0,0,1-2.12,2.19,43.56,43.56,0,0,0-3.92,4.75,23,23,0,0,0-3,5,5.11,5.11,0,0,0-.23,3.23,39.85,39.85,0,0,1,.26,7.7c0,.71.09,1.1.87.83a7.52,7.52,0,0,0,1.56-.53,4.83,4.83,0,0,1,2.84-.84,4.54,4.54,0,0,0,3.38-1.59,21.29,21.29,0,0,0,4-5.36A26.68,26.68,0,0,0,483,313.94l-.31-6.1-.31-.07a22.28,22.28,0,0,0-.56,2.86,98.84,98.84,0,0,1-2.29,10.83,21.15,21.15,0,0,1-5.49,8.69,18,18,0,0,1-1.83,2.06c-.28.23-.66.56-1,.19s.15-.62.33-.83c.88-1.48,2.41-2.31,3.51-3.61a20.63,20.63,0,0,0,4.15-7.88c.91-3.49,1.3-7.14,2.2-10.72.4-1.24.69-2.47,1-3.7a10.24,10.24,0,0,0-.39-3.48Zm14.47,1.38a18.09,18.09,0,0,0,.1-3.52c-1.09,1.4-2.29,2.6-3.38,3.9-1.9,2.47-3.91,4.85-5.07,7.76a10.78,10.78,0,0,0-.57,1.55v.1a.67.67,0,0,1-.77.37.93.93,0,0,1-.37-.78,1,1,0,0,1,.05-.6,36.3,36.3,0,0,1,2.81-4.76,41.42,41.42,0,0,1,5.27-6.46,11.35,11.35,0,0,0,2.72-4.65c.49-1.35,1.08-2.6,1.76-4.06a1.71,1.71,0,0,0-1.21,1.1c-1.83,3.27-4.76,5.42-7.9,7.4-3.81,2.43-6.26,5.54-5.64,10.41a48.43,48.43,0,0,1,0,8.43c1-.79,2.23-.89,3.18-1.58a19.48,19.48,0,0,1,4.64-2.09c.2,0,.59-.06.48-.25-.53-1.46.72-2.16,1.46-2.83,2.24-2,3.63-4.52,5.13-7.06a24.32,24.32,0,0,0,2.9-11.89c-.05-3,1-5.8.67-8.68,0-.3.14-.72-.19-1.09a2.63,2.63,0,0,0-.91,2.28c.21,3.7-1.51,7.06-2.43,10.45a33.49,33.49,0,0,1-2.17,6.3c-.51-.05-.6.05-.58.25Zm6.73,14.29c-2.45-.4-4.94-1.39-7.6-.87s-5.26.75-7.65,2.16a13.45,13.45,0,0,1-3.18,1.57c-1.57.44-1.75,1.86-2.05,3-.57,2.75-2.31,4.81-3.51,7.12a10,10,0,0,1-1.17,1.7c-.44.64-.13.82.5,1.06,5.32,1.26,9.53-1.21,13.5-4.05,2.84-2,5.13-4.65,7.73-7.08a21.37,21.37,0,0,1,6.2-3.84,5.51,5.51,0,0,0,1.43-.92c-1.1.09-2.25-.41-3.24.88-.81,1.07-2.38,1.5-3.64,2-3.79,1.53-7,3.91-10.32,6.19a17.89,17.89,0,0,1-6.07,2.93l-1.2.1c-.2,0-.5,0-.52-.26a.36.36,0,0,1,.36-.43c5.19-1.54,9.21-5.1,13.79-7.79,1.82-1.06,3.86-1.93,5.78-2.9.19-.12.59-.15.86-.57Zm-9.52,16.76c-1,.69-2.12-.12-3.12,0a20.81,20.81,0,0,1-3.46.6c-3.57.5-7-.21-10.6-.71a9.11,9.11,0,0,0-5.84.9,3.07,3.07,0,0,1-1.55.63c-1.4.12-1.83,1-2,2.18a14.11,14.11,0,0,1-4.25,7.88,2.4,2.4,0,0,0-.8,1.18c3.33.22,6.6.94,9.72-.22a46.35,46.35,0,0,0,9.73-4.74c3.61-2.42,7.66-4.37,11.25-7a1,1,0,0,0,.95-.68ZM398.49,379.4c-.67,2.77-2.4,4.82-4,7.17-2.23,3.3-5.21,6.06-6.8,9.81a14.16,14.16,0,0,0-1,7.91c.08,1,.17,2,.16,3.1,0,.71.18.89.85.53a15.55,15.55,0,0,1,6.26-1.93c1.88-.26,2.39-1.41,2.56-2.93.48-2.65,1.16-5.32,1.84-7.89a15,15,0,0,1,1.26-2.91c1.78-3.87,1.54-7.86,1.19-11.95a11.82,11.82,0,0,0-.85-4.14A9.28,9.28,0,0,0,398.49,379.4ZM422,394.48a12.9,12.9,0,0,1-4.84-.2,16.24,16.24,0,0,0-3.23-.22,31,31,0,0,1-4.32,0,16.36,16.36,0,0,0-7.92,2.48c-.09.11-.19.12-.28.22-3.12,1.07-3.4,3.7-3.68,6.34l-.08.2c-.24,1.93-.24,1.93,1.85,1.65a19.48,19.48,0,0,1,3.32.12,20.38,20.38,0,0,0,9.63-2.42c2.4-1.3,5.14-2.14,7.51-3.75,2.56-1.72,5.13-3.44,7.68-5.26l-.22-.28C425.6,393.77,423.72,394.13,422,394.48Zm-55.5,5.9a1.8,1.8,0,0,0-.18,1.43,28.35,28.35,0,0,1-.59,9.68c-.59,2.46-1.49,4.94-2.29,7.32a34.66,34.66,0,0,0-1.57,6.35,6.26,6.26,0,0,0,1.3,4.71c.35.47.84.33,1.23.2a8.74,8.74,0,0,0,4.1-2.46,15.78,15.78,0,0,0,4.39-12.21c0-1.4-.92-2.53-1.24-3.91a31.36,31.36,0,0,0-5.15-11.11Zm52.31-17.47c-1,.08-1.42,1-1.94,2a28.83,28.83,0,0,1-4.16,6.57c-.28.33-.75.67-.52,1.05s.73.24,1.13.2c2.07-.37,3.92.17,6,.4a8.1,8.1,0,0,0,6.24-2.13c4.22-3.47,7.79-7.59,12.58-10.3.39-.13,1-.18.74-.77s-.74-.34-1.13-.3a49.47,49.47,0,0,0-7.66.85c-1.58.33-3.11.06-4.69.3a23.94,23.94,0,0,0-6.54,2.16Zm-33.06,32.7a15.72,15.72,0,0,1,6.9.92c1.55.48,2.91,0,4.29-.36,5.59-1.48,10.58-4.21,15.56-7,.1,0,.19-.11.28-.22.28-.23.46-.54.83-.88a8.86,8.86,0,0,0-3.63-.19c-2.2.09-4.18-.85-6.32-1.17a25.6,25.6,0,0,0-6.83,0,34,34,0,0,0-8.84,2.25,3.28,3.28,0,0,0-1.9,2.37,7.5,7.5,0,0,1-2,4.08A1.74,1.74,0,0,0,385.7,415.61ZM511.5,303.69a12.58,12.58,0,0,0,6.45-2.05c1.23-.91,2.68-1.53,4-2.35a15.89,15.89,0,0,0,5.54-5.69,29.3,29.3,0,0,1,2.85-4.15,6,6,0,0,0-2.62,2.13,50.92,50.92,0,0,1-9.69,8.85,1.66,1.66,0,0,1-1.37.41c2.34-2,4.79-3.81,7.11-6s4.13-4.66,6.45-6.87c-4.59,2.7-8.38,6.53-13.21,8.75,4.94-3.33,9.3-7.51,14.23-10.94-1.56.53-3.28.48-4.72,1.2a15.64,15.64,0,0,1-4.21,1.26,32,32,0,0,0-5,1.83,1.63,1.63,0,0,0-1,1.38c-1.53,4.45-4.56,7.72-7.48,11.18-.27.32-.78.26-.92,1A20.45,20.45,0,0,0,511.5,303.69Zm11.08-25.63c-2.1,1.29-3.64,3.32-5.28,5.27a1.61,1.61,0,0,0-.3,1.23,15,15,0,0,1,.06,3c-.21,1.13.21,1.29,1.07.82a23.36,23.36,0,0,1,3.71-1.22c2.25-.69,3.71-2.42,5.18-4.05,2.29-2.51,3.74-5.54,5.4-8.49.7-1.26,1.5-2.43,2.38-3.91a3.09,3.09,0,0,0-2.17,1.68c-1,2.5-3,4.17-4.49,6.21-1.25,1.81-2.81,3.55-4.17,5.27l-.55.65c-.18.21-.35.53-.78.26s0-.5.13-.81a23.26,23.26,0,0,1,2.36-3c1.63-2,3-4.37,5.21-6,.39-.24.39-.24.37-1.64C528.17,275.38,525.25,276.43,522.58,278.06ZM398.5,419.85c-.29,0-.37.33-.56.45s-.36.43-.55.55c-2.79.33-4.84,2.21-7.26,3.22A44.64,44.64,0,0,1,380,426.93c-.3,0-.81,0-.77.37s.42.26.73.34c2.69,1,5.32.05,7.73-1.06,3.68-1.62,7.6-2.75,11.15-4.66,1.25-.7,2.76-.63,4.18-1.56A17.83,17.83,0,0,0,398.5,419.85Zm-13.42-18.74c-.31,1.13.06,1.91-.28,2.74-.71,2.27-1.43,4.43-2.34,6.62a26.86,26.86,0,0,0-1,3.1c-.16.41-.34.73-.5,1.14s-.76.47-.42.94.92.23,1.31.09c1.17-.4,1.67-1.64,2.19-2.59a17.12,17.12,0,0,0,1.52-9.26c-.27-.78.16-1.62-.43-2.78Zm7.2,32.91a5.46,5.46,0,0,0-2.08-.82l-.3,0a.59.59,0,0,0-.44.74c.06.6.44.37.74.34.59-.05,1.18-.2,2.08-.28Z" transform="translate(-34.79 -16.75)"/><path class="c" d="M482.48,367.47a100.87,100.87,0,0,1-12,3.32c-.39.13-1.25.61-1.41-.08s.84-.67,1.33-.92l.29,0c1.88-.36,3.65-.81,5.53-1.17,2.17-.39,4.45-.68,6.61-1.26C482.67,367.35,482.57,367.36,482.48,367.47Z" transform="translate(-34.79 -16.75)"/><path class="c" d="M374.66,412h0a.37.37,0,0,1-.6.05c-.11-.09-.23-.38-.14-.49,1.07-1.59,1.52-3.44,2.91-4.76A14.05,14.05,0,0,1,374.66,412Z" transform="translate(-34.79 -16.75)"/><path class="c" d="M424.56,361.34c2-2.78,4.71-4.82,6.67-7.69.18-.22.46-.54.69-.16h0a.69.69,0,0,1-.21,1c-1.89,1.46-3.22,3.48-5,5-.74.67-1.16,1.7-2.4,2.41A3.17,3.17,0,0,1,424.56,361.34Z" transform="translate(-34.79 -16.75)"/><path class="c" d="M511,288.18a3.58,3.58,0,0,1-1.93,2.07,4.28,4.28,0,0,1,1.93-2.07Z" transform="translate(-34.79 -16.75)"/><path class="c" d="M464.77,324.31c0,2.21,0,4.52-.13,6.74-.16,2.82-.53,5.56-2.13,8-1.42,2.23-2.83,4.46-4.26,6.59a2.8,2.8,0,0,1-1.12,1c-.38.23-.87.37-1.2,0s0-.81.31-1a36.23,36.23,0,0,0,5.07-6.55c2-2.88,2.1-6,2.12-9.32a.78.78,0,0,1-.29.13c-2.16,4.2-4.32,8.29-6.47,12.49l-2.61,4.74c-.17.31-.44.74-1,.38s-.15-.59,0-.91c2.92-4.66,5.09-9.86,8-14.62a3.32,3.32,0,0,0,.8-2.38l-.57.35c-1.09,1.4-2.17,2.89-3.25,4.39s-1.77,2.76-2.76,4.05c-.28.32-.75.66-1.07.49s-.25-.68,0-.91c1.45-1.82,2.79-3.74,4-5.66,1.62-2.24,3.54-4.41,4.51-7.2.42-1,.83-2.08,1.33-3.23A4.45,4.45,0,0,1,464.77,324.31Z" transform="translate(-34.79 -16.75)"/><path class="c" d="M459.94,356.13c-1.94.77-3.86,1.73-6.08,1.62a2.49,2.49,0,0,0-2.6,1.33h0a.49.49,0,0,1-.58.25c-.31-.08-.23-.39-.16-.69a2.54,2.54,0,0,1,2.54-2,11.62,11.62,0,0,0,4.18-.45c1.07-.39,2.14-.78,3.2-1.27,2.13-1,4.4-1.38,6.53-2.26a10.88,10.88,0,0,1,6.17-.63,8.72,8.72,0,0,1-1.45.63,29.55,29.55,0,0,0-7.47,3c-2.28,1.5-4.55,3.09-6.94,4.5a21.27,21.27,0,0,1-6.93,2.39c-.4,0-.79.07-.73-.33a.64.64,0,0,1,.66-.56,6.13,6.13,0,0,0,1.87-.36c3.05-.76,5.71-2.49,8.29-4a4.08,4.08,0,0,0,2.23-2.09A20.58,20.58,0,0,0,459.94,356.13Z" transform="translate(-34.79 -16.75)"/><path class="c" d="M480.51,308.63c-.48,1.54-1.05,3-1.63,4.45-1.34,3.12-3.1,6.08-4.55,9.12-.78,1.47-2,2.77-2.44,4.42a9.56,9.56,0,0,1-1.93,3.27c-.26.43-.73.77-1.16.5s-.27-.88-.11-1.29.52-1,.78-1.47c1.23-2.12,3.08-4,4.09-6.17,1.53-3.34,3.78-6.34,4.88-9.95a32.84,32.84,0,0,1,1.84-4.37A1.22,1.22,0,0,1,480.51,308.63Z" transform="translate(-34.79 -16.75)"/><path class="c" d="M487.39,337.75c-2.9,1.35-5.91,2.51-8.79,4.06-3.55,1.9-7.25,3.22-11.4,2.87-.3-.08-.61-.15-.64-.45s.27-.42.57-.45.5.06.7,0a15.55,15.55,0,0,0,5.67-.58c3.33-1,6.18-2.93,9.26-4.5a16.37,16.37,0,0,1,5.66-1.88A1.57,1.57,0,0,1,487.39,337.75Z" transform="translate(-34.79 -16.75)"/><path class="c" d="M399,389.29a44.86,44.86,0,0,1-2.36,6.53,42.87,42.87,0,0,1-4.44,9.2c-.27.33-.36.54-.77.37s0-.6,0-.8c.34-.74.79-1.38,1.14-2a48.46,48.46,0,0,0,4.05-9c.65-1.86,1.62-3.45,2.35-5.42A2.05,2.05,0,0,1,399,389.29Z" transform="translate(-34.79 -16.75)"/><path class="c" d="M387.91,401.38h0a.57.57,0,0,1-.57.45c-.4-.07-.34-.48-.26-.78a5.35,5.35,0,0,1,.23-.83c1.1-2.4,2.31-4.71,3.62-7,.35-.53.28-1.43,1.46-1.63A106.22,106.22,0,0,0,387.91,401.38Z" transform="translate(-34.79 -16.75)"/><path class="c" d="M409.7,401.54a70.46,70.46,0,0,1,10.54-4.71A29,29,0,0,1,409.7,401.54Z" transform="translate(-34.79 -16.75)"/><path class="c" d="M401.5,403.13c-.49.05-.92-.22-.77-.83a8,8,0,0,1,1.95-3.08h0a.62.62,0,0,1,.8,0c.22.19,0,.5,0,.71-.26.42-.54.75-.8,1.17-.45.64-.41,1.14.59,1.06a3.28,3.28,0,0,1,2,.63C403.7,403,402.61,403.14,401.5,403.13Z" transform="translate(-34.79 -16.75)"/><path class="c" d="M366,427.62a1.58,1.58,0,0,1-1.48.33,1.7,1.7,0,0,1-1.18-2.11,13,13,0,0,1,.62-2.06,53.9,53.9,0,0,0,3-11.4,32.79,32.79,0,0,0,.54-5.46c0-.3,0-.81.43-.84s.44.36.36.67a47.8,47.8,0,0,1-.88,8.61,74.57,74.57,0,0,1-2.9,9.58c-.25.62-.37,1.53.16,1.89s1.08-.29,1.56-.53c.29-.13.53-.85.87-.48s-.13.81-.32,1a6.28,6.28,0,0,1-.83.77Z" transform="translate(-34.79 -16.75)"/><path class="c" d="M430.59,381.6a18.09,18.09,0,0,1,4.42-1.18.68.68,0,0,1,.73.34v.1c0,.1-.08.31-.18.32-1.28.21-1.78,1.46-2.74,2-1.8,1.15-3.61,2.31-5.31,3.56s-3.16,3-5.09,3.94a6.24,6.24,0,0,1-3.23,1c2-1,4.09-1.55,5.45-3.17a25.06,25.06,0,0,1,6.19-5.14l2-1.38-.11-.19c-2.34.8-4.59,1.6-6.93,2.4C427.18,382.79,429.05,382.43,430.59,381.6Z" transform="translate(-34.79 -16.75)"/><path class="c" d="M391.67,411.39a25.7,25.7,0,0,1,9.69-2.82c2.69-.23,5.26.45,8,.62.2,0,.51.06.53.26a.86.86,0,0,1-.26.52,1.92,1.92,0,0,1-1,.39c-2.33.9-4.68,1.6-7,2.6a22.87,22.87,0,0,1-6,2.12c-.5,0-1.06.49-1.32-.19s.55-.65,1-.69a30.14,30.14,0,0,0,6.43-2.25,35.11,35.11,0,0,1,5.46-1.86c.29-.13.8-.07.65-.66s-.52-.16-.82-.13c-1.09.09-2.19.18-3.39.18-4.34-.23-8.44,1.12-12.31,2.85-.58.25-1.51,1-1.85.56s1-.79,1.41-1.12A1.6,1.6,0,0,1,391.67,411.39Z" transform="translate(-34.79 -16.75)"/></g><g class="d"><path class="c" d="M196,108.83c5.82,2.42,11.13,5.79,16.7,8.73,2.31,1.21,4.16,3,6.65,4a94.92,94.92,0,0,0,16.55,4.62c.92.22,1.77.75,3,.45a3.47,3.47,0,0,0-2.08-2,23.66,23.66,0,0,1-6.12-4.7,51,51,0,0,0-20.15-11.64,110.28,110.28,0,0,1-11.47-3.85,50.32,50.32,0,0,1-10.37-5.14h0c.78-.27,1.33.29,2,.64a98,98,0,0,0,15.06,6,102,102,0,0,0,12.4,3.06c3.26.53,6.45,1.46,9.7,1.89.5.06,1,.41,1.58-.24L223,105.34q-4-3.27-7.81-6.86c-2.41-2.41-5.54-3.85-8.48-5.41a44.84,44.84,0,0,0-8.65-3.78c-2.79-.87-5.58-1.83-7.77-4.06A65.25,65.25,0,0,0,204,90.1c4.61,1.11,9.18,2.93,14.17,2.71-4.37-3-7.24-7.32-10.86-11-2.74-2.68-5.49-5.56-9.22-7-4-1.46-7.65-3.77-11.6-5.44a15.09,15.09,0,0,1-2.75-1.57c-2.39-2.21-5.23-3.77-7.71-5.77-3-2.46-6.58-4.16-9.22-7h0c.58-.25.92.23,1.24.5,4.88,3.1,9.32,6.84,14.29,9.93a43.61,43.61,0,0,0,11,5.49c6,1.8,12,3.59,18,5.4a.45.45,0,0,0,.57-.35c-.23-.39-.57-.76-.8-1.14-4.5-4.54-8.24-9.64-13.21-13.83-2.27-1.82-4.34-3.85-6.87-5.24-5.66-2.84-10.6-6.63-15.9-10a2.62,2.62,0,0,0-.34-.47c5.39,3.26,10.86,6.21,16.43,9.15a93.52,93.52,0,0,0,17.18,7.37,3.3,3.3,0,0,0-.5-2.36,66,66,0,0,0-10.41-15.08c-3.46-4.12-7.2-8-10.85-12a129.71,129.71,0,0,0-12.29-12.3c-1.29-1.1-2.5-2.3-3.7-3.4,2.2,1,3.75,2.79,5.48,4.25a119.72,119.72,0,0,1,10.65,10.84q8,8.81,16.25,17.59a63.46,63.46,0,0,0,5.64,4.94c3.58,3.21,8,5.65,10.66,9.84a1.18,1.18,0,0,0,.3-1.23,44.77,44.77,0,0,0-2.33-14.46c-1.62-4.88-1.94-9.87-2.37-15h0c.78.94.78,2,1.07,3.12.72,2.65.56,5.47,1.68,8,1.75,4.06,3.41,8.24,5.25,12.2a42,42,0,0,0,5.19,9.19A17.82,17.82,0,0,1,232,76.28c0,1.3.12,2.6.23,3.89a27.53,27.53,0,0,0,3.05-11.39,50.41,50.41,0,0,1,.53-5.57,50.24,50.24,0,0,0,.83-10.31c0-.39-.18-1,.61-1A27,27,0,0,1,237.3,56a68.17,68.17,0,0,0,.36,10.11,76,76,0,0,0,2.94,13.4A49.61,49.61,0,0,1,242.36,86c.86,5.45,1.13,10.94-1.55,16.09-.52,1,.22,1.38,1.07,1.92a10.63,10.63,0,0,1,1.6-3.65,18,18,0,0,0,2.33-6.82A208.37,208.37,0,0,0,248,71.21c.33-6.75,1.27-13.46,1.39-20.29,0-.71.19-1.32.24-1.93a33,33,0,0,1,.09,7,245.87,245.87,0,0,0-1,25.88c0,2.41.11,4.81-.09,7.23a25.32,25.32,0,0,0,1,9.85c1.48,4.49,4,8.59,4.79,13.94a14.76,14.76,0,0,0,1.93-4.48c1.43-5.64,1.74-11.48,1.94-17.32,0-1,0-2.11.14-3.12,1.24-7.94,1.86-15.92,2.39-23.89.08-1.51-.15-3,.63-4.47.05,3,.11,6-.14,9-.44,5.46-1.1,10.73-1.34,16.17-.27,5,.15,10,.27,15a52,52,0,0,0,2.3,14.05c.87,3.14,2.12,6.14,2.81,9.5s1.07,6.73-.36,10l-.69,2.47a10.06,10.06,0,0,0,2.88-3.86c2.68-5,5.26-10.18,5.87-16a16.7,16.7,0,0,1,.74-3.07,37.25,37.25,0,0,0,1.9-7.19c.86-6.39,2.85-12.58,4.12-18.91a15.3,15.3,0,0,1,.63-2,7.45,7.45,0,0,1-.29,3.63c-1.16,5.22-2.64,10.26-3.39,15.65a34.9,34.9,0,0,1-1.09,4.91,86.35,86.35,0,0,0-1.77,8.78c-.87,5.09-2.05,10.11-1.5,15.38.27,3.19,0,6.42,1.11,9.54a16,16,0,0,1,.81,8.36c-.08.31-.33.93.4,1.27.71-1.16,1.52-2.24,2.33-3.31a40.82,40.82,0,0,0,7.28-13.56c.62-2.16,1.24-4.32,2-6.49,2.07-6.4,5.06-12.57,6.6-19.23a3,3,0,0,1,1-1.68h0a36.94,36.94,0,0,1-1.34,6.63c-1,3.8-2.89,7.37-4.08,11.09-1.35,4.23-2.69,8.46-3.73,12.76a47.07,47.07,0,0,0-1.09,19.16,44.73,44.73,0,0,1,.59,8.18c0,1.3,0,2.51,0,3.81l.42.17c.88-2.59,2.82-4.56,4-7.07,2.56-5.33,3.77-11.16,5.2-16.8,2.24-9,4.6-17.95,6.84-27a2.58,2.58,0,0,1,.77-1.67c.33.37.06.79,0,1.2l-3.35,13.83c-2.32,9.33-4.65,18.56-6.86,28a23.48,23.48,0,0,0,.84,14.58,14.78,14.78,0,0,1,1.08,6.84c-.17,1.62-.12,3.32-.18,5a11.91,11.91,0,0,0,2.7-4.85c.7-2.36,1.3-4.82,2.1-7.2a110.16,110.16,0,0,0,3.76-17.28,65.86,65.86,0,0,1,1.58-7.36c1.71-5.86,3.94-11.57,4.82-17.67.14-.81.28-1.53.41-2.34a27.79,27.79,0,0,1-1.2,9.53c-1.91,7.09-4.74,13.95-5.22,21.32-.08.21-.16.52-.24.72-.94,4.3-2.09,8.51-2.73,12.78a44.23,44.23,0,0,0,.24,17,61.9,61.9,0,0,1,1.51,9.51,19.71,19.71,0,0,0,.09,3.5c.29-.22.49-.24.58-.35A49.57,49.57,0,0,0,305.82,193c.82-3.28,1.34-6.63,2.17-9.91,1.86-7.59,2.71-15.39,4.57-23a24.79,24.79,0,0,1,2.16-6.51.86.86,0,0,1,.06.7c-1.08,5-2.38,9.83-3.15,14.92-.75,5.38-2.11,10.61-3.17,15.92a31.47,31.47,0,0,1-.82,4.49,47.62,47.62,0,0,0-2,16.43l1.16,13.75c.05.6-.19,1.32.45,1.77a4.21,4.21,0,0,0,1.75-2,40.77,40.77,0,0,0,4-8.47c2.09-6.19,4-12.47,5.84-18.76.94-3.09,2.63-5.74,4.17-8.78a1.37,1.37,0,0,1-.17,1.52A69,69,0,0,0,318,198.45c-.65,3-1.84,5.48-2.69,8.46s-1.7,6.07-2.44,9.14a31.55,31.55,0,0,0-1.22,9.33c.36,4.19.61,8.38-1.14,12.55a7.7,7.7,0,0,0,3.43-2.1,70.22,70.22,0,0,0,9.85-11.77c2.42-3.32,4-7.17,6-10.75a12.5,12.5,0,0,1,3.36-4.2c-1.24,2-2.37,4-3.4,6.11-1.95,4.18-4.23,8.09-6.5,12.09-2.87,5.26-5.63,10.52-6.63,16.52a28.13,28.13,0,0,1-1.92,7,10.86,10.86,0,0,1-4.92,5.83,2.8,2.8,0,0,0-1.76,3l-.06,9.94c0,8.73,1.08,17.47.73,26.34s-1.22,17.56-1.49,26.32c-.22,5.63-1.36,11.15-1.88,16.81-.48,5.06-1,10.12-1.63,15.1A191.93,191.93,0,0,1,299.9,373a218.58,218.58,0,0,1-8.1,26.37c-.67,1.67-1,3.4-1.79,5-2,4.39-3.87,8.86-5.9,13.25-1.77,4.06-3.74,8-5.82,11.93-4.56,7.72-8.6,15.69-13.28,23.31-4,6.36-7.94,12.81-12.33,19-2.43,3.41-5.27,6.57-7.37,10.16a43.2,43.2,0,0,1-4,5.45c-.27.32-.85.57-.39,1.24a13.94,13.94,0,0,1,1.61-1.14,84.52,84.52,0,0,1,14.58-9.07c8.76-4.45,17.5-9,26-13.74,2.11-1.19,4.22-2.37,6.21-3.74a80.31,80.31,0,0,0,11.8-10c8.42-8.35,16.63-16.87,22.79-27.13,2.55-4.23,5.74-8,7.88-12.41,1.2-2.41,2.39-4.91,3.8-7.24,2.89-5,6-9.74,9.1-14.62,3.36-5.31,6.09-11,9.35-16.35,3-4.87,5.68-9.92,8.68-14.79,4.94-8,10-16,15-23.95a6.58,6.58,0,0,0,.95-1.89c.57-2.76,2.07-5.09,3.18-7.49a2.66,2.66,0,0,1,1.85-1.87,4.59,4.59,0,0,1-.55,3.06c-3.24,6.8-6.37,13.59-9.61,20.39a21.16,21.16,0,0,0-.92,2.18A68.58,68.58,0,0,1,368.56,359c-4.33,8.19-8.54,16.48-12.45,24.84-1.79,3.76-3.38,7.51-5.27,11.18-3.2,6.1-6.51,12.1-9.4,18.26a261,261,0,0,1-18.06,31.94c-4.45,6.8-10.62,12.14-16.8,17.38a72.38,72.38,0,0,1-12.67,8,73.39,73.39,0,0,1-10.7,5.12,10.85,10.85,0,0,0-2.42,1.11,98.47,98.47,0,0,1-13.33,6.15,148.44,148.44,0,0,0-16.69,7.84c-3.84,2.13-7.55,4.55-11.37,6.78a83.85,83.85,0,0,0-13.68,10.29c-5.13,4.65-9.72,9.66-15,14.12-3.65,3.11-7.29,6.33-10.83,9.64-9.09,8.8-18.63,16.94-28.29,25-2,1.67-3.93,3.35-5.9,4.92-4.61,3.7-9.32,7.31-13.91,11.21-7.21,6-13.67,8-6.61,2.47,6.86-5.5,13.95-10.62,20.69-16.31,5.81-4.9,11.74-9.52,17.43-14.62,4.11-3.66,8.11-7.31,12.33-10.88,2.34-2,4.33-4.48,6.76-6.59,9.19-7.71,17.81-16.07,26.77-24,1-.89,2.06-1.78,3.45-3.1a7.84,7.84,0,0,0-3,1.65c-.1,0-.09.11-.19.12a1.43,1.43,0,0,1-1.94-.34c-2.21-2.42-3-1.65-4.62-.11-3,2.86-5.87,5.42-8.63,8.36s-5.72,5.91-8.69,8.77c-1.86,1.76-4.06,3-5.58,5.19a1.54,1.54,0,0,1-.75.66c-5.25,3.16-9.16,7.9-13.65,11.8-3.74,3.22-7.37,6.54-10.8,9.94-1.2,1.21-2.74,2-4,3.15a7.06,7.06,0,0,0-2.46,2.92c-.49,1.34-1.95,1.87-3.09,2.57-3,2.06-6,4.42-9,6.38-3.7,2.42-7,5.41-11,7.46-2.2,1.19-3.95,3-6,4.52-7.57,5.36-17.06,9.38-6.37,1.75,3.6-2.52,7.52-4.76,11.12-7.37s6.89-5.1,10.28-7.69c2.45-1.92,5.23-3.46,6.78-6.5.35-.63.86-1.68,2-1.57a2.89,2.89,0,0,0,2.44-.91c2.82-2.25,5.74-4.5,8.45-6.84,2.43-2.11,4.63-4.51,7.07-6.52,6.11-4.93,11.33-10.79,17.33-15.82,3.55-3.11,7-6.51,10.42-9.71q5.47-4.68,10.6-9.93a30.3,30.3,0,0,1,4.81-4.73,16.73,16.73,0,0,0,3.76-4.23c.54-.75,1.09-1.4,1.62-2.15,1.27-1.61,2.66-3,3.82-4.73,3.75-5.44,7.82-10.7,12-15.77,5.2-6.17,9.32-13.14,14.1-19.56,2-2.78,3.63-5.73,5.71-8.42a84.67,84.67,0,0,0,8.18-13.64,191.29,191.29,0,0,0,10-22.82c2.2-6,4.31-12,6-18.07,1.46-5.25,2.82-10.58,4.18-15.81a145.5,145.5,0,0,0,3.92-16.49c.87-6.3,2.46-12.46,3-18.83.38-3.84,1.05-7.81,1.42-11.66s.54-7.87.81-11.81c.19-2.52.07-5,.37-7.46.37-5.05.54-10.18.52-15.19,0-5.73-.37-11.41-.65-17.11a56.78,56.78,0,0,0-2-12.88c-.57-2-1.06-4.22-3.07-5.36a35.25,35.25,0,0,1-6.27-5.29c-2.51-2.39-4.55-5.23-6.87-7.74a219.93,219.93,0,0,0-16.49-15.67,27.14,27.14,0,0,1-2.5-2.3,116.2,116.2,0,0,0-11.72-11.55,17.31,17.31,0,0,1-1.87-2,3.66,3.66,0,0,1-1.36-1.89c3.78,3.19,7.46,6.39,11.06,9.8a153,153,0,0,0,13.47,12,32.91,32.91,0,0,0,12.7,5.45,1.57,1.57,0,0,0,1.59-.24,113.68,113.68,0,0,1-9-14.89,29,29,0,0,0-6.32-9.4c-4.9-4.51-9.5-9.13-14.5-13.63-2.18-2-4.26-4.05-6.45-6.18a15.54,15.54,0,0,1-3.53-3.81,1,1,0,0,1,1.15.5c2.54,2.8,5.64,5.05,8.37,7.62,5.11,4.69,10.42,9.26,15.71,13.63a21.79,21.79,0,0,0,6.75,3.94c-1.66-3.07-2.6-5.8-3.93-8.5-.72-1.44-1-3-1.68-4.47a28,28,0,0,0-9.66-10.93,54.31,54.31,0,0,1-5.46-4.05c-3.58-3.11-7.15-6.22-10.64-9.53a16.12,16.12,0,0,1-4.13-4.87,6.17,6.17,0,0,1,1.91,1.24,148.06,148.06,0,0,0,16.46,14.16,8.25,8.25,0,0,0,2.22,1.42,50.75,50.75,0,0,1,6.45,3.77,2.77,2.77,0,0,0,1.56.67,34.6,34.6,0,0,1-3.67-6.52,53,53,0,0,0-4.22-7.26,40.57,40.57,0,0,0-12.83-11.56,45.32,45.32,0,0,1-10.09-7.78,29.77,29.77,0,0,0-3.7-3.4c-3.64-2.7-7.64-4.87-11.36-7.37-2.88-2-5.94-3.71-8.55-6.1a1.43,1.43,0,0,1,.92.23c5.42,3.55,10.74,7.12,16.34,10.36a36.88,36.88,0,0,1,3.86,2.88c1.94,1.64,3.7,3.5,5.66,5.24,3.35,2.83,7.3,4.4,10.81,6.81a47.85,47.85,0,0,0,5.39,3.16c.52.25,1.06.71,1.74.45-1.71-2.46-3.43-5-5.23-7.28s-3.41-4.73-5.86-6.33c-1.91-1.24-4-2.37-6-3.6-3.92-2.38-8.1-4.34-11.93-6.92-.42-.27-1-.42-1-1.32,6.29,3.18,12.05,7.21,19,9a111,111,0,0,0-9.19-8.95,30,30,0,0,0-5.54-3.75c-6.29-3.18-12.48-6.37-18.68-9.65-3.48-1.92-6.94-3.73-10.5-5.44a36.77,36.77,0,0,1-7.88-4.25c8.3,3.21,15.69,7.61,23.44,11.36,2.51,1.2,4.83,2.51,7.34,3.7a19.19,19.19,0,0,0,5.68,1.93,39.59,39.59,0,0,1,6.92,1.11c.51.06,1,.42,1.58-.33a63.12,63.12,0,0,1-7.45-6.09,41.19,41.19,0,0,0-4.63-3.82A61.86,61.86,0,0,0,224.09,125a65,65,0,0,1-12.74-7c-2.55-1.69-5.29-3.26-8-4.84-1.69-1-4.81-2.2-7.3-4.4ZM304,251.43c0,.1-.1.11-.09.21-.08,1.41-.32,3.24,1.24,3.91s3.07-.46,4.17-1.66a13.32,13.32,0,0,0,3.24-5.59c1-2.8,1.42-5.74,3-8.39.45-.64.67-.46,1,0-1.16,1.7-1.28,3.82-1.72,5.76a45.52,45.52,0,0,1-2.51,7,7.35,7.35,0,0,0,2.66-4.14,48.54,48.54,0,0,0,1.77-7.47,1.39,1.39,0,0,0-.29-1.08c1.57-1.54,1.48-3.84,2.53-5.64-1.28.31-1.69,1.35-2.54,2a67.08,67.08,0,0,0-8.5,7.45,15.93,15.93,0,0,0-3.88,6.25,1.06,1.06,0,0,0-.09,1.31Zm4.11,197.76a10.29,10.29,0,0,1-3,4.16c-3.83,3.34-7.66,6.68-11.39,10.1a2,2,0,0,0-.82,1c2.87-.54,5.35-2.05,7.84-3.47a7.12,7.12,0,0,1-2.68,2.74c-4.31,2.47-8.71,4.95-13.14,7.23-4.23,2.17-8.45,4.53-12.77,6.8-4.51,2.39-8.7,5.16-13.43,7.26-.1,0-.19.22-.36.54a7.63,7.63,0,0,0,2.91-1.15c2.61-1.23,5.32-2.36,8.05-3.39a73.94,73.94,0,0,0,10.9-5.14c3-1.66,6.32-2.45,9.29-4.1,5.75-3.2,11.95-5.83,17-10.17,4.86-4.23,9.83-8.36,13.81-13.52a140.65,140.65,0,0,0,8.11-12c4.06-6.56,7.71-13.2,11.14-20.11,4.8-9.74,10-19.31,14.59-29.14,2.89-6.16,6-12.15,8.9-18.21,2-4.29,4.4-8.4,6.55-12.7a76.33,76.33,0,0,0,3.84-10.36,41.1,41.1,0,0,0-4.36,6.59c-4.6,7.31-9,14.71-13.37,22.21-4,7-7.63,14.19-12.18,20.9-2.14,3.19-4.16,6.58-6.09,9.85s-3.42,7-5.56,10.21c-4.28,6.38-7.71,13.3-12.63,19.13a236.92,236.92,0,0,1-18.66,20.25c-.74.66-1.29,1.31-2,2A116.8,116.8,0,0,0,308.06,449.19ZM231.8,497.9a42.3,42.3,0,0,0,4.17-5.27c.44-.74.89-1.38,1.33-2a127.15,127.15,0,0,0,9.94-13.08c5.37-7.58,11.08-14.89,15.72-22.91,3.24-5.5,6.7-10.91,9.64-16.48,1.91-3.57,4-7,5.93-10.53,2-3.79,3.66-7.74,5.44-11.6,1.27-2.82,2.33-5.72,3.7-8.45a47.63,47.63,0,0,0,3.39-8.51c1.16-4.12,3.15-7.9,4.41-12,2.64-9,4.88-18.18,6.9-27.48a112.11,112.11,0,0,0,1.91-15.32c.49-4.86,1.19-9.73,1.77-14.7.51-4.66.92-9.31,1.12-13.94.33-5.65.85-11.31,1.09-16.85a240.34,240.34,0,0,0-.65-25.34c-.28-4.59-.67-9.18-.76-13.79,0-1.1-.25-1.68-1.37-1.89-.91-.12-1.48-.87-2.32-1.31-.62-.24-1,.09-.94.69a19.75,19.75,0,0,0,.6,2.35,48.65,48.65,0,0,1,2.36,16c0,1.31.31,2.58.42,3.88a248.43,248.43,0,0,1,0,25.89c-.33,5.55-.66,11.1-.9,16.64-.12,4.43-1,8.81-1.49,13.17a143.1,143.1,0,0,1-2.1,14.33c-1.71,8.17-2.72,16.49-5.25,24.53-1.27,3.92-1.83,8-3,11.9-1.31,4.72-2.91,9.48-4.52,14.23a187.29,187.29,0,0,1-11.87,28.1,141.46,141.46,0,0,1-8.94,15.21c-5,7.35-9.9,14.69-14.9,22-2,3-4.23,5.68-6.4,8.47-3.63,4.52-6.95,9.22-10.58,13.74-2.27,2.8-4.65,5.51-6.92,8.32-.45.64-1.61,1.14-.72,2.16a1.17,1.17,0,0,0,.33.38,2.08,2.08,0,0,0,3-.16c.2,0,.29-.12.47-.34Zm9.92-391a1.77,1.77,0,0,0-.3-1.18c-2.49-3.3-4.78-6.62-8.93-8.28-1.67-.66-3.26-1.73-5-2.38-2.51-1.09-5.2-.86-7.82-1A54.06,54.06,0,0,1,209,92.28c-.41-.06-.72-.14-1.43-.28A1.71,1.71,0,0,0,209,93.29a19.51,19.51,0,0,1,7,4.62c3.48,3.22,7.07,6.43,10.72,9.33a27.53,27.53,0,0,0,7.37,4c2.59,1,5.31,1.16,8.19,1.92C242.15,110.85,241.68,108.78,241.72,106.87Zm11.4,23.22a6.16,6.16,0,0,1-1-2.22c-.07-3.11-1.87-5.47-3.57-7.73a2.18,2.18,0,0,1-.56-.76c-.77-3.14-3.56-4-6.05-5-2.7-1.08-5.62-1.23-8.48-1.79-.31-.08-.59.15-1.19.2a18.39,18.39,0,0,0,5.86,2.81,20.31,20.31,0,0,1,8.09,4.23,8.32,8.32,0,0,1,2.79,4.49c0,.49,0,1.1-.51,1.14s-.64-.45-.77-.84c-1.21-4.81-5.18-6.58-9.22-8.05-2.06-.72-4.41-1.13-5.85-2.71s-3.17-1.94-5.1-2.18a47.81,47.81,0,0,1-6.63-1.24,1.4,1.4,0,0,0-1.4,0c0,.71.67.85,1.09,1a39,39,0,0,1,11,7.8c2.94,2.76,6.42,4.77,9.64,7.21a6.15,6.15,0,0,0,2.69,1,29.37,29.37,0,0,1,9.16,2.64Zm-21.57-34.2c-1.07-7.94-5.7-12.77-12.46-15.61A99.25,99.25,0,0,0,202.48,75c-.61-.15-1.15-.61-1.92-.14a2.26,2.26,0,0,0,.45.56c4.13,2.46,7.13,5.92,10.34,9.46,2.55,2.9,5.21,5.79,8.76,7.49a6.51,6.51,0,0,0,2.49.89,21.08,21.08,0,0,1,9,2.66Zm31.12,45c.85-.57,1-1.29.77-1.57-1.19-1-.48-2.07-.26-3a16.18,16.18,0,0,1,.84-3.18c1.43-3.23,1.14-6.62.56-10a71,71,0,0,0-2.37-9,53,53,0,0,1-2.56-12.42c-.57.45-.42,1-.48,1.44a40.07,40.07,0,0,1-2.59,9.76,49.78,49.78,0,0,1-3,7.08,6.85,6.85,0,0,0-.63,4.46c.16,1.9,1.12,3.72,1.18,5.62a1,1,0,0,0,.57.76,23,23,0,0,1,8,10.06Zm-33.38-14.83c1.81,1.15,3.7,2.19,5.7,3.23a32.25,32.25,0,0,1,7,5.13,56.82,56.82,0,0,0,9.12,7.05,7.56,7.56,0,0,0,1.26.6,42.15,42.15,0,0,1,7.44,2.58,2.45,2.45,0,0,0,.37-2.84c-.9-2.23-1.69-4.48-2.78-6.69a9.42,9.42,0,0,0-3.82-3.59A30.5,30.5,0,0,0,242.1,128a94.1,94.1,0,0,1-9.28-1.72,8.23,8.23,0,0,0-3.53-.2Zm10.44-24.87c2.31-5.92,3-11.6,1.35-17.28-1.16-4.22-2.22-8.44-3-12.69-.16-.69-.13-1.5-.87-1.94-.56.45-.4,1.24-.46,1.75a35.58,35.58,0,0,1-2.58,9.75,25.31,25.31,0,0,0-2,10.61c.08,1,.18,2.09.36,3.08a3.69,3.69,0,0,0,2.58,3.19c1.75.56,2.9,2.27,4.61,3.53Zm1.84,40.69c5.18,3.07,9.13,7.05,13.08,11a17.08,17.08,0,0,0,8.11,4.53,24.35,24.35,0,0,1,6,2.4,1.12,1.12,0,0,0,1.12.21c0-7.53-5.76-13.46-13-15.06a3.14,3.14,0,0,0,1.75,1.66c2.94,1.56,4.87,4.21,6.79,6.75a4.46,4.46,0,0,1,.91,2.43,1,1,0,0,1-.6,1.16c-.58.25-.83-.33-1.07-.71-.39-1.07-.87-2-1.26-3.11a11.06,11.06,0,0,0-4.44-4.94,2.9,2.9,0,0,1-.64-.45c-4.31-4.65-10.36-5-16.16-5.95,0-.2-.21-.09-.6,0Zm24.23,31.26a4.13,4.13,0,0,1,0,.71c2.85,2.87,4.76,6.42,6.86,9.85A35.51,35.51,0,0,1,274.2,187a15.27,15.27,0,0,0,5.62,7.05,3.69,3.69,0,0,1,1.53,1.48c1.24,2.8,4.2,3.46,6.19,5.6,1.94-6.69.46-12.29-4.34-16.9-2.85-2.77-6.49-4.36-9.7-6.7-2.36-1.81-5.16-2.78-7.7-4.37Zm11.59,5.24c.47-.34.22-.92.5-1.14,2.69-3.74.61-7-1.25-10a15.11,15.11,0,0,0-9.22-7c-3.09-.94-6.17-1.79-9.35-2.52A1.06,1.06,0,0,0,257,158a39.89,39.89,0,0,1,7,8.34,32.94,32.94,0,0,0,5.37,6.47,37.62,37.62,0,0,0,8,5.64Zm19.14,35.21c.85-1.78,1.54-3.14,2.22-4.5a3.67,3.67,0,0,0,.41-1.14c.18-5,1.16-10-.37-15a21,21,0,0,1-.83-7.46,1.64,1.64,0,0,0-.44-1.57c-.71-.14-.76.47-.93.88-1.21,2.21-2.42,4.52-3.64,6.74a22.47,22.47,0,0,0-2.86,8.87,5.58,5.58,0,0,0,1.3,4.71c1.1,1.11,1.91,2.34,2.91,3.56s1.36,3,2.23,4.93Zm-15.65-33.09c.63-.76.38-1.44.32-2.14a4.68,4.68,0,0,1,.65-3c1.51-2.34,1.59-5,1.47-7.46-.19-2.29-.28-4.49-.27-6.8.06-2.81-.87-5.54-.61-8.38s.22-5.73.25-8.85a1.5,1.5,0,0,0-1.1,1.2c-1.14,1.9-2.49,3.72-3.74,5.63A28.84,28.84,0,0,0,274,161.14a3.22,3.22,0,0,0,1.38,3.19,25.5,25.5,0,0,1,3.78,4.3c2.18,3.22,2.34,6.32.11,9.62-.45.64-.42.94.12,1.4a3,3,0,0,0,1.48.88ZM252,121.06c.52-2.16,1.82-3.37,2.08-5.1a14.37,14.37,0,0,0-1.12-7.33c-.68-2-1.75-4-2.52-6a28.87,28.87,0,0,1-2.32-10.74c-.69.06-.66.46-.64.76a20.61,20.61,0,0,1-2.55,7.74,15,15,0,0,0-1.45,11.26,5,5,0,0,0,2.82,3.68,8.94,8.94,0,0,1,3.25,2.83c.67.85,1.44,1.69,2.45,2.91Zm-21.1-33.44c.35-1.84.54-3.16-.09-4.61a5.58,5.58,0,0,1,0-3.61,13.31,13.31,0,0,0-1.26-8.93,23.18,23.18,0,0,0-2.12-3.73,49.39,49.39,0,0,1-5.92-11.85,1,1,0,0,0-.78-.83,51.81,51.81,0,0,1,.67,7.87,51.31,51.31,0,0,1-.23,7.95c-.4,3.54.89,7,2.17,10.25a2.24,2.24,0,0,0,1.11,1.21c2.72,1.28,4.51,3.53,6.45,6.28Zm36,57.27c-1-2.63-.34-5.19,0-7.84-.91,0-1,.59-1.22,1a12.52,12.52,0,0,0-1.52,5.75c-.17,1.62-.05,3,1.63,3.88a3,3,0,0,1,1,1,27.53,27.53,0,0,1,3.47,4.22,7.7,7.7,0,0,1,1.5,7.1c-.15.51,0,1,.49,1.06s.57-.45.63-.86a6.4,6.4,0,0,0,.24-1.92c-.71-2.45.09-4.83.4-7.16a17.66,17.66,0,0,0-.44-7.59c-1.21-3.61-.83-7.36-.94-11.06-.06-1.91-.12-3.81-.19-5.81A46.3,46.3,0,0,0,266.82,144.89Zm37.71,57.82c-2.61,4.73-6.17,8.85-7.11,14.35-.32,2.13.06,4.21-.37,6.25a1.67,1.67,0,0,0,.6,1.26A31.62,31.62,0,0,1,301,229.4c3.53-3.31,5.42-7.08,4.9-12L304.74,204a1,1,0,0,0-.21-1.28Zm6.56,18.21c-.59.05-.78.26-.84.67-.43,4.45-1.26,8.84-1.38,13.37,0,2.2-1.25,4.22-2.19,6.1-.26.53-.64.76-1.16.5h0a.81.81,0,0,1-.39-1c.24-.72.59-1.35.83-2.08,1.36-2.92,2.32-5.81,1.72-9.27a36.91,36.91,0,0,0-3.34,5.5c-.51-2.47,1-3.7,1.56-5.25s1.56-2.94,1.6-4.76c-2.77,2.75-5.88,5.22-6.53,9.39a10.58,10.58,0,0,1-.68,2.57,8,8,0,0,0,.71,6.06,34,34,0,0,0,2.13,3.83c1.4-2.52,3.57-4.11,5.32-6,1.29-1.31,1.42-3.33,1.88-5.07,1-3.7.57-7.48.64-11.3a18.84,18.84,0,0,0,.12-3.32Zm-21.27-3.52c-.31-1.28-1.48-2.08-1.71-3.67,1.79,1.06,2.15,2.93,3.95,4a8.71,8.71,0,0,0-1.43-6.2c-1.82-2.55-3.75-5.1-5.57-7.65-1-1.62-2.65-2.89-2.83-5a.85.85,0,0,0-.45-.57l-7.56-5.18a2.1,2.1,0,0,0,.85,1.74,27.49,27.49,0,0,1,4.58,7.94c.9,2.33,1.8,4.66,2.79,6.89a14.3,14.3,0,0,0,3.86,5.19c1.28.9,1.9,2.35,3.52,2.51ZM212.3,65.3c2.71,3.59,7,6.23,6.11,11.73-1.57-.77-4.31-3.55-5.83-6.13A26.58,26.58,0,0,1,217.24,75c.75-.56.31-1.13.16-1.62a9.51,9.51,0,0,0-2-3.34c-1.67-2-3.43-3.82-5.2-5.78a1.35,1.35,0,0,0-.75-.54c-3.33-1.42-6.76-2.84-10.28-4.05,3.67,3,6.3,6.79,9.39,10.15a71.93,71.93,0,0,0,6.15,6.2,20.69,20.69,0,0,0,6.5,3.26c-1-6.13-2.69-11.51-8.92-14Zm70.48,114.06a4.45,4.45,0,0,0,1.24,3.91c2.32,2.51,4.46,5.24,5.26,8.79.14.49.28,1,.88.93a1.19,1.19,0,0,0,.92-1c.29-1.32.48-2.65.66-4.07a42.3,42.3,0,0,0-.54-12.29,1.09,1.09,0,0,0-.79-1c-.5,3.55,1,7.24-.46,11.18-1-1.83-.08-3.31-.3-4.79a25.6,25.6,0,0,1-.31-4.79,33.71,33.71,0,0,0-.48-4.48c-2.32,3.41-2.49,7.34-2.67,11.16a1,1,0,0,1-.89-1.12,11.36,11.36,0,0,1,.45-5.26c1-2.39,1.28-5,3.22-7,.64-.75.46-1.74,0-3C286.07,170.75,283.48,174.58,282.78,179.36Zm11.83,280.5c-5.44,4.48-11.81,7.43-17.94,11-5.73,3.39-11.84,5.92-17.58,9.21-5.94,3.32-12,6.64-17.34,10.91a42.52,42.52,0,0,1-3.69,2.72,4.46,4.46,0,0,0-2,2.48q2.13-1.39,4.28-2.77c8.28-5.32,16.68-10.45,25.31-15.1,5.57-3,11-5.95,16.62-8.83a58.47,58.47,0,0,0,14.36-10.55,3.58,3.58,0,0,0,.61-1.06C296.12,458.73,295.37,459.3,294.61,459.86ZM286.46,221.6c3.76,4,6,9.13,9.89,13.61a7.82,7.82,0,0,0-2-7,20.68,20.68,0,0,0-4-4,25.44,25.44,0,0,1-6.33-7.19c-1.17-2-2.94-2.77-5.16-4.08a8,8,0,0,0,1.42,2.49,19.65,19.65,0,0,0,1.09,2.21c2.7,4.69,4.93,9.62,8,14.08a16.83,16.83,0,0,0,6.81,5.84C292.7,232.41,289.63,227,286.46,221.6Zm-5.17,13.59a29,29,0,0,1,2,2.23c4.38,4.35,8.13,9.45,12.7,13.68,1.3,1.2,2.63,2.59,5.07,3-1.52-2.58-3.82-3.59-5.58-5.44s-3.7-3.4-5.05-6.3c1.88.84,2.2,2.32,3.39,3.32s2.29,2.12,3.38,3.13,2.37,1.91,3.46,2.92c.09-.11.17-.32.36-.43C297.55,242.24,290.9,237.18,281.29,235.19Zm4.06-18.41a17.37,17.37,0,0,0,5,5.79,30.8,30.8,0,0,1,5.93,6,9.94,9.94,0,0,1,1.51,8.3c-.08.31-.35.63-.33.93,0,.6-.07,1.51.55,1.66,1,.21.63-.86.78-1.37a19.2,19.2,0,0,1,.59-2.56c1.31-3.42.15-6.54-1.77-9.08a31.53,31.53,0,0,0-12.27-9.7Zm-79.53-164a91.82,91.82,0,0,1,4.27,8.87,1.43,1.43,0,0,0,1,1,18.61,18.61,0,0,1,7.44,4.89,7.83,7.83,0,0,0-1.47-4.29,20.46,20.46,0,0,0-3.66-4.11c-2.59-2.19-5.17-4.18-7.57-6.38ZM295,217c-.52-2.66-.47-5.58-2.38-8-2.59-3.3-5-6.91-8.92-9.28a1.86,1.86,0,0,0,.63,1.55c2.28,3.12,4.56,6.44,7,9.44,1.56,1.87,1.46,4.19,2,6.25.15.59-.34.73-.72,1-1.14.8-1.11,1.1,0,2a15.63,15.63,0,0,1,2.94,2.66C296.19,220.27,295.35,218.64,295,217Zm-3.14,20.94c3.6,3.41,7.62,5.88,9.35,10.85,1-4.19-3.93-9.6-9.35-10.85Zm10,11.4c-.38.23,0,.5.06.7s.12.29.31.17.07-.41-.05-.6Z" transform="translate(-34.79 -16.75)"/><path class="c" d="M236.17,161c3.83,2.59,6.93,6,10.11,9.18A58.83,58.83,0,0,1,236.17,161Z" transform="translate(-34.79 -16.75)"/><path class="c" d="M215.4,33.23a2.13,2.13,0,0,1-.6-1.26c-.79-3.34-2-6.55-3-9.88-.42-1.47-1.25-2.91-1.28-4.51a64,64,0,0,1,3.78,10.32c.45,1.77,1.2,3.51,1.05,5.33Z" transform="translate(-34.79 -16.75)"/><path class="c" d="M178.72,77.58a1,1,0,0,1,.9,0c2.66,1.68,5.22,3.47,7.87,5.15.42.27,1,.42.93,1.53l-9.7-6.71Z" transform="translate(-34.79 -16.75)"/><path class="c" d="M237.3,38.2a3.16,3.16,0,0,1,.38.87c0,3.31.35,6.59-.36,10-.18-3.29-.26-6.6-.25-10,.07-.31.16-.52.23-.82Z" transform="translate(-34.79 -16.75)"/><path class="c" d="M188.57,99.13a8.32,8.32,0,0,1-4-2c1.45.48,3,.85,4,2Z" transform="translate(-34.79 -16.75)"/><path class="c" d="M178.72,77.58a16,16,0,0,1-4-3.37c1.39,1,3.16,1.74,4,3.37Z" transform="translate(-34.79 -16.75)"/><path class="c" d="M237.4,38.19c-.81-1.24-.41-2.48,0-3.71,0,1.2.41,2.47,0,3.71Z" transform="translate(-34.79 -16.75)"/><path class="c" d="M196,108.74a1.48,1.48,0,0,1-1.79-1,2.55,2.55,0,0,1,1.79,1Z" transform="translate(-34.79 -16.75)"/><path class="c" d="M166.86,54.9a2.48,2.48,0,0,1-1.53-1.47,4.32,4.32,0,0,1,1.53,1.47Z" transform="translate(-34.79 -16.75)"/><path class="c" d="M294.5,108a1.53,1.53,0,0,1,.26-1.73c.05.6.2,1.19-.26,1.73Z" transform="translate(-34.79 -16.75)"/><path class="c" d="M239.13,107.19a1.7,1.7,0,0,1,.42,1.37,1.06,1.06,0,0,1-1.23.9c-.69.06-.84-.43-.78-.93.26-1.73-.74-2.85-1.75-4.07a22.13,22.13,0,0,0-4.42-3.64c-2-1.43-4.32-2.44-6.25-3.88C230.8,98.86,235.87,101.84,239.13,107.19Z" transform="translate(-34.79 -16.75)"/><path class="c" d="M223.87,86.91l-5-4.2c4.59,2,8.54,6,9,9C226.35,90.21,225.49,88.27,223.87,86.91Z" transform="translate(-34.79 -16.75)"/><path class="c" d="M256.73,117a13.26,13.26,0,0,0,1.7-6c0-.5,0-1.1.71-1.06s.65.55.69,1c1,5.44,1.74,11,3.1,16.4a8.52,8.52,0,0,1-.3,4.74c0,.1-.08.21-.07.31a1.67,1.67,0,0,1-2,1,9.55,9.55,0,0,0,.94-7.81,57,57,0,0,1-1.29-8.12,6.62,6.62,0,0,0-.88-3.34,20,20,0,0,0-3,7.58A6.89,6.89,0,0,1,256.73,117Z" transform="translate(-34.79 -16.75)"/><path class="c" d="M251.65,132.92a12.94,12.94,0,0,1,5.23,4.88,3.83,3.83,0,0,1,.68,2c-.06.51-.44.74-.87.37a1.36,1.36,0,0,1-.57-.75c-1-3.53-3.85-5.19-6.79-6.65a4.94,4.94,0,0,1-2.58-2.09C248.31,131.4,250,132.16,251.65,132.92Z" transform="translate(-34.79 -16.75)"/><path class="c" d="M236.69,95c-.6,0-.63-.35-.65-.55A46.1,46.1,0,0,1,235.71,81c.19-1.32.27-2.73,1.81-3.46C235.5,83.31,236.3,89.16,236.69,95Z" transform="translate(-34.79 -16.75)"/><path class="c" d="M281.45,183.79c2.86,2.87,5.53,6,5,10.51-.11,1.12-.4,2.35-1.28,2.72s-1.64-.46-2.2-1.12a42.5,42.5,0,0,1-9.55-13.24,2.6,2.6,0,0,1-.29-2.28c4.27,7.77,8.78,13.71,11.28,14.7a2.36,2.36,0,0,0,.44-1.85,12.13,12.13,0,0,0-4.14-8.68c-1.42-1.28-3.12-2.44-3.89-4.38C278.44,181.33,279.94,182.51,281.45,183.79Z" transform="translate(-34.79 -16.75)"/><path class="c" d="M270,164.19a21.24,21.24,0,0,1,5,4.89c.68.95,1.47,2,.79,3.45-2-4.75-6.53-7.18-9.75-10.82C267.66,162,268.68,163.29,270,164.19Z" transform="translate(-34.79 -16.75)"/><path class="c" d="M269.19,169.37a27.63,27.63,0,0,0,4.18,4.26,2.79,2.79,0,0,0,2.17.82c.5,0,1-.38,1,.42s-.52.95-1.13.9a3.15,3.15,0,0,1-2.08-.93c-2.67-1.88-4.5-4.54-6.57-7.67A10.07,10.07,0,0,1,269.19,169.37Z" transform="translate(-34.79 -16.75)"/><path class="c" d="M297,206.35a6.12,6.12,0,0,1-.88,1.38c-.74.77-1.45.63-1.93-.23a6.41,6.41,0,0,1-.52-1.36c0-.2,0-.5.15-.62.28-.32.59-.15.81,0,.69,1,1.13.31,1.58-.23.91-1.18,1-2.59,1.58-3.95A8.14,8.14,0,0,1,297,206.35Z" transform="translate(-34.79 -16.75)"/><path class="c" d="M295.48,193c-.64,3.06-1.17,6.22-1.72,9.28C293.48,199,293.41,195.82,295.48,193Z" transform="translate(-34.79 -16.75)"/><path class="c" d="M277,162.39a21.24,21.24,0,0,1,3.14-12.71c.26-.53.15-1.82,1.2-1.21.74.44.11,1.29-.24,1.93,0,.1-.09.1-.08.2a20.75,20.75,0,0,0-3,10.09,9.67,9.67,0,0,1-.31,3.44A1.94,1.94,0,0,1,277,162.39Z" transform="translate(-34.79 -16.75)"/><path class="c" d="M248.27,103.7c1.47,3.09,3.13,6.06,3.42,9.55a12.21,12.21,0,0,1,0,1.91,2.22,2.22,0,0,1-1.94,2c.7-2.37,1.12-4.61.33-6.75s-1.56-4.28-2.36-6.53Z" transform="translate(-34.79 -16.75)"/><path class="c" d="M224.47,73.91c1.13,1.51.92,3.73,2.78,5.58-.5-4.77.42-9.27-3.42-13.16a2.89,2.89,0,0,1,2.59,2.09c1.82,3.76,2,8,2.32,12a2.85,2.85,0,0,1-.12.91c-.16.52-.31,1.13-1,1.29a1.27,1.27,0,0,1-1.29-1c-.81-2.54-2-5-1.65-7.69Z" transform="translate(-34.79 -16.75)"/><path class="c" d="M224.67,73.89a1.65,1.65,0,0,1-.28-2.08,1.16,1.16,0,0,1,.49,1,1.54,1.54,0,0,1-.31,1.13Z" transform="translate(-34.79 -16.75)"/><path class="c" d="M304.83,220.45a21.09,21.09,0,0,1-2.19,6.1,2.28,2.28,0,0,1-.45.64.77.77,0,0,1-1.09.09.78.78,0,0,1-.2-1.08,2.78,2.78,0,0,1,.45-.64,13.54,13.54,0,0,0,2.17-9.92,11.12,11.12,0,0,1,.17-5.13A21.21,21.21,0,0,1,304.83,220.45Z" transform="translate(-34.79 -16.75)"/><path class="c" d="M303.85,251.44a7.85,7.85,0,0,1,.69-1.26,25,25,0,0,1,3.55-5.52c.18-.22.46-.44.79-.17s.25.58.07.9c-1.43,2-2.57,4-3.79,6.14-.45.64-.9.07-1.31-.09Z" transform="translate(-34.79 -16.75)"/></g><g class="e"><path class="c" d="M518.25,83.74c.18.88-.69,1.36-1.14,1.9-.28.32-.66.56-.93.88-4,5.45-8.77,10.18-13.39,14.88-5.26,5.47-10.4,11.12-15.33,16.86-3.93,4.55-6.6,9.79-9.16,15.13a39.44,39.44,0,0,0-2,4.28c6.07-4.12,11.78-8.92,17.86-13a134.69,134.69,0,0,1,19.48-10.48c-.61,1-1.82,1-2.77,1.64-4,2.44-8.26,4.41-12,7.24-5.29,4-11,7.35-15.62,12.26-3.22,3.49-6.54,7-8.79,11.18-2,3.59-3.71,7.14-6.89,9.82a.81.81,0,0,0-.32,1c1.13-.9,2.37-1.71,3.39-2.69,1.57-1.54,3.26-3,4.94-4.44,7.07-5.41,14.83-9.79,21.68-15.38,2.16-1.69,4.44-3.29,6.61-4.88,3.21-2.38,6.2-4.94,9.66-6.84.57-.35,1-1.19,2.22-1a107,107,0,0,0-9.63,7.14c-3.85,3.13-7.7,6.27-11.66,9.22-6.43,4.66-13.2,8.94-19.06,14.36-3.16,3-6,6.22-7.65,10.38a25.88,25.88,0,0,1-4.19,7.38c-.18.22-.45.64-.33.83s.5.06.8,0c3.86-.63,7-2.7,10-5.06,3.48-2.7,6.86-5.5,10.24-8.29a157,157,0,0,0,14.63-13.29c4.33-4.48,8.66-9.06,13.42-13.28a.81.81,0,0,1,1-.38,6.63,6.63,0,0,0-1.1,1.2c-1.56,1.73-3.46,3-4.9,4.93a134.53,134.53,0,0,1-14.18,15.05c-5.1,4.95-11.09,8.87-16.4,13.73-2.23,2.1-4.68,3.91-6.92,5.91a55.28,55.28,0,0,0-5.34,5.67,37.43,37.43,0,0,0-3.58,5.22c-.7,1.16-1.94,2-2.4,3.62,17-10,33.38-20.6,49.53-31.4-2.33,2.11-4.88,4-7.43,5.95-3.66,2.92-7.81,5-11.48,7.8a125.21,125.21,0,0,1-11.78,7.82c-6,3.62-12.37,6.87-16.8,12.56-1.9,2.47-4.44,4.49-6.22,7.15a24.28,24.28,0,0,1-3.93,4.55,32.64,32.64,0,0,0-3.71,3.63,26.7,26.7,0,0,0,8.24-2.31c4.61-2.39,9.1-5.08,14.07-6.91,2.43-.91,4.63-2.1,7.07-3,5.16-1.84,10.23-3.57,15.41-5.22a40.87,40.87,0,0,1,7.63-2.35,20.61,20.61,0,0,1-3.39,1.49c-9.79,4-19.75,7.3-29.54,11.44-.68.26-1.58.23-2.05.67-2.25,1.8-4.75,3.12-7,4.91-1.7,1.25-3.62,2.22-5,3.94a16.75,16.75,0,0,1-2.69,2.63,55,55,0,0,0-9.9,11.08c-.09.11,0,.2,0,.4,7.47-5.45,15.63-9.86,23.68-14.25s16.23-8.7,25.14-11.37a75.68,75.68,0,0,0-8.68,4.25c-4.13,2.16-8.38,4.12-12.5,6.38q-9.06,5.13-17.78,10.54a46.48,46.48,0,0,0-17.09,18.61c-.08.21-.35.53-.13.81s.51.06.8-.06c1.17-.4,2-1.38,3.05-1.87,3.95-1.94,7.7-3.86,11.77-5.61,9.22-3.69,18.34-7.38,27.7-10.68,2-.78,4.1-1.35,6.14-2.13-1.87,1.57-4.23,2.17-6.37,2.95-7.59,2.85-15.06,5.9-22.42,9-4.75,2-9.47,4.31-14.19,6.62-4.33,2.17-7.42,6.05-10.54,9.52s-5.37,7.68-9.12,10.81c-.1,0,0,.2-.05.51,6-3,11.81-6.22,17.81-8.94s12-5.33,18.11-7.65,12.26-4.56,18.26-7.17c0,.2-.17.31-.26.42-8.13,4.71-17.12,7.57-25.51,11.6-3.48,1.6-7.3,2.72-10.76,4.52A66,66,0,0,0,424.88,255c-5.46,4.28-9.61,9.75-14.74,14.3a5,5,0,0,0-1.71,2.35,330.15,330.15,0,0,0,53.76-20.51c-4.24,3.27-9.2,5.19-13.81,7.59-6.74,3.38-14,5.4-20.87,8.29-3.4,1.39-6.78,2.89-10.07,4.37a35.38,35.38,0,0,0-10.89,7.75c-1.28,1.41-2.77,2.74-4.07,4.05a24.72,24.72,0,0,0-3.35,3.1c6.16-.73,12-2.63,17.88-4.53s11.73-3.7,17.35-6.09,11.37-4.37,17.12-6.46a19.62,19.62,0,0,1-3.17,1.77c-6.56,3.06-13.13,6-19.95,8.51-6.52,2.36-12.93,4.91-19.49,6.88a18,18,0,0,0-4.48,1.58c-2.69,1.43-5.49,2.67-7.61,5a20,20,0,0,1-5.53,4.58,3.25,3.25,0,0,0-2,1.68,26.82,26.82,0,0,0,2.7-.13,110.48,110.48,0,0,0,14.84-3.77c9.07-3.08,17.89-6.73,26.82-10.3,2.63-1,5.27-1.85,7.9-2.78-2.88,1.55-5.86,3.11-9,4.47-5.42,2.37-10.87,4.34-16.3,6.6-3.88,1.54-7.66,3.16-11.44,4.69a52.66,52.66,0,0,1-7.42,2.43c-3.64.91-6.37,3-9,5.38a24.93,24.93,0,0,1-3.83,3.44,23.25,23.25,0,0,0-2.33,2.1c1.12.11,1.86-.56,2.77-.54a20.7,20.7,0,0,0,7.29-1.62,38.81,38.81,0,0,1,5.76-1.89c4.13-.95,8.39-1.61,12.49-3,4.88-1.61,9.66-3.32,14.52-5.14,2.13-.88,4.27-1.77,6.52-2.46-.24.72-.84.77-1.23.91-3.69,1.51-7.27,3-11,4.44a62.75,62.75,0,0,1-8.26,3.11c-3.35.78-6.55,2.06-9.88,3-.78.27-1.33.92-2.23.9a11.38,11.38,0,0,0-5.71,1.38c-3.28,1.48-6.09,3.93-9,6-3.61,2.51-6.86,5.59-10.79,7.73a33,33,0,0,1-8.54,3.44c-1.57.43-3.28.38-4.67,1.7-5,4.54-8.68,10.17-13.05,15.35-2.65,3.14-4.86,6.64-7.51,9.67-2.58,2.73-5,5.65-7.4,8.66-3.22,4.59-7.2,8.64-10.84,13-3.2,3.78-6.39,7.57-9.9,11.08-2.6,2.52-5.19,5.15-7.57,7.86-3.94,4.35-8.31,8.44-12.26,12.78-2,2.28-3.93,4.55-6.25,6.76s-4.53,4.6-6.85,6.8c-3.08,2.77-5.83,5.81-8.9,8.68-1.12,1-2.66,1.73-3.26,3a8.1,8.1,0,0,1-2.29,2.6,71.91,71.91,0,0,0-7.83,9.49c-1.7,2.36-2.78,5.06-4.92,7.05-2.6,2.42-5.19,5.05-7.89,7.49a27,27,0,0,1-4,3.55,23.68,23.68,0,0,0-4.59,3.8c-1.75,1.86-3.49,3.81-5.36,5.47l-14.26,12.95c-2.23,2.1-4.46,4.2-6.7,6.19-4.4,3.79-8.8,7.47-12.86,11.63a87.33,87.33,0,0,1-8.27,7.83c-2.45,1.91-4.57,4.1-6.93,5.9s-4.15,4.27-6.42,6c-4,3-7.44,6.95-11.29,10-2.92,2.35-5.5,5-8.2,7.51-5.13,4.55-10.7,8.74-15.72,13.48-2.51,2.32-5.15,4.35-7.67,6.57-3.65,3.12-7.31,6.14-10.85,9.35-4.37,4.08-8.64,8.16-13.23,12.06-5.35,4.37-10.82,8.54-16.17,12.91-2.72,2.24-5.34,4.47-8,6.7s-5.15,4.35-7.68,6.47c-4.3,3.68-8.73,7.16-13.13,10.85-.19.11-.68.26-.45.64s.53.35.92.22c1.27-.41,2.44-.91,3.6-1.41,5-2.43,10.26-4.48,15.26-7,4.62-2.3,9.25-4.5,13.77-6.89a202.71,202.71,0,0,1,21.47-9.55c6.12-2.32,11.87-5.62,17.87-8.23,4.84-2.12,9.76-4.44,14.47-6.85,4.9-2.52,9.68-5.44,14.46-8.25a118.73,118.73,0,0,1,11.22-6.07c4.16-1.86,8.2-3.91,12.24-6,4.44-2.18,8.63-4.84,12.93-7.31,6.61-3.77,13.44-7.26,20-11,3.93-2.23,8-4.28,11.89-6.52s8.27-4.32,12.31-6.36,7.72-4.77,11.77-6.72c3.86-1.84,7.61-3.86,11.47-5.69,6.56-3.07,13-6.32,19.46-9.58,4.53-2.19,8.72-4.85,13.25-7,4.72-2.31,9.53-4.72,14.14-7.22,4.22-2.27,8.67-4.25,13-6.22,2.61-1.23,5.54-2.18,8-3.59s4.75-3.12,7.36-4.24c4.35-2,8.35-4.52,12.8-6.51,3.19-1.47,6-3.42,9.11-5,4-2.05,8.32-3.72,12.36-5.77a48.48,48.48,0,0,1,8.92-3.66,2.26,2.26,0,0,1-.56.45c-5.64,3.28-11.75,5.81-17.51,8.91-3.36,1.79-6.72,3.58-10,5.66s-6.27,4.14-9.3,6.31c-2.85,1.94-5.92,3.61-8.87,5.46-4.76,3-9.63,5.94-14.64,8.47-4.81,2.41-9.51,5-14.32,7.44-6.26,3.14-12.24,7.15-18.25,10.88-2.1,1.28-4.19,2.66-6.39,4-3.15,1.87-6.4,3.75-9.55,5.73-4.09,2.65-8.29,5.12-12.5,7.58-3.73,2.22-7.57,4.25-11.29,6.58-1.9,1.26-3.45,3-5.69,3.89a20.18,20.18,0,0,0-3.84,2c-6.76,4.29-13.62,8.68-20.37,13.07-.94.68-1.89,1.36-2.84,1.95a47.11,47.11,0,0,0-7.34,4.63c-3.22,2.28-6.55,4.37-9.76,6.75-4.16,3.06-8.66,5.65-12.91,8.72-8,5.9-16.9,10.26-25.64,14.82-6,3.11-12.26,5.76-18.22,8.87-5.68,2.89-11.47,5.59-17.27,8.19-9.19,4.09-18.48,8.09-27.91,11.7-5.35,2-10.44,4.69-15.89,6.76-3.89,1.44-7.67,3.06-11.44,4.68-7.46,3.15-15.15,6-22.48,9.54-1.83.85-3.79,1.42-5.39,2.66l-3-3.16a16.62,16.62,0,0,1,4.54-2.09c8.07-3.09,15.75-7.16,24.06-9.77,12.91-4,25.07-9.75,37.45-15.21,7.45-3.24,14.9-6.58,22.47-9.63,1.45-.63,2.8-1.25,4.15-2,5.36-3.07,11.47-4.39,17-7.27,8.36-4.42,16.84-8.55,25.31-12.88,1.82-1,3.52-2.21,5.36-3.06,5.79-2.7,10.44-7,15.78-10.37,5.52-3.48,10.82-7.24,16.36-10.62,5.81-3.61,11.61-7.51,17.42-11.11a109.77,109.77,0,0,0,11-7.46c2.82-2.25,6.14-3.33,9.1-5.19,4.76-3,9.86-5.55,14.73-8.47,7.16-4.32,14.21-8.83,21.47-13.16,3.82-2.23,7.54-4.55,11.36-6.88,3.62-2.22,7.27-4.23,11-6.16,4.71-2.4,9.53-4.82,14.12-7.42,6.52-3.66,13-7.22,19.31-11.37.66-.45,1.57-.43,2.07-1.58a32.14,32.14,0,0,0-6.45,3.16c-3.24,2.08-6.47,4.16-10.19,5.28a15.06,15.06,0,0,0-2.23,1c-6.75,3.18-13.5,6.46-20.23,9.94-3.27,1.69-6.75,3.19-9.92,5-5.45,3.17-11,6.05-16.7,8.94-6,3-12,5.94-18.12,8.86-4.25,2-8.28,4.12-12.3,6.46-3.81,2.33-7.75,4.47-11.69,6.51-5.28,2.76-10.68,5.43-15.85,8.37-6.88,4-13.9,7.6-20.8,11.5-4.22,2.37-8.31,4.92-12.55,7.09-4.9,2.52-9.8,5.14-14.83,7.37a64.29,64.29,0,0,0-7.18,4c-5.45,3.17-10.88,6.64-16.45,9.62-4.13,2.15-8.29,4-12.54,6-4.93,2.22-9.73,4.74-14.56,6.95-3,1.36-6,2.52-9,3.88-3.38,1.59-7,2.6-10.27,4.38-2.78,1.44-5.44,3.27-8.45,4.43a62.5,62.5,0,0,0-9.06,4.38c-1.83,1-3.58,1.61-5.49,2.77s-4.28,1.57-6.19,2.74c-3.92,2.34-8.46,3.22-12.62,5.08a67.65,67.65,0,0,1-7,3.1c-2.93.95-4.75,3.11-7.13,4.72-.28.22-.67.36-.53.85a6.48,6.48,0,0,0,3.08-.37c8-2.78,15.87-5.86,23.51-9.21s15.39-6.63,23-10.08c6-2.72,11.88-5.53,17.76-8.33,3.48-1.6,6.73-3.48,10.32-4.89-1.33.81-2.33,2.1-3.78,2.73-3.58,1.6-6.8,3.88-10.26,5.58-3.18,1.58-6.48,3-9.65,4.63-3.93,2.14-8.11,3.7-12.16,5.75-3.17,1.57-6.47,3-9.76,4.34-4.35,2-8.69,4.05-13.06,5.82-3.29,1.39-6.6,2.67-10,3.76-3.12,1.07-6.14,2.13-9.24,3.4a2.41,2.41,0,0,1-2.82-.07,1,1,0,0,0-1.31-.09c-1.52,1-3.26,1.79-4.56,3.1l-1.54-1.67,2.86-1.75c5.5-3.78,10.55-8.12,15.72-12.27,3.67-2.92,7.21-6.13,10.87-9.15,4.5-3.7,9.21-7.31,13.71-11.1,5.8-5,11.72-9.73,17.74-14.45,4.42-3.49,8.84-7,13-10.74,4.66-4.21,9.12-8.5,14-12.53,4.59-3.9,9.17-7.9,13.76-11.7,6.19-5.14,12.38-10.28,18.34-15.71,2.24-2,4.46-4.19,6.7-6.18,4.76-4.32,9.63-8.45,14.38-12.76,5.59-5.09,11.4-9.9,16.79-15.07,5.74-5.61,11.81-10.94,17.89-16.27s12-10.86,17.86-16.57c3.71-3.63,7.65-6.87,11.26-10.39,2.78-2.74,5.78-5.31,7.58-8.87,1.79-3.77,2.76-7.66,1.81-11.8s-.21-8.41.13-12.65c.25-3,.49-6.07.75-9,.28-3.73.67-7.48,1-11.33.28-2.63.47-5.15.95-7.8.57-4,.82-8.1,1.19-12.05a3.53,3.53,0,0,1,.69-2.46c-1.11,17.65-4,35.15-3.93,53.12a4.5,4.5,0,0,0,1.19-2.51A88.44,88.44,0,0,0,256.15,417a119,119,0,0,1,.27-13.37c.49-3.76,1-7.41,1.27-11.15.24-4.24.48-8.47.63-12.7.28-6.14.57-12.19.45-18.3-.18-5.71.24-11.46.15-17.18,0-4.41.56-8.87.78-13.31.22-5.74.44-11.38.15-17.17a154,154,0,0,1,.19-18,39.25,39.25,0,0,0-.45-7.59c-.35-3-.4-6-.66-9-.37-5.59-.44-11.1-.91-16.68-.43-5.08,0-10.14-.59-15.21,0-.49-.18-1,.29-1.43h0a2.92,2.92,0,0,1,.55,1.76c.08,2.21.27,4.4.35,6.6.15,2.9.19,5.7.33,8.6.29,4.59.48,9.19.87,13.78.25,3,.1,5.91.55,8.88a41.67,41.67,0,0,1,.77,7.87,172.64,172.64,0,0,0-.07,20.47,137.57,137.57,0,0,1-.64,23.24c-.5,4.76-.2,9.55-.5,14.29-.16,4,.19,8.12.23,12.13-.06,5.22-.13,10.35-.59,15.6-.37,5.05-.46,10-.84,14.93-.23,3.23-.77,6.39-1,9.62a94.79,94.79,0,0,0-.1,13.05,41.06,41.06,0,0,1-.29,6c-.31,3.44-.82,6.89-1.23,10.34a.49.49,0,0,0,.16.69c.32.27.49,0,.68-.26,4-3.45,8.24-6.92,12.16-10.47s7.61-7.26,11.42-10.9c3.24-3.18,6.38-6.36,9.73-9.45,2.7-2.54,5.17-5.36,7.55-8.07,1.65-1.85,3.18-3.88,4.83-5.73,2-2.28,4.34-4.48,6.36-6.66,3.3-3.69,6.29-7.56,9.27-11.42a59.49,59.49,0,0,1,5.32-6,74.44,74.44,0,0,0,5.63-6.9c1.36-1.73,2.95-3.16,4.41-4.89,1.82-2.17,3.44-4.41,5.26-6.57,3-3.57,6-7.14,8.7-11,2.07-2.88,4.44-5.69,6-9a10.46,10.46,0,0,0,1.18-5c-.09-3.5-.89-7.05-1.29-10.53a60.14,60.14,0,0,1-.42-8.49c.07-2.72.54-5.47.51-8.17a49.74,49.74,0,0,0-.56-6.68c-.49-3.37-1-6.64-1.74-9.89l-2-8.06a3.18,3.18,0,0,1,.92,1.43c1.75,4.06,2.22,8.44,4,12.51a44.16,44.16,0,0,0,5.91,10.54c.22.18.35.57.64.44s.27-.42.34-.73a13.53,13.53,0,0,1,0-2,33.25,33.25,0,0,0,1.66-8.87,60.07,60.07,0,0,0,.18-7.34,103.89,103.89,0,0,0-2.35-12.35,113.82,113.82,0,0,0-3.06-11.18,7,7,0,0,1-.38-4.48c3.3,12.86,6.8,25.72,13.41,37.4.26-1.73.51-3.46.67-5.18a36.14,36.14,0,0,1,2-10.6c2.06-5.3,1.62-10.48.27-15.68-.91-3.64-1.91-7.17-2.72-10.81-1.14-5.22-2.18-10.35-3.23-15.58-.49-2.27-.88-4.55-1.28-6.82a22.27,22.27,0,0,1,2.44,7.42c1.4,7,3.19,14,4.89,21,.47,2.07,1.63,3.88,2.11,5.95a108.69,108.69,0,0,0,3.13,10.87,9.1,9.1,0,0,0,1.45,3c.68-1.47.37-2.84.55-4.16.37-2.75,2.1-4.9,2.89-7.37,1.52-4.55,2.55-9,1.74-13.9-.35-1.68-1.09-3.32-1.33-5-.81-4.84-1.64-9.79-2.35-14.65-.58-4.47-1.46-8.91-2.13-13.37-.26-1.78-.41-3.58-.57-5.47l.4,0,2.63,13.32c.85,4,1,8.25,1.86,12.39a162.84,162.84,0,0,0,6,21.47c.13.29.06.69.56.65a1.46,1.46,0,0,0,.21-1.12,22.26,22.26,0,0,1,3.47-11.13A29.37,29.37,0,0,0,398.1,228a31.14,31.14,0,0,0-.42-8.6c-.45-4.08-.8-8.26-1.25-12.34-.86-6.55-1.82-13.19-2.68-19.74-.25-1.79-.3-3.59-.55-5.37.88,6.85,2.46,13.64,3.44,20.48,1.27,9.12,2.25,18.27,5.11,27.16a7.27,7.27,0,0,0,.91,2.44c1.49-2.54,2.36-5.32,3.75-7.85a29.26,29.26,0,0,0,3.76-11.26,51.46,51.46,0,0,0,.33-10.36c-.72-6.16-1.94-12.28-2.47-18.46-.68-8.07-2.44-15.85-3.33-23.9-.07-.9-.66-1.85,0-2.81a17.81,17.81,0,0,1,.89,3.34c.65,5.26,2.29,10.44,2.74,15.72.37,4.39,1.34,8.72,1.82,13.2.8,7,2.88,13.9,4.86,20.66a.46.46,0,0,0,.54.45c1-2.39,2-4.88,3-7.27a36.4,36.4,0,0,0,3.28-12.23c.16-4,.32-8,.58-12.09a67.71,67.71,0,0,0,0-11c-.73-6.16-1-12.36-1.48-18.55-.21-3.69.28-7.45,0-11.13a1.59,1.59,0,0,1,.59-1.36h0c.86,4.25-.08,8.54.58,12.8.41,2.47.14,5.11.35,7.6.17,2,.54,4.07.72,6.16.45,5.28.69,10.48,1.23,15.75.31,3.59.82,7.26,1.33,10.93,0,.4,0,.9.39,1s.45-.54.53-.85c1-3,1.89-6.08,3.67-8.74a11.5,11.5,0,0,0,1.61-3.55c1.09-3.7,1.27-7.43,2-11.1a79,79,0,0,0,.67-16.92c-.21-4.9-1-9.85-1.45-14.73-.35-4.19-.62-8.48-1-12.76h0a12.75,12.75,0,0,1,1.44,6.3c.45,6.58,1.2,13,2.16,19.58a24.77,24.77,0,0,1,.26,6.61,5.31,5.31,0,0,0,.33,2.78,9.21,9.21,0,0,1,.51,3.67c-.06,2.81-.21,5.74-.17,8.64,0,1.41-.05,2.92,1.06,4.23a15.69,15.69,0,0,0,.46-4.16c.83-5.59,2.68-11,3.62-16.46.74-4.28,1.18-8.53.12-12.76a88.65,88.65,0,0,1-2-11.37c-.53-4-.07-7.92-.8-11.87-.56-3.07-1.12-6.13-1.69-9.3a30.5,30.5,0,0,1-.23-7.4,3.38,3.38,0,0,1,.47,2c.27,2,.44,4,.8,5.86.64,4.06,1.88,8.07,2,12.17a116.3,116.3,0,0,0,3.23,22.71,71.38,71.38,0,0,0,3.91,11.81c.24-1.93.41-3.45.48-5.06a32.24,32.24,0,0,1,.81-7,48.06,48.06,0,0,0,1-18.15c-.49-3.47-1.4-7-1.6-10.6a62,62,0,0,0-1.79-12.8,3.64,3.64,0,0,1-.09-2.3.7.7,0,0,1,.46.67c.66,4.26,1.43,8.61,2.09,12.87s1.32,8.52,2.38,12.74c.76,3,2.11,5.94,2.87,9a5.33,5.33,0,0,0,1.15,2.91c.13-.91.26-1.72.3-2.43a78.27,78.27,0,0,1,3.3-16.74c1.27-3.92,2.54-7.94,1.77-12.29a35,35,0,0,1-.88-5.55c-.29-5.89-.49-11.8-.9-17.78-.18-3.3-.26-6.61-.34-9.91,0-.71.08-1.41.13-2a39,39,0,0,1,.72,5c.22,3.69.33,7.4.64,11.08.23,2.69.47,5.48.59,8.18a39.33,39.33,0,0,0,.75,7.57c1,3.72,1.93,7.46,2.85,11.2.13.39-.11,1,.49,1.06s.46-.54.62-1l.48-1.54a27.62,27.62,0,0,1,6.08-11.06,11.73,11.73,0,0,0,2.89-5c.71-2.37,1.52-4.64,2.22-7,.86-2.88,1.61-5.86,2.36-8.83,1.64-6.76,2.77-13.58,4.3-20.34A38.75,38.75,0,0,1,485,56.85c-.47,3.95-1.35,7.74-1.93,11.6-.83,5.49-2.09,10.82-3.44,16.25-.75,3-1.71,5.87-1.74,9.08a33.31,33.31,0,0,1-.68,8.49c-.23.82-.37,1.54-.61,2.26,2.19-2.59,4.48-5.1,5.92-8.23s2.67-6.45,4.22-9.49c4.46-8.91,8.62-17.89,12.67-27,.33-.83.87-1.57,1.3-2.41.21.18.24.48.05.59-2.82,7.07-5.74,14-9,20.84s-6.16,13.67-9.31,20.36c-.68,1.46-1.56,2.94-1.63,4.45-.15,2.92-.91,5.8-1.27,8.74a29.38,29.38,0,0,1-1.74,6.67c-.16.41-.42.94,0,1.2s.79-.16,1.07-.39a59.65,59.65,0,0,0,5.24-3.35c1.69-1.35,3.28-2.79,5-4.14,8.72-7.16,16.57-15.25,24.21-23.43a39.34,39.34,0,0,1,4.89-5Zm-67.69,87c-.43,2.05-.86,4.09-1.17,6.32,2.1-1.28,4.35-1.87,6.47-3,2.7-1.34,4.21-3.67,6.14-5.74,1.28-1.42,1.61-3.45,2.69-4.95.36-.43.39-1.33,1.34-.81a1.45,1.45,0,0,0,.28-.23,10.76,10.76,0,0,0,1.61-3.45,15.43,15.43,0,0,0-7,3,47.61,47.61,0,0,0-5,4.24,14.13,14.13,0,0,0-3.75,4.33c-.25.62-1,.48-1.5,0,0-2.21,1.61-3.45,2.8-4.86,3.11-3.57,4-7.76,3.89-12.17a20.6,20.6,0,0,0-.57-5.47c-1-3.33-2.16-6.54-3.34-9.85-.66-1.86-1.21-3.61-1.9-5.86-.46,1.74-.23,3.23-.51,4.66-.61,3.46-1.32,6.93-1.73,10.38a30.22,30.22,0,0,0-.1,9.54,8.28,8.28,0,0,1-.22,4.44,3.87,3.87,0,0,0,.32,2.58c.68,2.15.58,4.46,1.26,6.61C450.84,170.54,450.54,170.56,450.56,170.76ZM259.26,439.48c2-2.68,3.65-5.53,6.37-7.77s5.13-4.65,7.63-7.07c3.8-3.73,7.61-7.37,11.4-11.2,3.14-3.18,6.07-6.54,9.11-9.71,6.29-6.35,12.36-12.89,18.63-19.34,3.88-4,7.32-8.45,11.08-12.58,2.11-2.39,4.1-4.86,6.1-7.34,1.54-1.94,2.75-4.25,4.51-6,5.54-5.69,10.22-12,15-18.24,2.08-2.68,4.05-5.46,6.35-8,1.28-1.41,2.34-3.11,3.94-4.35.76-.56.91-1.08-.21-1.29a4.92,4.92,0,0,1-2.14-1.62c-.78-.94-1.11-1.21-1.49.23-.87,2.78-2.77,5.15-4.48,7.5-4,5.66-8.5,11.06-13,16.45-2.53,3.23-5.39,6.18-7.94,9.31-1.91,2.37-3.7,4.93-5.82,7.11A143.91,143.91,0,0,0,315,376.85c-3.81,4.84-8.47,9-12.27,14-3.17,4-6.66,7.79-10.06,11.49-2,2.18-4.47,4.1-6.61,6.08-1.31,1.22-2.48,2.72-3.78,3.94a31.47,31.47,0,0,1-2.71,2.43c-2.9,2.46-5.37,5.28-8.28,7.63-2.35,1.91-4.36,4.28-6.71,6.09-1.51,1.13-2.7,2.54-4.2,3.77l-4.5,3.69a1.88,1.88,0,0,0-.84,2c.19,1.09.09,2.2.18,3.29,0,.5-.32,1,.31,1.28s.88-.27,1.15-.6a1.26,1.26,0,0,1,.46-.54A4.47,4.47,0,0,0,259.26,439.48ZM422.82,194a38.48,38.48,0,0,1-2.81,9.47,62.37,62.37,0,0,0-3.58,9.84c-.38,1.43.32,2.68.63,4a48.07,48.07,0,0,1,1.7,14.1,1.7,1.7,0,0,0,.16.69,21.91,21.91,0,0,0,2.46-1.71,20.59,20.59,0,0,1,8.2-3.91,12.84,12.84,0,0,0,7.34-4.63c1.28-1.52,2.35-3,3.52-4.62a46.54,46.54,0,0,1,7.08-7.62,49.14,49.14,0,0,0,4.53-4.6c-3.2.17-6.05.81-8.18,3-4.23,4.47-9,8.29-12.62,13.31-.36.44-.72,1-1.26.51s-.07-.9.2-1.22c1-1.19,2-2.38,2.9-3.66,2-2.87,4.91-4.83,7.32-7.24.45-.54,1.13-.8,1.16-1.71-1.81.06-3,1.16-4.57,1.8-.49.14-.85.57-1.25.6-2.5.12-3.87,1.74-5.12,3.55-.62,1-1.69,1.35-2.29,2.6s-.78,2.58-1.28,3.82a14.06,14.06,0,0,1-5.79,7.52c-.48.24-.92,1-1.48.32s-.1-1.29.46-1.74a22.61,22.61,0,0,0,2.67-2.84c2.66-2.93,3.36-6.5,3.55-10.23a49.16,49.16,0,0,0-.91-10.76c-1-5.44-1-11.05-1.81-16.61,0-.3.05-.61-.37-.77C423.14,188.24,423.17,191.05,422.82,194Zm24.54-18.34c2.19-3.8,2.05-7.8,1-11.83a76.07,76.07,0,0,0-3.65-12.33c-.13-.29-.16-.69-.67-.85a28.48,28.48,0,0,0-.77,4,75.59,75.59,0,0,1-2.83,11.68c-1.23,4.42-1.05,8.92-.57,13.3.08,1-.67,1.66-.58,2.65a76.65,76.65,0,0,1-.41,10.58c-.07,1.51,0,1.5,1.38.88a11.59,11.59,0,0,1,4-1c.9,0,1.18-.2,1.19-1.31.09-3.72,1-7.81,6.11-9.65a11.87,11.87,0,0,0,2.75-1.83,9.21,9.21,0,0,1,4.44-2.09,2.42,2.42,0,0,0,1.54-.73c.37-.43,1-.48,1.22.1s.5,1.16-.38,1.44a4.67,4.67,0,0,1-1.08.29c-2,.07-3.61,1.21-5.23,2.25a18,18,0,0,1-3.25,2,8,8,0,0,0-4.5,8.41c.07.8.45.56.84.43a30.9,30.9,0,0,0,4.86-3,33.89,33.89,0,0,0,8.61-9.76,31.87,31.87,0,0,1,4-5,2.33,2.33,0,0,0,.87-1.58,8.75,8.75,0,0,0-3.14.87,25,25,0,0,1-6.32,2.34c-3.63,1-6.67,3-9.83,4.75a7.14,7.14,0,0,0-2.18,2.69,27.59,27.59,0,0,0-2.71,4.75c-.16.51-.39,1.34-1,1.09s-.39-1.07-.24-1.69a19.24,19.24,0,0,1,4.21-7.18l.55-.65a1.53,1.53,0,0,0-.88-2,.82.82,0,0,1-.39-1.07,24.49,24.49,0,0,1,.79-2.48c1.88-5.07,1.16-10-.07-15l-.16-.69c0-.3-.15-.59.24-.73a.57.57,0,0,1,.64.35c.24.48.39,1.07.64,1.65a33.48,33.48,0,0,1,.4,15.42,18.32,18.32,0,0,1-.88,2.59A13.78,13.78,0,0,0,447.36,175.65Zm10.79-48c-.7,4.77-1.71,9.48-1.1,14.34.15,1.79,1.19,3.31,1.54,5.09a30.94,30.94,0,0,1-.36,13.58c-.06.41-.43.84,0,1.1s.69-.16,1.08-.29c4.8-2.51,8.18-6.51,11.32-10.79a20.17,20.17,0,0,0,1.8-3.67c1.19-2.51,3.35-4.3,4.85-6.73.27-.33.64-.76.41-1-.34-.47-.79.07-1.08.19-2.34.9-4.28,2.77-6.83,3.49a14.39,14.39,0,0,0-7.38,5.34.94.94,0,0,1-1.17.4c-.51-.15-.36-.67-.29-1.08a4.6,4.6,0,0,1,1.76-2.86c3.95-3.14,4.6-7.31,4.2-12.09-.48-4.48-1.84-8.68-2.71-13a35.47,35.47,0,0,0-1.08-5.63c-.13-.39-.18-.89-.7-1.15A73.06,73.06,0,0,0,458.15,127.67Zm24.57-8.51c-1.82,1.06-3.53,2.21-5.25,3.26a25.89,25.89,0,0,0-7.26,6.73c-.18.22-.26.43-.45.54-.28.33-.76.57-1.09.2a.66.66,0,0,1,0-1c1.85-1.86,3.15-4.18,5-5.94,2.68-2.74,3.61-6,4.41-9.61.5-2.35.9-4.69,1.3-7.13a3.18,3.18,0,0,0,.13-.82c0-.6.18-1.42-.44-1.67s-.86.58-1.23.91a50.6,50.6,0,0,1-4.51,4.8,19,19,0,0,0-4.45,6.7,24.76,24.76,0,0,1-1.68,2.65,9,9,0,0,0-.43,6.86c1.54,5.09,2.18,10.25.72,15.49-.08.31-.45.64-.13.92s.6,0,.89-.18c4.29-1.47,6.5-5,8.72-8.46a78.31,78.31,0,0,0,4-8.17c1.28-2.72,3.4-4.91,5.1-7.36.45-.64.9-1.18,1.35-1.82C485.73,116.9,484.34,118.22,482.72,119.16ZM415.53,221.7a48.76,48.76,0,0,1-2,19.14c-.31,1-.62,2.16-.83,3.18-.08.31-.15.61.07.8s.49,0,.68-.16a.88.88,0,0,0,.54-.85c.06-1.61,1.05-2.9,1.53-4.34a29.69,29.69,0,0,0,1.17-17.06c-.45-1.77-.31-3.59-1.74-5.08-.88-.92-.3-2.38-.41-3.67-.23-2.69-1.34-5.21-1.86-7.77l-.4,0c-.16,1.62-.32,3.34-.38,5a34.24,34.24,0,0,1-3.79,13.37,74.81,74.81,0,0,0-4.37,10,2.09,2.09,0,0,0-.21,1.12c1,4.44,1.47,9,2.06,13.58a.51.51,0,0,0,.23.38c1.39-1.42,2.65-3,4.72-3.51a.54.54,0,0,0,.47-.34c.51-3.56,2-6.8,2.85-10.28a48.44,48.44,0,0,0,.68-13.2c-.08-1-.06-1.91-.17-3.2A4,4,0,0,1,415.53,221.7ZM398.7,233.87a2.93,2.93,0,0,0,.47-.44c.36-.44.06-1.62.89-1.28.62.24.09,1.09,0,1.7-.51,3.45-2.15,6.6-3.06,10a44.45,44.45,0,0,0-1.64,12.69c0,.8,0,2,.7,2.25s1-1,1.26-1.62c1.68-3.85,3-7.77,2.49-12.05a13.37,13.37,0,0,1,.36-2.94c.79,1,.57,2.06.66,3.05a25.72,25.72,0,0,1-4.46,16.14,1,1,0,0,1-1.05.59c-.61-.05-.55-.56-.68-.95a32.5,32.5,0,0,1,.49-14.29,72.31,72.31,0,0,1,3.08-9.89c.26-.43.6-1.16.15-1.72a.41.41,0,0,0-.29.12c-2.78,6.26-6,12.35-6.28,19.4a35.57,35.57,0,0,0,.81,7.26c.2,1.09.39,2.17.68,3.25.17.79.48.87,1,.22a2.55,2.55,0,0,0,.63-.86,7.18,7.18,0,0,1,4.72-3.61,3.16,3.16,0,0,0,2.13-2.09,50.65,50.65,0,0,1,2-4.78c.43-.84.13-2,.24-3a35,35,0,0,0-1.22-12c-.9-3.53-1-7.14-2.29-10.54-.13-.29-.07-.8-.7-1.14Zm36.48-64.51c-.73.76-.44,1.84-.57,2.65-.44,2-.87,4-1.11,5.92a14.55,14.55,0,0,1-2.12,4.59c-2.35,4.22-3.56,8.84-4.78,13.46-.37,1.53.16,3.09.29,4.59.19,2.29.49,4.57.78,6.86.05.59-.06,1.61.65,1.75s1.26-.51,1.61-1.14c2.48-3.93,4.87-7.74,6.08-12.36a48,48,0,0,0,1.83-12.7c0-2.61-.93-5.14-1.64-7.59-.37-2-.74-3.95-1-6ZM413,271.7a9.29,9.29,0,0,0-2.88.44c-5.28,1.65-10.74,2.32-15.78,4.45a33.45,33.45,0,0,0-10.38,6.6,4.65,4.65,0,0,0-1.27,2.72,10.86,10.86,0,0,1-.91,3.49,4.35,4.35,0,0,0,3.93-2.14,8.19,8.19,0,0,1,2.25-1.9c3-2,5.65-4.39,8.69-6.45,2.38-1.51,5-2.24,7.52-3.55.29-.23,1-.29,1.13.2s-.35.63-.54.85a13.39,13.39,0,0,1-3.85,1.83,20.25,20.25,0,0,0-5.46,3.17c-2.33,2-5,3.64-7.35,5.55a2.19,2.19,0,0,0-.64.75,30.12,30.12,0,0,1,8.43-1.11,2,2,0,0,0,1.08-.3,115.06,115.06,0,0,0,11-10.06c1.48-1.53,3.63-2.21,5.1-3.74-.23-.39.07-.41-.06-.8Zm15.61-57.32c1.53-3.25,4.85-4.43,7.49-6.36a15,15,0,0,1,3.5-1.3,24.71,24.71,0,0,0,12.13-9.66,49.83,49.83,0,0,1,6.15-6.84c.46-.44,1.41-1.13,1-1.59-.56-.65-1.29.21-1.86.56a20.26,20.26,0,0,1-5.07,3c-1,.28-1.16,1.6-2,2.08a24.72,24.72,0,0,1-2.2,1.29c-3,1.35-5.87,2.9-7.85,5.58-.27.42-.72,1.06-1.26.51s-.1-1.1.28-1.33a19.87,19.87,0,0,1,6.69-5.18c.67-.36,1.35-.62,2-1-1-.41-5.39.36-6.46.85a7.8,7.8,0,0,0-4.28,5.08c-1.08,3.9-4.27,6.48-6.42,9.58a1.59,1.59,0,0,1-1.24.7c-1.41-.08-1.25.71-1.17,1.61a14.69,14.69,0,0,1,.08,2.1l.52.26Zm-8,42.22c-1.26.51-2.33.9-3.49,1.5-3.17,1.67-6.65,2.07-10.12,2.56a32.27,32.27,0,0,0-8.42,2.42,4.05,4.05,0,0,0-1.77,1.66c-.7,1.16-1.39,2.52-3.09,2.57-.4,0-.48.24-.45.64a14.12,14.12,0,0,1-.95,7.71,8.49,8.49,0,0,1,1.56-.54c.59-.15.76-.46.52-.95-.36-.67-.09-1.09.58-1.45,3.09-1.47,6.28-2.84,9.35-4.51a23.23,23.23,0,0,0,3.84-3.23c.94-.78,1.77-1.66,2.71-2.44.37-.33.82-1,1.37-.32s-.2,1.13-.58,1.46a49.71,49.71,0,0,1-8.18,6.41c-2,1.18-4.15,2-6.27,3a2.07,2.07,0,0,0-1.29,1.32c1.82-1,3.85-.73,5.34-2.06.57-.45,1.38-.32,2.06-.58a24.92,24.92,0,0,0,10.26-8,37.2,37.2,0,0,1,6.31-6.16,1.15,1.15,0,0,0,.71-1.06Zm-7.72,1.26a12.22,12.22,0,0,0,3.43-2.1c4.85-4.33,8.61-9.76,12.79-14.94a3.11,3.11,0,0,0-2.75.74c-2.39,1.41-5.08,1.63-7.6,2.65a91.55,91.55,0,0,0-8.64,3.54,16.17,16.17,0,0,0-4.49,3.8.85.85,0,0,0-.25.62,14.45,14.45,0,0,1-1.58,7.36C406.82,258.57,410,259,412.88,257.86Zm-25.31-9.7c-.86.57-.49,1.34-.55,1.85a30.65,30.65,0,0,1-3.49,10.93c-1.31,2.32-1.39,4.84-1.47,7.46-.08,1.41-.47,2.74.24,4.09a.6.6,0,0,1-.06.41c-1.22,1-.31,2.23,0,3.21.44,1.67.59,3.36,1,5.13,1.22-.91,2.59-1.42,2.83-3.25.19-1.32,1.31-2.32,2.12-3.39,2-2.58,1.75-5.47,1.69-8.47,0-2.31-.29-4.6-.29-7,1.47,1.88.86,4.24,1.35,6.4s0,4.42-.22,7c1.81-2.36,1.31-4.73,1-7a133.88,133.88,0,0,0-3.3-15.28,4,4,0,0,0-.87-2Zm-2.86,56.24c-2.35,3.11-5.72,4.8-8.62,7.25a2.63,2.63,0,0,0,2.3-.09c3.29-1.38,5.79-3.9,8.41-6.13,1.58-1.54,3.26-3,4.95-4.34a3.45,3.45,0,0,0-2.44-.39,43.79,43.79,0,0,0-8.84,1.05,18.17,18.17,0,0,0-7.66,3.16c-2.46,1.81-5.13,3.44-7,5.81l-.27.33c-.46.44-1.32-.19-1.56.53-.3,1.23-.5,2.45-.69,3.67,7.72-2.36,15.2-5.3,21.46-10.85Zm-4.49,13.43a6.7,6.7,0,0,0-4,1.44A30,30,0,0,1,366.3,324a19.77,19.77,0,0,0-2.52,1c-.77.47-1.86.56-2.26-.51s.6-1.26,1.39-1.42c3.24-.88,6.34-2.15,9.45-3.31,3.71-1.32,6.93-3.5,10.41-5.1a8.29,8.29,0,0,0,3-2.26c-2.58.32-5.3.25-7.86.86-1,.19-2.05.58-3-.14a.61.61,0,0,0-.8.07c-1.12,1-2.62,1-4,1.24-3.56.7-7,1.89-9.45,4.61-1.29,1.32-2.34,3.11-1.46,5.25a3.06,3.06,0,0,0,2,1.63,10.24,10.24,0,0,0,7.08-.6,48.38,48.38,0,0,0,5.12-2.34,52,52,0,0,0,6.78-5.19Zm-1.13-18.07c1.7-.15,3.42,0,5.1-.23s3.1-1.37,4.63-2.2c3.37-1.69,5.84-4.51,8.66-6.86a10.32,10.32,0,0,1,2.36-1.7c.29-.13.67-.36.55-.65s-.52-.16-.82-.23c-2.11,0-4.18.45-6.19.42-4.33-.13-8,1.68-11.55,3.49a23.75,23.75,0,0,0-6.11,4.83c-1.39,1.42-1.49,1.33-2.73-.17-.5,2.35,0,4.82-1.31,6.94,3.77-1.63,6.32-4.75,9.19-7.61a20.7,20.7,0,0,1,7.06-4.31.58.58,0,0,1,.4.07.33.33,0,0,1,.05.5,2.53,2.53,0,0,1-1.41,1.12c-3.29,1.48-5.48,4.08-7.88,6.59ZM364.5,309.93c1.22-2.21,3-3.47,4.81-4.83a.73.73,0,0,0,.45-.64c.11-2.21,1.35-4.23,1.57-6.35a21.47,21.47,0,0,0-.47-6.69c-.61,1.06-.51,1.05-.39,2.54a16.57,16.57,0,0,1-2.73,11.58c-.36.43-.62.95-1.24.7s-.29-1-.22-1.38c.29-1.33,1.31-2.32,2-3.48a11.17,11.17,0,0,0,1.2-7.23,36.11,36.11,0,0,1-.38-5.69,6,6,0,0,0-.5-3.47c-.7-1.15-.82-2.54-1.42-3.79-.83-1.44-1.45-2.89-2.19-4.43a2,2,0,0,0-.54,1.85,37,37,0,0,1-1.5,12c-.61,2.26-.22,4.43,0,6.62.36,4.19,1.6,8.2,1.46,12.43-.11-.1,0,.1.12.29Zm-10.08-6.48c.92-1,1.25-.6,1.32.19q.79,5.81,2.18,11.56a3.4,3.4,0,0,1,.19,1c0,.5-.14.71-.67.36a3.08,3.08,0,0,1-1.54-2.68c.2-2.43-.59-4.67-1-7.24-1,1.58.81,13.17,2.05,14.68,1.19-1.31,1.94-3.08,3.34-4.3a.5.5,0,0,0,.17-.42c-.9-2.33,1.18-3.81,1.73-5.66a11.83,11.83,0,0,0,.23-6.75c-.69-2.15-.58-4.46-1.85-6.46s-2.18-4.34-3.92-6c-.88-.83-1-2-2.08-3.14a82,82,0,0,1-.14,14.86Zm19.74-9.8a7.27,7.27,0,0,1,.72-1c2.32-2.31,3-5.27,3.52-8.23a18.4,18.4,0,0,0,.52-4.56,49.39,49.39,0,0,0-.65-7.67c0-.3-.25-.58.14-.72s.51.16.54.46a31.32,31.32,0,0,1,.76,4.25c.24,2.79.38,5.69.42,8.5a14.49,14.49,0,0,1-1.48,6.24c-.17.32-.74.77-.11,1.12s1-.49.94-.79c0-2.2,2-4,1.27-6.33a4.4,4.4,0,0,1,.23-.82,6,6,0,0,0,.7-4.77,108,108,0,0,0-4.62-15.47c-.13-.29-.15-.59-.55-.55s-.26.42-.34.73c-.79,3.68-1.79,7.27-2.89,10.88a18.7,18.7,0,0,0-.51,4.66c-.11,1-.33,2-.35,2.94a28.11,28.11,0,0,0,.29,5.8,12.88,12.88,0,0,0,1.45,5.29ZM416,243.74c2.59-1.42,5.27-1.75,7.78-2.87,2.14-.88,4.17-1.75,5.63-3.48a43.86,43.86,0,0,0,5-7.86A23.09,23.09,0,0,1,437,225.3l-.22-.28c-2.13.88-4.17,1.66-6.5,2.66s-4.55,2-6.75,3.18c-3.37,1.69-5.69,4-6.37,7.76a45.37,45.37,0,0,1-1.17,5.12Zm49.43-124.82a12.26,12.26,0,0,0,2.2-3.7,32.14,32.14,0,0,1,4.91-7.14c2.49-2.62,3-5.87,3.39-9.72C470.54,104.54,466.46,110.91,465.43,118.92ZM388.84,277.35c1.13-.89,1.31-2.31,1.8-3.56l-.31-.17-1.82,3.46.33.27ZM387,312.14c-.28.22-.67.45-.34.73.53.35,1-.19,1.37-.42.19-.12.56-.45.25-.62-.44-.47-.79.16-1.28.31Z" transform="translate(-34.79 -16.75)"/><path class="c" d="M34.79,630.41c3.89-3.74,8.25-6.82,12.37-10.28,3.37-2.89,6.65-5.68,10.12-8.48,2.44-2,4.87-4.13,7.31-6.14,1.87-1.57,3.75-3.13,5.63-4.6,2.64-2,5.4-3.76,7.83-5.88,3.38-2.79,6.87-5.4,10.35-8.2,5.91-4.82,11.94-9.44,17.86-14.26,4.59-3.8,8.86-7.88,13.35-11.77,2.33-2.1,4.56-4.2,6.9-6.2,2.62-2.23,5.35-4.37,8-6.7,3-2.56,5.67-5.4,8.56-7.95,5.41-4.88,10.6-9.93,16.11-14.81,4.47-4.1,8.51-8.55,13-12.74s8.91-8.59,13.37-12.78c7.26-6.74,14.63-13.28,22.11-19.74,3.93-3.34,7.76-6.78,11.69-10.12,3.18-2.78,6.24-5.75,9.2-8.71,3.87-4,7.85-8,11.3-12.3,2.09-2.58,4-5.35,5.83-8.12a6.87,6.87,0,0,0,1.62-3.45,44.69,44.69,0,0,0,.16-6.33c-.11-2.5.18-5,.26-7.65.19-6-.42-12.11-.13-18.16.16-4,0-8,.19-12,.22-5.64.56-11.09.89-16.74.21-4.63.1-9.44.41-14.08.37-6.26,1.24-12.55,1.43-18.69s.67-12.2.95-18.35c.23-5.54.37-11.07.69-16.72.15-4.12.4-8.36.75-12.5.25-2.94.5-5.87.47-8.67-.08-4.51.24-9,.26-13.47,0-6.32.85-12.52,1.31-18.88l.22-3.33c.08-.21,0-.5.36-.53s.33.37.25.58a13.44,13.44,0,0,0-.17,2.82c-.3,3.54-.59,7.18-.89,10.71-.3,4.75-.21,9.45-.31,14.18-.08,3.72-.37,7.46-.46,11.18,0,4.52-.44,9-.66,13.5-.25,5.34-.69,10.8-.64,16.11,0,5.12-.53,10.29-.6,15.41,0,2.51-.38,5.05-.46,7.57-.24,4.33-.48,8.57-.92,12.82-.4,3.65-.59,7.28-.78,11-.22,5.64-.14,11.36-.57,16.91-.16,2.83-.23,5.64-.29,8.46,0,1.91,0,3.71,0,5.62-.12,3.42-.34,6.75-.16,10.05.14,4,.18,8,.21,11.92a113.68,113.68,0,0,0,.3,13,12.26,12.26,0,0,1-3.28,9.81c-3.29,3.79-6.78,7.7-10,11.38s-6.28,7.56-9.8,11c-4.92,4.73-10.17,9.09-15.31,13.64-4.48,3.89-9,7.68-13.37,11.57-4.19,3.77-8.17,7.82-12.37,11.49-5.14,4.54-9.94,9.47-14.86,14.2-3.8,3.63-7.37,7.75-11.49,11.21-2.15,1.89-4,4.05-6,6-3.26,3-6.75,5.69-9.78,9a109.07,109.07,0,0,1-8.65,8.06c-2.9,2.45-5.93,4.61-8.63,7.15-4.64,4.41-9.51,8.53-14.36,12.86s-9.82,8.46-14.91,12.4c-8.47,6.64-16.81,13.57-25.5,20-5.09,3.84-9.76,8-14.53,12.07S46.7,623,41.83,627.11c-1.78,1.45-3.78,2.73-5.13,4.55Z" transform="translate(-34.79 -16.75)"/><path class="c" d="M257.55,238.1c1.05,1.72.3,3.49.45,5.28.06.7.44,1.57-.2,2.33h0c-.84-1.64-.39-3.38-.42-5-.08-.89-.67-1.95.17-2.62Z" transform="translate(-34.79 -16.75)"/><path class="c" d="M255.92,246.07l-.44,4.25a6.37,6.37,0,0,1-.07-4.31Z" transform="translate(-34.79 -16.75)"/><path class="c" d="M432.2,122.34a28,28,0,0,1-.49-5.78,14.12,14.12,0,0,1,.49,5.78Z" transform="translate(-34.79 -16.75)"/><path class="c" d="M421.59,136.79c-.92-1.33-.35-2.88-.57-4.27a9,9,0,0,1,.57,4.27Z" transform="translate(-34.79 -16.75)"/><path class="c" d="M257.55,238.1a2.21,2.21,0,0,0-.63-.35c-.4-.06-.79.17-.75-.54s.38-.33.88-.27.37-.43.76-.57c-.06.51.2,1.19-.26,1.73Z" transform="translate(-34.79 -16.75)"/><path class="c" d="M518.24,83.64a15.21,15.21,0,0,1,2.83-3.36,13.08,13.08,0,0,1-2.83,3.36Z" transform="translate(-34.79 -16.75)"/><path class="c" d="M425.24,207.13a45.49,45.49,0,0,1-.06,5.22,15.53,15.53,0,0,1-1.73,8c-.53.95-.52,2.25-1.66,2.95-.48.24-1,.89-1.47.42s0-1.1.27-1.52a22.59,22.59,0,0,0,3.34-9.22c.32-2.13.13-4.33.65-6.48C425.2,206.63,425.12,206.94,425.24,207.13Z" transform="translate(-34.79 -16.75)"/><path class="c" d="M463.65,125.09a20.24,20.24,0,0,1,.88,6.85,44.47,44.47,0,0,1-1.29,7.24,10.22,10.22,0,0,1-3.11,6c-.37.34-.74.77-1.27.41s-.18-.89.09-1.31a39.78,39.78,0,0,0,3.48-7.52,17,17,0,0,0,.54-9,45.84,45.84,0,0,1-.94-5.14c0-.3-.06-.7.33-.83a1.52,1.52,0,0,1,.52.16C463.18,123.13,463.36,124.11,463.65,125.09Z" transform="translate(-34.79 -16.75)"/><path class="c" d="M469.33,150.71a43.59,43.59,0,0,1-6.38,6.36,1.35,1.35,0,0,1-1.72-.16c-.54-.35,0-1,.18-1.42a7.11,7.11,0,0,1,1-1.39c.38-.33.71-1.16,1.35-.71s-.22,1-.38,1.43a1.25,1.25,0,0,0,.14.49c1.87-1.66,3.63-3.31,5.4-5Z" transform="translate(-34.79 -16.75)"/><path class="c" d="M471.28,137c-.39.14-.77.37-1.1,0s0-.81.3-1.13a18.19,18.19,0,0,0,1.49-1.34c1.85-1.86,3.15-4.28,4.68-6.41.45-.54.74-1.87,1.81-1.16s-.08,1.51-.22,2.23l-.09.1A74.59,74.59,0,0,0,472.4,136,2.14,2.14,0,0,1,471.28,137Z" transform="translate(-34.79 -16.75)"/><path class="c" d="M473.21,119.47c.23-.83.57-1.56.81-2.28.55-1.75,1.1-3.61,1.65-5.36.08-.31.14-.71.54-.75s.54.46.57.86a1.51,1.51,0,0,1,0,.7,44.2,44.2,0,0,1-2.69,7.26c-.18.31-.35.63-.78.36A.6.6,0,0,1,473.21,119.47Z" transform="translate(-34.79 -16.75)"/><path class="c" d="M406.09,244.08a20.06,20.06,0,0,1-.06-5.42,36.89,36.89,0,0,1,3.67-13.55,15.39,15.39,0,0,0,1.63-5.66c.06-.51.2-1.22.9-1.18s.39,1,.32,1.38A28.5,28.5,0,0,1,411,225.3a25.2,25.2,0,0,0-2.6,7.14c-.53,3.26-1.66,6.46-1,9.82a3.93,3.93,0,0,1-.2,2.42c-.17.32-.33.73-.87.28C406.45,244.75,406.32,244.46,406.09,244.08Z" transform="translate(-34.79 -16.75)"/><path class="c" d="M431.69,198a37.87,37.87,0,0,0,3.9-16.69c0-.3-.17-.79.33-.83s.54.46.58.86a30,30,0,0,1,.05,3c-.13,4.43-2,8.5-3.14,12.71a9.24,9.24,0,0,1-1.54,3.15c-.17.31-.35.63-.79.16A3.81,3.81,0,0,1,431.69,198Z" transform="translate(-34.79 -16.75)"/><path class="c" d="M455.19,146.08c1.11,3.62,2.23,7.34.65,11.19-.91,2.28-1.93,4.48-2.84,6.76-.24.73-.52,2.15-1.46,1.73s-.54-1.66-.12-2.6c.76-1.67,1.61-3.45,2.48-5a11.84,11.84,0,0,0,1.05-8.92l-.52-2.66-.06-.7C454.72,145.32,455,145.49,455.19,146.08Z" transform="translate(-34.79 -16.75)"/><path class="c" d="M411,256.81a1,1,0,0,1-1.31-.09c-.34-.47.24-.72.52-1s.38-.33.57-.35c4.9-2.62,8.36-6.82,11.92-10.94.37-.43.91-1.18,1.56-.53s.1,1.19-.36,1.63c-2.63,2.13-4.61,4.81-7.31,7.35C415.31,254.64,413,255.44,411,256.81Z" transform="translate(-34.79 -16.75)"/><path class="c" d="M387.07,261.25c-.73,4.37-2.27,8.72-1.69,13.19a6.75,6.75,0,0,1-.08,1.41.57.57,0,0,1-.56.55c-.4,0-.42-.27-.45-.57a24.9,24.9,0,0,1-.32-2.58c0-4.42,1.29-8.54,2.24-12.73a1.32,1.32,0,0,1,.81-1.08A2.7,2.7,0,0,1,387.07,261.25Z" transform="translate(-34.79 -16.75)"/><path class="c" d="M365.09,294.32c.35,1.78-.2,3.63.25,5.4.14.39.09,1-.4,1.14s-.65-.55-.68-.85a14.68,14.68,0,0,1,.58-8.58C365.33,292.49,364.91,293.43,365.09,294.32Z" transform="translate(-34.79 -16.75)"/><path class="c" d="M359.37,300.32c.22,1.39.43,2.68.75,4.06.14.49.6,1.15-.09,1.31s-1.14-.41-1.3-1.1c-.11-1.29-.32-2.58-.43-3.87a1.47,1.47,0,0,1,.22-.93C359.11,299.54,359.34,299.93,359.37,300.32Z" transform="translate(-34.79 -16.75)"/><path class="c" d="M374.55,277c.43.26.36.67.3,1.08-.22,3.33-1.05,6.61-.17,9.85.12.29.16.69-.33.83s-.53-.26-.75-.54A5.68,5.68,0,0,1,373,286a49.57,49.57,0,0,1,.88-8.6,4.8,4.8,0,0,0,.24-.73A1.38,1.38,0,0,1,374.55,277Z" transform="translate(-34.79 -16.75)"/><path class="c" d="M420.37,238.55c1.75-3.06,4.47-5.29,7.21-7.33,1.51-1.13,3.12-2.27,4.63-3.4.29-.13.57-.35.79-.17a.73.73,0,0,1,.07.89,2.22,2.22,0,0,1-.63.76c-1,.79-2.09,1.48-3.12,2.27-2.83,2.15-5.89,4-7.83,7.09a13.56,13.56,0,0,1-1.56,1.74A1.87,1.87,0,0,1,420.37,238.55Z" transform="translate(-34.79 -16.75)"/></g></svg>