<svg version="1.1" id="Layer_1" xmlns="http://www.w3.org/2000/svg" xmlns:xlink="http://www.w3.org/1999/xlink" x="0" y="0" viewBox="0 0 654.2 654.2" xml:space="preserve">
  <style>
    .st1{fill:#c08d54}
  </style>
  <defs>
    <path id="SVGID_1_" d="M194.7 81.1l348.3 445 169.9-133-348.3-445-169.9 133zm308.8 321.2c-.4-.5-.6-1.1-.4-1.7l-.9-1.2c-1.6-2 1.6-4.5 3.1-2.5l1.4 1.8c.2 0 .4 0 .6.1.2-.2.4-.5.7-.6.1-.1.1-.2.2-.2.9-.7 2.2-.7 2.9.2.4.6.8 1.1 1.2 1.6.8-.4 1.8-.2 2.3.6l14.5 18.6c.4.5.5 1.1.4 1.7 1.5 2.1-1.6 4.5-3.1 2.5-.7-.8-1.3-1.6-2-2.5-.5 0-1.1-.3-1.4-.7-.2-.2-.4-.4-.5-.6-.6 0-1.1-.3-1.5-.7.5 1.8-2.1 3.5-3.5 1.7l-14-18.1z"/>
  </defs>
  <clipPath id="SVGID_2_">
    <use xlink:href="#SVGID_1_" overflow="visible"/>
  </clipPath>
  <g clip-path="url(#SVGID_2_)">
    <path class="st1" d="M457.7 209.3c.4-2 .6-4 .6-6-.3-5.4-1-10.8-2.2-16.1-.8-3.5-1.1-7.2-1.8-10.7-.5-2.8-1.5-5.6-1.9-8.4-.8-5-1.6-9.9-2.4-14.9-.1-.8-.4-1.5-.1-2.3.3 0 .5.3.5.6.1 1.6.4 3.2.9 4.8 1.2 5.9 1.8 11.8 3.5 17.6 1 3.7 1.3 7.5 2.1 11.1.4 1.8 1.2 3.5 1.2 5.3.2 3.1.8 6.1 1.7 9.1.6 2.4 1.9 4.6 2.9 6.9 1.5 3.4 3.3 6.5 4.4 10.1.6 1.7.5 3.7 1 5.6 1.5-4.1 2.3-8.4 2.3-12.8-.1-6.3.3-12.6-1.2-18.9-.4-2.3-.7-4.6-.7-6.9-.3-3.7-.9-7.4-1.3-11.2-.2-1.1-.2-2.3.1-3.5.5 2.7.8 5.4 1.2 8 .8 5.3 1.1 10.7 2 16 1 5.7 1.4 11.4 1.3 17.2 0 3.8 1.1 7.3 2.4 10.8.8 2.2 1.4 4.3 2.2 6.6.8 2.3 1.3 4.7 2 7.3 1.5-2.9 2.7-5.6 4.1-8.2 1.1-2 2.6-3.8 3.4-6 2.1-5.9 3.7-11.9 3.3-18.3-.1-.7 0-1.4.3-2.1 0 3 .9 5.9.3 8.8-.9 4.3-2 8.5-3.5 12.6-1.2 3.1-1.7 6.4-1.4 9.8.6 4.8 1.7 9.5 2.6 14.2.5 2.8.8 5.5-.5 8.2-.5.9-.5 2 0 3 1.7 3.1 3.5 6.2 5.5 9.2 1.2 1.7 2.3 3.5 3.4 5.3 2.1 3.7 4.2 7.4 6.4 11 3.5 5.6 7.1 11.3 10.6 16.9 2 3.2 3.8 6.5 6 9.6 1.8 2.6 3.5 5.2 5.2 7.8 1.4 2.1 2.6 4.3 3.9 6.6 1.5 2.6 3.3 5 4.9 7.6 2.7 4.5 5.4 9 8 13.6 2.6 4.6 5.5 9.1 8 13.7 2.7 5 5.6 10 8.4 14.9 1.8 3.1 3.6 6.3 5.2 9.5 2.5 4.8 5.2 9.5 7.5 14.4 1.7 3.8 3.7 7.4 5.8 11 2.6 4.6 5.2 9.3 7.5 14.1 2 4.1 4.4 7.9 6.3 12 1.8 3.8 3.9 7.6 5.8 11.4 2.6 5.4 5.7 10.6 8.7 15.7 1.4 2.3 2.3 4.9 3.8 7.2.8 1.3 1.2 3.1 3.1 3.4.3.1.5.4.7.7 1.7 3.4 3.7 6.6 5.2 10.1 1.4 3.1 3.3 6 4.7 9 2.4 5.1 4.7 10.3 7 15.5 1.6 3.6 4 6.8 5.6 10.5.7 1.6 1.5 3.2 2.3 4.8 2.8 5.2 5.5 10.3 8 15.8s4.9 10.9 7.4 16.4c2.2 4.8 4.5 9.6 6.6 14.4 1.3 2.9 2.3 6 3.7 8.8 2.6 5.2 3.6 10.8 5.4 16.3v.2c0 .3-.2.5-.4.5-.3.1-.5 0-.6-.4-.3-1.1-.7-2.2-1-3.3-1.8-8.2-5.6-15.8-9-23.3-3.3-7.4-6.6-14.9-10.2-22.2-1.2-2.4-1.9-5.1-3.2-7.5-2.5-5-5.1-10-7.6-15-1.7-3.5-3.5-7-5.5-10.4-1-1.8-2-3.6-2.8-5.5-2-4.6-4.2-9.1-6.2-13.6-2.8-6.5-6-12.8-9.7-18.8-.7-1.5-2.2-2.3-3.8-2.2-1.1.1-2.1.3-3.2.6-1.3.4-1.4 1.1-.5 2 2.6 2.4 4.7 5.2 6.4 8.2 3.7 7.3 7.4 14.5 10.9 22 3.8 8.1 8.1 16 12.4 23.8 4.4 8.1 8.2 16.5 11.8 24.9 3.3 7.5 6.1 15.2 9.9 22.3 3.3 6.3 5.7 12.9 8.1 19.5.1.2.2.5-.1.7-.3.1-.4-.1-.5-.4-1.1-2.6-2.2-5.1-3.2-7.8-1.3-3.6-2.9-7.2-4.8-10.6-2-3.9-3.9-7.9-5.7-11.9-1.9-4.4-3.5-9.1-5.5-13.5-2.2-4.9-4.5-9.9-6.9-14.7-3.1-6.3-6.7-12.4-9.9-18.7-2.1-4-4.1-7.9-6.1-12.1-2-4.2-4.2-8.3-6.3-12.5-2.6-5.1-4.7-10.5-8.2-15.2-3-3.9-7.2-6.1-11.3-8.3-2.6-1.4-5.4-2.5-7.8-4.3-4.9-3.7-9.7-7.5-14.5-11.1-2.2-1.6-4-3.6-6.1-5.4-3.3-2.8-6.8-5.4-10-8.3-2.7-2.8-5.6-5.4-8.7-7.9-6.2-4.7-12.9-8.9-19.9-12.4-3.5-1.7-6.9-3.5-10.5-4.9-4.5-1.7-9.1-3.1-13.5-5.2-4-1.9-7.9-4.1-11.9-5.9-6.3-3-12.2-6.6-17.7-10.8-5.5-4.1-10.6-8.7-16-12.8-4.4-3.4-8.9-6.5-13.5-9.6-.3-.2-1-.3-.8-.9.2-.6.9-.5 1.4-.3.3.1.6.3.9.5 4.4 3 8.8 6.2 13.6 8.7 3 1.5 5.9 3.1 8.7 4.8 4.9 3.4 10.2 6.3 15.6 8.7 4.4 1.8 8.8 3.4 13.3 4.8 2.2.7 4.4 1.4 6.7 1.9 3.6.9 7.4 1.3 11 2.7 1.5.6 3 1.3 4.5 1.9 5.5 2.1 10.9 4.2 16.4 6.3.8.3 1.5.8 2.3 1.1 5.3 2 10.3 4.4 14.2 8.6 2 2.1 4.2 3.8 6.1 5.9 2.7 2.9 5.3 5.7 8.4 8.4 3 2.7 5.7 5.7 8.8 8.4 3 2.7 5.5 5.9 8.4 8.7 3.9 3.8 7.5 7.8 11.2 11.8 1.4 1.5 2.7 3.1 4.2 4.6.3.3.6.8 1.4.6-.6-.6-1.2-1.3-1.6-2.1-3-5.7-5.8-11.5-8.8-17.1-2.1-3.7-3.9-7.6-5.5-11.5-1.6-4.1-4-7.9-5.8-11.9-2-4.2-4.3-8.1-6.4-12.2-2.5-4.7-4.8-9.5-7.5-14.2-2.2-3.9-4-8-6.4-11.8-1.1-1.9-2.2-3.8-3.1-5.8-1.2-2.9-2.8-5.6-4.6-8.2-.8-1-1.5-2.1-2.1-3.3-1.4-2.9-2.9-5.7-4.5-8.5-2.1-3.7-4.5-7.3-6.7-11-1.3-2.2-2.3-4.5-3.5-6.8-2.2-4.4-5-8.4-7.3-12.7-3.2-5.7-6.8-11.2-10.1-16.8-3-5-5.9-10.1-9.2-15-3-4.6-5.9-9.3-8.9-13.9-2.8-4.2-5.6-8.5-8.3-12.7-1.6-2.7-3.4-5.4-5.3-7.9-1.3-1.6-2.8-3.1-4.4-4.5-2.1-1.8-4.4-3.4-7.4-2.8-.4.1-.9 0-1.3-.2-.7-.3-1.5-.5-2.2-.7-2.1-.6-4.2-1.4-6.2-2.3-2.1-1-4.3-1.8-6.6-2.5-3.1-.8-6.4-.6-9.5-1.2-1.1-.2-2.3-.2-3.4-.5-2.1-.5-4.3 0-6.3-.6-2.7-.6-5.4-.9-8.1-1-3.7-.3-7.4-.7-11-1.1-.3 0-.7 0-.7-.4.1-.4.5-.5.8-.4 1.6.4 3.3.6 5 .6 4.6.4 9.2.6 13.8.9 1.7.1 3.4.5 5.1.5 4.4.1 8.1-2.5 12.1-3.9.4-.2.9-.4 1.3-.7-3-1.6-5.7-3.6-8.2-5.9-1.2-1.3-2.9-2.2-4.7-2.6-2.4-.5-4.7-1.1-7-1.8-3.7-.9-7.4-1.7-11.1-2.2-3.7-.6-7.5-1.2-11.2-1.7-2.9-.5-5.7-1.1-8.5-2 4.3.5 8.6 1.5 13.1 1.9 4.4.4 8.9 1.4 13.3 1s8.8-.9 13.5-1.4c-.3-.3-.6-.5-1-.7-1.7-.8-3.2-1.9-4.6-3.3-1-1.1-2-2.1-3.2-3-2.5-2.1-4.6-4.5-7.8-5.9-3.4-1.5-6.9-2.6-10.7-2.3-2.8.2-5.6.5-8.4.6-2.6.2-5.2 0-7.8-.5-.4-.1-1-.1-.9-.9 1.7 0 3.4.1 5.1.3 3.7.4 7.3-.5 10.9-.5 2.3 0 4.5-.8 6.9-.6 2.4.1 4.8 0 7.1-.2 0-.4-.3-.5-.5-.6-1.4-.8-2.6-1.8-3.8-2.9-1.1-1-1.8-2.3-2.7-3.4-2.2-2.3-4.9-4.1-7.9-5.2-4.8-1.9-9.8-3.7-15.1-3.6-1.1.1-2.1.1-3.2-.1-4.5-.9-9.1-.8-13.6-1.5-3.8-.6-7.5-1.5-11.3-2.1-.5-.1-1.6-.1-1.4-.7.2-.8 1 0 1.5 0 .2 0 .3.1.5.1 5.7.5 11.2 2.1 17 2.2 4.4.1 8.7 1.3 13.2.8 4.2-.4 8.3-.6 12.7-.9-1.3-1-2.6-1.6-3.5-2.7-.6-.7-.9-1.6-1.6-2.3-1.8-2-3.8-3.6-5.6-5.5-1.7-1.9-4-3.2-6.4-3.9-3.8-1.2-7.5-2.2-11.6-3-4.1-.8-8.1-2.1-12.2-3.1-4.5-1.1-9.1-2.2-13.6-3.3l-2.4-.6c3.5-.1 6.8.8 10.1 1.6 2.7.6 5.3 1.3 8 1.7 2.4.4 4.7.9 7 1.6 2 .6 3.9 1.3 6 .7.3-.1.6 0 .9.1 3.2 1.5 6.5.6 9.8.9.3 0 .7 0 .7-.4.1-.4-.4-.4-.6-.6-2.5-1.6-4.9-3.5-7-5.7-2.5-2.7-5.6-4.8-9-6.2-1.6-.6-3.2-1-4.7-1.7-2-.9-4.1-1.5-6.3-1.8-4.1-.5-8.2-1.5-12.2-2.9-5.3-2-10.9-3.3-16.6-4-.3 0-.7.1-.9-.5.7-.1 1.4-.1 2.2 0 4.3.6 8.5 1.5 12.6 2.7 5.2 1.4 10.3 3.4 15.8 3.3 1.8.1 3.6.3 5.4.7 2.5.3 5 .3 7.4.2-1.2-.8-2.2-1.8-3.2-2.9-1.8-2.8-4.1-5.4-6.6-7.6-2.4-2-5.1-2.9-7.9-3.9-2.4-.9-4.8-1.1-7.4-1.9-2.6-.7-5.2-1.2-7.8-1.7-2.1-.5-4.3-.3-6.4-.7-7.1-1.4-14.2-3.1-21.2-5-.5-.1-1-.2-1.2-.8.5-.2 1-.1 1.5 0 5.1 1 10.1 2.8 15.3 3.5 2.9.4 5.8 1.1 8.7 1.7 4 .8 8.1 1.4 12.2 1.8 1.6.1 3 .8 4.9.6 1.8-.2 3.7-.4 5.5-.5l2.7-.3c-3.2-2.1-6.1-4.6-8.7-7.4-1.8-2.2-4-4.2-6.4-5.7-4-2.5-8.5-4.2-13.3-4.9-5.1-.6-10.2-1.3-15.3-2-2.6-.4-5.1-1.4-7.7-2.1-3.9-1-7.7-2.2-11.6-3.2 0 0-.1 0-.1-.1-.2-.1-.2-.3-.1-.5 1.5 0 2.8.6 4.2 1 3 .8 6.1 1.2 9.2 2 2 .5 3.8 1.5 5.8 1.8 7.1 1.1 14.4 1.7 21.5 3 2.3.4 4.6-.1 7-.1-2.2-1.6-3.9-3.7-5-6.2-2-4.1-5.1-7.6-9-10-2.5-1.7-5.5-2.6-8.3-3.8-1.6-.7-3.2-1.2-4.9-1.4-3.5-.5-6.9-1.6-10.1-3.1-5.6-2.8-11.5-4.7-17.4-6.7-.7-.2-1.6-.3-2-1.1 1.6-.3 2.8.7 4.1 1.1 5.1 1.6 10.2 3.3 15.2 5.3 2.9 1.2 6 2.6 9 3 3 .4 6 .7 8.9 1.3 1.8.5 3.6.7 5.5.6-.4-.4-.7-.7-.9-1.1-2-2-3.7-4.2-5.2-6.5-1.6-2.7-3.8-4.9-6.4-6.6-4.5-3.1-9.4-5.6-14.5-7.6-6.6-2.7-13.4-4.6-20.2-7l-1.4-.5c.3-.1.6-.1.9 0 9.6 2.4 18.9 5.7 27.9 9.8 3.5 1.7 7.1 3.2 10.7 4.5.6.2 1.2.5 1.9.1-.2-.2-.3-.5-.5-.7-1.6-1.7-2.9-3.7-3.8-5.9-.6-1.7-1.4-3.3-2.2-5-2.1-3.9-5.3-6.8-8-10.3-.6-.9-1.4-1.7-2.1-2.4-3-2.9-6.1-5.8-9.2-8.7-1.2-1.1-2.3-2.2-3.5-3.2-1.9-1.5-3.7-3.1-5.3-4.9-3-3.4-5.6-7.2-9-10.3-.6-.4-1-1.1-1-1.9 1.1 1 2 1.8 2.9 2.7 4.8 4.9 9 10.3 14.2 15 5.9 5.3 11.9 10.4 17.9 15.5 2.6 2.2 5.5 4.1 8.4 6.1 1.5 1 2.9 2 4.2 3.2.7.8 1.5 1.5 2.4 2 0-4.1-1.7-7.5-3.8-10.8-2.2-3.4-4.3-6.9-6.7-10.2-2.1-2.9-4-6.1-6-9.2-3.2-4.9-6.8-9.4-10.9-13.6-.3-.3-.8-.6-.3-1.3 1.8 1.6 3.4 3.3 5 5.1 4 4.6 7 9.9 10.6 14.8 2.1 2.9 4.2 5.7 6.4 8.6 1.7 2.3 3.9 4.2 5.6 6.4 2.6 3.3 5.5 6.2 8.8 8.8 2.9 2.3 5.6 4.7 7 8.3.5 1.5 1.2 2.9 2.2 4.1.4-1.7.3-3.5-.4-5.2-.9-2.9-1.3-5.9-3-8.4-1.5-1.9-2.8-3.8-4-5.9-3.3-6.8-6.7-13.6-10.2-20.3-1.5-2.8-3.1-5.6-4.7-8.3-1.4-2.4-2.9-4.7-4.1-7.1-.2-.4-.5-.8 0-1.1.4.3.7.7.9 1.1.8 1.4 1.5 2.9 2.4 4.3 4.6 7.3 8.4 15 12.6 22.6 1.8 3.2 3.6 6.5 5.6 9.6 1.7 2.6 3.8 5.1 5.2 7.8 2.7 5 4.7 10.5 5.8 16.1.7 3.9 2.6 7.2 4.9 10.7.7-2.7.8-5.6.3-8.4-1.3-6.4-2.1-12.8-3.6-19.2-.8-3.6-1.4-7.3-2.3-11-1.1-4.5-2.5-9-4-13.4-1.1-3.3-2-6.7-2.9-10-.6-1.6-1-3.3-1-5 .4 1 .8 2 1.1 3 1.4 4.5 2.5 9.1 4.1 13.6 2.3 6.5 3.9 13.2 5.5 19.9.9 3.5 1.5 7.1 2.3 10.6 1.5 6.5 3.4 12.9 5.7 19.1.1.2.2.5.3.7 1.4 1.6 2.7 3.2 3.9 5 2.4 3.2 5 6.2 6.6 9.8.1.3.2.9.6.8.4-.1.2-.7.2-1-.5-3.6-.4-7.2-1.3-10.7-.5-1.7-.3-3.4-.7-5.1-.9-4-1.6-8.1-2.6-12.1-.8-3-1.6-6.1-2.6-9-1.5-4.6-2.8-9.4-3.8-14.2-1.3-5.5-2.6-11-4.2-16.5-.1-.2-.3-.6.2-.7.8 1.8 1.4 3.6 1.8 5.5.6 2.4 1.3 4.8 2 7.2.9 3.5 1.5 7.1 2.6 10.5 2 6.3 3.8 12.7 5.6 19 1.4 5.1 2.3 10.4 3.7 15.6.3 1.5.7 3 1.3 4.4 2.5 4.9 5.1 9.7 7.6 14.6 1.2 2.3 2.4 4.6 2.8 7.2.2.9.5 1.8.8 2.7.1.3.2.8.6.7.3 0 .5-.4.5-.7.3-.9.4-1.8.5-2.7-.1-3.7-.5-7.4-1.1-11-.5-3.8-1.7-7.4-2-11.2 0-1.2-.2-2.5-.5-3.7-.8-2.7-1.6-5.4-2.2-8.2-1.6-6-3.4-12-4.7-18.1-1.5-7.4-4.3-14.5-6-21.9-.3-1.1-.9-2.1-.8-3.3.4.4.7.9.8 1.5.7 2.3 1.4 4.7 2.1 7 1.5 4.9 3.1 9.8 4.3 14.7 1 3.9 1.8 7.9 3.1 11.7 2.5 7.7 4.5 15.4 6.1 23.3 1.1 5.4 2.8 10.6 4.4 15.9.7 2.2 1 4.6 1.9 6.8 2.1 4.7 5.6 8.7 7.5 13.5.1.2.1.3.4.3.1-.1.2-.2.2-.3-.5-.7-.1-1.5-.2-2.3-.3-4.5-.9-8.9-1.5-13.3-.3-2.6-.7-5.3-1.3-7.8-.6-2.5-1.1-5.1-1.6-7.6-.7-3.5-.7-7.2-1.8-10.7-.4-1.4-.7-2.7-1-4.1-1.7-7.2-2.5-14.5-5-21.5-.1-.4-.3-.9.2-1 .4-.1.5.5.6.8.8 2.9 1.7 5.8 2.3 8.7.8 3.4 1.3 6.9 2.2 10.3 1.2 4.5 2.1 9.1 2.8 13.7.3 2.5.7 4.9 1.4 7.4.7 2 1.1 4 1.4 6.1.4 3.1.8 6.1 1.4 9.2.8 3.9 1.8 7.7 2.8 11.5.5 1.9 1.2 3.7 2.2 5.3 2.7 4.7 5.3 9.4 6.4 14.9.1.5.1.9.1 1.4 0 .4-.3.6-.7.6-.5 0-.4-.4-.4-.7-.3-2-1-4-1.8-5.9-1.2-2.7-2.3-5.5-3.8-8.1-1.2-1.9-2.3-4-3.1-6.2-.2.9-.3 1.8-.4 2.7 0 1.4-.4 2.9 1.3 3.7.4.2.4.6.5 1 .3.9.6 1.8 1 2.6 1.5 3.3 3 6.5 4.4 9.8.4.9 1.2 1.8.9 3-.5.1-.6-.3-.7-.5-2-4.3-4.2-8.6-5.9-13-.2-1-.8-1.8-1.7-2.3 0 2.9.1 5.8.5 8.7 0 .4.3.8-.3.9s-.5-.5-.6-.8c-.1-.8-.1-1.5-.1-2.3-.1-1.4-.3-2.9-.4-4.3h-.3c-.5 1.7-1.3 3.3-1.4 5.1-.1 2.8.3 5.7 1.2 8.4.1.5.5.8 1 1 3.4 1.1 5.8 3.6 8.5 5.8.9.8 1.7 1.6 2.5 2.5.1-1.5.2-2.9.1-4.4-.1-2.4 0-4.7.2-7.1.2-2.1.2-4.3 0-6.4-.3-2.1-.8-4.2-1.2-6.3-.6-2.9-1.4-5.8-2.3-8.6-.9-2.6-.8-5.2-1.5-7.8-.1-.3 0-.5.3-.7.3-.1.5.1.6.4.2.5.3 1 .5 1.5.9 3.8 1.5 7.7 2.6 11.5 1.2 4.1 2 8.4 3 12.6.4 1.9 1 3.7 1.9 5.5 1.6 2.6 3.3 5.2 5.2 7.6 1.2 1.7 2.8 3.3 3.4 5.4.1.2.2.4.6.2-.2-3-.7-5.9-1.4-8.9-1.2-4.4-2.1-8.9-2.7-13.4-.6-4.8-1.3-9.5-2.2-14.3-.6-3.3-1.5-6.6-1.8-9.9-.4-3.3-.7-6.6-1.2-9.8-.4-2.4-.9-4.8-1.4-7.2-.7-3.1-1.5-6.3-2.1-9.4-.4-1.3-.6-2.7-.4-4.1.4.3.6.8.6 1.3.4 2.2.9 4.4 1.4 6.7 1.4 6.4 3 12.8 3.6 19.4.1 1.2.3 2.4.5 3.6 1 4.6 1.7 9.3 2.7 13.9 1.4 6.2 1.9 12.6 3.1 18.9 1 4.9 2.9 9.6 5.6 13.8 1.9 2.9 3.4 6 4.7 9.2 1.1 3.1 1.8 6.4 2.9 9.8.3.1.4-.2.6-.6zm26.6 45.3c-.4.3-.8.4-1.1.1s.2-.6.2-.9c.5-2.1 1.3-4.1.9-6.4-.5-3.6-.8-7.3-1.2-11l-.3-3.3c-.4-.1-.4.2-.5.4-.2 1.8-.6 3.5-1.1 5.2-.2.6-.3 1.2-.3 1.9 0 .4-.2 1.1-.7 1s-.3-.7-.2-1.1c.4-1.8.8-3.5 1.2-5.3.2-.7.2-1.5.3-2.4-.9.7-.9 1.6-1.3 2.3-1.1 1.8-1.9 3.7-2.6 5.7-.4 1.2-.6 2.5-.7 3.8-.2 3.9.5 7.6 3 10.7.6.7 1.5 1 2.4.8.9-.1 1.8-.4 2-1.5 1.2-.9 2-2.2 2.3-3.7.4-1.5.4-3.1 0-4.7-.6-2.7-1.1-5.5-1.5-8.3-.2-2.4-.6-4.8-1.4-7.1.1 1.8.2 3.6.4 5.4.3 3 .7 5.9.9 8.8 0 .6.1 1.2.3 1.8.5 2.8-.2 5.3-1 7.8zM346.6 95.2c-1.1-.9-2-2-3.6-2.3-.7-.2-1.2-.7-1.5-1.4-.4-.7-1.2-1.1-2-1 0 .2.1.3.1.4 2.7 1.9 4 5 6 7.5 1.4 2.1 3 3.9 4.9 5.6.6.5 1.4.9 2.2 1 2.8.3 5.6.9 8.3 1.9 3.4 1.2 6.6 3.2 9.2 5.8 1.4 1.3 3.1 2.4 4.3 4.1.2-1.3-.1-2.5.2-3.8.2-.9 0-1.8.4-2.7.3-.5 0-1-.3-1.4-1.1-1.9-2.1-3.8-3.2-5.8-1.8-3.3-2.2-7-3.1-10.5-.5-1.9-.7-4-2.6-5.8 2.4 7.5 2.4 15.2 5.7 22.2-1.3-1.3-2.2-2.9-2.5-4.7-.4-1.8-1-3.6-1.3-5.5-.3-1.8-.8-3.6-1.5-5.4-.4 1.4-.7 2.9-.8 4.3-.2 2.3-.2 4.6 0 6.9.2.8.4 1.5.6 2.2.1.4.4 1.2-.2 1.4-.6.2-.9-.4-1.1-1-.5-1.5-.8-3.1-.9-4.6-.1-.7 0-1.3-1-.9-.5.2-.9-.2-1.2-.6-1.4-1.8-2.9-3.5-4.6-5.1-2.8-2.4-5.8-4.7-9.8-4.9-.7 0-1.3.2-1.8.6.9 1 2.2 1.1 3.2 1.5 4.7 1.9 8.2 5.2 11.4 9 .4.5 1.1 1.4.5 1.8-.5.4-.8-.8-1.2-1.2-2.6-3.2-5.8-5.8-9.4-7.6.2.4.4.7.8 1.4-1.6-.6-2.5-1.7-3.8-2.6.4 1.1 1.4 1.5 1.6 2.4-.9.1-1.4-.7-2-1.2zm254.8 376.6c-1.3-1.1-2.7-2.1-4.2-3-6.8-4.4-13.3-9.4-19.3-14.9-3.2-2.9-6.3-5.7-9.8-8.4-3.5-2.6-6.7-5.7-9.9-8.6-2.7-2.4-5.7-4.6-8.7-6.5-4.8-3.1-9.2-6.8-13.7-10.3-1.2-.9-2.5-1.7-3.7-2.5l.2-.4c.8.5 1.6.9 2.4 1.4 4.3 3.2 8.5 6.4 12.9 9.5 4.2 2.8 8.2 5.8 12.1 9.1 3.1 2.8 6.2 5.5 9.4 8.1 4.9 3.9 9.4 8.2 14.2 12.2.8.6 1.6 1.2 2.5 1.8-7.4-8.2-16.1-14.9-24-22.5.8.2 1.4.6 1.9 1.2 4.5 3.9 9 7.7 13.3 11.6 4.8 4.3 9.3 8.9 13.9 13.5 1.6 1.5 3.3 2.7 5.2 3.7-.1-.8-.5-1.5-1.1-2-3.9-4.2-7.7-8.4-11.7-12.4-2.8-2.8-5.2-5.9-8.1-8.5-5.4-4.9-10.7-10-15.8-15.3-2.9-3-6-5.9-9-8.7-2.7-2.4-5.8-4.3-9.3-5.5-1.9-.7-3.8-1.6-5.6-2.6-2.3-1.2-4.9-1.6-7.3-2.6-4.7-2.1-9.5-4-14.4-5.7-2.9-1.1-5.9-1.4-8.9-2.1-3-.7-5.9-1.6-8.8-2.6-3.1-1-6.3-2-9.4-3.3-5.4-2.3-10.8-4.7-15.7-8-3.7-2.5-7.6-4.8-11.6-6.8.3.7.3.7 2.5 2.2 2.4 1.6 4.4 3.6 6.7 5.5 2.4 2 4.9 3.8 7.4 5.6 1.4 1.1 2.9 2.1 4.3 3.3 2.3 1.7 4.8 3.2 7.4 4.4 7.2 3.6 14.2 7.6 21.7 10.5 5.4 2.1 11 3.9 16.2 6.5 5.8 2.8 11.4 5.9 16.7 9.5 3.5 2.5 7.2 4.8 10.2 7.8 5.1 5.1 10.9 9.4 16.2 14.2 6 5.5 12.6 10 18.9 15 3.2 2.6 7 4.1 10.9 5.6.9.5 1.8.6 2.9 1zM478.2 257.7c1.4.7 2.7 1.8 3.7 3 1.5 1.5 3.3 2.7 4.7 4.4 2.4 3.3 4.7 6.8 6.8 10.3 2.7 4.5 5.5 8.9 8.4 13.3 2.5 3.8 4.9 7.7 7.4 11.5 1.7 2.3 3.2 4.8 4.4 7.4.4.8 1 1.6 1.6 2.3 1.8 2.4 3.3 4.9 4.5 7.6 1.3 2.6 2.8 5 4.3 7.5 3 5 6 10.1 8.9 15.1 2.8 4.9 5.5 9.8 8.3 14.7 1.5 2.6 3.3 5.1 4.8 7.7 1.5 2.6 2.9 5.3 4.4 7.9 1.3 2.4 2.9 4.6 4.1 7.1 1.8 3.9 4 7.6 6.1 11.3 2.5 4.3 4.8 8.6 7.2 13.1 2.4 4.4 4.8 9 7 13.6 1.3 2.8 2.8 5.6 4.1 8.3 6 11.9 12.1 23.7 18.2 35.6 1.4 2.8 2.8 5.5 4.3 8.3.9 1.7 2 3.3 4.3 3.1.5 0 1.1 0 1.4-.4.3-.4-.2-.8-.4-1.1-2.3-4.3-4.7-8.5-7-12.8-1.8-3.4-3.7-6.7-5.6-10.1-1.5-2.6-2.3-5.5-3.8-8.1-2.3-4.1-4.3-8.3-6.5-12.5-3.2-6.3-6.7-12.3-10.1-18.5-2.2-4.1-4.1-8.4-6.3-12.6-1.6-3.1-3.2-6.3-4.9-9.3-2.3-4.1-4.3-8.5-6.8-12.5-4.6-7.3-8.2-15.2-12.7-22.5-3.9-6.5-7.4-13.1-11.6-19.4-3.3-5-6-10.3-9.4-15.3-4.4-6.4-8.4-13-12.5-19.6-1.8-2.9-3.6-5.7-5.4-8.6-1.7-2.7-3.2-5.4-4.9-8.1-2.4-3.9-4.4-8-7-11.7-2.3-3.3-4.4-6.9-6.5-10.4-.3-.5-.6-.6-1.2-.3-1.5.9-3.2 1-4.8.3-.4-.5-.9-.1-1.5.4zm-8.3-36.4c-1.9 3.2-3.1 6.7-3.5 10.4-.2 1.4-.2 2.8-.1 4.2.1 2.3.8 4.6 2 6.6.2.3.5.8 0 1.1-.4.2-.7-.1-1-.4-.4-.4-.7-1-1-1.5-.8-2.7-3.2-3.8-5.2-5.2-3.4-2.6-7.5-4.1-11.8-4.3-.2-.7.5-.5.6-1-5.1 0-10.1.4-15.1 1.1 1.9.8 3.9 1.5 5.9 2 1.5.4 3 .8 4.5 1.1 1.9.5 3.2 1.8 4.6 3 1.7 1.7 3.7 3.2 5.7 4.4 1.8 1 3.8 1.4 5.8.9 1.8-.4 3.6-.3 5.4.3 1.5.5 3.1 1 4.6 1.5 1.5.7 2.9 1.7 4 2.9.2-2.3.3-4.3.4-6.3 0-.2-.2-.4-.2-.4-1.6 0-1-1.2-.9-1.9.4-2.4-.4-4.6-.6-6.8-.3-3.3-2-6.1-3.1-9.2-.5 1.8-.8 3.6-.8 5.4-.4 2.3-.3 4.7.1 7.1.1.3.2.7-.2.8-.5.1-.5-.3-.6-.6-.3-1.4-.4-2.8-.2-4.2.1-3.4.4-6.8 1-10.2-.1-.1-.2-.2-.3-.8zm-40.6-29.2c-1.5-2.5-3.8-4.2-6.1-5.8-2.3-1.6-4.7-3-7.3-4-2.6-1.1-5.4-1.7-8-2.8-1.9-.7-4-.8-6-.5-1.1 0-2.2 0-3.2-.1.8.7 1.8 1.2 2.8 1.5 3.2.9 5.1 3.1 7.4 5.2 2.3 2.1 4.1 4.5 6.2 6.7 1.8 1.9 4.2 3.1 6.8 3.4 2.3.2 4.5.1 6.8.2 1.7.2 3.4.5 5.1 1-.9-2-1.4-4.2-1.5-6.4 0-.6-.4-1.1-.9-1.3-1.3-.9-1.9-2.4-3.1-3.4-2.3-1.7-4.3-3.8-6.9-4.9-1.3-.7-2.7-1.2-4.1-1.4-2.6-.2-5.2-.7-8.1-.5 1.3.7 2.6 1.2 4 1.5 4.3 1.4 8.3 3.5 11.9 6.2 2 1.1 3.5 3.1 4.2 5.4zm-46-29.8c1 .7 2.2 1.2 3.4 1.5 4 1.6 7.5 4.1 10.4 7.3 2 2.1 4.4 3.9 7 5.2 1.4.7 3 1.1 4.5 1.1 3 0 6 .2 9 .6.7.1.9 0 .7-.8-.3-1-.5-2-.5-3 0-1.1-.4-2.1-1.1-3-1.4-1.7-2.5-3.7-4.3-4.9-4.1-2.8-8.5-4.9-13.5-4.3-1.8.1-3.5.4-5.2.9 1.3.2 2.6.6 4 .7 3.4.3 6.7 1 9.8 2.3 2.7 1.2 5.2 2.8 6.6 5.9-.5-.4-.9-.6-1.1-1-.3-.4-.6-.7-1-1-3.8-2.9-8.3-4.6-13.1-5-1.3-.2-2.5-.4-3.8-.7-.3-.1-.6-.3-.8.1-.3.4.2.6.4.8 2.5 2.3 5 4.6 7.4 7 .2.2.7.4.5 1.1-1.5-1.3-3-2.6-4.5-3.8-2-1.9-4.1-3.7-6.4-5.4-2.5-1.7-5.4-1.8-8.4-1.6zm38.7 34.8c3.3.8 6.5 1.8 9.6 2.9 1.6.7 3 1.6 4.4 2.7 1.5 1 2.8 2.3 4.4 3.2.9.6 1.4 1.7 1.4 2.8-.3.2-.4.1-.5-.1-2-2.5-4.7-4.3-7.2-6.2-2.4-1.8-5.1-2.3-7.9-3.4-2.8-1.1-5.8-1.3-8.6-2.3-1.5-.6-3.3-.2-4.9 0-.8.1-1.7-.3-2.4.3 2 .8 3.9 1.5 5.8 2.3 4 1.8 8 3.7 10.8 7.3 2 2.7 4.7 4.8 7.8 6 1.7.6 3.4 1 5.2 1.2-5.3-4.8-11.8-7.5-17.3-11.8.4-.5.7-.3.8-.2 2.5 2.4 5.7 3.5 8.5 5.3 2.1 1.2 4.1 2.6 6 4.2 1.2.9 2.4 1.6 3.7 2.3.9.5.1.6-.3.9 1.5.8 2.8 1.5 4.2 2.2.3.1.7.4.9.1.2-.3.2-.7 0-1-1.4-2.6-2.2-5.4-2.3-8.3 0-.6-.2-1.1-.6-1.5-1.9-1.4-3-3.5-4.9-4.9-3.2-2.2-6.6-4.2-10.8-4-2 0-3.9-.1-5.8-.4v.4zm-49-51.2c.3.4.7.4 1 .6 4.1 1.2 7.7 3.7 10.2 7.1 1.6 2.1 2.9 4.5 5.2 6 1.3 1.1 2.9 1.6 4.6 1.6 3-.2 5.9-.7 8.9-.3 1.1.2 2 .8 3.1.7-.1-3.4-1.6-6.3-3.1-9.1-1-2-3.1-3.1-4.8-4.5-3.8-3.1-8.5-3.5-13.1-3.7-3.7-.3-7.5.2-11 1.4-.4.1-.8-.1-1 .2zm34.5-16.8c.5 2.5.6 4.9.7 7.4.3 2.1-.1 4.2-1.3 6-.9 1.4-1.4 3-1.6 4.6-.2 2-.4 3.9-.4 5.9 0 1.9 1 3.5 1.4 5.3.1.4.3.8.4 1.2.5 1.7 1.1 3.2 3.1 3.9 2.6 1.1 4.9 2.8 6.7 4.9.3.3.8 1.1 1.1 0 .8-2.1 1.4-4.3 1.8-6.5.5-3.5-.7-6.8-2.4-9.8l-5.1-8.4c-.9-1.5-1.5-3.2-1.8-4.9-.6-3.2-1.5-6.4-2.6-9.6zm-47.4-2.4c2.9 1.6 5.7 3.5 8.2 5.7.7.7 1.4 1.4 2 2.3 1.4 1.5 2.8 3 4.4 4.3 1.4 1.3 3 2.5 4.7 3.4 1 .5 2.1.7 3.2.5 2.6-.1 5.2 0 7.7.4.7.1 1.1 0 .9-.8-.1-.6-.2-1.1-.4-1.6-.5-.9-.7-1.9-.6-2.9.1-1.3-.4-2.6-1.3-3.5-1.4-1.7-3.1-3.2-5-4.4-3.7-2.1-7.8-3.2-12-3.4l-6.1-.2-.1.3c.9.3 1.8.6 2.8.8 3.6.9 7.1 1.9 10.6 3.2 3.2 1.4 6.1 3.5 8.2 6.2.7.6 1.3 1.3 1.9 2 .2.3.5.7.1 1s-.6-.2-.8-.4c-1.4-1-2.1-2.6-3.3-3.8-2.1-2.1-4.7-3.8-7.5-4.8-3.4-1.2-7-1.9-10.5-3.1-1.2-.5-2.4-.9-3.6-1.3-1.1-.1-2.4-.2-3.5.1zm2.6-14.3c-1.1-.1-2.1-.5-3.5-.4 1.3 1.2 2.4 2.5 3.6 3.7 2.3 2.1 4.5 4.3 7.3 5.7.5.3 1 .5 1.5.7h.1c.3.2.4.5.3.8-.2.3-.6.3-.8.3-.2 0-.5 0-.6-.1-1.6-1-3.1-2-4.5-3.2-2.2-1.7-4.2-3.7-6-5.8-1.2-1.4-2.7-2.4-4.4-3.1-1.3-.6-2.5-1.3-3.9-2.1.1.6.5 1.1 1 1.3 3.1 2.1 5 5.2 6.7 8.5 2.1 4 5 6.7 9.9 6.5 2.8 0 5.6.2 8.4.7-.7-1.1-.7-2.3-1.3-3.3-.8-1.5-1.3-3.1-1.7-4.8 0-.2 0-.6-.2-.5-1.5.4-2.1-.9-2.7-1.7-1.8-2.4-4.2-4-6.6-5.7-3.5-2.3-7.5-3.6-11.6-3.9-3-.2-5.7-1.5-8.6-1.4-.3 0-.7-.2-1.1.1.5.7 1.3 1.1 2.2 1.1 3.7.1 6.9 2.1 10.2 3.3 2.1.7 4.2 1.6 6.1 2.7-.1.5 0 .6.2.6zm14.8-5.5c-.6 2.4-1.8 4.8-1.5 7.5.3 2.6.3 5.3 1.5 7.8.6 1 1 2.2 1.3 3.3.3 1.6 1.7 1.9 2.8 2.3 2.7.8 4.6 2.7 6.8 4.1.6.4 1.1.8 1.6 1.3.6.5.8.2 1.1-.4 1.7-5.2-.4-9.6-2.9-13.8-1.8-3-4.2-5.5-6.4-8.3-1.5-2-2.6-4.2-3.3-6.5-.2-.6-.5-1.1-.8-1.5 0 1.1-.6 2.2.6 3.3 1 .9 1.3 2.5 1.7 3.8 1.2 3.9 3.3 7.3 5.3 10.8 1.2 1.9 2 4.1 2.4 6.3v1.2c0 .2 0 .5-.3.5s-.4-.2-.4-.4c-1.1-5.3-4.3-9.6-6.6-14.4-.9-1.9-1.6-4-2.4-6-.1-.2-.1-.6-.5-.9zm15.9 10.9c.6 1.1-.3 2.1-.3 3.1.2 1.1.3 2.3.3 3.5.2 3.6-.8 7-1.6 10.5-.5 2-.4 4.1.4 5.9.3.5.5 1 .5 1.6 0 1.4.8 1.9 2 2.2 3 .8 5.6 2.5 7.5 4.9.3.4.7.8 1.1.9.5-3.3 1.5-6.5.6-9.7-.9-3.5-2.2-6.9-3.9-10.1-2.1-3.8-3.7-8-6-11.8 0-.3-.1-.8-.6-1zm36.6 98.6c2.7.9 4.6 2.8 6.8 4.6 3.1 2.5 5.6 5.7 9.2 7.6 2.4 1.3 5.1 1.9 7.8 1.7 1 0 2 0 3.1.1.7.1.9-.1.6-.8-.9-2-1.4-4.2-1.4-6.4-.1-1.9-1.2-2.5-2.7-2.8-2.6-.7-5.2-1.6-7.7-2.5-1-.4-1.9-.9-2.8-1.5-3.7-2.1-7.7-2.2-11.8-2.2-1.4-.1-2.8.1-4.2.5.8.7 1.9 1.3 3.1 1.7zm17-22.1c.1 1.6-.1 3.3-.6 4.8-.3 1-.4 2.1-.5 3.2.1 1.5-.3 2.9-.4 4.3-.1 2.8.5 5.6 1.8 8.1.1.1.1.2.2.3.8 3.2 3.4 3.7 6 4.2l.2.1c1.9.4 1.9.4 1.8-1.7 0-1.1.2-2.2.4-3.3.3-3.4-.3-6.7-1.6-9.8-1.1-2.5-1.7-5.3-3.1-7.8-1.5-2.7-3-5.4-4.6-8.1l-.3.2c.3 1.8.5 3.7.7 5.5zm1.2 55.8c.5.4.9.3 1.4.3 3.3-.1 6.5.4 9.6 1.4 2.4.8 4.8 1.9 7.1 2.9 2 .9 4.1 1.6 6.2 2.1 1.7.4 3.4 0 4.8-.9.5-.3.4-.8.3-1.2-.3-1.6-1-3.1-2.1-4.3-3.1-3.6-7.2-5.2-11.8-5.4-1.4-.1-2.6.7-4 .9-4.1.6-8 2.1-11.5 4.2zm-13-53.6c0 1 .9 1.5 1.8 2.1 2.3 1.3 4.4 2.9 6.2 4.7.3.3.6.8 1 .6s.3-.7.3-1.1c-.2-2.1.5-3.9.9-5.9.4-2.3-.2-4.6-1.6-6.4-3.1-4.5-6.9-8.4-9.2-13.4-.1-.4-.1-1-.7-.8-.5.1-.4.7-.4 1.1-.1 2.6-.1 5.1.2 7.7.2 1.6-.2 3.1-.1 4.7.2 2.4.8 4.6 1.6 6.7zm29.8 35.7c0-2.4.5-4.7 1.5-6.8.6-1.5.2-2.9 0-4.3-1-5.7-3.3-10.9-5.7-16.1 0-.1-.1-.2-.2-.3-.2-.3-.5-.5-.8-.9-.4 1.1-.6 2.4-.5 3.6-.1 2.2-1.2 4.1-1.7 6.2-.5 2.2-.7 4.5-.6 6.8.1 3.1.6 6.1 1.5 9 .3 1 1.2 1.8 2.2 2.1 1.5.4 2.9 1.1 3.9 2.3.6-.6.4-1.2.4-1.6zM364.1 97.4c.1-2.3-.4-4.6-1.5-6.6-.8-1.3-1.3-2.8-2-4.2-1.2-2.4-3-4.5-5.2-6-1.4-1-2.7-2-3.9-3.2.4 1.1 1 2.1 1.9 2.8 3.1 3.1 5.8 6.6 8 10.4.2.4.5.8.3 1.4-1.8-2.5-3.4-5.1-5.4-7.6-2-2.4-4.3-4.5-6.3-7 2.3 4.8 5.8 8.9 7.6 13.9-2.9-5.2-6.7-9.9-9.7-15.1.4 1.6.2 3.3.8 4.8.5 1.4.8 2.8.9 4.3.3 1.7.8 3.4 1.4 5.1.2.6.7 1 1.3 1.1 4.3 1.9 7.3 5.2 10.5 8.4.3.3.2.8.9 1 .2-1.1.4-2.3.4-3.5zm-24.6-13.2c1.1 2.2 3 3.9 4.8 5.7.3.3.7.4 1.2.4 1 0 2 0 3 .2 1.1.3 1.3-.1.9-1-.4-1.2-.7-2.5-.9-3.8-.5-2.3-2.1-3.9-3.6-5.5-2.3-2.5-5.2-4.2-8-6.1-1.2-.8-2.3-1.7-3.7-2.7.1 1 .7 1.8 1.5 2.3 2.4 1.2 3.9 3.3 5.8 5 1.7 1.4 3.3 3.1 4.9 4.6l.6.6c.2.2.5.4.2.8s-.5 0-.8-.2c-1-.8-2-1.7-2.8-2.6-1.9-1.8-4.1-3.4-5.5-5.7-.2-.4-.2-.4-1.6-.5 1.8 2.7 2.6 5.7 4 8.5zm130.8 135.6c0 .3.3.4.4.6.1.2.4.4.5.6.1 2.8 1.8 5 2.6 7.5 1.1 3.3 1.7 6.8 2 10.3 0 .3-.1.8.3.8.4.1.3-.4.4-.7 1.2-2.6.5-5.3-.4-7.8-1.3-3.8-2.1-7.8-3.7-11.5-.6-1.3-.4-2.8-1.2-4.3-.5 1.5-.8 3-.9 4.5zm-19.8 11.8c1.1.4 1.9.1 2.7.5 2.2.9 4.3 1.8 6.4 2.9.9.5 2 .9 3 1.3.4.2.7.4 1.1.6.3.2.4.8.9.5.5-.3.3-.9.2-1.3-.3-1.2-1.5-1.8-2.4-2.4-2.8-1.6-5.9-2.4-9.1-2.3-.8.2-1.6-.3-2.8.2zm33.4-4.4c-.5.6-.8 1.3-1 2v.3c0 .3.4.6.7.5.6 0 .4-.4.4-.7 0-.6-.1-1.2-.1-2.1z"/>
    <path class="st1" d="M425.2 131.7c1.1 4 1.7 8.1 2.3 12.2.1.4.5 1.3-.2 1.4-.6.1-.6-.9-.8-1.4v-.3c-.2-1.9-.5-3.7-.7-5.6-.2-2.2-.3-4.5-.7-6.7 0 .2 0 .3.1.4zM460.5 242.9c.2.2.2.4 0 .6-.1.1-.4.2-.5.1-1.5-1.2-3.3-1.8-4.5-3.3 1.8.5 3.5 1.4 5 2.6zM414.2 188.9c-2.6-2.2-4.4-5.1-7.1-7.3-.2-.2-.5-.5-.1-.7.4-.2.8-.1 1 .3 1.3 2 3.2 3.5 4.6 5.4.6.8 1.6 1.3 2.2 2.6-.2-.1-.5-.2-.6-.3zM348.6 96.6c.9.4 1.6 1.2 1.9 2.1-.9-.5-1.5-1.2-1.9-2.1zM380.7 145.7c2.2.2 4.5.4 6.7.7 2.8.4 5.5 1 7.8 2.8 2.1 1.6 4.2 3.2 6.2 4.8.4.3.7.7.9 1.2.2.4.3.9-.1 1.2-.4.3-.8-.1-1-.4-1.8-2.1-3.9-4-6.1-5.6-2.7-2.2-5.8-2.6-9.1-2.9.1.2.1.3.1.3 4 2.5 7.9 5 11.9 7.5l4.5 3c.3.2.7.5.3 1-.3.4-.6.1-.9-.1-4.4-3.3-9.4-5.9-13.9-9.2-.6-.6-1.4-1-2.3-1l.3.6c1.3 1.2 2.7 2.4 4.1 3.6 1.3 1.1 2.6 2 3.8 3.1.3.3.6.8.4 1.1-.2.3-.7.2-.9-.1-1.7-1.6-3.5-3.1-5.3-4.5-2.1-1.8-4.1-3.9-6.8-5.1-1-.5-2-1-3.1-1.6.9-.4 1.7-.5 2.5-.4zM412 153.2c.6 2 1.4 4 1.1 6.2-.3 1 .2 2.1 1.1 2.7.2.1.3.4.2.6-.1.3-.4.2-.7.1-1.2-.3-1.9-1.5-1.8-2.7.2-1.4.2-2.8-.1-4.2-.3-1.1-.6-2.2-1-3.3-.8-2.2-1-4.5-1.7-6.7-.6-2-.7-4.2-.1-6.2.2.5.4 1 .5 1.5.6 2.6 1.1 5.3 2.4 7.7s2.7 4.8 3.9 7.3c1 2.2 1.6 4.6 1.8 7.1 0 .4 0 .8-.4.7s-.5-.4-.5-.7c0-.6 0-1.3-.2-1.9-.5-3.1-2-5.9-3.3-8.6-.3-1-1-1.9-1.9-2.4.1.8.4 1.8.7 2.8zM366.4 128.7c1.5.6 2.9 1.3 4.3 2 3 1.6 5.8 3.6 8.7 5.3 1.4.9 2.6 2.2 4.2 2.8 1.2.5 2.2 1.3 3.1 2.2.4.3.7.8.4 1.2-.3.4-.9.2-1.3 0-.5-.3-.9-.6-1.4-.9-2-1.4-3.7-3.4-5.8-4.6-3.2-1.8-6-4.3-9.5-5.7-1.4-.6-2.9-1.4-4.2-2.2.4-.4 1.1-.4 1.5-.1zM396 124.3c1.1 3 2 6.1 3.3 9.1 1.6 3.7 2.6 7.5 1.9 11.6-.1.3-.2.6-.5.6s-.4-.3-.4-.6.1-.5.1-.7c.3-1.9.3-3.8-.1-5.7-.7-3.4-2.4-6.4-3.7-9.6-.8-1.8-1.3-3.8-1.4-5.8.4.2.7.6.8 1.1zM439.9 216.7c2.2.8 4.3 1.8 6.3 2.9 3.1 1.4 6.1 3.1 8.8 5.2.3.3.5.4.3.8-.3.4-.6 0-.8-.1-.7-.4-1.3-.9-1.9-1.3-2.7-1.9-5.6-3.5-8.6-4.8-1.8-.8-3.3-1.9-5.2-2.8.4-.1.7 0 1.1.1zM451 228.8c.3.1.4.3.4.6-.1.4-.5.3-.8.2-.3-.1-.6-.2-.8-.3-2.3-1.3-4.5-2.7-6.7-4.2-.5-.4-1.4-.4-1.5-1.6 3 1.9 6.2 3.7 9.4 5.3zM453 207.1c-1.6-3.5-2.8-7.2-3.8-10.9 2 3.4 3.3 7.1 3.8 10.9zM453.9 215.4c0 .5-.3.9-.9.7-1.1-.5-2.2-1.3-2.9-2.2-.2-.2-.1-.6.1-.8.2-.2.5 0 .7.1.4.3.7.6 1.1.9.6.5 1.1.5 1.1-.5.1-.7.3-1.4.8-1.9 0 1.5.1 2.6 0 3.7zM475.3 252.9c.3.4.4 1 .2 1.5-.3.9-1.3 1.3-2.2 1-.7-.2-1.4-.5-2-.8-3.5-1.7-7.3-3.1-11.1-4-1.8-.5-3.6-.8-5.4-1-.3 0-.8-.1-.8-.5s.4-.4.7-.3c2.9.3 5.7.8 8.5 1.6 3.2 1 6.3 2.3 9.3 3.7.6.3 1.5.5 1.9 0s-.2-1.1-.4-1.6c-.1-.3-.8-.6-.4-.9s.8.2 1 .4.5.6.7.9zM434.9 184.6c-.5-1.5-.7-3-.8-4.5 0-.3.1-.6.4-.7h.1c.1 0 .3.1.3.2.1 1.3 1.3 1.9 1.8 2.9 1 1.9 2 3.8 3.1 5.6 1.2 1.8 2.7 3.4 3.5 5.4.5 1 .8 2.2.7 3.3-.8-2.1-1.2-4.2-2.7-5.7-1.9-1.9-3.4-4.2-4.6-6.6l-1.2-2.1-.2.1c.6 2.4 1.2 4.7 1.8 7.1-1.3-1.5-1.5-3.4-2.2-5zM461.3 225.9c-1.3-3.1-2-6.5-2-9.9 0-2.7.9-5.2 1.3-7.9 0-.2.1-.5.3-.5.2 0 .4.2.5.3.2.3.3.7.3 1 .7 2.4 1.2 4.8 2 7.2.8 2 1.4 4.1 1.6 6.2 0 .5.4 1.1-.3 1.3s-.6-.6-.6-1c-.3-2.2-.9-4.5-1.7-6.6-.6-1.8-1.1-3.7-1.4-5.6-.1-.3 0-.8-.6-.7-.5.1-.2.5-.2.8 0 1.1 0 2.2-.1 3.4-.6 4.3.4 8.5 1.8 12.5.2.6.9 1.6.4 1.9-.6.3-.7-1.1-1-1.5-.2-.3-.3-.6-.3-.9z"/>
  </g>
  <g>
    <defs>
      <path id="SVGID_3_" d="M6.8 367l280.4 358.3L625 460.9 344.5 102.6 6.8 367zm531.6 50.2c-2.2-1.3.2-4.4 2.3-3.1 1.8 1.1 3.8 2.2 5.7 3.3l.2-.1c.9-.7 2.1-.5 2.8.3 1.2 1.2 2.4 2.5 3.6 3.7 14.2 8.9 29.3 20.3 35.1 34.9 2.1 1.9 4.3 3.8 6.5 5.6.3.2.5.5.6.8l5.3 4.2c.8.7 1 2 .3 2.8 1.8.9 3.7 1.8 5.6 2.6 2.3 1 .9 4.7-1.5 3.7-14.8-6.4-28-14.8-37.7-27.9-.6-.7-.5-1.8.1-2.5-.3-.6-.3-1.4.2-2-5.1-4.3-9.9-9-15-13.3-.2-.2-.4-.4-.5-.6-.5-1-.1-2.3.9-2.8-.6-.6-1.1-1.2-1.7-1.8-.8-.5-1.5-1-2.3-1.5-.5 0-1-.3-1.4-.7l-.2-.3c-2.8-1.7-5.8-3.5-8.9-5.3zm-74.7-66.9c-1.7-2.2-3.4-4.5-5.1-6.6-.2-.1-.4-.3-.5-.5-5.6-7.2-10.7-14.8-16.3-22.1-1.5-2.1 1.6-4.5 3.1-2.5.8 1 1.5 2 2.3 3 .6-.1 1.3.2 1.6.8l1 1.3c.6 0 1.1.2 1.5.7 3.5 3.7 5.8 8.3 8.8 12.5.2.3.3.6.4 1 .8 1.2 1.6 2.4 2.3 3.7.3.4.4 1 .3 1.5 1.2 1.7 2.5 3.3 3.8 5 1.5 1.8-1.6 4.3-3.2 2.2z"/>
    </defs>
    <clipPath id="SVGID_4_">
      <use xlink:href="#SVGID_3_" overflow="visible"/>
    </clipPath>
    <g clip-path="url(#SVGID_4_)">
      <path class="st1" d="M143.3 395.3c2.9-5.6 6.7-10.6 10.1-15.9 1.4-2.2 3.3-3.9 4.5-6.3 2.5-5.2 4.5-10.6 6-16.1.3-.9.9-1.7.7-2.9-1 .3-1.8 1-2.2 1.9-1.4 2.2-3.2 4.1-5.2 5.7-5.8 5.2-10.4 11.8-13.3 19.1-1.4 3.8-3 7.5-4.8 11.1-1.6 3.5-3.6 6.8-6 9.9-.2-.8.4-1.3.8-1.9 2.8-4.6 5.2-9.5 7.2-14.5 1.6-3.9 3-8 4.1-12.1.8-3.2 2-6.3 2.7-9.5.1-.5.5-1-.1-1.6l-5.7 5.9c-2.4 2.5-4.9 4.9-7.5 7.2-2.6 2.2-4.3 5.2-6.1 8-1.8 2.6-3.3 5.4-4.5 8.3-1.1 2.7-2.3 5.4-4.7 7.4 2.5-4.2 4.5-8.6 6-13.2 1.5-4.5 3.7-8.9 3.9-13.9-3.4 4.1-7.9 6.6-11.9 9.9-2.9 2.5-6 5-7.7 8.6-1.8 3.9-4.4 7.3-6.4 11.1-.5.9-1.1 1.8-1.8 2.6-2.4 2.2-4.2 4.9-6.4 7.2-2.7 2.8-4.7 6.2-7.7 8.6-.2-.6.3-.9.6-1.2 3.5-4.6 7.6-8.7 11.1-13.4 2.5-3.3 4.9-6.6 6.4-10.5 2.3-5.8 4.6-11.7 6.9-17.5.1-.2 0-.5-.3-.6-.4.2-.8.5-1.2.7-4.9 4.1-10.3 7.4-14.9 12-2 2.1-4.2 4-5.8 6.4-3.3 5.4-7.5 10-11.3 15-.2.1-.4.2-.5.3 3.7-5.1 7.1-10.3 10.5-15.6 3.5-5.2 6.4-10.7 8.8-16.5-.8-.2-1.7-.1-2.4.3-5.7 2.3-11 5.3-15.9 9.1-4.4 3.1-8.6 6.5-12.9 9.8-4.7 3.4-9.1 7.2-13.3 11.2-1.2 1.2-2.5 2.3-3.7 3.4 1.2-2.1 3.1-3.5 4.7-5.1 3.7-3.5 7.6-6.7 11.7-9.7 6.3-4.8 12.6-9.7 18.9-14.7 1.9-1.5 3.6-3.4 5.4-5.2 3.5-3.3 6.3-7.5 10.7-9.8-.4-.5-.8-.4-1.2-.4-4.9-.4-9.8-.1-14.6 1.1-5 1.2-10 1.1-15.1 1.1 1-.7 2.1-.6 3.2-.8 2.7-.5 5.5-.1 8.1-1 4.2-1.4 8.5-2.7 12.6-4.2 3.4-1.1 6.6-2.5 9.6-4.4 3.1-2.1 6.8-3.1 10.5-3 1.3.1 2.6.1 3.9.1-3.4-2.1-7.1-3.5-11.1-4-1.8-.2-3.7-.6-5.5-1-3.3-.9-6.8-1.5-10.2-1.7-.4 0-1 .1-1-.7 1.4 0 2.8.1 4.1.3 3.4.4 6.7.6 10.1.5 4.6-.2 9.2-.8 13.6-1.8 2.2-.5 4.4-1 6.7-1.2 5.5-.4 11-.2 15.9 2.9.9.6 1.4-.1 2-.9-1.3-.4-2.5-1.1-3.5-1.9-2-1.4-4.2-2.4-6.6-2.9-7.3-1.8-14.7-3.1-22.1-4.1-6.7-.9-13.3-2.4-20.1-3.1-.7-.1-1.3-.3-1.9-.4 2.4-.1 4.7.1 7 .5 8.5 1.5 17.1 2.6 25.7 3.2 2.4.2 4.8.3 7.2.7 3.3.6 6.6.5 9.9-.2 4.6-1.1 8.9-3.3 14.3-3.6-1.3-1-2.8-1.8-4.3-2.3-5.5-1.9-11.3-2.7-17.1-3.4-1-.1-2.1-.2-3.1-.4-7.8-1.9-15.7-3.2-23.6-4.4-1.5-.2-3-.1-4.4-1 3 .2 6 .4 9 .9 5.4.9 10.6 2 16 2.7 5 .7 10 .7 15 1 4.8.3 9.5-.1 14.2-1.1 3.2-.6 6.3-1.6 9.7-2 3.4-.4 6.8-.5 9.9 1.2l2.4.9c-.9-1.4-2.2-2.4-3.6-3.2-4.8-3.1-9.7-6.1-15.5-7.2-1-.2-2-.6-3-1-2.3-1.1-4.6-1.9-7-2.5-6.3-1.4-12.3-3.9-18.5-5.7-.5-.1-.9-.4-1.9-.8 1.2-.1 2.5.1 3.6.6 5.1 1.6 10 3.5 15.3 4.7 1.7.4 3.3.9 4.8 1.5 2.8 1 5.7 1.8 8.6 2.5 5 1.3 9.9 2.9 15.2 2.8 3.2 0 6.4.5 9.6-.3 2.7-.8 5.6-.8 8.4-.1.3.1.9.4 1.3-.3-1.1-.8-2.1-1.7-3.1-2.6-3.7-3.6-8.1-6.4-12.9-8.4-2.1-.8-4.2-1.6-6.3-2.5-6.2-2.6-12.1-6.1-18.6-8.2-.6-.2-1.2-.5-1.6-1.1 2.2.4 4.4 1.1 6.5 1.9 3.7 1.3 7.1 3.5 10.7 5 4.1 1.7 8.2 3.4 12.4 4.8 6.1 2.2 12.5 3.1 19 2.7 2.7-.2 5.5-.2 8.2.1 1.3.1 2.5.2 3.8.3l.2-.4c-2.5-1.1-4.3-3.2-6.7-4.6-5.1-3-10.8-4.7-16.3-6.6-8.8-3-17.5-6.1-26.3-9.1-.6-.2-1.2-.3-1.6-.9.4-.3.8 0 1.2.1l13.5 4.5c9.1 3.1 18.1 6.2 27.3 9.2 4.7 1.7 9.8 1.8 14.6.4 2.2-.7 4.6-.9 6.9-.5 1.6.3 3.3.4 5 .6-1.3-1.4-2.8-2.4-4.6-3.1-2.3-.9-4.7-1.7-7-2.7-5.5-2.2-11.1-3.9-16.9-5.2-2.4-.6-4.8-1.3-7.2-2.2-5.7-2.2-11.2-4.9-17.2-6.3-.8-.2-1.5-.4-2.3-.6 3.2.1 6.4.8 9.4 2 6.9 2.5 13.5 5.9 20.8 7 .2.1.5.2.7.3 4.2 1.3 8.3 2.8 12.5 3.8 5.5 1.5 11.3 1.9 17 1.2 3.2-.5 6.4-.7 9.6-.7 1.1 0 2.3.4 3.5.2-.2-.3-.2-.5-.3-.6-3.4-2.2-7-4-10.8-5.3-3.2-1.1-6.5-1.9-9.7-3-7.4-2.5-15.1-4-22.5-6.5-2.2-.6-4.3-1.5-6.3-2.7.2-.1.5-.1.7 0 4.9 1.5 9.6 3.2 14.6 4.4 5.3 1.2 10.4 3 15.6 4.5 1.5.4 3 .6 4.4 1.2 5.2 2.1 10.7 3.2 16.2 3.4h13.8c.6 0 1.3.3 1.8-.3-.4-.8-1-1.5-1.8-1.9-2.5-1.9-5.2-3.4-8.1-4.7-6-2.6-12.1-5-18.2-7.4-3-1.2-5.5-3.1-8.4-4.9.5-.2 1.1-.1 1.5.3 4.1 2.4 8.4 4.4 12.9 5.9 2.9.9 5.3 2.3 8.2 3.4 2.9 1.1 5.9 2.2 8.9 3.2 2.9 1.1 6 1.8 9.2 2 4.2 0 8.4.1 12.4 2.2-.3-1.4-.9-2.6-1.8-3.6-3.2-4-6.9-7.6-10.9-10.8-3.1-2.7-6.8-4.6-10.2-6.9-1.5-.9-2.9-2.2-3.9-3.7 1.9 1.4 3.8 2.7 5.8 3.9 4 2.3 7.7 4.9 11.5 7.5 5 3.3 10 6.5 15.9 8 2.4.5 4.6 1.4 6.8 2.5 2.4 1.1 4.3 3 5.4 5.4.4 1.2 1.5 2.1 2.8 2l9.9.9c8.7.7 17.5.4 26.3 1.5 8.7 1 17.4 2.7 26.1 3.7 5.6.7 11 2.3 16.6 3.3 5 .9 10 1.8 14.9 2.9 6.3 1.5 12.5 3.3 18.5 5.4 8.7 2.9 17.3 6.3 25.6 10.3 1.6.8 3.3 1.3 4.8 2.2 4.2 2.4 8.5 4.6 12.7 7 3.9 2.1 7.7 4.4 11.4 6.8 7.3 5.2 14.9 9.9 22.1 15.2 6 4.5 12.1 9 17.9 13.9 3.2 2.7 6.1 5.8 9.5 8.2 1.8 1.3 3.5 2.8 5.1 4.4.3.3.5.9 1.2.5-.4-.6-.7-1.1-1-1.7-3.1-4.8-5.7-9.9-7.8-15.3-3.7-9.1-7.5-18.2-11.5-27.1-1-2.2-2-4.4-3.2-6.5-2.6-4.5-5.6-8.7-9-12.6-7.6-9.1-15.4-18-25.1-25-4-2.9-7.5-6.4-11.7-8.9-2.3-1.4-4.7-2.8-6.9-4.4-4.7-3.3-9.2-6.8-13.8-10.3-5-3.8-10.4-7-15.5-10.7-4.6-3.4-9.4-6.5-14-9.9-7.6-5.6-15.1-11.3-22.6-17-.5-.5-1.2-.8-1.8-1.1-2.7-.8-4.9-2.5-7.2-3.8-.9-.3-1.5-1.1-1.7-2 1.1-.1 2.1.2 3 .8 6.5 3.8 13 7.5 19.5 11.3.7.4 1.4.8 2.1 1.1 3.4 1.4 6.6 3.1 9.7 5 7.8 5 15.7 9.9 23.7 14.5 3.6 2.1 7.2 4 10.7 6.2 5.8 3.7 11.5 7.5 17.4 10.9 10.6 6.2 20.7 13.1 30.3 20.7 6.4 5 11.2 11.6 15.9 18.2 2.9 4.1 4.9 8.7 6.9 13.3 1.7 3.6 3.1 7.3 4.2 11.1.2.9.5 1.7.9 2.5 2 4.5 3.7 9.1 5 13.8 1.8 5.9 3.9 11.7 6.4 17.3 1.8 4 3.9 7.9 5.8 11.9 2.5 5.1 5.6 10 9.1 14.5 4.2 5.5 8.8 10.5 12.8 16.1 2.8 3.9 5.7 7.8 8.7 11.6 8 9.8 15.3 20 22.5 30.3 1.5 2.1 3 4.2 4.4 6.3 3.3 4.9 6.5 9.9 10 14.8 5.4 7.7 6.8 14.3 1.9 6.8-4.9-7.3-9.4-14.8-14.5-22-4.4-6.2-8.5-12.5-13.1-18.6-3.3-4.4-6.6-8.7-9.8-13.2-1.8-2.5-4.1-4.7-6-7.3-6.9-9.8-14.5-19.1-21.7-28.7-.8-1.1-1.6-2.2-2.8-3.7.2 1.1.7 2.1 1.4 3.1 0 .1.1.1.1.2.4.7.1 1.5-.5 1.9-2.6 2-1.9 2.8-.5 4.6 2.6 3.2 4.9 6.3 7.6 9.3s5.4 6.2 8 9.4c1.6 2 2.7 4.3 4.7 6 .3.2.5.5.6.8 2.7 5.5 7.1 9.8 10.6 14.6 2.9 4 5.9 7.9 9 11.6 1.1 1.3 1.8 2.9 2.8 4.2.6 1.1 1.6 2.1 2.7 2.7 1.3.6 1.7 2.1 2.3 3.3 1.8 3.2 3.9 6.3 5.6 9.5 2.1 3.9 4.8 7.4 6.5 11.6 1 2.3 2.7 4.2 4 6.4 4.7 8 7.9 17.8 1.2 6.5-2.2-3.8-4.1-7.9-6.4-11.7-2.2-3.7-4.5-7.3-6.8-10.9-1.7-2.6-3-5.5-5.9-7.3-.6-.4-1.6-1-1.4-2.1.2-.9-.1-1.8-.7-2.5-2-3-4-6.1-6.1-9-1.9-2.6-4.1-5-5.9-7.6-4.4-6.5-9.8-12.2-14.3-18.6-2.8-3.8-5.9-7.5-8.8-11.2-2.8-3.9-5.8-7.7-9-11.4-1.6-1.6-3.1-3.3-4.3-5.2-1.1-1.6-2.4-3-3.9-4.1-.7-.6-1.3-1.2-2-1.8-1.5-1.4-2.8-2.9-4.4-4.2-5.1-4.2-10-8.7-14.7-13.3-5.7-5.7-12.3-10.4-18.3-15.7-2.6-2.2-5.4-4.1-7.9-6.4-4-3.5-8.3-6.6-12.9-9.3-7-4.4-14.3-8.4-21.9-11.9-5.8-2.7-11.6-5.3-17.5-7.5-5.1-1.9-10.3-3.7-15.4-5.5-5.2-2.1-10.6-3.8-16.1-5.3-6.2-1.4-12.2-3.5-18.5-4.6-3.8-.7-7.7-1.7-11.5-2.4-3.9-.7-7.8-1.2-11.7-1.8-2.5-.4-5-.5-7.4-1-5-.8-10.1-1.4-15.1-1.8-5.7-.5-11.4-.6-17.1-.8-4.3-.2-8.7.1-13 .9-2 .4-4.3.7-5.6 2.6-1.7 2.1-3.6 4.1-5.8 5.8-2.6 2.3-5.6 4.1-8.3 6.2-5.9 4.7-11.6 9.8-17 15.1-.8.8-1.6 1.6-2.5 2.3-4.4 3.3-8.6 6.8-12.5 10.7-.7.6-1.3 1.2-2.1 1.7-.5.6-1.2 1-2 1.2 3.5-3.5 7-6.9 10.7-10.2 4.6-3.9 9-8 13.1-12.4 3.2-3.6 5.1-7.8 6.5-12.2.3-.5.2-1.1-.1-1.6-5 3-10.2 5.5-15.6 7.7-3.6 1.2-7 3-9.9 5.5-4.9 4.5-9.9 8.7-14.8 13.3-2.2 2-4.4 3.9-6.7 5.9-1.2 1.3-2.6 2.4-4.1 3.2-.1-.7.3-.9.6-1.1 3-2.3 5.5-5.2 8.3-7.7 5.1-4.7 10.1-9.6 14.9-14.5 1.9-1.9 3.4-4 4.5-6.4-3.2 1.4-6 2.1-8.8 3.2-1.5.6-3.1.7-4.6 1.3-4.6 1.8-8.6 4.8-11.7 8.7-1.4 1.8-2.9 3.5-4.5 5.1-3.4 3.3-6.8 6.6-10.4 9.8-1.5 1.6-3.2 2.8-5.2 3.7.4-.7.8-1.3 1.4-1.8 5.7-4.6 10.6-9.9 15.5-15.2.6-.6 1.2-1.3 1.6-2.1 1.3-2.1 2.7-4.2 4.3-6.1.4-.4.7-.9.8-1.5-2.2 1.3-4.4 2.3-6.8 3.1-2.6 1-5.2 2.2-7.6 3.6-5 3-9.3 7-12.6 11.8-2.4 3.5-5.3 6.7-8.6 9.4-1.3 1-2.6 2.2-3.7 3.4-3 3.4-5.5 7.2-8.3 10.7-2.2 2.7-4.2 5.6-6.8 8 0-.3.1-.7.3-.9 4-5.1 8-10.1 11.7-15.4 1-1.3 2.1-2.5 3.2-3.6 1.8-1.8 3.8-3.4 5.7-5.2 3.1-3.1 5-6.9 7.7-10.2 1.3-1.6 2.5-3.3 3.6-5.1.3-.5.8-1 .6-1.7-2.6 1.5-5.3 3-7.7 4.6-2.4 1.6-5 3-6.8 5.3-1.4 1.8-2.7 3.8-4.1 5.7-2.7 3.7-5 7.7-7.9 11.3-.3.4-.5 1-1.4.9 3.7-6 8.2-11.4 10.6-18.2-3.4 2.6-6.6 5.4-9.7 8.4-1.6 1.6-3 3.3-4.2 5.2-3.7 6-7.4 11.9-11.2 17.8-2.2 3.3-4.3 6.6-6.3 10-1.3 2.7-3 5.2-4.9 7.5 3.9-8 8.9-15 13.3-22.4 1.4-2.4 2.9-4.6 4.3-7 1.1-1.7 1.9-3.6 2.4-5.5.4-2.3.9-4.6 1.7-6.8.1-.5.5-1-.2-1.6-2.1 2.5-4.3 4.8-6.7 6.9-1.5 1.3-2.9 2.8-4.2 4.3-2.5 3.3-4.8 6.9-6.6 10.7-2.2 4.3-4.9 8.4-8 12.1-1.9 2.4-3.7 5-5.5 7.6-1.1 1.6-2.6 4.6-5 6.9zm151.2-95.5c.1 0 .1.1.2.1 1.4.2 3.2.6 4-.9s-.2-3.1-1.3-4.3c-1.4-1.6-3.2-2.9-5.3-3.7-2.7-1.2-5.6-1.9-8.1-3.7-.6-.5-.4-.7.1-1 1.6 1.3 3.7 1.6 5.6 2.2 2.3.8 4.6 1.9 6.8 3.1-.9-1.4-2.3-2.5-3.9-3-2.4-1-4.8-1.8-7.3-2.4-.4-.1-.8 0-1.1.2-1.4-1.7-3.7-1.8-5.4-3 .2 1.3 1.2 1.8 1.8 2.7 2 3.2 4.2 6.3 6.7 9.1 1.6 1.9 3.6 3.4 5.9 4.4.4.4.9.4 1.3.2zm197.4 12.6c1.5.7 2.9 1.9 3.9 3.3 3 4.1 6 8.2 9.1 12.2.2.4.5.7.9.9-.3-2.9-1.6-5.5-2.8-8.1 1.1.7 1.9 1.7 2.5 2.9 2.1 4.5 4.2 9.1 6.1 13.7 1.8 4.4 3.8 8.8 5.7 13.3 2 4.7 4.4 9.1 6.1 14 0 .1.2.2.5.4-.1-1.1-.4-2.1-.9-3-1-2.7-1.9-5.5-2.7-8.3-1.1-3.9-2.5-7.7-4.2-11.3-1.4-3.1-1.9-6.5-3.3-9.6-2.7-6-4.8-12.4-8.7-17.8-3.8-5.2-7.5-10.5-12.3-14.9-3.6-3.2-7.4-6.3-11.3-9.1-6.2-4.6-12.5-8.8-19.1-12.8-9.3-5.6-18.4-11.6-27.8-17-5.9-3.4-11.6-7-17.4-10.4-4.1-2.4-8-5.1-12.1-7.6-3.2-1.8-6.6-3.4-10-4.7 1.9 1.8 4 3.5 6.2 4.9 6.9 5.2 13.9 10.2 21 15.2 6.6 4.6 13.5 8.8 19.8 13.9 3 2.4 6.2 4.7 9.3 6.9 3.2 2.2 6.7 4 9.7 6.4 6 4.8 12.6 8.8 18 14.2 6.6 6.4 12.8 13.2 18.6 20.3.6.8 1.2 1.4 1.8 2.2-1.9-3.6-4.4-6.8-6.6-10.1zm42.1 80.1c-1.5-1.7-3.2-3.2-4.9-4.6-.7-.5-1.3-1-1.9-1.5-3.8-3.9-7.9-7.6-12.2-11-7.1-6-13.9-12.3-21.5-17.6-5.2-3.7-10.3-7.6-15.6-11-3.4-2.2-6.6-4.6-10-6.8-3.6-2.3-7.4-4.3-11.1-6.4-2.7-1.5-5.5-2.8-8.1-4.4-2.6-1.6-5.3-3-8.2-4.1-4-1.5-7.6-3.8-11.6-5.4-8.8-3.4-17.7-6.4-26.8-9.2-5-1.4-10-2.5-15.1-3.2-4.8-.9-9.6-2-14.5-3-4.6-.9-9.2-1.7-13.8-2.3-5.6-.8-11.2-1.8-16.7-2.5-8.4-.9-16.9-1.5-25.3-1.5-4.6-.1-9.2-.1-13.8-.4-1.1-.1-1.7.1-2 1.2-.2.9-1 1.4-1.5 2.2-.3.6 0 1 .6 1 .8-.1 1.6-.2 2.4-.4 5.3-1.4 10.7-1.4 16.1-1 1.3.1 2.6-.1 3.9-.1 8.6.3 17.2 1 25.8 2.2 5.5.8 11 1.6 16.5 2.3 4.4.5 8.7 1.7 13 2.6 4.7.9 9.4 1.9 14.1 3.3 8 2.4 16.2 4.1 24 7.3 3.8 1.6 7.8 2.5 11.6 4 4.6 1.7 9.2 3.7 13.8 5.7 9.3 4 18.4 8.7 27 14.2 5 3.1 9.8 6.5 14.4 10.2 6.9 5.6 13.8 11.1 20.7 16.7 2.8 2.2 5.3 4.7 7.9 7.1 4.2 4 8.6 7.7 12.8 11.7 2.6 2.5 5.1 5.1 7.7 7.6.6.5 1 1.7 2.1.9.2-.1.3-.2.4-.3.9-.8.9-2.1.1-3 0-.2-.1-.3-.3-.5zm-388.8-42.9c-.4-.1-.8 0-1.2.2-3.5 2.2-7 4.2-9 8.2-.8 1.6-2 3.1-2.8 4.8-1.3 2.4-1.3 5.1-1.7 7.7-.5 3.6-1.4 7.1-2.6 10.5-.1.4-.2.7-.4 1.4.7-.1 1.2-.6 1.4-1.3 1.2-2.5 3-4.8 5.2-6.6 3.5-3.2 7-6.5 10.2-9.9 1.9-2.1 3.4-4.4 4.6-7 1.2-2.5 1.6-5.2 2.6-8-2.3-.1-4.4.2-6.3 0zm24.1-9.4c-.7.4-1.5.7-2.3.8-3.1-.2-5.6 1.4-8 2.9-.2.2-.5.4-.8.5-3.2.5-4.3 3.2-5.5 5.6-1.3 2.6-1.7 5.5-2.5 8.3-.1.3.1.6.1 1.2 1.4-1.6 2.5-3.5 3.3-5.6 1-2.9 2.7-5.5 4.9-7.7 1.2-1.3 2.9-2.1 4.7-2.4.5 0 1.1.1 1.1.6s-.5.6-.9.7c-4.9.8-7 4.6-8.8 8.5-.9 2-1.5 4.3-3.2 5.6-1.7 1.3-2.2 3-2.6 4.9-.4 2.2-1.1 4.4-1.8 6.5-.3.4-.3 1-.1 1.4.7.1.9-.6 1.1-1 2.3-3.9 5.2-7.4 8.7-10.3 3-2.7 5.3-6 8-9 .6-.8 1-1.6 1.2-2.6.6-3.1 1.8-6.1 3.4-8.9zm-35.9 18.6c-8 .4-13.2 4.6-16.6 11.1-2.7 5.1-4.9 10.5-6.7 16.1-.2.6-.7 1.1-.3 1.9.2-.1.4-.2.6-.4 2.8-3.9 6.5-6.6 10.3-9.5 3.1-2.3 6.2-4.7 8.2-8.1.5-.7.9-1.5 1.1-2.4.5-3.1 1.6-6.1 3.4-8.7zm47.5-27.2c-.5-.9-1.2-1.1-1.5-.9-1.1 1.1-2.1.3-3 0-1.1-.3-2.1-.6-3.1-1.1-3.1-1.7-6.5-1.7-9.9-1.4-3.1.3-6.2.9-9.2 1.6-4.1 1-8.4 1.5-12.6 1.5.4.6 1 .5 1.4.6 3.3.7 6.5 1.9 9.5 3.4 2.3 1 4.6 2.2 6.8 3.6 1.3.8 2.9 1.2 4.4 1 1.9 0 3.8-.8 5.7-.7.3 0 .6-.2.8-.5 2.8-3.3 6.5-5.8 10.7-7.1zm-17.6 32c1.3-1.7 2.5-3.5 3.7-5.4 1.6-2.4 3.5-4.6 5.7-6.5 2.9-2.6 5.5-5.4 7.8-8.5.3-.4.5-.8.7-1.2 1-2.5 1.8-5 3.2-7.2-.7-.8-1.8-1-2.8-.6-2.3.7-4.6 1.3-6.9 2.2-1.6.8-3 2-3.9 3.5-2.2 3.4-3.8 7.2-4.5 11.1-.7 3.1-1.5 6.1-2.5 9.1-.4 1.1-.6 2.3-.5 3.5zm-23.9-12.5c-5.7-2.8-11.3-4-17.1-2.8-4.3.8-8.6 1.5-12.9 1.9-.7.1-1.5 0-2 .7.4.6 1.2.5 1.7.6 3.3.7 6.5 1.8 9.5 3.4 3.2 1.7 6.8 2.7 10.4 2.9 1 0 2.1 0 3.1-.1 1.5 0 2.8-.9 3.4-2.3.7-1.7 2.5-2.7 3.9-4.3zm40.7 1.6c3.5-4.9 7.8-8.5 12.1-12.1 2.4-2 4.2-4.7 5.2-7.7.7-2.1 1.7-4 2.9-5.8.3-.3.4-.7.3-1.1-7.5-.6-13.9 4.6-16.1 11.7.8-.3 1.4-.8 1.8-1.6 1.8-2.8 4.6-4.5 7.3-6.2.8-.5 1.6-.7 2.5-.7.5-.1 1 .3 1.1.7.2.6-.4.8-.8 1-1.1.3-2.1.7-3.2 1-2.1.8-4 2.1-5.3 4-.1.2-.3.4-.5.6-5 3.9-5.9 9.9-7.3 15.6-.2 0-.1.2 0 .6zm33.2-21.5c.4 0 .6.1.7.1 3.1-2.6 6.8-4.2 10.4-6 1.1-.5 2.2-.9 3.4-1.3 2.9-.9 5.6-2.6 7.5-5 .4-.6.9-1.1 1.6-1.4 2.9-1 3.8-3.9 6.1-5.7-6.5-2.5-12.2-1.5-17.2 2.9-3 2.6-4.9 6.1-7.5 9.1-2 2.2-3.2 4.9-5 7.3zm6.2-11.1c-.3-.5-.9-.3-1.1-.6-3.5-3-6.9-1.2-10.1.4-3.6 1.8-6.4 4.8-7.7 8.6-1.2 3-2.3 6-3.3 9.1-.2.4-.1.8.1 1.1 2.7-2.5 5.6-4.6 8.9-6.3 2.5-1.3 4.8-2.9 6.9-4.8 2.4-2.2 4.5-4.7 6.3-7.5zm36.7-16.1c-1.7-1-3-1.8-4.3-2.6-.3-.2-.7-.4-1.1-.5-5-.6-9.9-2-15-.9-2.5.5-5 .6-7.5.2-.5-.2-1.1-.1-1.6.3-.2.7.4.8.8 1 2.1 1.4 4.3 2.8 6.4 4.2 2.6 1.8 5.5 3 8.6 3.6 1.6.5 3.4.1 4.8-.9 1.2-1 2.5-1.7 3.8-2.6 1.4-.9 3.1-1.1 5.1-1.8zm-34.3 12.8c-.7-.7-1.4-.5-2.1-.5-1.1 0-2.1-.3-2.9-.9-2.2-1.7-4.8-2-7.3-2.1-2.3 0-4.5-.1-6.8-.3-2.8-.3-5.6.4-8.4-.1s-5.7-.7-8.8-1c.1.6.5 1 1.1 1.2 1.8 1.3 3.5 2.8 5.3 4.2 3 2.2 6.4 3.8 10 4.7 1.2.3 2.5-.1 3.3-1.1 1.4-1.3 3-2.5 4.6-3.4 3.4-1.9 6.5-1.8 9.6.7.6.5.9.5 1.4 0 .4-.3.8-.8 1-1.4zm-61.7 23.8c-2.1-.7-3.2-2.1-4.9-2.5-2.5-.5-5-.3-7.4.5-2.1.5-4.1 1.4-6.2 2-3.5 1.2-7.2 1.6-10.9 1.4 0 .7.4.7.7.7 2.7.6 5.2 1.6 7.5 3.2 3.2 2.2 7.2 3.1 11.1 2.4 1.6-.1 3.1-1.1 3.9-2.5.8-1.2 1.8-2.3 3.1-3 .9-.6 1.8-1.3 3.1-2.2zm-35.1 18.2c-1.8-.5-3.1-.8-4.6-.3-1.2.3-2.4.2-3.6-.3-3-.9-6.1-.7-9 .5-1.4.5-2.7 1.1-3.9 1.8-3.9 2.2-8 3.8-12.3 4.9-.4 0-.8.3-.9.7 2.6-.2 5.3-.2 7.9 0 2.7.1 5.3.4 7.9.9 3.5.7 7-.3 10.4-1.3.6-.2 1-.5 1.3-1 1.5-2.6 3.9-4.2 6.8-5.9zm60.1-31c-2.7.8-5.2-.1-7.8-.7-.1.9.5 1 .9 1.3 1.7 1.1 3.6 1.8 5.6 2 1.6.3 3 .3 4-1.3.3-.4.7-.7 1.1-.9 1.4-1.2 2.9-2.2 4.5-3.1 2.1-1.5 4.8-1.8 7.2-.9.5.2 1 .1 1.1-.4.1-.5-.4-.6-.8-.7-.6-.1-1.3-.5-1.9-.4-2.5.5-4.8-.5-7.1-1-2.5-.6-5.1-.7-7.6-.2-3.7.9-7.4.2-11.1 0-1.9-.1-3.8-.2-5.8-.3 5.5 3.4 11.5 5.7 17.7 6.6zm60.8-32.7c4.5 3 8.3 6.9 13.7 8.3 2.1.5 4.2.3 6.2.9.5.1.9-.2 1.3-.5 1.6-1.1 3.3-2.1 5.1-2.9-3-3.8-6.6-6-11.5-5.9h-13.5c-.5-.3-1-.2-1.3.1zm18.7-5c0 .6.2.8.6.9 4.4.8 8.7 2 13.2 2.5 2.2.2 4.1 1.6 5.9 2.7.5.3.7.7.4 1.2-.2.3-.7.5-1 .3-.7-.3-1.3-.7-2-1-2.8-1.6-5.6-2.8-9.1-2.5 1.5 1.5 3.2 2.4 5.2 3.8-2.5.3-3.6-1.3-5.1-2-1.5-.7-2.8-1.8-4.6-2 2.5 3 4.7 6.3 8.8 7.3.9.2 1.7.5 2.5.9 2 .7 4.2.7 6.1-.2 1.3-.4 2.5-1.1 4-1.8-2.4-1.6-3.8-3.9-5.5-5.8-1.2-1.4-3.2-1.7-4.9-2.3-3.6-1.3-7.4-1.2-11.2-1.6-1.2-.3-2.2-.3-3.3-.4zm-5.3 20.9c-1.3.2-2.2 1.3-3.8 1.4 1.2-1.7 3.1-1.9 4.3-3.6-2.1-.5-4.4-.2-6.3.9-2.7 1.6-5.4 3.3-8.1 4.9-1.7.9-3.1 2.4-5.2 2.4-.2 0-.5.2-.6.4l-5.8 7.1c.7.1 1.3-.2 1.8-.7 2.5-1.7 5.3-3.1 8.3-3.9 2.4-.7 4.8-1.4 7.1-2.2 2.1-.7 4-1.9 5.5-3.4 1-1.2 2.5-1.7 2.8-3.3zm-158.1 64.4c3.8-2.4 6.8-6.5 12.2-5.1-.9 1.5-3.9 4-6.6 5.3 1.3-1.6 2.8-3 4.5-4.3-.5-.8-1.1-.4-1.6-.3-1.3.3-2.4.9-3.5 1.7-2.1 1.5-4.1 3.1-6.2 4.7-.3.2-.5.4-.6.7-1.7 3.2-3.4 6.5-4.9 9.9 3.3-3.4 7.3-5.7 10.9-8.5 2.3-1.7 4.6-3.6 6.7-5.6 1.6-1.8 2.9-3.9 3.8-6.2-6.2.5-11.7 1.7-14.7 7.7zm119.6-60.6c1.4.4 2.9 0 4-.9 2.7-2.1 5.6-4 9.2-4.5.5-.1 1-.2 1-.8-.1-.5-.4-.9-.9-1-1.3-.4-2.6-.7-4-1-4-.8-8.2-.9-12.3-.5-.5 0-.9.2-1.1.7 3.5.8 7.3-.4 11.1 1.4-1.9.8-3.3-.2-4.8-.1-1.6.1-3.2.1-4.8-.1-1.5-.1-3 0-4.5.1 3.2 2.6 7.1 3.1 10.9 3.6-.1.5-.6.9-1.2.8-1.8.1-3.6-.2-5.2-.9-2.3-1.2-4.9-1.7-6.7-3.8-.7-.7-1.7-.6-3-.3 4 3.3 7.6 6.2 12.3 7.3zm280.5 11.9c4 5.8 6.4 12.4 9.4 18.8 2.9 6 4.9 12.3 7.7 18.3 2.8 6.2 5.6 12.5 9.4 18.2.9 1.3 1.7 2.6 2.4 3.9.5 1 1.3 1.8 2.3 2.2l-2.4-4.5c-4.6-8.7-9-17.5-12.9-26.5-2.5-5.8-5-11.5-7.4-17.3-2.3-5.5-5.4-10.6-9.3-15.2-.3-.3-.6-.5-1-.7.8 1.2 1.3 2 1.8 2.8zm-238.1-12c4.3-3.4 9.6-5.2 14.4-8.7-2.5-.7-5.1-.2-7.1 1.4-1.6 1-3 2.2-4.3 3.6a25.3 25.3 0 01-7.7 5.7c-2.1 1-3 2.7-4.5 4.8 1.3-.2 1.9-.9 2.6-1.2.8-.3 1.5-.5 2.3-.9 4.9-2.3 10-4.1 14.7-6.8 2.7-1.5 4.9-3.7 6.4-6.3-5.5 3.1-11.2 5.7-16.8 8.4zm13.1 6.3c.9-.7 1.6-1.3 2.4-1.8 4.7-4 10.1-7.3 14.7-11.5 1.3-1.2 2.8-2.4 3.4-4.8-2.7 1.3-3.9 3.5-5.9 5.1-2 1.6-3.7 3.4-6.7 4.5 1-1.8 2.5-2 3.6-3.1s2.3-2.1 3.4-3.1 2.1-2.2 3.2-3.2c-.1-.1-.3-.2-.4-.4-9.3 2.7-14.9 8.9-17.7 18.3zm-18-5.6c2.4-1 4.5-2.6 6.2-4.5 1.9-2.1 4.1-3.9 6.5-5.4 2.6-1.5 5.6-1.8 8.4-.8.3.1.6.4.9.4.6.1 1.5.2 1.7-.4.3-1-.8-.7-1.3-.9-.9-.2-1.7-.5-2.5-.8-3.3-1.6-6.5-.7-9.2 1-4.5 2.9-8.2 6.8-10.7 11.4zM88.3 380.8c3-1.3 6-2.5 9.2-3.5.5-.1.9-.4 1.1-.9 1.1-2.8 3.2-5 5.5-7-1.5-.1-3 .3-4.4 1.1-1.6.9-3.1 2-4.4 3.3-2.4 2.4-4.6 4.8-7 7zm171.1-75c-2.7.3-5.6 0-8.2 1.7-3.5 2.3-7.3 4.4-10 8.1.6.1 1.2-.1 1.6-.5 3.3-2 6.8-4 10-6.2 2-1.4 4.3-1.1 6.4-1.5.6-.1.7.4.9.8.7 1.2 1 1.2 2 .2.8-1 1.8-1.9 2.9-2.7-2.2-.8-3.9-.1-5.6.1zm20.6 4.9c3.7-3.3 6.5-7.1 11.6-8.4-4.1-1.3-9.9 3.1-11.6 8.4zm12.2-9c.2.4.5 0 .7 0 .2 0 .3-.1.2-.3-.2-.2-.4-.1-.6 0l-.3.3z"/>
      <path class="st1" d="M198.7 359.7c2.9-3.6 6.6-6.4 10-9.3-2.9 3.4-6.3 6.6-10 9.3zM69.6 369.6c-.4.3-.8.5-1.3.5-3.4.5-6.7 1.4-10.1 2.1-1.5.3-3 1-4.6.9 3.4-1.3 7-2.2 10.6-2.9 1.8-.3 3.6-.9 5.4-.6zM110.7 409.9c-.1-.3-.1-.6.1-.9 1.9-2.5 3.9-4.9 5.8-7.4.3-.4.5-1 1.6-.8l-7.5 9.1zM76.4 348.2c.3-.1.6-.3.9-.3 3.3.3 6.6.2 9.9 1.2-3.3-.1-6.6-.3-10-.6-.3-.1-.5-.2-.8-.3zM133 401.9c-.4 1.4-1.2 2.8-2.3 3.8.6-1.4 1.1-2.9 2.3-3.8z"/>
      <path class="st1" d="M110.7 409.9c-1 1.4-2.3 2.7-3.7 3.7 1.1-1.3 2-3 3.7-3.7zM76.4 348.1c-1.3.7-2.5.2-3.7-.3 1.2.1 2.5-.2 3.7.3zM143.2 395.3c.1.8-.3 1.5-1.1 1.7.1-.7.6-1.4 1.1-1.7zM87.1 419.8c-.3.7-.9 1.2-1.6 1.4.4-.6 1-1.1 1.6-1.4zM150.8 297.1c-.7.3-1.2 0-1.7-.4.6 0 1.2-.1 1.7.4zM145.3 352.2c.4-.3.9-.4 1.4-.3.6.1.9.7.8 1.3 0 .7-.5.8-1 .7-1.7-.4-2.9.5-4.2 1.4-1.5 1.2-2.9 2.6-4 4.1-1.6 1.9-2.8 4.1-4.4 5.9 2.4-5.5 5.8-10.3 11.4-13.1zM123.8 365.7l-4.6 4.6c2.4-4.4 6.7-8 9.7-8.2-1.6 1.4-3.6 2.1-5.1 3.6zM156.6 335.5c-1.7-1.2-3.7-1.9-5.8-2.2-.5 0-1.1-.1-1-.8s.6-.6 1.1-.6c5.5-.5 11.1-.8 16.6-1.7 1.6-.2 3.2 0 4.7.7.1 0 .2.1.3.1.8.4 1.1 1.3.8 2.1-2.2-1.6-5-2.2-7.7-1.6-2.7.4-5.4.6-8.2.6-1.2-.1-2.3.1-3.4.6 2.2 1.7 4.6 2.9 7.3 3.6-1.7.3-3.3 0-4.7-.8zM172 341.9c1.3-2.1 3.1-3.7 5.3-4.8.6-.4 1.4-.5 2.1-.5.5.1.7.5.3.9-.2.3-.5.4-.8.5-3.6.7-5.5 3.4-7.2 6.2-.5 1.1-1.3 1.9-2.3 2.4.8-1.5 1.7-3.1 2.6-4.7zM132.9 353.6c-.1.6-.4.6-.6.6-4.5.4-9 .1-13.4-.8-1.3-.3-2.7-.5-3.3-2.1 5.6 2.5 11.5 2.2 17.3 2.3zM225.2 316.5c3.1-2.6 6.4-5 10.9-4.1 1.1.2 2.3.6 2.6 1.5.3.9-.6 1.6-1.3 2.1-4.1 3.7-8.8 6.5-14 8.4-.7.4-1.5.4-2.3.1 8.1-3.6 14.4-7.6 15.6-10-.5-.4-1.1-.7-1.8-.6-3.3-.2-6.6 1.1-9 3.4-1.4 1.3-2.7 2.9-4.7 3.5 1.3-1.5 2.6-2.9 4-4.3zM204.7 326.3c1.5-1.8 3.3-3.4 5.3-4.6 1-.6 2.1-1.3 3.5-.5-4.9 1.6-7.7 5.9-11.6 8.8.4-1.6 1.8-2.5 2.8-3.7zM209.8 327.5c1.7-1.1 3.2-2.4 4.6-3.8.6-.5 1-1.3 1-2.1 0-.5-.3-1 .5-1s.9.6.8 1.2c-.1.8-.5 1.5-1.1 2-2.1 2.5-4.9 4.1-8.2 5.9.7-.9 1.5-1.6 2.4-2.2zM249 302.9c.5.3.9.6 1.3 1 .7.8.5 1.5-.4 1.9-.4.2-.9.3-1.4.4-.2 0-.5 0-.6-.2-.3-.3-.1-.6.1-.8 1.1-.6.4-1.1-.1-1.6-1.1-1-2.5-1.2-3.8-1.9 1.8-.1 3.5.3 4.9 1.2zM235.6 303.3c3 .9 6.1 1.7 9.1 2.5-3.3 0-6.5-.2-9.1-2.5zM203.5 319.1c-4.5-.1-8.8-1.5-12.4-4.2-.5-.3-1.8-.3-1.1-1.3.5-.7 1.3 0 1.9.4.1 0 .1.1.2.1 2.9 2.1 6.3 3.4 9.8 3.8 1.2 0 2.3.2 3.4.6-.4.5-1.1.7-1.8.6zM142.6 342.8c3.2-1.2 6.3-2.6 9.8-2.6.6 0 1.3.1 1.9.2 1 .2 1.8 1.1 1.8 2.1-2.3-.9-4.5-1.5-6.7-.9-2.2.5-4.4 1.2-6.7 1.8l-.1-.6zM110.9 364c1.6-1 3.8-.6 5.8-2.3-4.8.1-9.2-1.2-13.4 2.3.2-1.2 1.1-2.2 2.3-2.4 3.9-1.5 8.1-1.3 12.2-1.3.3 0 .6.1.9.2.5.2 1.1.4 1.2 1.1 0 .6-.5 1.1-1.1 1.2-2.6.6-5.1 1.6-7.8 1l-.1.2z"/>
      <path class="st1" d="M110.9 363.8c-.6.5-1.4.6-2.1.1.2-.3.6-.4 1-.4s.8.1 1.1.4v-.1zM263.7 296.3c2.1.6 4.1 1.5 5.9 2.7.2.1.4.3.6.5.3.3.3.8 0 1.1-.3.3-.8.4-1.1.1-.2-.1-.4-.3-.6-.5-2.7-2.2-6.2-3.3-9.7-3-1.7.2-3.5 0-5.1-.6 3.3-.9 6.7-1 10-.3zM294.5 299.9c-.4-.2-.8-.5-1.2-.8-1.9-1.1-3.6-2.4-5.2-4-.2-.2-.4-.5-.1-.8.3-.3.6-.2.9 0 1.9 1.6 3.8 2.9 5.8 4.3.6.5 0 .9-.2 1.3z"/>
    </g>
  </g>
  <g>
    <defs>
      <path id="SVGID_5_" transform="rotate(-38.051 382.05 264.117)" d="M240.2-40.5h283.9v609.3H240.2z"/>
    </defs>
    <clipPath id="SVGID_6_">
      <use xlink:href="#SVGID_5_" overflow="visible"/>
    </clipPath>
    <g clip-path="url(#SVGID_6_)">
      <path class="st1" d="M145.5 72.1c.9-.1 1.3.8 1.8 1.3.3.3.5.7.8 1 5.1 4.4 9.4 9.6 13.7 14.6 5 5.7 10.2 11.3 15.5 16.7 4.2 4.3 9.2 7.4 14.3 10.4 1.3.8 2.6 1.7 4.1 2.4-3.6-6.4-7.9-12.5-11.5-18.9-3.5-6.5-6.4-13.3-8.8-20.3 1 .7.9 1.9 1.4 2.9 2.1 4.2 3.7 8.6 6.2 12.6 3.5 5.6 6.4 11.6 10.9 16.6 3.2 3.5 6.4 7.1 10.4 9.7 3.4 2.3 6.8 4.3 9.2 7.7.2.4.6.5 1 .4-.8-1.2-1.5-2.5-2.4-3.6-1.4-1.7-2.7-3.5-4-5.3-4.8-7.5-8.5-15.6-13.5-22.9-1.5-2.3-2.9-4.7-4.3-7-2.1-3.4-4.4-6.6-6-10.2-.3-.6-1.1-1.1-.8-2.3 1.9 3.5 4 6.9 6.3 10.2 2.8 4.1 5.6 8.2 8.2 12.4 4.1 6.8 7.8 13.9 12.7 20.2 2.7 3.4 5.7 6.5 9.7 8.5 2.6 1.2 4.9 2.8 7 4.8.2.2.6.5.8.4.3-.2.1-.5.1-.8-.3-3.9-2.1-7.2-4.2-10.4-2.4-3.7-4.9-7.3-7.4-10.9-3.7-5.5-7.7-10.8-12-15.7-4.1-4.7-8.3-9.4-12.1-14.5-.2-.2-.5-.4-.3-1 .4.5.7.9 1.1 1.2 1.6 1.7 2.7 3.7 4.5 5.3 5 4.8 9.6 9.9 13.8 15.4 4.5 5.5 7.9 11.8 12.3 17.5 1.9 2.4 3.5 5 5.3 7.4 1.6 2 3.3 4 5.2 5.8 1.5 1.5 3.2 2.8 4.9 4 1.1.8 1.8 2.1 3.4 2.7-8.5-17.8-17.7-35-27.1-52 1.9 2.5 3.6 5.2 5.3 7.9 2.6 3.9 4.3 8.2 6.8 12.1 2.5 4 4.8 8.2 6.8 12.4 3.1 6.3 5.8 12.9 11.1 17.8 2.3 2.1 4.1 4.8 6.6 6.8 1.6 1.3 3 2.7 4.2 4.3 1 1.4 2.1 2.8 3.3 4-.1-2.9-.6-5.7-1.6-8.4-2-4.8-4.3-9.5-5.7-14.6-.7-2.5-1.7-4.8-2.4-7.3-1.4-5.3-2.7-10.5-3.9-15.8-.6-2.4-1.5-4.8-1.7-7.8.5 1.1.9 2.3 1.2 3.5 3.2 10.1 5.6 20.3 8.9 30.4.2.7.1 1.6.5 2.1 1.6 2.4 2.7 5 4.3 7.4 1.1 1.8 1.9 3.8 3.5 5.3.9.9 1.7 1.8 2.4 2.9 2.9 4 6.3 7.7 10.2 10.8.1.1.2 0 .4 0-4.8-7.9-8.5-16.4-12.2-24.8-3.7-8.4-7.3-16.9-9.2-26 .9 3.1 2.2 6 3.5 9 1.8 4.3 3.4 8.7 5.3 13 2.9 6.3 5.9 12.5 9 18.6 3.9 7.7 9.8 14.1 17.1 18.6.2.1.5.4.8.2.3-.2.1-.5 0-.8-.3-1.2-1.2-2.1-1.6-3.2-1.6-4.1-3.2-8-4.6-12.2-2.9-9.5-5.8-18.9-8.3-28.5-.6-2.1-1-4.2-1.6-6.3 1.4 2 1.8 4.4 2.4 6.6 2.2 7.8 4.6 15.5 7.1 23.1 1.6 4.9 3.5 9.8 5.4 14.7 1.8 4.5 5.4 7.9 8.6 11.3 3.2 3.4 7.2 6 10 10 0 .1.2 0 .5.1-2.5-6.2-5.2-12.3-7.4-18.5s-4.3-12.4-6.1-18.7c-1.8-6.3-3.5-12.6-5.6-18.8.2 0 .3.2.4.3 4 8.5 6.1 17.7 9.4 26.4 1.3 3.6 2.1 7.5 3.6 11.1 1.6 4.3 3.5 8.4 5.9 12.2 3.8 5.8 8.9 10.4 13 15.9.5.8 1.3 1.5 2.2 1.9-3.7-18.9-9-37.4-15.9-55.3 2.9 4.5 4.4 9.6 6.4 14.4 2.8 7 4.2 14.4 6.5 21.5 1.1 3.5 2.3 7 3.5 10.4 1.5 4.2 3.8 8.1 6.8 11.5 1.3 1.4 2.5 3 3.7 4.4.8 1.3 1.8 2.5 2.8 3.6-.2-6.2-1.6-12.2-3-18.2s-2.7-12-4.6-17.8c-1.9-5.8-3.4-11.7-5-17.6.6 1.1 1.1 2.1 1.5 3.3 2.5 6.8 4.9 13.6 6.8 20.6 1.8 6.7 3.8 13.3 5.2 20 .2 1.6.6 3.1 1.2 4.6 1.2 2.8 2.2 5.7 4.3 8 1.7 1.7 3.1 3.7 4.1 5.9.2.9.7 1.6 1.5 2.1.1-.9.1-1.8.1-2.7-.5-5.1-1.3-10.1-2.5-15.1-2.3-9.3-5.2-18.4-8-27.6-.8-2.7-1.4-5.4-2.1-8.1 1.3 3 2.6 6.1 3.7 9.3 1.9 5.6 3.4 11.2 5.2 16.8 1.2 4 2.5 7.9 3.7 11.8.8 2.5 1.4 5.1 1.8 7.6.6 3.7 2.5 6.6 4.6 9.4 1.2 1.3 2.2 2.6 3.1 4.1.6.9 1.2 1.7 1.9 2.5.2-1.1-.4-1.9-.3-2.8.1-2.5-.2-5-1-7.4-.6-1.9-1.1-3.9-1.4-5.9-.6-4.2-.9-8.5-1.9-12.7-1.2-5-2.5-9.9-3.9-14.9-.7-2.2-1.4-4.4-1.9-6.7.7.3.7.9.8 1.3 1.2 3.8 2.4 7.5 3.5 11.3 1 2.8 1.8 5.6 2.4 8.5.5 3.4 1.5 6.7 2.2 10.1.2.8.8 1.4.7 2.3-.2 2 .1 4 .9 5.8 1.2 3.4 3.4 6.4 5.2 9.5 2.2 3.8 5 7.3 6.8 11.4 1.3 2.8 2.2 5.7 2.7 8.8.3 1.6.1 3.3 1.3 4.8 4.1 5.4 9.4 9.5 14.2 14.3 2.9 2.9 6.2 5.4 9 8.3 2.5 2.8 5.2 5.5 8 8.1 4.3 3.6 8 7.9 12 11.9 3.5 3.5 7 7 10.2 10.8 2.3 2.8 4.7 5.6 7.2 8.2 4 4.3 7.7 9 11.7 13.3 2.1 2.2 4.2 4.3 6.2 6.8s4.2 4.9 6.2 7.4c2.5 3.3 5.3 6.3 7.9 9.6.9 1.2 1.5 2.8 2.7 3.5 1 .7 1.8 1.5 2.4 2.5 2.7 3.1 5.6 6 8.8 8.6 2.2 1.9 4.8 3.2 6.6 5.5 2.2 2.8 4.6 5.6 6.8 8.5 1.2 1.3 2.3 2.8 3.2 4.3.9 1.8 2.1 3.4 3.4 4.9 1.7 1.9 3.5 3.8 5 5.8l11.7 15.3c1.9 2.4 3.8 4.8 5.6 7.2 3.4 4.7 6.7 9.4 10.5 13.8 2.6 2.8 4.9 5.8 7.1 8.9 1.7 2.6 3.7 4.9 5.3 7.4 1.6 2.4 3.9 4.5 5.4 6.9 2.7 4.3 6.3 8 9 12.1 2.1 3.1 4.5 5.9 6.8 8.8 4.1 5.5 7.8 11.4 12.1 16.8 2.1 2.7 3.9 5.5 5.9 8.2 2.8 3.9 5.5 7.8 8.4 11.6 3.7 4.7 7.4 9.3 10.9 14.2 3.9 5.7 7.6 11.5 11.5 17.2 2 2.9 4 5.7 6 8.5 1.9 2.8 3.9 5.5 5.8 8.2 3.3 4.6 6.4 9.3 9.7 14 .1.2.2.7.6.5.4-.1.4-.5.3-.9-.3-1.3-.7-2.5-1.1-3.7-2-5.2-3.6-10.6-5.7-15.8-1.9-4.8-3.7-9.6-5.7-14.3-3-7.3-5.6-14.7-7.7-22.2-1.8-6.3-4.6-12.3-6.7-18.5-1.7-5-3.6-10.1-5.6-15-2.1-5.1-4.6-10.1-7-15.1-1.9-3.8-3.6-7.7-5.1-11.7-1.5-4.3-3.2-8.5-4.9-12.7-1.8-4.6-4.1-9-6.2-13.5-3.2-6.9-6.1-14-9.3-20.9-1.9-4.1-3.6-8.3-5.5-12.4-1.9-4.2-3.6-8.6-5.3-12.8s-4.1-8.1-5.7-12.3c-1.5-4-3.2-7.9-4.7-11.9-2.5-6.8-5.2-13.5-7.9-20.2-1.8-4.7-4.1-9.1-5.9-13.8-1.9-4.9-3.9-9.9-6-14.7-1.9-4.4-3.5-9-5.1-13.5-1-2.7-1.7-5.7-2.9-8.3s-2.7-5-3.6-7.7c-1.6-4.5-3.8-8.7-5.4-13.3-1.2-3.3-2.9-6.3-4.2-9.5-1.7-4.2-3-8.6-4.7-12.8-1.3-3-2.2-6-2.9-9.2.2.2.3.4.4.6 2.8 5.9 4.8 12.2 7.4 18.2 1.5 3.5 3 7 4.8 10.4s3.6 6.6 5.5 9.8c1.7 3 3.1 6.2 4.7 9.3 2.6 5 5.1 10.1 7.2 15.3 2 5 4.2 9.9 6.2 14.9 2.6 6.5 6.1 12.8 9.3 19.1 1.1 2.2 2.3 4.4 3.4 6.7 1.6 3.3 3.2 6.7 4.9 10 2.3 4.3 4.4 8.7 6.5 13.1 1.9 3.9 3.6 7.9 5.6 11.8 1.1 2 2.7 3.7 3.4 6 .4 1.4 1 2.7 1.7 4 3.7 7.1 7.5 14.3 11.3 21.4.6 1 1.2 2 1.7 3 1.1 2.7 2.4 5.2 4 7.7 2 3.4 3.8 6.9 5.9 10.3 2.7 4.4 4.9 9.1 7.6 13.6 5.2 8.5 8.8 17.7 12.6 26.8 2.6 6.2 4.7 12.7 7.3 18.9 2.4 5.9 4.6 11.9 6.7 17.9 3.3 9.5 6.5 19.1 9.3 28.8 1.6 5.5 3.8 10.8 5.4 16.4 1.1 4 2.4 7.9 3.7 11.8 2.5 7.7 4.7 15.6 7.6 23.2.7 1.9 1.1 3.9 2.2 5.6l-3.4 2.7c-.8-1.5-1.4-3.1-1.7-4.7-2.4-8.3-5.8-16.3-7.7-24.8-2.9-13.2-7.6-25.8-12-38.6-2.6-7.7-5.3-15.4-7.7-23.2-.5-1.5-1-2.9-1.6-4.3-2.6-5.6-3.4-11.8-5.8-17.6-3.7-8.7-7.1-17.5-10.7-26.3-.8-1.9-1.9-3.7-2.6-5.6-2.2-6-6.1-11-9-16.6-3-5.8-6.3-11.4-9.2-17.2-3.1-6.1-6.5-12.2-9.6-18.3-1.9-4-4.1-7.8-6.5-11.6-2-3-2.8-6.4-4.4-9.5-2.6-5-4.7-10.3-7.2-15.4-3.7-7.5-7.6-14.9-11.3-22.5-1.9-4-3.9-7.9-5.9-11.9-1.9-3.8-3.6-7.6-5.2-11.5-2-4.9-4-9.9-6.2-14.7-3.1-6.8-6.1-13.6-9.7-20.2-.4-.7-.3-1.6-1.4-2.2.6 2.3 1.5 4.6 2.6 6.7 1.8 3.4 3.6 6.8 4.4 10.6.2.8.5 1.6.8 2.3 2.6 7 5.3 14 8.2 21 1.4 3.4 2.6 7 4.1 10.3 2.7 5.7 5.1 11.5 7.5 17.4 2.5 6.2 4.9 12.5 7.3 18.8 1.6 4.4 3.4 8.6 5.4 12.8 2 4 3.8 8.1 5.5 12.2 2.3 5.5 4.5 11.1 7 16.5 3.4 7.2 6.4 14.5 9.7 21.7 2 4.4 4.2 8.7 6 13.1 2.1 5.1 4.3 10.2 6.1 15.4 1 2.6 2.1 5.1 3.4 7.5 2.7 5.7 5.7 11.4 8.2 17.2 1.8 4.3 3.3 8.6 4.9 13 1.8 5.1 3.9 10.1 5.7 15.1 1.1 3.1 2 6.2 3.1 9.3 1.3 3.5 2 7.2 3.5 10.6 1.2 2.9 2.8 5.7 3.7 8.8 1 3.2 2.1 6.4 3.6 9.4.8 1.9 1.3 3.7 2.3 5.7 1.1 2 1.2 4.4 2.2 6.4 2 4.1 2.5 8.7 4 13 1 2.4 1.8 4.8 2.5 7.2.7 3 2.7 5 4.1 7.5.2.3.3.7.8.6.2-1 .2-2.1-.1-3.1-2.1-8.2-4.5-16.3-7.2-24.2s-5.3-15.9-8.1-23.8c-2.2-6.2-4.5-12.3-6.8-18.4-1.3-3.6-2.9-7-4-10.7.7 1.4 1.9 2.5 2.4 4 1.3 3.7 3.3 7.1 4.7 10.7 1.3 3.3 2.4 6.7 3.8 10 1.8 4.1 3 8.4 4.7 12.6 1.3 3.3 2.4 6.7 3.5 10.1 1.6 4.5 3.3 9 4.7 13.5 1.1 3.4 2.1 6.8 2.9 10.3.8 3.2 1.6 6.3 2.6 9.5.4 1 .5 2-.3 2.8-.4.3-.5.9-.2 1.3.9 1.6 1.5 3.4 2.7 4.8l-1.8 1.4-1.5-3c-3.3-5.8-7.2-11.2-10.9-16.7-2.6-3.9-5.5-7.7-8.2-11.6-3.3-4.8-6.5-9.8-9.9-14.6-4.5-6.2-8.7-12.5-12.9-18.9-3.1-4.7-6.2-9.4-9.6-13.9-3.8-5-7.7-9.8-11.3-15-3.5-4.9-7.1-9.8-10.5-14.7-4.6-6.6-9.2-13.2-14.1-19.6-1.8-2.4-3.8-4.8-5.6-7.2-3.9-5.1-7.6-10.3-11.5-15.4-4.6-6-8.9-12.2-13.6-18-5.1-6.2-9.9-12.7-14.7-19.2-4.8-6.5-9.8-12.9-15-19.2-3.3-4-6.2-8.2-9.4-12.1-2.5-3-4.8-6.2-8.2-8.3-3.6-2.1-7.4-3.4-11.6-2.8-4.2.5-8.4-.5-12.6-1.2-3-.5-6-1-8.9-1.5-3.7-.6-7.4-1.3-11.2-2-2.6-.5-5.1-.9-7.7-1.6-3.9-.9-8-1.5-11.9-2.2-.9 0-1.7-.3-2.4-.9 17.5 2.6 34.7 6.9 52.6 8.4-.6-.7-1.5-1.2-2.4-1.4-5-1.4-10.2-2.4-15.4-2.9-4.5-.2-8.9-.7-13.3-1.4-3.7-.8-7.3-1.6-11-2.2-4.2-.6-8.4-1.2-12.6-1.7-6.1-.8-12.1-1.6-18.2-2-5.7-.3-11.4-1.2-17.1-1.6-4.4-.4-8.8-1.3-13.2-1.9-5.7-.7-11.3-1.4-17.1-1.6-6-.2-12-.8-17.9-1.7-2.5-.3-5.1-.4-7.6-.2-3 .1-6-.1-9-.1-5.6-.1-11.1-.5-16.7-.5-5.1 0-10.1-.9-15.2-.7-.5 0-1 .1-1.4-.4.5-.3 1.2-.5 1.8-.4 2.2.1 4.4.1 6.6.2 2.9.1 5.7.3 8.6.4 4.6.1 9.2.3 13.8.3 3 0 5.9.4 8.9.2 2.6-.3 5.2-.3 7.9-.1 6.8 1 13.6 1.6 20.4 1.8 7.8.2 15.5 1.1 23.1 2.6 4.7.9 9.5 1 14.2 1.7 4 .5 8.1.5 12.1.8 5.2.5 10.3 1 15.5 1.9 5 .8 9.9 1.3 14.8 2.1 3.2.5 6.3 1.3 9.5 1.8 4.3.7 8.7 1.1 13 1.2 2 .1 4 .4 6 .8 3.4.6 6.8 1.4 10.2 2.1.2.1.4.2.7-.1.3-.3 0-.5-.2-.7-3.1-4.3-6.2-8.8-9.4-13-3.2-4.2-6.6-8.2-9.9-12.3-2.9-3.5-5.8-6.9-8.6-10.5-2.3-2.9-4.9-5.6-7.4-8.2-1.7-1.8-3.6-3.5-5.3-5.3-2.1-2.2-4.1-4.7-6.1-6.9-3.4-3.6-7-6.9-10.6-10.2-1.9-1.8-3.8-3.7-5.5-5.8-2-2.2-4.2-4.3-6.4-6.2-1.6-1.5-2.9-3.2-4.5-4.8-2-2-4.1-3.8-6.1-5.8-3.3-3.3-6.6-6.6-10.2-9.6-2.7-2.3-5.3-4.9-8.5-6.7-1.5-.9-3.1-1.5-4.9-1.6-3.5-.2-7.1.3-10.6.4-2.8.1-5.7 0-8.5-.3-2.7-.3-5.4-1-8.1-1.2-2.2-.1-4.5-.2-6.7 0-3.4.2-6.7.4-10 .9l-8.2 1.3c.4-.4 1-.7 1.5-.8 4.2-1.4 8.6-1.5 12.8-2.9 3.9-1.2 7.6-2.8 11-5 .2-.2.6-.3.5-.6-.1-.3-.4-.3-.7-.4-.7-.1-1.3 0-2-.2-2.8-1.2-5.7-2-8.7-2.4-2.4-.4-4.9-.7-7.3-.8-4.2.2-8.4.6-12.5 1.3-3.8.5-7.6 1.2-11.4 2.1-1.5.5-3.1.5-4.5 0 13.1-2.2 26.2-4.6 38.4-10.2-1.7-.4-3.4-.8-5.1-1.1-3.6-.6-7.2-1.3-10.4-2.9-5.1-2.5-10.3-2.5-15.6-1.6-3.7.6-7.3 1.3-11 1.8-5.3.7-10.5 1.3-15.8 1.9-2.3.3-4.6.5-6.9.7 2.4-1 5-1.7 7.6-1.8 7.1-.8 14.2-2 21.3-3.1 2.1-.3 4-1.3 6.1-1.6 3.7-.7 7.4-1.1 11.1-2.2 1.1-.2 2.1-.6 3.1-1.2-1.4-.8-2.8-.6-4.1-.9-2.7-.6-4.7-2.5-7.1-3.5-4.4-1.9-8.8-3.3-13.7-2.9-1.7.2-3.4.8-5.1.9-4.9.4-9.9.8-14.8 1.1-4.5.2-9 .7-13.5 1-1.8.1-3.6.1-5.5.1v-.4l13.5-1.5c4.1-.5 8.3-.3 12.5-.8 7.4-.9 14.7-2.3 21.9-4.2.3-.1.7 0 .7-.5-.3-.3-.7-.3-1.1-.3-3.9-.5-7.7-2-10.8-4.4-3.5-2.5-7.5-4.1-11.8-4.9-2.9-.5-5.8-.6-8.6-.3-4.1.1-8.3.1-12.4.2-6.6.3-13.3.7-19.9 1-1.8.1-3.6 0-5.4.1 6.9-.3 13.8-1.3 20.7-1.7 9.2-.5 18.4-.7 27.5-2.8.9-.1 1.7-.3 2.5-.7-2.4-1.7-5.1-2.8-7.5-4.4-3.3-2.3-7-3.9-10.9-4.7-3.4-.8-6.9-1.1-10.3-1.2-6.2.2-12.4.9-18.6.9-8.1 0-16 1.1-24.1 1.3-.9 0-1.9.5-2.8-.2 1.1-.3 2.2-.5 3.4-.6 5.3-.2 10.6-1.4 15.9-1.4 4.4 0 8.8-.6 13.3-.7 7.1-.2 14.1-1.7 21-3.1.2 0 .5-.1.5-.5-2.3-1.2-4.7-2.4-7-3.6-3.7-2.1-7.7-3.6-11.9-4.3-4-.5-8-1-12-1.6-3.6-.6-7.3-.9-11-.9-6.2.2-12.4 0-18.6-.1-3.7-.1-7.4-.9-11.1-.9-.5 0-1.1-.3-1.3-.7 4.3-.5 8.5.8 12.8.5 2.5-.2 5.1.3 7.6.3 2 0 4.1-.2 6.2-.2 5.3 0 10.5.2 15.8.1 3.6 0 7.3-.2 11-.4.4 0 .9.1 1-.3.1-.5-.5-.5-.8-.6-2.9-1.3-5.9-2.4-8.4-4.4-1-.8-2.2-1.5-3.4-1.9-3.6-1.4-7.3-1.9-10.9-2.9-5.5-1.3-11.1-2-16.8-2.1-4.9-.2-9.9.2-14.8.2-4.2 0-8.5-.1-12.8-.1 2-1 4.2-1 6.4-.9 6.6.1 13.1-.1 19.7-.5 2.2-.2 4.4-.1 6.6.3.9.2 1.9.2 2.8-.1 1.2-.3 2.5-.4 3.7-.2 2.8.3 5.7.7 8.6.9 1.4.1 2.9.3 4.3-.7-1.4-.6-2.8-.6-4.1-.8-5.5-1.3-10.7-3.6-16.1-5-4.2-1.1-8.4-1.9-12.7-1.2-3.8.6-7.7.9-11.5 1-4 .2-7.9-.6-11.9-.2-3.1.3-6.2.6-9.4.9-2.5.2-4.9 0-7.4-.4.6-.3 1.3-.4 2-.3 2-.1 4-.1 5.9-.3 4.1-.3 8.2-1.2 12.3-1 7.7.3 15.4-.1 22.9-1.3 4.1-.6 8.2-1.6 12.1-2.9-1.9-.4-3.4-.7-5-.9-2.3-.2-4.7-.7-6.9-1.4-5.8-2-11.9-2.8-18-2.5-3.5.2-7.1.8-10.7.7-4.3-.2-8.6 0-12.9.7-.8.2-1.6.2-2.3-.1.1-.3.4-.4.7-.4 4.3-.3 8.7-.7 13-1 4.3-.4 8.6-.6 12.9-1.3 3.1-.5 6.1-1.6 9.2-2.1 1.1 0 2.1-.3 3-.9-.9-.2-1.7-.4-2.4-.5-5.6-1-11.1-2.5-16.4-4.7-3.8-1.6-7.7-3.2-12.1-2.8-1.9.3-3.7.4-5.6.4-5.9-.2-11.8-.5-17.8-.6-3.3-.1-6.6-.3-9.9-.5-.7-.1-1.4-.2-2-.3 1.6-.2 3.3-.3 5-.3 3.7.1 7.4.3 11.1.3 2.7 0 5.5 0 8.2.1 2.5.2 5.1.2 7.6-.1 3.8-.7 7.6-1.3 11.4-1.9.4-.1 1 .2 1.1-.4s-.5-.5-.9-.7l-1.5-.6c-4-1.5-7.6-3.9-10.5-7-1.3-1.5-2.9-2.6-4.7-3.3-2.3-.9-4.5-1.9-6.8-2.8-2.8-1.1-5.7-2.1-8.6-3.1-6.6-2.2-13.3-3.9-19.9-6-1.3-.4-2.4-1.1-3.6-1.6 3.9.8 7.6 2 11.4 2.9 5.4 1.3 10.6 3 15.9 4.8 2.9 1 5.7 2.2 8.9 2.5 2.9.1 5.7.6 8.4 1.4.8.3 1.5.5 2.2.8-2.4-2.4-4.7-4.9-7.7-6.6-3-1.7-6.2-3.2-9.1-5-8.5-5.2-17.1-10.1-25.8-14.9-.8-.4-1.5-1-2.3-1.5.2-.2.5-.2.6 0 6.8 3.4 13.5 6.9 20 10.7 6.4 3.8 13.1 7.3 19.5 11 1.4.8 2.8 1.8 4.3 2 2.9.4 5.7 1.4 8.6 2 2.3.5 4.4 1.3 6.5 2.3.4.2.9.5 1.2.1.3-.3-.1-.8-.3-1.1-.9-1.9-1.8-3.7-2.9-5.5-1.2-1.8-2.5-3.5-3.7-5.3-6.4-9.3-13.8-17.8-21.3-26.1-1.7-1.6-3.2-3.4-4.6-5.3l-.2-.1zm81 74.8c2 .6 4 1.2 6.2 1.7-1.1-2.2-1.5-4.5-2.4-6.7-1.1-2.8-3.3-4.5-5.2-6.6-1.3-1.4-3.3-1.9-4.7-3.1-.4-.4-1.3-.5-.7-1.4 0 0-.1-.2-.2-.3-1-.8-2.1-1.5-3.3-1.9.2 2.6 1 5 2.4 7.2 1.1 1.8 2.4 3.6 3.8 5.3 1 1.6 2.4 3 4 4.1.6.3.4 1-.1 1.5-2.2-.2-3.3-1.9-4.6-3.2-3.3-3.4-7.4-4.6-11.8-4.9-1.8-.2-3.7-.2-5.5.1-3.4.7-6.7 1.6-10.1 2.5-1.9.5-3.7.9-6 1.4 1.7.6 3.2.5 4.6.9 3.4.9 6.8 1.9 10.2 2.6 3.1.8 6.3 1.1 9.5.9 1.5-.2 3 0 4.4.6.8.4 1.7.1 2.6-.1 2.2-.5 4.5-.2 6.7-.7 0-.2 0 .1.2.1zm251.6 213.3c-2.5-2.2-5.2-4.1-7.2-7-2-2.8-4.2-5.5-6.4-8.2-3.4-4.1-6.7-8.2-10.2-12.3-2.9-3.4-6-6.6-8.9-9.9-5.8-6.8-11.8-13.4-17.7-20.2-3.7-4.2-7.8-8-11.6-12.1-2.2-2.3-4.5-4.5-6.8-6.7-1.8-1.7-4-3.1-5.6-5-5.2-6-11.1-11.2-16.9-16.5-2.5-2.3-5.1-4.5-7.4-7-1.3-1.4-2.9-2.6-4-4.3-.5-.8-1-1-1.3.1-.4.8-1 1.5-1.8 2-1 .7-1.3 1 .1 1.5 2.7 1.1 4.9 3.2 7.1 5.1 5.3 4.5 10.3 9.4 15.3 14.3 3 2.8 5.7 5.9 8.6 8.7 2.2 2.1 4.6 4.1 6.6 6.4 3.3 3.6 6.8 7.1 10.4 10.3 4.5 4.2 8.3 9.2 12.9 13.4 3.7 3.5 7.2 7.3 10.6 11 2 2.2 3.7 4.8 5.5 7.1 1.1 1.4 2.5 2.7 3.6 4.1.8.9 1.5 1.9 2.2 2.9 2.2 3.1 4.8 5.8 6.9 8.9 1.7 2.5 3.9 4.7 5.5 7.2 1 1.6 2.3 2.9 3.4 4.5l3.3 4.8c.4.7 1.1 1.1 1.9 1 1.1-.1 2.2.1 3.3.1.5 0 1 .4 1.3-.2.3-.6-.2-.9-.5-1.2-.2-.1-.4-.3-.5-.5-.3-1-1-1.8-1.7-2.3zM247.3 176.5c3.2.8 6.3 2 9.2 3.6 3 1.7 6.2 3.2 9.5 4.4 1.4.5 2.7-.1 4-.3 4.7-.7 9.4-1.2 14.2-.5.2 0 .5 0 .7-.1-.5-.9-.9-1.8-1.5-2.6-1.7-2.6-2.8-5.5-3.2-8.5-.4-2.9-1.8-5.7-4-7.7-1.4-1.4-2.8-2.6-4.3-3.9-2.6-2.3-5-4.9-7-7.7-1.3-1.7-2.7-3.4-4.2-4.9-.1 3.2.3 6.1 2.3 8.4 4.1 4.6 7.5 9.7 12.2 13.7.4.4.9.8.4 1.3s-.9 0-1.2-.3c-1.1-1.1-2.2-2.2-3.4-3.2-2.7-2.2-4.4-5.3-6.6-7.9-.5-.5-.7-1.2-1.6-1.3-.1 1.8.9 3.1 1.4 4.7.1.5.5.9.5 1.3-.1 2.5 1.4 4 3.1 5.4.9.7 1.2 1.8 2.4 2.5 1.2.6 2.5 1 3.7 1.6 3 1.3 5.5 3.5 7 6.4.2.5.9 1 .2 1.5s-1.3 0-1.7-.6c-.8-1-1.6-2-2.6-2.9-2.7-2.9-6.2-3.9-9.9-4.4-3.6-.4-7.2-.4-10.8 0-5.5.5-11.1.1-16.7.4-.3 0-.6-.1-.8.3 3 .5 5.8.7 8.7 1.3zm-16.2-26c-3.6-2.5-7.6-2.7-11.7-2-4.3.5-8.5 1.4-12.6 2.6-.3.1-.7.1-.9.6 1.3.4 2.6.9 3.9 1.1 3.9 1 7.7 2.2 11.4 3.8 4.3 1.6 8.8 1.8 13.2 1.7 1 0 1.6.8 2.6.8 3.5.2 7 .6 10.5 1.3 1.5.2 1.5.1 1-1.3-.5-1.3-.7-2.7-.7-4.1.1-.9-.1-1.2-1.2-1.3-3.7-.4-7.7-1.7-9.1-6.9-.4-1-.9-2-1.6-2.9-1-1.3-1.5-2.9-1.7-4.6 0-.6-.2-1.1-.6-1.6-.4-.4-.4-1 .2-1.2.6-.2 1.2-.4 1.4.5.1.4.2.7.2 1.1-.1 2 .9 3.7 1.8 5.4.7 1 1.2 2.2 1.7 3.4 1.2 3.3 4.4 5.4 8 5.2.8 0 .6-.4.5-.8-.7-1.8-1.6-3.5-2.6-5.1-2.4-3.7-5.4-6.9-9-9.4-1.7-1.3-3.2-2.8-4.6-4.4-.4-.4-.7-.9-1.5-1 0 1.1.2 2.2.6 3.2.9 2.1 1.5 4.3 1.8 6.5.7 3.7 2.4 6.9 3.9 10.2.6 1 1.5 1.8 2.5 2.4 1.4 1.2 2.9 2.2 4.5 3.1.5.2 1.3.5 1 1.1-.3.6-1.1.3-1.7.1-2.6-1.1-4.9-2.7-6.8-4.8l-.6-.6c-.8-.4-1.7-.1-2.1.7-.2.4-.7.5-1.1.3-.8-.3-1.6-.6-2.4-1-4.9-2.3-9.9-2-15-1.2l-.7.1c-.3 0-.6.1-.7-.3 0-.3.1-.5.4-.6.5-.2 1.1-.3 1.7-.5 5.1-.9 10.4-.6 15.4.9.9.3 1.7.7 2.5 1.1-.6-.6-1.2-1.2-1.8-1.6zm-46.9-14.8c4.7 1.1 9.3 2.5 14.2 2.3 1.8 0 3.4-.9 5.2-1.1 4.6-.5 9.2 0 13.5 1.5.4.1.8.5 1.1.1.3-.4-.1-.7-.2-1.1-2.1-5-5.8-8.7-9.8-12.2-1.1-.8-2.2-1.5-3.5-2.1-2.4-1.4-4-3.7-6.3-5.4-.3-.3-.7-.7-1-.5-.5.3 0 .8.1 1.1.7 2.4 2.4 4.5 2.9 7.1.7 3 2.3 5.8 4.7 7.8.4.3.5.8.3 1.2-.2.5-.7.3-1.1.2-1.1-.3-2.1-1-2.7-2-2.8-4.2-6.9-5.2-11.7-5.2-4.5.1-8.8 1.1-13.2 1.6-1.9.2-3.9.1-5.7.6-.4.1-.9.1-1.2.6 4.7 2.2 9.3 4.3 14.4 5.5zm-6.4-25.2c.9 1.9 1.9 3.7 2.8 5.5 1.5 3 3.6 5.6 6.1 7.8.2.2.4.3.5.5.3.3.5.8.1 1.1s-.8.2-1-.1c-1.7-2-3.9-3.5-5.5-5.5-2.5-2.9-5.7-4.1-9.2-5.2-2.3-.7-4.6-1.3-7-1.9-.3-.1-.6-.2-.8-.2-.6-.1-1.4-.3-1.7.3-.4.6.5.9.8 1.3 1.6 1.6 3.1 3.2 4.4 4.9 1.7 2.1 3.9 3.8 6.3 5 1 .5 1.6 1.3 2.5 1.9 2 1.2 4.5 1.6 6.8 1 5.2-1.1 10.4-1.3 15.5.6.3.1.6.5.9.2.3-.3 0-.6-.1-.9-1.1-4.4-4.4-6.9-7.7-9.4-2.5-1.7-5.1-3.3-7.8-4.7-2.6-1.5-4.6-3.8-6.9-5.7-.6-.5-1.1-1-1.7-1.5.7 1.8 1.9 3.3 2.7 5zm96.5 75.6c6.5-.1 12.9 1.2 18.9 3.6 1 .4 2.1.8 3.1 1.1.3.1.6.2.8 0s0-.5-.1-.7c-.1-.3-.4-.6-.8-.6-1.6-.2-2.8-1.3-4.2-1.9-5.2-2.5-11.1-3.4-16.9-2.6-1.8.3-3.6 0-5.2 1.3-1 .8-2.4.1-3.7.1-2.7 0-5.3.9-7.9 1.2v.4c1.6.3 3.3.6 4.9.8 4.7.6 8.9 2.5 13 4.9 3.1 2 6.3 3.7 9.6 5.2.3.2.7.3 1.1.3 4.5-.6 9.1-.7 13.7-.9.2 0 .3-.1.4-.2-1.3-1.5-2.8-2.9-3.1-5 0-.2-.1-.4-.3-.5-3.5-.8-6.6-2.6-10-3.7-4.3-1.2-8.7-1.8-13.1-1.8-1 0-1.9-.1-3.2-.1.8-.7 1.9-1 3-.9zm10.7 17.8c-.1-.2-.3-.4-.4-.5-.4-.4-1.6-.2-1.2-1 .3-.6 1.1 0 1.7.1 3.4.8 6.4 2.7 9.7 3.9 4 1.5 8.2 2.4 12.5 2.7.8.1 2 .2 2.3-.5.3-.7-.9-1.1-1.5-1.4-3.7-2-7.5-3.6-11.8-3.5-1-.1-2-.3-2.9-.6 1.1-.7 2.1-.4 3.1-.4 5.7.1 11.3 2.2 15.7 5.8.4.2.6.7.5 1.1-.1.6-.6.5-1 .6-4.8.5-9.7-.1-14.2-1.7-3.2-1.2-6.5-2.2-9.6-3.9-.4-.3-1.1-.7-1.7-.3 0 .2.1.3.1.3 6 3.3 11.8 7 18.8 7.9 2.4.2 4.9.1 7.3-.2 1.1-.1 2.2-.2 3.3-.4.8-.1.9-.4.3-1-.2-.3-.5-.5-.8-.7-1.7-1.1-2.9-2.9-3.2-5-.2-1-.9-1.9-1.9-2.3-1.5-.7-3.1-1.5-4.6-2.4-.8-.5-2-.3-3-.5-4-.6-8.1-.6-12.1.2-3.6.6-7.2.4-10.7 1.4-.3.1-.8 0-1.2.6l6.5 1.7zm-61.2-41.8c.7.8 1.8.6 2.6.8 1.9.6 3.9 1.2 5.8 1.6 1.6.6 3.1 1.4 4.4 2.5 4 2.7 8.5 4.3 13 5.9 1.5.5 3.1.1 4.6.1 2.3 0 4.6-.1 6.9-.2.6 0 1.6.2 1.8-.5.2-.7-.4-1.3-1-1.7-3.7-2.8-7.3-5.5-11.8-7.1-4-1.5-8.2-2.5-12.5-2.9-2.6-.2-5.2.5-7.7 1-2 .2-4 .4-6.1.5zm100.1 30.8c-.1 1 0 2 .2 2.9 1.2 5.4 1.4 10.9 3.1 16.1 1.2 4 3.2 7.7 5.7 10.9.7.8 1.6 1.3 2.6 1.5 1.2.2 2.3.6 3.4 1.2.2-1.6-.5-3.2-1.8-4.1-.7-.7-1.3-1.5-1.7-2.4-1.7-3.2-3.9-6-5.7-9.2-1.3-2.5-1.8-5.2-2.9-7.8-.2-.3-.2-1 .3-1.1s.6.4.8.6c.7 1.2 1.2 2.6 1.5 4 .6 2 1.5 4 2.7 5.7 1.8 2.5 3.2 5.3 4.9 7.8.2.3.4.5.7.7-.5-2.8-.7-5.6-.4-8.5 0-.4 0-.8-.2-1.1-2.8-4.1-5.8-8.1-9.1-11.8-1.4-1.6-1.9-3.8-3.3-5.4-.4.2-.4-.1-.8 0zm-55.8-20.4c-3.1-1.8-4-5.2-5.7-8-.5-1.1-.8-2.4-1-3.6-1.4-5.1-4.4-9.6-8.6-12.9-2.3-2-4.4-4.3-6.3-6.7-.4-.5-1-1.5-1.5-1.1-.7.5.1 1.3.4 1.9 1.1 1.6 2 3.4 2.6 5.3.2 1 1.5 1.3 1.9 2.2.4.8.8 1.5 1.1 2.3 1.1 3.1 2.4 6.1 4.9 8.3.4.3 1 .8.4 1.3-.5.5-1.1 0-1.3-.4-2-2-3.6-4.4-4.6-7.1-.3-.7-.5-1.4-.8-2.1-.5 1-.1 5.4.3 6.5.8 2.2 2.5 3.9 4.7 4.7 3.8 1.4 6.1 4.8 9 7.2.4.3.6.8.6 1.3-.2 1.4.6 1.3 1.5 1.3.7 0 1.4 0 2.1.1l.3-.5zm41.4 11.5c.4 1.3.7 2.4 1.2 3.6 1.4 3.3 1.5 6.8 1.7 10.3.2 2.9.7 5.8 1.7 8.6.3.8.8 1.4 1.5 1.9 1.1.8 2.4 1.6 2.3 3.3 0 .4.2.5.6.5 2.7-.2 5.3.4 7.6 1.6-.2-.5-.3-1.1-.4-1.6-.1-.6-.4-.8-.9-.6-.7.3-1.1 0-1.4-.7-1.2-3.2-2.3-6.5-3.7-9.7-.8-1.5-1.8-2.8-2.9-4.1-.7-1-1.5-1.9-2.2-2.9-.3-.4-.9-.9-.2-1.4s1.1.3 1.4.7c2.2 2.7 4.1 5.6 5.7 8.7 1 2.1 1.6 4.3 2.5 6.5.1.6.6 1.1 1.2 1.4-.8-1.9-.4-3.9-1.6-5.5-.4-.6-.2-1.4-.4-2.1-1.4-4.2-3.8-8-7.1-10.9-2.1-2-4-4.3-5.6-6.8-.2-.5-.6-.8-1-.8zm.6 7.8c-.4-1.3-1-2.5-1.8-3.6-3.9-5.2-9-9.4-13.8-14-.3 1-.1 2 .5 2.8 1.2 2.5 1.2 5.2 2 7.8.9 3 1.6 6 2.8 8.9.8 1.8 2 3.4 3.4 4.8.2.2.4.3.6.3 2.5.1 5 .8 7.2 2.2-.7-3.1 0-6.2-.9-9.2zm-11.8 24.4c.5.9 1.3.6 1.8.7 3.8.8 7.4 2.3 10.6 4.4 2.2 1.5 4.7 1.8 7.3 2.1 1.4.2 2.7.7 4.1.1.1 0 .3 0 .4.1.9 1.3 2.2.5 3.2.3 1.7-.3 3.4-.3 5.2-.6-.8-1.3-1.2-2.7-3-3.1-1.3-.3-2.2-1.5-3.2-2.4-2.4-2.2-5.3-2.2-8.3-2.4-2.3-.2-4.6-.1-7-.3 2-1.3 4.3-.5 6.5-.8 2.2-.3 4.4.4 6.9.8-2.2-2-4.6-1.7-6.9-1.6-5.2.2-10.3 1.2-15.5 2-.7 0-1.5.3-2.1.7zm55.8 7.6c2.9 2.6 4.3 6.1 6.5 9.2.4-.7.4-1.5.1-2.3-1.1-3.4-3.4-6.1-5.4-8.9-1.4-1.7-2.7-3.5-3.9-5.3-.5.7-.7 1.6-.6 2.4-.2 3-.1 6 .3 8.9.2 2.8 1.1 5.5 2.5 7.9 1.6 2.6 3 5.4 5.2 7.5l.3.3c.4.5-.3 1.3.4 1.6 1.2.4 2.4.7 3.6 1-1.7-7.9-4-15.6-9-22.3zm13 5.6c-.1 1.4.3 2.9 1.1 4.1 2.1 3.2 3.1 6.7 3.9 10.3.2.9.5 1.8.8 2.6.4.8.4 1.9-.7 2.2s-1.2-.7-1.3-1.5c-.6-3.3-1.6-6.5-2.5-9.7-1-3.8-2.9-7.2-4.2-10.8-.4-1.2-1.1-2.3-2-3.2.1 2.6-.2 5.3.2 7.9.1 1 .4 2.1-.4 3-.2.2-.2.6 0 .8.9 1.2.8 2.7.9 4.1.4 3.6 1.3 7.1 3.8 9.8 1.2 1.4 2.9 2.6 5.1 1.9.8-.3 1.5-1 1.8-1.9 1-2.4.7-4.8 0-7.1-.5-1.8-1.2-3.6-1.9-5.3-1.4-2.6-2.9-5-4.6-7.2zM349 229c0-1.7.3-3.4.2-5.1-.1-1.6-1.1-3.2-1.8-4.8-1.4-3.5-4-6.2-6.1-9.2-.6-.7-1.1-1.6-1.5-2.5-.1-.3-.3-.7-.6-.6-.3.1-.2.5-.3.8-.2 2.1.1 4.2-.1 6.2-.5 4.3 1 8.1 2.5 11.8 1.1 2.4 2.5 4.6 4.3 6.5 1.3 1.5 1.2 1.6-.4 2.7 2.3.7 4.8.4 6.8 1.9-1.3-3.9-4.2-6.7-6.8-9.8-1.7-2.2-3-4.7-3.7-7.4 0-.1 0-.3.1-.4.2-.2.4-.1.5 0 .5.4.9.9 1 1.5 1.2 3.4 3.6 5.8 5.9 8.4zm8.9 15.4c-2.1-1.4-3.2-3.3-4.4-5.2-.1-.3-.4-.5-.6-.5-2.2-.3-4.1-1.7-6.2-2.1-2.2-.4-4.5-.4-6.7-.1 1 .7 1 .6 2.5.6 4.1-.2 8.1 1.1 11.3 3.7.4.4.9.7.6 1.3s-1 .2-1.4.1c-1.3-.4-2.2-1.5-3.3-2.3-2.1-1.4-4.6-2-7.1-1.8-1.9.1-3.8.1-5.7-.1-1.2-.3-2.4-.2-3.5.2-1.2.6-2.6.6-3.9 1.1-1.5.7-3 1.2-4.6 1.8.4.5 1.1.8 1.8.7 4 .2 8 1 11.8 2.5 2.2.8 4.4.6 6.6.6 4.2 0 8.3-.9 12.5-.4-.1.1.1 0 .3-.1zm-7.3 9.5c-.9-1-.5-1.3.3-1.3 3.9-.2 7.8-.6 11.7-1.2.3-.1.7-.1 1-.1.5 0 .7.2.3.7-.6.9-1.7 1.4-2.8 1.3-2.4-.4-4.7.2-7.3.4 1.5 1.1 13.2.3 14.8-.8-1.2-1.3-2.9-2.2-4-3.7-.1-.1-.2-.2-.4-.2-2.4.7-3.7-1.5-5.5-2.2-2.1-.9-4.4-1.2-6.7-.8-2.2.5-4.5.2-6.6 1.3-2.2 1.1-4.5 1.8-6.3 3.4-.9.8-2.1.8-3.3 1.8 4.9 0 9.9.5 14.8 1.4zm-8.1-20.5c-.3-.2-.6-.5-.9-.8-2.1-2.5-5-3.4-7.9-4.2-1.5-.5-3-.8-4.5-.9-2.6-.2-5.2-.2-7.7 0-.3 0-.6.2-.7-.2-.1-.4.2-.5.5-.5 1.4-.2 2.9-.4 4.3-.4 2.8 0 5.7.1 8.5.3 2.2.2 4.2.9 6.1 2 .3.2.7.8 1.1.2s-.4-1-.7-1c-2.2-.2-3.8-2.3-6.2-1.8-.2 0-.5-.2-.8-.3-1.3-1-3-1.4-4.7-1.1-5.3.7-10.6 1.8-15.8 3.3-.3.1-.6.1-.6.5s.4.3.7.4c3.6 1.1 7.1 2.4 10.6 3.8 1.5.5 3.1.8 4.6.9 1 .2 2 .5 2.9.6 1.9.3 3.9.3 5.8.2 1.8-.1 3.6-.1 5.4-1zm-46.2-45.9c-1.2-2.7-1.3-5.4-2.2-8-.7-2.2-1.4-4.3-3-5.9-2.3-2.2-4.8-4.1-7.4-5.7-1.4-.8-2.8-1.8-4-2.9l-.3.2c.7 2.2 1.3 4.3 2.1 6.7s1.6 4.7 2.6 7c1.4 3.5 3.5 6 7.2 7 1.4.3 3 .9 5 1.6zm-120.2-59.8c-1-1-2.2-1.9-3.5-2.5-2.5-1.5-4.7-3.4-6.7-5.5-2.4-2.7-5.6-3.5-9.4-4.2 5.7 5.9 11.7 10.5 19.6 12.2zm151.4 89.7c-.8-1.2-2.2-1.5-3.4-2.1l-.2.3 3.3 2.1.3-.3zm34.5 4.8c.2.3.4.7.7.4.4-.5-.1-1-.3-1.4-.1-.2-.4-.6-.6-.3-.5.4.1.8.2 1.3z"/>
      <path class="st1" d="M649.4 600c-3.4-4.2-6.1-8.8-9.2-13.2-2.6-3.6-5.1-7.1-7.6-10.8-1.8-2.6-3.7-5.2-5.5-7.8-1.4-2-2.8-4-4.1-6-1.8-2.8-3.3-5.7-5.2-8.3-2.5-3.6-4.8-7.3-7.3-11-4.3-6.3-8.4-12.7-12.7-19-3.4-4.9-7.1-9.5-10.6-14.3-1.9-2.5-3.8-4.9-5.6-7.4-2-2.8-3.9-5.7-6-8.5-2.3-3.2-4.9-6.1-7.2-9.2-4.4-5.8-9-11.4-13.4-17.3-3.7-4.8-7.8-9.2-11.6-14-3.8-4.9-7.8-9.6-11.6-14.4-6.1-7.8-12-15.7-17.8-23.7-3-4.2-6.1-8.3-9.1-12.5-2.5-3.4-5.2-6.7-7.9-9.9-3.7-4.2-7.3-8.5-11.3-12.3-2.4-2.3-5-4.4-7.6-6.5-.9-.9-2-1.6-3.3-1.9-2.1-.4-4.2-.6-6.3-.7-2.5-.1-5-.6-7.6-.9-6-.7-12.1-.6-18.1-1.4-4-.5-8-.7-11.9-1.2-5.6-.7-11-1.5-16.6-2.3-4.6-.6-9.4-.9-14-1.6-6.2-.9-12.4-2.3-18.5-3-6.1-.6-12.1-1.7-18.2-2.5-5.5-.7-11-1.3-16.6-2.1-4.1-.5-8.3-1.1-12.4-1.8-2.9-.5-5.8-1-8.6-1.2-4.5-.3-8.9-1-13.4-1.4-6.3-.5-12.4-1.9-18.7-2.9l-3.3-.5c-.2-.1-.5 0-.5-.4s.4-.3.6-.2c.9.4 1.9.2 2.8.4 3.5.6 7.1 1.2 10.6 1.8 4.7.7 9.4 1 14.1 1.5 3.7.4 7.4 1 11.1 1.4 4.5.4 8.9 1.2 13.4 1.8 5.3.7 10.7 1.6 16 2 5.1.4 10.2 1.4 15.3 1.9 2.5.2 5 .8 7.5 1.1 4.3.6 8.5 1.2 12.7 2 3.6.7 7.2 1.2 10.9 1.7 5.6.7 11.3 1.1 16.8 2 2.8.4 5.6.7 8.4 1 1.9.2 3.7.3 5.6.5 3.4.4 6.7.9 10 1 4 .2 8 .5 11.9.8 4.3.5 8.6.8 13 .8 3.6-.1 7.1 1.4 9.5 4.1 3.5 3.6 7.1 7.4 10.5 10.9 3.4 3.5 7 6.9 10.1 10.7 4.3 5.3 8.2 10.9 12.3 16.4 3.5 4.8 6.9 9.6 10.4 14.3 3.4 4.5 7.1 8.8 10.4 13.3 4.1 5.5 8.6 10.7 12.9 16 3.3 4.1 7.1 8 10.2 12.4 1.7 2.3 3.7 4.3 5.5 6.5 2.7 3.5 5.1 7.2 8.1 10.5 2.6 3 5.1 6.1 7.3 9.3 2.2 3.1 4.1 6.3 6.4 9.2 4 5 7.7 10.2 11.6 15.4s7.6 10.5 11.1 15.9c5.9 9 12.1 17.9 17.8 27.1 3.4 5.4 7.1 10.4 10.8 15.5s7.3 10.4 11 15.6c1.3 1.9 2.4 4 4.1 5.5l-1.4 1.8zM277.3 344.9c1.8-.9 3.5 0 5.3 0 .7 0 1.6-.3 2.3.4-1.7.7-3.4.1-5 0-.9 0-2 .5-2.6-.4zM285.1 347.2l4.2.8c-1.4.4-2.9.3-4.3-.3l.1-.5zM176.7 161.1c-1.9.2-3.9.2-5.8 0 1.9-.4 3.9-.4 5.8 0zM190.2 172.9c-1.4.8-2.9.1-4.3.2 1.4-.4 2.9-.5 4.3-.2zM277.3 344.9c-.2.2-.3.4-.4.6-.1.4.1.8-.6.7s-.3-.4-.2-.9c.1-.4-.4-.4-.5-.8.5.1 1.2-.1 1.7.4zM145.4 72.1c-1.2-.9-2.2-1.9-3.1-3.1 1.2.8 2.2 1.9 3.1 3.1zM260.6 175.2c1.8-.1 3.4.4 5.2.5 2.8.1 5.4.9 7.8 2.4.9.6 2.2.7 2.8 1.9.2.5.8 1.1.3 1.5s-1.1-.1-1.5-.4c-2.6-2-5.7-3.4-8.9-4.1-2.1-.5-4.3-.5-6.4-1.2.2-.6.5-.5.7-.6zM182.1 130c2.3-.5 4.6-.6 6.9-.3 2.4.4 4.8 1.1 7.1 1.9 2.2.5 4.3 1.8 5.7 3.6.3.4.7.8.3 1.3-.4.5-.9.1-1.3-.2-2.2-1.6-4.7-3-7.2-4.1-2.8-1.2-5.9-1.7-8.9-1.3-1.7.3-3.4.4-5.2.5-.3 0-.7 0-.8-.4 0-.1.1-.3.2-.5 1.2-.2 2.2-.3 3.2-.5zM208.1 126.5c2.2 2.1 4.1 4.4 5.8 6.9.3.6.2 1.3-.3 1.7-.4.5-1-.1-1.4-.3-.5-.3-.9-.7-1.3-1.1-.3-.4-1.1-.8-.6-1.4s1 .3 1.4.5c.1 0 .2 0 .5-.1-1.5-2-3-3.9-4.5-5.8l.4-.4zM194.6 123.4c.1.4.3.8-.1 1.1-.4.3-.8-.1-1.1-.4-.4-.6-.8-1.1-1.2-1.6-1.7-2-4-3.5-6-5.2-.5-.5-1.8-.9-1-1.9s1.5.2 2.2.4l.1.1c1.9 2.2 4 4.3 6.2 6.3.5.3.7.7.9 1.2zM177.3 120c-.8-.3-1.5-.7-2.2-1-1.7-.7-3.5-1.4-5.2-2.1-.3-.1-.7-.2-.7-.6s.5-.5.9-.5c.2 0 .5 0 .7.1 2.4.9 4.8 2 7 3.3.3.2.6.4.3.8-.2.2-.5.2-.8 0zM295.8 197.4c-1.8.1-3.6 0-5.4-.4-4.6-.9-9.2-2.2-13.2-4.8-1.7-1-3.5-1.8-5.5-2.1-.5-.1-1.2-.3-1.1-1 .2-.6 1-.3 1.4-.2 1.8.6 3.8 1 5.5 2 2.1 1.4 4.5 2.5 6.9 3.2 3.2.8 6.3 2.2 9.7 1.8.8-.1 1.7 0 2.4.4.3.2.7.4.2.9-.2-.1-.5 0-.9.2zM252 168c-5-3-10.5-4.8-16.3-5.3-.3 0-.8.1-.8-.4s.5-.5.9-.5c1 0 2 .1 3 .2 4.4.5 8.3 2.7 12.4 4.2 1.1.4 2.1 1 3 1.8.3.2.6.4.1.8-.9.1-1.6-.4-2.3-.8zM202.3 140.2c3.7-.8 7.5-1.6 11.2.3 2.2 1.1 4.3 2.3 6.5 3.4.7.3 2.1.7 1.6 1.6-.5.9-1.7.4-2.6-.1-1.6-.9-3.3-1.9-4.8-2.9-2.6-1.7-5.7-2.4-8.8-1.8l-2.7.3h-.7c-.5-.4-.3-.7.3-.8zM308.9 193.6c.2.4.3 1-.2 1.3-.5.3-.7-.3-.9-.6-.1-.2-.3-.4-.3-.6-2.2-5.1-6.1-8.9-9.9-12.8-.4-.4-1.1-1-.4-1.6.7-.6 1.2 0 1.6.5 1.9 2.8 4.4 5 6.7 7.9 1.6 1.4 2.2 3.8 3.4 5.9zM311.3 217.8c4.3 1.1 8.5 3 13 2.8.5 0 .9.1 1.4.2.3 0 .5.3.5.6 0 .4-.3.4-.6.4-.9.1-1.7.1-2.6.1-4.4-.4-8.4-2-12.5-3.3-.5-.1-.9-.5-1-.9.7-.2 1.3-.1 1.8.1zM342.4 242.5c1.8-.2 3.6.5 5.4.2.4-.1 1 0 1.1.5.1.6-.6.6-.9.6-2.9.4-5.9 0-8.5-1.3 1.1-.4 2 .1 2.9 0zM347.9 248.7c1.4-.1 2.7-.2 4.1-.4.5-.1 1.2-.5 1.3.2.1.7-.5 1.1-1.2 1.2-1.3 0-2.6.1-3.9.1-.3 0-.7-.1-.9-.3-.2-.6.2-.8.6-.8zM325.9 231.6c.3-.4.7-.3 1.1-.2 3.3.5 6.5 1.6 9.8 1 .3-.1.7-.1.8.4.1.5-.3.5-.6.7-.7.3-1.5.4-2.2.4-2.9-.3-5.7-.8-8.5-1.6-.2-.1-.4-.2-.7-.3.1-.2.2-.3.3-.4zM291.5 182.7c-2.9-2-4.9-4.9-6.7-7.8-1-1.6-2-3.3-3-4.9-.1-.3-.3-.6-.1-.8.3-.2.7-.2.9 0 .3.2.5.4.7.7.7 1.1 1.3 2.2 2 3.3 1.9 3 3.5 6.2 6.4 8.4.6.5 1.1 1.1 1.6 1.7-.6.2-1.3-.1-1.8-.6z"/>
    </g>
  </g>
</svg>
