<svg xmlns="http://www.w3.org/2000/svg" viewBox="0 0 422.98 115.53"><defs><style>.a{fill:#f7e4c5;}</style></defs><title>mendocino-spirits-home-icon</title><path class="a" d="M434.27,59.87c-.18-2.71-2.42-12.51-5.27-14.38-2.3-2-4.88-3-7.59-2.27-9.32,2.53-2.71,14.46-6,19.79-3.82,6.25-7.79-8.62-6-11.51-3.78-1.24-7,1-6.56,9.25.38,6.81,2.86,14.77,11.4,14.3,7.77-.13,3.19-15.17,4.12-21,.28-1.73,1.47-8.1,5.36-9.36s8.69,6.84,7.82,17.69-7.06,28.06-17.32,29-14.61-18.53-15.49-21.76c-1.89-7-4.14-12.09-10.42-11.76h-49.4v0H57.51C51.22,57.51,49,62.6,47.08,69.6c-.87,3.23-5.2,22.72-15.46,21.78s-16.46-18.15-17.32-29,3.92-19,7.82-17.69,5.09,7.63,5.37,9.36c.93,5.83-3.65,20.87,4.11,21,8.55.47,11-7.49,11.4-14.3.43-8.24-2.8-10.49-6.58-9.28,1.79,2.89-2.19,17.76-6,11.51-3.3-5.33,3.32-17.26-6-19.79-2.72-.73-5.3.27-7.59,2.27C14,47.33,11.74,57.13,11.56,59.84c-1,15.24,3.26,39.36,18.58,41.44S46.8,73.82,48.67,69.82c3.31-7.15,6.48-6.54,8.65-6.38h49.59v0h281.6c2.17-.16,5.33-.77,8.65,6.38,1.86,4,3.21,33.54,18.53,31.46S435.26,75.11,434.27,59.87Z" transform="translate(-11.42 -7.32)"/><path class="a" d="M65.74,75.83c-3.68-.07.25,10.84-1.95,12.39s-3.49-.49-4.2-1.88A20.42,20.42,0,0,1,57.66,77c0-6.87,6.22-7.76,11.61-7.76,1.16,0,2.42,0,3.48.11s2,.08,2.72.08c99.57,0,180.3-.16,241.2-.4V66.16c-60-.22-140.09-.35-241.19-.35-.87,0-1.69-.07-2.58-.07-1.1,0-2.3-.1-3.62-.1-7.06,0-15.2,1.29-15.2,11.35,0,4.5,2.35,12.56,3.76,15.29,3.39,6.52,8,6,11.32,3,2-1.85,1.26-6.64.38-8.64S62.51,79.15,65.74,75.83Z" transform="translate(-11.42 -7.32)"/><path class="a" d="M379.32,75.83c3.68-.07-.22,10.84,2,12.39s3.47-.49,4.18-1.88A20.42,20.42,0,0,0,387.39,77c0-6.87-6.21-7.76-11.61-7.76-1.16,0-2.41,0-3.47.11s-2.05.08-2.73.08c-99.57,0-180.3-.16-241.19-.4V66.16c60-.22,140.09-.35,241.18-.35.88,0,1.7-.07,2.58-.07,1.11,0,2.31-.1,3.62-.1C382.84,65.61,391,66.93,391,77c0,4.5-2.36,12.56-3.76,15.29-3.4,6.52-8,6-11.33,3-2-1.85-1.26-6.64-.37-8.64S382.54,79.15,379.32,75.83Z" transform="translate(-11.42 -7.32)"/><path class="a" d="M97.72,37.83l-10.63-24H87L87,32.54a14.49,14.49,0,0,0,.19,2A2.06,2.06,0,0,0,88,35.68a3.3,3.3,0,0,0,2,.49h.28a1.13,1.13,0,0,1,.69.17,1.18,1.18,0,0,1,.26.82,1.22,1.22,0,0,1-.22.74.72.72,0,0,1-.63.3l-1.18,0c-1.45-.07-2.49-.1-3.12-.1-1.07,0-2.63,0-4.67.14a.72.72,0,0,1-.64-.3,1.29,1.29,0,0,1-.21-.74c0-.47.12-.75.28-.85a2,2,0,0,1,.9-.14,3.25,3.25,0,0,0,2-.49,2,2,0,0,0,.78-1.18,11.81,11.81,0,0,0,.19-2l.1-18.75a5.59,5.59,0,0,0-.33-2.19,2.06,2.06,0,0,0-1-1A7.89,7.89,0,0,0,81.66,10L81.1,9.9a.65.65,0,0,1-.5-.29,1.45,1.45,0,0,1-.12-.68.82.82,0,0,1,.31-.76,2,2,0,0,1,1-.19,24,24,0,0,1,4.58.36,7.13,7.13,0,0,1,3.14,1.44A8.07,8.07,0,0,1,91.72,13l8.12,18.23H100l9.3-22.95H112c1.73,0,3.6,0,5.61-.14a.72.72,0,0,1,.64.3,1.29,1.29,0,0,1,.21.74q0,.71-.3.84a1.9,1.9,0,0,1-.88.15,3.39,3.39,0,0,0-2,.49,2.07,2.07,0,0,0-.82,1.23,11.87,11.87,0,0,0-.22,1.91V32.54a11.87,11.87,0,0,0,.22,1.91,2.07,2.07,0,0,0,.82,1.23,3.39,3.39,0,0,0,2,.49h.29a1,1,0,0,1,.63.17c.15.11.23.38.26.82a1.29,1.29,0,0,1-.21.74.72.72,0,0,1-.64.3c-2-.09-3.9-.14-5.66-.14s-3.76,0-5.81.14a.74.74,0,0,1-.64-.3,1.29,1.29,0,0,1-.21-.74c0-.47.13-.75.28-.85a2,2,0,0,1,.9-.14,3.39,3.39,0,0,0,2-.49,2.09,2.09,0,0,0,.83-1.23,11,11,0,0,0,.21-1.91V13.79h-.14l-9.73,24c-.12.31-.44.47-.94.47A1.06,1.06,0,0,1,97.72,37.83Z" transform="translate(-11.42 -7.32)"/><path class="a" d="M122.72,37.9a1.22,1.22,0,0,1-.22-.74c0-.47.13-.75.29-.85a1.94,1.94,0,0,1,.89-.14,3.37,3.37,0,0,0,2-.49,2,2,0,0,0,.83-1.23,11,11,0,0,0,.21-1.91V13.79a11,11,0,0,0-.21-1.91,2,2,0,0,0-.83-1.23,3.37,3.37,0,0,0-2-.49h-.28a1,1,0,0,1-.66-.17,1.25,1.25,0,0,1-.24-.82,1.22,1.22,0,0,1,.22-.74.67.67,0,0,1,.59-.3c2.07.09,4,.14,5.62.14h14.82c.82,0,1.23.38,1.23,1.13l.14,6.61a.8.8,0,0,1-.42.69,1.68,1.68,0,0,1-.85.26,2.14,2.14,0,0,1-1-.22.78.78,0,0,1-.47-.63,20.4,20.4,0,0,0-.82-3.52,3.63,3.63,0,0,0-1.33-1.8,4.68,4.68,0,0,0-2.48-.63h-6.32v12H140a.7.7,0,0,1,.52.35,1.36,1.36,0,0,1,.19.74,1.14,1.14,0,0,1-.19.66.58.58,0,0,1-.52.28h-8.54V33.1a12.69,12.69,0,0,0,.23,1.59,1.9,1.9,0,0,0,.85,1.06,4,4,0,0,0,2.22.42h4.35a5.37,5.37,0,0,0,2.5-.54,3.35,3.35,0,0,0,1.34-1.54,24.12,24.12,0,0,0,1.21-3.39c.22-.57.75-.79,1.6-.67a2,2,0,0,1,.83.38.76.76,0,0,1,.31.71l-1,5.95a1.23,1.23,0,0,1-.42.8,1.76,1.76,0,0,1-.95.19H129c-1.7,0-3.59,0-5.66.14A.67.67,0,0,1,122.72,37.9Z" transform="translate(-11.42 -7.32)"/><path class="a" d="M150.81,37.9a1.29,1.29,0,0,1-.21-.74c0-.47.12-.75.28-.85a2,2,0,0,1,.9-.14,3.25,3.25,0,0,0,2-.49,2,2,0,0,0,.78-1.18,11.81,11.81,0,0,0,.19-2l.1-18.75a5.93,5.93,0,0,0-.31-2.15,2.06,2.06,0,0,0-1-1.06,7.67,7.67,0,0,0-1.89-.57,2.77,2.77,0,0,1-1-.28c-.12-.09-.19-.36-.19-.8a.82.82,0,0,1,.31-.76,2,2,0,0,1,1-.19,20.72,20.72,0,0,1,4.62.41,7.22,7.22,0,0,1,3,1.44A16.49,16.49,0,0,1,162.26,13L175.2,30h.14l-.1-16.2a11.81,11.81,0,0,0-.19-2,2,2,0,0,0-.77-1.18,3.3,3.3,0,0,0-2-.49H172a1.13,1.13,0,0,1-.69-.17,1.18,1.18,0,0,1-.26-.82,1.17,1.17,0,0,1,.24-.74.73.73,0,0,1,.61-.3c2,.09,3.53.14,4.53.14.6,0,1.75,0,3.45-.1l1,0a.72.72,0,0,1,.64.3,1.29,1.29,0,0,1,.21.74c0,.47-.12.75-.28.84a1.86,1.86,0,0,1-.9.15,3.25,3.25,0,0,0-2,.49,2,2,0,0,0-.78,1.18,11.81,11.81,0,0,0-.19,2l-.1,23.8c0,.41-.42.61-1.18.61a1.62,1.62,0,0,1-1.37-.61l-17.8-23.8H157l.1,18.75a13.26,13.26,0,0,0,.18,2,2.06,2.06,0,0,0,.78,1.18,3.3,3.3,0,0,0,2,.49h.28a1.13,1.13,0,0,1,.69.17,1.18,1.18,0,0,1,.26.82,1.29,1.29,0,0,1-.21.74.75.75,0,0,1-.64.3c-2-.09-3.54-.14-4.58-.14-.63,0-1.73,0-3.31.1l-1.08,0A.72.72,0,0,1,150.81,37.9Z" transform="translate(-11.42 -7.32)"/><path class="a" d="M185.56,37.9a1.29,1.29,0,0,1-.21-.74c0-.47.12-.75.28-.85a2,2,0,0,1,.9-.14,3.39,3.39,0,0,0,2-.49,2.13,2.13,0,0,0,.83-1.23,11,11,0,0,0,.21-1.91V13.79a11,11,0,0,0-.21-1.91,2.13,2.13,0,0,0-.83-1.23,3.39,3.39,0,0,0-2-.49h-.28a1,1,0,0,1-.67-.17,1.32,1.32,0,0,1-.23-.82,1.29,1.29,0,0,1,.21-.74.68.68,0,0,1,.59-.3c2.08.09,3.95.14,5.62.14h7.37a18.31,18.31,0,0,1,8.23,1.82,14.1,14.1,0,0,1,5.86,5.21,14.76,14.76,0,0,1,2.15,8A13.41,13.41,0,0,1,213,31.47a14.69,14.69,0,0,1-6.33,5,21.33,21.33,0,0,1-8.33,1.63h-6.52c-1.67,0-3.54,0-5.62.14A.68.68,0,0,1,185.56,37.9Zm21.53-5q2.58-3.42,2.57-9.56a16.45,16.45,0,0,0-1.39-6.92,10.8,10.8,0,0,0-4-4.74A11.28,11.28,0,0,0,198,10l-3.68,0V33.1a2.74,2.74,0,0,0,1.11,2.53,7.12,7.12,0,0,0,3.61.68Q204.53,36.31,207.09,32.89Z" transform="translate(-11.42 -7.32)"/><path class="a" d="M227.06,36.86a14.76,14.76,0,0,1-5.29-5.69,16.12,16.12,0,0,1-1.86-7.6,16.3,16.3,0,0,1,2.24-8.64,15.68,15.68,0,0,1,5.74-5.65,14.4,14.4,0,0,1,7.08-2,14.9,14.9,0,0,1,8,2.15,14.54,14.54,0,0,1,5.34,5.67,16,16,0,0,1,1.86,7.58,16.28,16.28,0,0,1-2.26,8.66,15.69,15.69,0,0,1-5.81,5.67,14.78,14.78,0,0,1-15-.19ZM240.28,35a11.41,11.41,0,0,0,3.21-5.15,22.78,22.78,0,0,0,1.07-7.15A19.93,19.93,0,0,0,243.47,16a10.93,10.93,0,0,0-3.26-4.86,8,8,0,0,0-5.29-1.82,7.76,7.76,0,0,0-7.1,4,19.38,19.38,0,0,0-2.39,10.08,20.52,20.52,0,0,0,1.07,6.76,11.27,11.27,0,0,0,3.18,4.91,8.43,8.43,0,0,0,10.6-.07Z" transform="translate(-11.42 -7.32)"/><path class="a" d="M262,37.09a13.85,13.85,0,0,1-5.28-5.45,16.73,16.73,0,0,1-2-8.26A18,18,0,0,1,256.6,15,13.55,13.55,0,0,1,262,9.33a16.09,16.09,0,0,1,8.17-2A15.64,15.64,0,0,1,277.37,9a5.32,5.32,0,0,1,3.16,5,5,5,0,0,1-1.27,3.61,4.5,4.5,0,0,1-3.54,1.49,3,3,0,0,1-1.44-.31,2.25,2.25,0,0,1-.88-.73,1,1,0,0,1-.23-.66c0-.06.22-.24.66-.52A4.27,4.27,0,0,0,275,15.68a3.14,3.14,0,0,0,.52-1.84,4.26,4.26,0,0,0-1.44-3.38,5.9,5.9,0,0,0-4-1.25A8.52,8.52,0,0,0,265,10.84a10.57,10.57,0,0,0-3.5,4.77,20.26,20.26,0,0,0-1.25,7.48A17,17,0,0,0,261.58,30a11.68,11.68,0,0,0,3.8,4.91A9.13,9.13,0,0,0,271,36.69a8.46,8.46,0,0,0,4.36-1.06,9.86,9.86,0,0,0,3.29-3.42.71.71,0,0,1,.66-.43,1.8,1.8,0,0,1,.85.28c.5.35.75.7.75,1a.65.65,0,0,1-.19.48A18.22,18.22,0,0,1,277.35,37a9.31,9.31,0,0,1-3.43,1.58,21.15,21.15,0,0,1-4.62.43A14.45,14.45,0,0,1,262,37.09Z" transform="translate(-11.42 -7.32)"/><path class="a" d="M284.52,37.9a1.29,1.29,0,0,1-.21-.74c0-.47.14-.75.31-.85a2,2,0,0,1,.87-.14,3.39,3.39,0,0,0,2-.49,2.16,2.16,0,0,0,.85-1.21,8.73,8.73,0,0,0,.24-1.93V13.79a8.73,8.73,0,0,0-.24-1.93,2.16,2.16,0,0,0-.85-1.21,3.39,3.39,0,0,0-2-.49h-.28a1,1,0,0,1-.64-.17,1.18,1.18,0,0,1-.26-.82,1.29,1.29,0,0,1,.21-.74.75.75,0,0,1,.64-.3c2,.09,3.92.14,5.62.14q2.84,0,5.9-.14a.74.74,0,0,1,.64.3,1.29,1.29,0,0,1,.21.74c0,.47-.13.75-.31.84a2,2,0,0,1-.92.15,3.39,3.39,0,0,0-2,.49,2.07,2.07,0,0,0-.82,1.23,11,11,0,0,0-.21,1.91V32.54a11,11,0,0,0,.21,1.91,2.07,2.07,0,0,0,.82,1.23,3.39,3.39,0,0,0,2,.49h.29a1.11,1.11,0,0,1,.68.17,1.18,1.18,0,0,1,.26.82,1.29,1.29,0,0,1-.21.74.74.74,0,0,1-.64.3c-2-.09-4-.14-5.85-.14-1.73,0-3.62,0-5.67.14A.75.75,0,0,1,284.52,37.9Z" transform="translate(-11.42 -7.32)"/><path class="a" d="M301.8,37.9a1.29,1.29,0,0,1-.21-.74c0-.47.13-.75.29-.85a1.94,1.94,0,0,1,.89-.14,3.28,3.28,0,0,0,2-.49,2.06,2.06,0,0,0,.78-1.18,13,13,0,0,0,.19-2l.09-18.75a6,6,0,0,0-.3-2.15,2.06,2.06,0,0,0-1-1.06,7.67,7.67,0,0,0-1.89-.57,2.63,2.63,0,0,1-1-.28c-.13-.09-.19-.36-.19-.8a.84.84,0,0,1,.3-.76,2,2,0,0,1,1-.19,20.82,20.82,0,0,1,4.63.41,7.34,7.34,0,0,1,3,1.44A16.49,16.49,0,0,1,313.25,13l12.94,17h.14l-.09-16.2a13,13,0,0,0-.19-2,2,2,0,0,0-.78-1.18,3.26,3.26,0,0,0-2-.49H323a1.11,1.11,0,0,1-.68-.17,1.18,1.18,0,0,1-.26-.82,1.23,1.23,0,0,1,.23-.74.75.75,0,0,1,.62-.3c2,.09,3.52.14,4.53.14.6,0,1.75,0,3.45-.1l1,0a.75.75,0,0,1,.64.3,1.29,1.29,0,0,1,.21.74c0,.47-.13.75-.29.84a1.79,1.79,0,0,1-.89.15,3.28,3.28,0,0,0-2,.49,2.06,2.06,0,0,0-.78,1.18,13,13,0,0,0-.19,2l-.09,23.8c0,.41-.43.61-1.18.61a1.61,1.61,0,0,1-1.37-.61l-17.8-23.8H308l.09,18.75a13,13,0,0,0,.19,2,2,2,0,0,0,.78,1.18,3.26,3.26,0,0,0,2,.49h.28a1.11,1.11,0,0,1,.68.17c.15.11.23.38.26.82a1.29,1.29,0,0,1-.21.74.72.72,0,0,1-.64.3c-2-.09-3.54-.14-4.58-.14-.63,0-1.73,0-3.3.1l-1.09,0A.75.75,0,0,1,301.8,37.9Z" transform="translate(-11.42 -7.32)"/><path class="a" d="M342.93,36.86a14.69,14.69,0,0,1-5.29-5.69,16.12,16.12,0,0,1-1.86-7.6A16.21,16.21,0,0,1,338,14.93a15.61,15.61,0,0,1,5.74-5.65,14.4,14.4,0,0,1,7.08-2,14.9,14.9,0,0,1,8,2.15,14.61,14.61,0,0,1,5.34,5.67A16,16,0,0,1,366,22.72a16.28,16.28,0,0,1-2.26,8.66A15.76,15.76,0,0,1,358,37.05a14.78,14.78,0,0,1-15-.19ZM356.15,35a11.58,11.58,0,0,0,3.21-5.15,22.78,22.78,0,0,0,1.06-7.15A19.93,19.93,0,0,0,359.34,16a11,11,0,0,0-3.26-4.86,8,8,0,0,0-5.29-1.82,7.74,7.74,0,0,0-7.1,4,19.38,19.38,0,0,0-2.39,10.08,20.79,20.79,0,0,0,1.06,6.76,11.2,11.2,0,0,0,3.19,4.91,8.43,8.43,0,0,0,10.6-.07Z" transform="translate(-11.42 -7.32)"/><path class="a" d="M163,112.94a5.32,5.32,0,0,1-2.45-4.75,3.49,3.49,0,0,1,1.08-2.63,3.9,3.9,0,0,1,2.81-1A2.44,2.44,0,0,1,166,105a1.22,1.22,0,0,1,.53.86s-.15.13-.44.31a2.44,2.44,0,0,0-1.15,2.25,4.09,4.09,0,0,0,1.26,3.21,5.74,5.74,0,0,0,3.91,1.12,6.84,6.84,0,0,0,3.18-.7,5.21,5.21,0,0,0,2.1-1.88,4.54,4.54,0,0,0,.73-2.45,4.28,4.28,0,0,0-.9-2.74,7.9,7.9,0,0,0-2.24-1.93,39.48,39.48,0,0,0-3.62-1.79,42.11,42.11,0,0,1-4.29-2.16,9.13,9.13,0,0,1-2.78-2.59,7.56,7.56,0,0,1,1.48-9.74,11.53,11.53,0,0,1,6.92-1.9,11.7,11.7,0,0,1,5.85,1.41,4.54,4.54,0,0,1,2.5,4.16A3.48,3.48,0,0,1,178,93.1a3.88,3.88,0,0,1-2.8,1,2.47,2.47,0,0,1-1.55-.51,1.27,1.27,0,0,1-.53-.86,2,2,0,0,1,.6-.31,3.13,3.13,0,0,0,1.06-.8,2.13,2.13,0,0,0,.46-1.46,3,3,0,0,0-1.26-2.56,5.23,5.23,0,0,0-3.2-.93A5.91,5.91,0,0,0,166.65,88a4.06,4.06,0,0,0-1.39,3.12,4,4,0,0,0,.84,2.58,9.1,9.1,0,0,0,2.7,2.06q1.5.8,3.27,1.59a35.52,35.52,0,0,1,4.48,2.34,9.21,9.21,0,0,1,2.78,2.78,7.62,7.62,0,0,1,1.13,4.29,6.36,6.36,0,0,1-1.39,4,9.24,9.24,0,0,1-3.76,2.8,12.92,12.92,0,0,1-5.19,1C167,114.55,164.66,114,163,112.94Z" transform="translate(-11.42 -7.32)"/><path class="a" d="M183.18,122.59a1,1,0,0,1-.2-.62c0-.38.11-.61.24-.68a1.74,1.74,0,0,1,.78-.11,2.51,2.51,0,0,0,1.59-.4,1.61,1.61,0,0,0,.59-1,8.73,8.73,0,0,0,.11-1.64V99a16.55,16.55,0,0,0-.06-1.68,1.43,1.43,0,0,0-.55-.93A2.6,2.6,0,0,0,184,96a1.63,1.63,0,0,1-.79-.15c-.18-.11-.27-.35-.27-.73a.84.84,0,0,1,.18-.51.72.72,0,0,1,.53-.29,23.56,23.56,0,0,0,4.73-1.15c.5-.14.83-.23,1-.26h.13c.47,0,.71.28.71.84v2.12h.13a11,11,0,0,1,3-2,8.09,8.09,0,0,1,3.27-.77,8.65,8.65,0,0,1,4.75,1.33,9,9,0,0,1,3.29,3.73,12,12,0,0,1,1.19,5.46,10.7,10.7,0,0,1-1.41,5.5,10,10,0,0,1-3.76,3.73,9.93,9.93,0,0,1-5,1.33,10.58,10.58,0,0,1-3-.38,9.85,9.85,0,0,1-2.26-1h-.17v5.34a8.73,8.73,0,0,0,.11,1.64,1.61,1.61,0,0,0,.59,1,2.51,2.51,0,0,0,1.59.4h.27a.88.88,0,0,1,.53.13c.12.09.19.31.22.66a1.08,1.08,0,0,1-.18.62.59.59,0,0,1-.53.27c-1.71-.09-3.25-.14-4.64-.14s-2.85,0-4.59.14A.6.6,0,0,1,183.18,122.59ZM200,110a13,13,0,0,0,1.44-6.18,10.8,10.8,0,0,0-1.59-5.94,5.25,5.25,0,0,0-4.73-2.5,5.47,5.47,0,0,0-2.63.59,9,9,0,0,0-2.14,1.71v11.84a5,5,0,0,0,1.87,2.27,5.45,5.45,0,0,0,3.25,1A4.78,4.78,0,0,0,200,110Z" transform="translate(-11.42 -7.32)"/><path class="a" d="M209.12,113.53a.94.94,0,0,1-.2-.62c0-.38.12-.61.26-.68a2.09,2.09,0,0,1,.8-.11,2.56,2.56,0,0,0,1.63-.4,1.4,1.4,0,0,0,.56-.93,16.55,16.55,0,0,0,.06-1.68V99a16.55,16.55,0,0,0-.06-1.68,1.4,1.4,0,0,0-.56-.93A2.56,2.56,0,0,0,210,96a1.7,1.7,0,0,1-.8-.15c-.17-.11-.26-.35-.26-.73a.84.84,0,0,1,.18-.51.72.72,0,0,1,.53-.29,22.55,22.55,0,0,0,4.77-1.15,5.18,5.18,0,0,1,1-.26h.14c.47,0,.7.28.7.84v15.37a11.08,11.08,0,0,0,.09,1.68,1.47,1.47,0,0,0,.58.93,2.54,2.54,0,0,0,1.63.4h.27a.88.88,0,0,1,.53.13,1,1,0,0,1,.22.66,1.05,1.05,0,0,1-.18.62.59.59,0,0,1-.53.27c-1.71-.09-3.25-.13-4.64-.13s-2.86,0-4.59.13A.6.6,0,0,1,209.12,113.53Zm2.8-26.31a2.5,2.5,0,0,1-.84-1.92,2.27,2.27,0,0,1,1-1.81,3.64,3.64,0,0,1,2.3-.8,2.36,2.36,0,0,1,1.81.77,2.84,2.84,0,0,1,.71,2,2.34,2.34,0,0,1-.84,1.81A3,3,0,0,1,214,88,2.93,2.93,0,0,1,211.92,87.22Z" transform="translate(-11.42 -7.32)"/><path class="a" d="M222,113.53a1,1,0,0,1-.19-.62c0-.38.11-.61.26-.68a2.06,2.06,0,0,1,.8-.11,2.56,2.56,0,0,0,1.63-.4,1.35,1.35,0,0,0,.55-.93,13.5,13.5,0,0,0,.07-1.68V99a13.5,13.5,0,0,0-.07-1.68,1.35,1.35,0,0,0-.55-.93,2.56,2.56,0,0,0-1.63-.4,1.67,1.67,0,0,1-.8-.15c-.18-.11-.26-.35-.26-.73a.89.89,0,0,1,.17-.51.76.76,0,0,1,.53-.29,23.22,23.22,0,0,0,4.73-1.15c.5-.14.84-.23,1-.26h.13c.47,0,.71.28.71.84v2.74h.13A14.83,14.83,0,0,1,232.34,94a5.85,5.85,0,0,1,2.87-.91,2.82,2.82,0,0,1,2.32,1.08,3.93,3.93,0,0,1,.86,2.5,3.54,3.54,0,0,1-.75,2.21,2.47,2.47,0,0,1-2.08,1,2.11,2.11,0,0,1-1.08-.27c-.31-.17-.48-.32-.51-.44a6.15,6.15,0,0,1,.44-.55,1.59,1.59,0,0,0,.4-1.08,1.88,1.88,0,0,0-.42-1.28,1.39,1.39,0,0,0-1.13-.49,3.75,3.75,0,0,0-1.89.73,13.75,13.75,0,0,0-2.26,1.83v10.78a11.08,11.08,0,0,0,.09,1.68,1.5,1.5,0,0,0,.57.93,2.6,2.6,0,0,0,1.64.4h.26a.9.9,0,0,1,.54.13,1,1,0,0,1,.22.66,1.05,1.05,0,0,1-.18.62.6.6,0,0,1-.53.27c-1.71-.09-3.26-.13-4.64-.13s-2.86,0-4.6.13A.63.63,0,0,1,222,113.53Z" transform="translate(-11.42 -7.32)"/><path class="a" d="M240.76,113.53a.94.94,0,0,1-.2-.62c0-.38.11-.61.26-.68a2.06,2.06,0,0,1,.8-.11,2.56,2.56,0,0,0,1.63-.4,1.39,1.39,0,0,0,.55-.93,13.5,13.5,0,0,0,.07-1.68V99a13.5,13.5,0,0,0-.07-1.68,1.39,1.39,0,0,0-.55-.93,2.56,2.56,0,0,0-1.63-.4,1.67,1.67,0,0,1-.8-.15c-.18-.11-.26-.35-.26-.73a.82.82,0,0,1,.17-.51.76.76,0,0,1,.53-.29A22.51,22.51,0,0,0,246,93.16a5.18,5.18,0,0,1,1-.26h.13c.48,0,.71.28.71.84v15.37a11.08,11.08,0,0,0,.09,1.68,1.5,1.5,0,0,0,.57.93,2.6,2.6,0,0,0,1.64.4h.26a.84.84,0,0,1,.53.13.9.9,0,0,1,.22.66,1,1,0,0,1-.17.62.6.6,0,0,1-.53.27c-1.71-.09-3.26-.13-4.64-.13s-2.86,0-4.6.13A.6.6,0,0,1,240.76,113.53Zm2.8-26.31a2.5,2.5,0,0,1-.84-1.92,2.27,2.27,0,0,1,1-1.81,3.62,3.62,0,0,1,2.3-.8,2.36,2.36,0,0,1,1.81.77,2.83,2.83,0,0,1,.7,2,2.34,2.34,0,0,1-.84,1.81,3,3,0,0,1-2.07.75A2.93,2.93,0,0,1,243.56,87.22Z" transform="translate(-11.42 -7.32)"/><path class="a" d="M257.83,112.83a6.27,6.27,0,0,1-1.54-4.55v-13l-2.57.09a.54.54,0,0,1-.44-.24.91.91,0,0,1-.18-.55,1.46,1.46,0,0,1,.16-.69.6.6,0,0,1,.46-.33,5.73,5.73,0,0,0,2.41-1,4.3,4.3,0,0,0,1.26-1.51,21.47,21.47,0,0,0,1-2.49.93.93,0,0,1,1-.58,1.39,1.39,0,0,1,.61.16.49.49,0,0,1,.31.46l-.31,5,5.17-.31h.09c.38,0,.58.28.58.84a2.72,2.72,0,0,1-.16.91c-.1.28-.23.41-.37.41l-4.95-.13V108.8a4.66,4.66,0,0,0,.59,2.44,2.15,2.15,0,0,0,2,1,5.7,5.7,0,0,0,2.43-.49,2.88,2.88,0,0,1,.71-.22.56.56,0,0,1,.48.24,4.06,4.06,0,0,1,.36.64.53.53,0,0,1,0,.23.59.59,0,0,1-.26.39,8.2,8.2,0,0,1-2.41,1.13,11,11,0,0,1-2.68.29A5,5,0,0,1,257.83,112.83Z" transform="translate(-11.42 -7.32)"/><path class="a" d="M272.63,113a3.84,3.84,0,0,1-2.2-3.49,2.83,2.83,0,0,1,.77-2.08,2.66,2.66,0,0,1,2-.79,2.14,2.14,0,0,1,1.26.39c.37.27.55.47.55.62a4.21,4.21,0,0,1-.51.58,2.07,2.07,0,0,0-.51,1.5,2.39,2.39,0,0,0,1.22,2.1,6.62,6.62,0,0,0,3.51.77,5.21,5.21,0,0,0,3.25-.9,3,3,0,0,0,1.17-2.55,2.55,2.55,0,0,0-.66-1.81,4.51,4.51,0,0,0-1.66-1.1q-1-.4-2.76-.93a25.65,25.65,0,0,1-3.54-1.24,6.23,6.23,0,0,1-2.34-1.85,5.07,5.07,0,0,1-1-3.23,4.66,4.66,0,0,1,1.15-3.18,7.06,7.06,0,0,1,3-2,11.32,11.32,0,0,1,3.87-.66,9,9,0,0,1,4.53,1.1,3.43,3.43,0,0,1,1.92,3.1,3,3,0,0,1-.73,2,2.43,2.43,0,0,1-1.92.84,2.08,2.08,0,0,1-1.26-.4c-.37-.26-.55-.47-.55-.62s.11-.14.35-.35a3.77,3.77,0,0,0,.64-.73,1.72,1.72,0,0,0,.29-1,2.28,2.28,0,0,0-1.19-1.86,5,5,0,0,0-2.61-.66,5.56,5.56,0,0,0-2.94.77,2.4,2.4,0,0,0-1.26,2.14,3.31,3.31,0,0,0,.53,2,3.53,3.53,0,0,0,1.59,1.17c.71.3,1.83.69,3.36,1.19a29.24,29.24,0,0,1,3.67,1.4,5.42,5.42,0,0,1,2.1,1.72,4.83,4.83,0,0,1,.77,2.85,5.5,5.5,0,0,1-1.06,3.29,7,7,0,0,1-2.92,2.3,10.25,10.25,0,0,1-4.15.82A11.78,11.78,0,0,1,272.63,113Z" transform="translate(-11.42 -7.32)"/></svg>